%TF.GenerationSoftware,KiCad,Pcbnew,8.0.4-8.0.4-0~ubuntu20.04.1*%
%TF.CreationDate,2024-10-25T22:35:44+02:00*%
%TF.ProjectId,home_auto,686f6d65-5f61-4757-946f-2e6b69636164,rev?*%
%TF.SameCoordinates,Original*%
%TF.FileFunction,Drillmap*%
%TF.FilePolarity,Positive*%
%FSLAX45Y45*%
G04 Gerber Fmt 4.5, Leading zero omitted, Abs format (unit mm)*
G04 Created by KiCad (PCBNEW 8.0.4-8.0.4-0~ubuntu20.04.1) date 2024-10-25 22:35:44*
%MOMM*%
%LPD*%
G01*
G04 APERTURE LIST*
%ADD10C,0.050000*%
%ADD11C,0.200000*%
G04 APERTURE END LIST*
D10*
X7350000Y-8267500D02*
X11030000Y-8267500D01*
X11030000Y-11486500D01*
X7350000Y-11486500D01*
X7350000Y-8267500D01*
D11*
X7608277Y-11800484D02*
X7608277Y-11600484D01*
X7608277Y-11600484D02*
X7655896Y-11600484D01*
X7655896Y-11600484D02*
X7684467Y-11610008D01*
X7684467Y-11610008D02*
X7703515Y-11629055D01*
X7703515Y-11629055D02*
X7713039Y-11648103D01*
X7713039Y-11648103D02*
X7722562Y-11686198D01*
X7722562Y-11686198D02*
X7722562Y-11714769D01*
X7722562Y-11714769D02*
X7713039Y-11752865D01*
X7713039Y-11752865D02*
X7703515Y-11771912D01*
X7703515Y-11771912D02*
X7684467Y-11790960D01*
X7684467Y-11790960D02*
X7655896Y-11800484D01*
X7655896Y-11800484D02*
X7608277Y-11800484D01*
X7808277Y-11800484D02*
X7808277Y-11667150D01*
X7808277Y-11705246D02*
X7817801Y-11686198D01*
X7817801Y-11686198D02*
X7827324Y-11676674D01*
X7827324Y-11676674D02*
X7846372Y-11667150D01*
X7846372Y-11667150D02*
X7865420Y-11667150D01*
X7932086Y-11800484D02*
X7932086Y-11667150D01*
X7932086Y-11600484D02*
X7922562Y-11610008D01*
X7922562Y-11610008D02*
X7932086Y-11619531D01*
X7932086Y-11619531D02*
X7941610Y-11610008D01*
X7941610Y-11610008D02*
X7932086Y-11600484D01*
X7932086Y-11600484D02*
X7932086Y-11619531D01*
X8055896Y-11800484D02*
X8036848Y-11790960D01*
X8036848Y-11790960D02*
X8027324Y-11771912D01*
X8027324Y-11771912D02*
X8027324Y-11600484D01*
X8160658Y-11800484D02*
X8141610Y-11790960D01*
X8141610Y-11790960D02*
X8132086Y-11771912D01*
X8132086Y-11771912D02*
X8132086Y-11600484D01*
X8389229Y-11800484D02*
X8389229Y-11600484D01*
X8389229Y-11600484D02*
X8455896Y-11743341D01*
X8455896Y-11743341D02*
X8522563Y-11600484D01*
X8522563Y-11600484D02*
X8522563Y-11800484D01*
X8703515Y-11800484D02*
X8703515Y-11695722D01*
X8703515Y-11695722D02*
X8693991Y-11676674D01*
X8693991Y-11676674D02*
X8674944Y-11667150D01*
X8674944Y-11667150D02*
X8636848Y-11667150D01*
X8636848Y-11667150D02*
X8617801Y-11676674D01*
X8703515Y-11790960D02*
X8684467Y-11800484D01*
X8684467Y-11800484D02*
X8636848Y-11800484D01*
X8636848Y-11800484D02*
X8617801Y-11790960D01*
X8617801Y-11790960D02*
X8608277Y-11771912D01*
X8608277Y-11771912D02*
X8608277Y-11752865D01*
X8608277Y-11752865D02*
X8617801Y-11733817D01*
X8617801Y-11733817D02*
X8636848Y-11724293D01*
X8636848Y-11724293D02*
X8684467Y-11724293D01*
X8684467Y-11724293D02*
X8703515Y-11714769D01*
X8798753Y-11667150D02*
X8798753Y-11867150D01*
X8798753Y-11676674D02*
X8817801Y-11667150D01*
X8817801Y-11667150D02*
X8855896Y-11667150D01*
X8855896Y-11667150D02*
X8874944Y-11676674D01*
X8874944Y-11676674D02*
X8884467Y-11686198D01*
X8884467Y-11686198D02*
X8893991Y-11705246D01*
X8893991Y-11705246D02*
X8893991Y-11762388D01*
X8893991Y-11762388D02*
X8884467Y-11781436D01*
X8884467Y-11781436D02*
X8874944Y-11790960D01*
X8874944Y-11790960D02*
X8855896Y-11800484D01*
X8855896Y-11800484D02*
X8817801Y-11800484D01*
X8817801Y-11800484D02*
X8798753Y-11790960D01*
X8979705Y-11781436D02*
X8989229Y-11790960D01*
X8989229Y-11790960D02*
X8979705Y-11800484D01*
X8979705Y-11800484D02*
X8970182Y-11790960D01*
X8970182Y-11790960D02*
X8979705Y-11781436D01*
X8979705Y-11781436D02*
X8979705Y-11800484D01*
X8979705Y-11676674D02*
X8989229Y-11686198D01*
X8989229Y-11686198D02*
X8979705Y-11695722D01*
X8979705Y-11695722D02*
X8970182Y-11686198D01*
X8970182Y-11686198D02*
X8979705Y-11676674D01*
X8979705Y-11676674D02*
X8979705Y-11695722D01*
M02*
