M48
; DRILL file {KiCad 8.0.4-8.0.4-0~ubuntu20.04.1} date 2024-10-25T22:35:47+0200
; FORMAT={-:-/ absolute / inch / decimal}
; #@! TF.CreationDate,2024-10-25T22:35:47+02:00
; #@! TF.GenerationSoftware,Kicad,Pcbnew,8.0.4-8.0.4-0~ubuntu20.04.1
; #@! TF.FileFunction,Plated,1,6,PTH
FMAT,2
INCH
; #@! TA.AperFunction,Plated,PTH,ViaDrill
T1C0.0118
; #@! TA.AperFunction,Plated,PTH,ComponentDrill
T2C0.0256
%
G90
G05
T1
X2.9535Y-3.4087
X2.9665Y-3.8685
X2.9752Y-3.4087
X2.9972Y-3.4087
X3.0236Y-4.4437
X3.0256Y-3.8501
X3.0256Y-3.8749
X3.0256Y-3.8996
X3.0335Y-3.3055
X3.0337Y-3.587
X3.0343Y-3.5622
X3.0524Y-3.3051
X3.0527Y-3.8493
X3.0527Y-3.874
X3.0527Y-3.8988
X3.0555Y-4.4437
X3.0585Y-3.587
X3.059Y-3.5626
X3.0622Y-3.6701
X3.0626Y-3.6949
X3.0713Y-3.3059
X3.0874Y-4.4437
X3.0882Y-3.6697
X3.0882Y-3.6953
X3.0961Y-3.9635
X3.0961Y-3.9883
X3.0961Y-4.013
X3.0961Y-4.0375
X3.0961Y-4.0622
X3.1193Y-4.4437
X3.1335Y-3.7614
X3.1594Y-3.7602
X3.1933Y-4.2469
X3.2091Y-4.2689
X3.2091Y-4.3083
X3.2161Y-4.2469
X3.2295Y-3.4657
X3.2295Y-3.4905
X3.2295Y-3.5152
X3.2319Y-3.3194
X3.2319Y-3.3442
X3.2319Y-3.3689
X3.2481Y-3.7201
X3.2484Y-3.5602
X3.2484Y-4.3083
X3.2539Y-3.8055
X3.2573Y-3.4652
X3.2573Y-3.49
X3.2573Y-3.5147
X3.2597Y-3.3189
X3.2597Y-3.3436
X3.2597Y-3.3684
X3.2628Y-3.774
X3.272Y-3.5984
X3.287Y-3.7382
X3.2871Y-3.6794
X3.2875Y-3.7744
X3.289Y-3.9037
X3.2894Y-4.0126
X3.2902Y-3.9402
X3.2902Y-3.8301
X3.2906Y-4.0858
X3.2909Y-4.0496
X3.2913Y-3.8675
X3.2917Y-3.9764
X3.2923Y-4.1516
X3.2933Y-4.1223
X3.3061Y-4.4823
X3.3223Y-3.9752
X3.3236Y-3.939
X3.3243Y-4.0114
X3.3252Y-3.7744
X3.3256Y-3.8303
X3.3263Y-3.7277
X3.3264Y-3.9028
X3.3268Y-4.0476
X3.3268Y-4.4675
X3.3279Y-3.8665
X3.3465Y-4.4833
X3.3474Y-4.0977
X3.3494Y-3.6368
X3.3553Y-4.1437
X3.3642Y-3.3051
X3.3652Y-4.4665
X3.3848Y-3.2894
X3.3848Y-3.628
X3.3858Y-4.4833
X3.3871Y-4.1056
X3.4004Y-4.0287
X3.4008Y-3.8087
X3.4045Y-4.4665
X3.4064Y-4.147
X3.4065Y-3.3051
X3.4149Y-3.5983
X3.4163Y-4.1791
X3.4216Y-3.6266
X3.423Y-4.483
X3.4252Y-3.2894
X3.4321Y-3.7136
X3.4323Y-3.7455
X3.4323Y-3.8083
X3.4323Y-3.8402
X3.4323Y-3.9343
X3.4323Y-4.0287
X3.4439Y-3.3075
X3.4439Y-4.4685
X3.4577Y-3.5886
X3.4596Y-4.1535
X3.4627Y-3.6154
X3.463Y-3.5299
X3.4636Y-3.6506
X3.4637Y-4.4833
X3.4638Y-3.7453
X3.4638Y-3.8083
X3.4638Y-3.8398
X3.4638Y-3.9343
X3.4638Y-4.0291
X3.4638Y-4.1234
X3.4646Y-4.1929
X3.4795Y-3.6984
X3.4823Y-3.2913
X3.4833Y-4.4675
X3.4879Y-4.1596
X3.4921Y-3.626
X3.4941Y-3.5991
X3.4953Y-4.0291
X3.5012Y-4.485
X3.503Y-3.3051
X3.5079Y-4.1787
X3.5091Y-3.5758
X3.5217Y-3.2894
X3.5226Y-4.4675
X3.5268Y-4.0291
X3.5268Y-4.0606
X3.5278Y-3.6377
X3.5308Y-3.6102
X3.5315Y-4.1539
X3.5349Y-4.1851
X3.5409Y-3.3051
X3.5423Y-4.4833
X3.5425Y-3.6984
X3.5581Y-4.123
X3.5583Y-3.7457
X3.5583Y-3.7772
X3.5583Y-3.9028
X3.5583Y-3.9343
X3.5583Y-4.0291
X3.5583Y-4.0602
X3.562Y-3.2894
X3.562Y-3.5827
X3.562Y-4.4665
X3.5797Y-4.4843
X3.5817Y-3.3051
X3.5833Y-3.626
X3.5846Y-4.1772
X3.5854Y-4.1508
X3.5898Y-3.8398
X3.5898Y-3.8717
X3.5898Y-3.9031
X3.5898Y-3.9343
X3.5949Y-3.6033
X3.5993Y-3.5738
X3.6014Y-4.4665
X3.6024Y-3.2894
X3.6191Y-4.4843
X3.6211Y-3.3051
X3.6213Y-3.9028
X3.6244Y-3.5702
X3.6248Y-4.1761
X3.6268Y-4.1512
X3.6395Y-3.2894
X3.6417Y-4.4675
X3.6431Y-3.589
X3.6524Y-3.8398
X3.6526Y-3.615
X3.6528Y-3.7455
X3.6528Y-3.7768
X3.6528Y-3.9972
X3.6528Y-4.0291
X3.6528Y-4.0606
X3.6531Y-3.8083
X3.6594Y-3.3051
X3.6604Y-4.4843
X3.6614Y-4.1781
X3.6624Y-4.1526
X3.6681Y-3.6988
X3.6801Y-4.4685
X3.6803Y-3.5897
X3.6843Y-4.0291
X3.6911Y-4.1831
X3.6939Y-3.6144
X3.6988Y-4.1565
X3.6988Y-4.4872
X3.7001Y-3.2894
X3.7008Y-3.5433
X3.7077Y-3.5925
X3.7157Y-4.0287
X3.7193Y-4.4665
X3.7205Y-3.3051
X3.7283Y-4.1978
X3.7309Y-3.6158
X3.7323Y-3.5886
X3.7323Y-4.1732
X3.7327Y-3.6996
X3.7382Y-4.4827
X3.7402Y-3.2894
X3.7455Y-4.144
X3.7472Y-3.7457
X3.7472Y-3.8087
X3.7472Y-3.9343
X3.7472Y-4.0287
X3.7472Y-4.0606
X3.7589Y-3.3051
X3.7594Y-4.4669
X3.7677Y-3.61
X3.7755Y-4.4858
X3.7776Y-3.2894
X3.7787Y-3.777
X3.7787Y-3.8087
X3.7787Y-3.8402
X3.7787Y-3.9343
X3.787Y-4.1791
X3.794Y-3.6086
X3.798Y-4.4673
X3.7982Y-3.3051
X3.8102Y-3.8087
X3.8102Y-3.8398
X3.8165Y-4.4839
X3.8179Y-3.2894
X3.8197Y-3.6205
X3.8417Y-4.1234
X3.8449Y-3.6169
X3.8589Y-3.6374
X3.8705Y-3.8213
X3.872Y-3.6827
X3.8727Y-3.6161
X3.8776Y-4.0539
X3.8803Y-3.9413
X3.8811Y-4.0161
X3.8813Y-3.9781
X3.8839Y-4.1031
X3.8846Y-4.2028
X3.887Y-4.2827
X3.887Y-4.3118
X3.887Y-4.3409
X3.887Y-4.3701
X3.887Y-4.3992
X3.887Y-4.4283
X3.8907Y-3.714
X3.8909Y-3.7495
X3.8909Y-3.3374
X3.8909Y-3.3665
X3.8909Y-3.3957
X3.8909Y-3.4248
X3.8909Y-3.4539
X3.8909Y-3.4831
X3.8925Y-4.0744
X3.8969Y-3.6273
X3.9047Y-3.9598
X3.9063Y-3.802
X3.9065Y-3.6506
X3.9069Y-3.9245
X3.9114Y-4.0366
X3.9134Y-4.0
X3.9177Y-3.324
X3.9177Y-3.3634
X3.9177Y-3.4028
X3.9177Y-3.4421
X3.9194Y-3.781
X3.9232Y-3.6732
X3.9361Y-3.7627
X3.939Y-3.7352
X3.9441Y-4.3437
X3.9449Y-4.3681
X3.9516Y-3.5413
X3.9571Y-3.324
X3.9571Y-3.3634
X3.9571Y-3.4028
X3.9587Y-3.8898
X3.9661Y-4.1142
X3.9747Y-3.7609
X3.9815Y-3.7364
X3.988Y-3.7125
X3.9965Y-3.324
X3.9965Y-3.3634
X3.9965Y-3.4028
X3.9965Y-3.4421
X4.0358Y-3.324
X4.0358Y-3.3634
X4.0358Y-3.4028
X4.0358Y-3.4421
X4.0358Y-3.4815
X4.0752Y-3.324
X4.0752Y-3.3634
X4.0752Y-3.4028
X4.0752Y-3.4421
X4.0752Y-3.4815
X4.0752Y-3.5209
X4.0965Y-3.9571
X4.0965Y-3.9809
X4.0965Y-4.0047
X4.0965Y-4.0285
X4.0965Y-4.0524
X4.1146Y-3.324
X4.1146Y-3.3634
X4.1146Y-3.4028
X4.1146Y-3.4421
X4.1146Y-3.4815
X4.1146Y-3.5209
X4.1146Y-4.2689
X4.1329Y-3.9571
X4.1329Y-3.9809
X4.1329Y-4.0047
X4.1329Y-4.0285
X4.1329Y-4.0524
X4.1539Y-3.324
X4.1539Y-3.3634
X4.1539Y-3.4028
X4.1539Y-3.4421
X4.1539Y-3.4815
X4.1539Y-3.5209
X4.1563Y-4.3681
X4.1567Y-4.3437
X4.1693Y-3.9571
X4.1693Y-3.9809
X4.1693Y-4.0047
X4.1693Y-4.0285
X4.1693Y-4.0524
X4.1732Y-4.1663
X4.1795Y-4.3681
X4.1799Y-4.3437
X4.1843Y-3.6343
X4.1933Y-3.324
X4.1933Y-3.3634
X4.1933Y-3.4028
X4.1933Y-3.4421
X4.1933Y-3.4815
X4.1933Y-3.5209
X4.2028Y-4.3681
X4.2031Y-4.3437
X4.2057Y-3.9571
X4.2057Y-3.9809
X4.2057Y-4.0047
X4.2057Y-4.0285
X4.2057Y-4.0524
X4.2313Y-4.1087
X4.2421Y-3.9571
X4.2421Y-3.9809
X4.2421Y-4.0047
X4.2421Y-4.0285
X4.2421Y-4.0524
X4.2461Y-3.8504
X4.2831Y-3.998
X4.2831Y-4.0272
X4.2831Y-4.0528
X4.2831Y-4.2142
X4.2831Y-4.2362
T2
X4.0413Y-3.7264
X4.0413Y-3.7764
X4.0413Y-3.8264
X4.0413Y-3.8764
X4.0413Y-3.9264
X4.0413Y-3.9764
X4.0413Y-4.0264
X4.0413Y-4.0764
M30
