%TF.GenerationSoftware,KiCad,Pcbnew,8.0.4-8.0.4-0~ubuntu20.04.1*%
%TF.CreationDate,2024-10-25T22:35:44+02:00*%
%TF.ProjectId,home_auto,686f6d65-5f61-4757-946f-2e6b69636164,rev?*%
%TF.SameCoordinates,Original*%
%TF.FileFunction,Drillmap*%
%TF.FilePolarity,Positive*%
%FSLAX45Y45*%
G04 Gerber Fmt 4.5, Leading zero omitted, Abs format (unit mm)*
G04 Created by KiCad (PCBNEW 8.0.4-8.0.4-0~ubuntu20.04.1) date 2024-10-25 22:35:44*
%MOMM*%
%LPD*%
G01*
G04 APERTURE LIST*
%ADD10C,0.050000*%
%ADD11C,0.200000*%
%ADD12C,0.100000*%
G04 APERTURE END LIST*
D10*
X7350000Y-8267500D02*
X11030000Y-8267500D01*
X11030000Y-11486500D01*
X7350000Y-11486500D01*
X7350000Y-8267500D01*
D11*
D12*
X7487000Y-8643000D02*
X7517000Y-8673000D01*
X7517000Y-8643000D02*
X7487000Y-8673000D01*
X7520000Y-9811000D02*
X7550000Y-9841000D01*
X7550000Y-9811000D02*
X7520000Y-9841000D01*
X7542000Y-8643000D02*
X7572000Y-8673000D01*
X7572000Y-8643000D02*
X7542000Y-8673000D01*
X7598000Y-8643000D02*
X7628000Y-8673000D01*
X7628000Y-8643000D02*
X7598000Y-8673000D01*
X7665000Y-11272000D02*
X7695000Y-11302000D01*
X7695000Y-11272000D02*
X7665000Y-11302000D01*
X7670000Y-9764324D02*
X7700000Y-9794324D01*
X7700000Y-9764324D02*
X7670000Y-9794324D01*
X7670000Y-9827162D02*
X7700000Y-9857162D01*
X7700000Y-9827162D02*
X7670000Y-9857162D01*
X7670000Y-9890000D02*
X7700000Y-9920000D01*
X7700000Y-9890000D02*
X7670000Y-9920000D01*
X7690000Y-8381000D02*
X7720000Y-8411000D01*
X7720000Y-8381000D02*
X7690000Y-8411000D01*
X7690633Y-9095885D02*
X7720633Y-9125885D01*
X7720633Y-9095885D02*
X7690633Y-9125885D01*
X7692000Y-9033000D02*
X7722000Y-9063000D01*
X7722000Y-9033000D02*
X7692000Y-9063000D01*
X7738000Y-8380000D02*
X7768000Y-8410000D01*
X7768000Y-8380000D02*
X7738000Y-8410000D01*
X7738793Y-9762162D02*
X7768793Y-9792162D01*
X7768793Y-9762162D02*
X7738793Y-9792162D01*
X7738793Y-9825000D02*
X7768793Y-9855000D01*
X7768793Y-9825000D02*
X7738793Y-9855000D01*
X7738793Y-9887838D02*
X7768793Y-9917838D01*
X7768793Y-9887838D02*
X7738793Y-9917838D01*
X7746000Y-11272000D02*
X7776000Y-11302000D01*
X7776000Y-11272000D02*
X7746000Y-11302000D01*
X7753533Y-9096018D02*
X7783533Y-9126018D01*
X7783533Y-9096018D02*
X7753533Y-9126018D01*
X7754894Y-9033887D02*
X7784894Y-9063887D01*
X7784894Y-9033887D02*
X7754894Y-9063887D01*
X7763000Y-9307000D02*
X7793000Y-9337000D01*
X7793000Y-9307000D02*
X7763000Y-9337000D01*
X7764000Y-9370000D02*
X7794000Y-9400000D01*
X7794000Y-9370000D02*
X7764000Y-9400000D01*
X7786000Y-8382000D02*
X7816000Y-8412000D01*
X7816000Y-8382000D02*
X7786000Y-8412000D01*
X7827000Y-11272000D02*
X7857000Y-11302000D01*
X7857000Y-11272000D02*
X7827000Y-11302000D01*
X7829000Y-9306000D02*
X7859000Y-9336000D01*
X7859000Y-9306000D02*
X7829000Y-9336000D01*
X7829000Y-9371000D02*
X7859000Y-9401000D01*
X7859000Y-9371000D02*
X7829000Y-9401000D01*
X7849000Y-10052356D02*
X7879000Y-10082356D01*
X7879000Y-10052356D02*
X7849000Y-10082356D01*
X7849000Y-10115244D02*
X7879000Y-10145244D01*
X7879000Y-10115244D02*
X7849000Y-10145244D01*
X7849000Y-10178000D02*
X7879000Y-10208000D01*
X7879000Y-10178000D02*
X7849000Y-10208000D01*
X7849000Y-10240180D02*
X7879000Y-10270180D01*
X7879000Y-10240180D02*
X7849000Y-10270180D01*
X7849000Y-10303067D02*
X7879000Y-10333067D01*
X7879000Y-10303067D02*
X7849000Y-10333067D01*
X7908000Y-11272000D02*
X7938000Y-11302000D01*
X7938000Y-11272000D02*
X7908000Y-11302000D01*
X7944000Y-9539000D02*
X7974000Y-9569000D01*
X7974000Y-9539000D02*
X7944000Y-9569000D01*
X8010000Y-9536000D02*
X8040000Y-9566000D01*
X8040000Y-9536000D02*
X8010000Y-9566000D01*
X8096000Y-10772000D02*
X8126000Y-10802000D01*
X8126000Y-10772000D02*
X8096000Y-10802000D01*
X8136000Y-10828000D02*
X8166000Y-10858000D01*
X8166000Y-10828000D02*
X8136000Y-10858000D01*
X8136000Y-10928000D02*
X8166000Y-10958000D01*
X8166000Y-10928000D02*
X8136000Y-10958000D01*
X8154000Y-10772000D02*
X8184000Y-10802000D01*
X8184000Y-10772000D02*
X8154000Y-10802000D01*
X8188000Y-8788000D02*
X8218000Y-8818000D01*
X8218000Y-8788000D02*
X8188000Y-8818000D01*
X8188000Y-8850848D02*
X8218000Y-8880848D01*
X8218000Y-8850848D02*
X8188000Y-8880848D01*
X8188000Y-8913674D02*
X8218000Y-8943674D01*
X8218000Y-8913674D02*
X8188000Y-8943674D01*
X8194000Y-8416326D02*
X8224000Y-8446326D01*
X8224000Y-8416326D02*
X8194000Y-8446326D01*
X8194000Y-8479174D02*
X8224000Y-8509174D01*
X8224000Y-8479174D02*
X8194000Y-8509174D01*
X8194000Y-8542000D02*
X8224000Y-8572000D01*
X8224000Y-8542000D02*
X8194000Y-8572000D01*
X8235100Y-9434000D02*
X8265100Y-9464000D01*
X8265100Y-9434000D02*
X8235100Y-9464000D01*
X8236000Y-9028000D02*
X8266000Y-9058000D01*
X8266000Y-9028000D02*
X8236000Y-9058000D01*
X8236000Y-10928000D02*
X8266000Y-10958000D01*
X8266000Y-10928000D02*
X8236000Y-10958000D01*
X8250000Y-9651000D02*
X8280000Y-9681000D01*
X8280000Y-9651000D02*
X8250000Y-9681000D01*
X8258615Y-8786674D02*
X8288615Y-8816674D01*
X8288615Y-8786674D02*
X8258615Y-8816674D01*
X8258615Y-8849522D02*
X8288615Y-8879522D01*
X8288615Y-8849522D02*
X8258615Y-8879522D01*
X8258615Y-8912349D02*
X8288615Y-8942349D01*
X8288615Y-8912349D02*
X8258615Y-8942349D01*
X8264615Y-8415000D02*
X8294615Y-8445000D01*
X8294615Y-8415000D02*
X8264615Y-8445000D01*
X8264615Y-8477848D02*
X8294615Y-8507848D01*
X8294615Y-8477848D02*
X8264615Y-8507848D01*
X8264615Y-8540674D02*
X8294615Y-8570674D01*
X8294615Y-8540674D02*
X8264615Y-8570674D01*
X8272386Y-9570841D02*
X8302386Y-9600841D01*
X8302386Y-9570841D02*
X8272386Y-9600841D01*
X8296000Y-9125000D02*
X8326000Y-9155000D01*
X8326000Y-9125000D02*
X8296000Y-9155000D01*
X8334000Y-9480000D02*
X8364000Y-9510000D01*
X8364000Y-9480000D02*
X8334000Y-9510000D01*
X8334241Y-9330740D02*
X8364241Y-9360740D01*
X8364241Y-9330740D02*
X8334241Y-9360740D01*
X8335275Y-9572000D02*
X8365275Y-9602000D01*
X8365275Y-9572000D02*
X8335275Y-9602000D01*
X8339000Y-9900500D02*
X8369000Y-9930500D01*
X8369000Y-9900500D02*
X8339000Y-9930500D01*
X8340000Y-10177000D02*
X8370000Y-10207000D01*
X8370000Y-10177000D02*
X8340000Y-10207000D01*
X8342000Y-9993000D02*
X8372000Y-10023000D01*
X8372000Y-9993000D02*
X8342000Y-10023000D01*
X8342126Y-9713445D02*
X8372126Y-9743445D01*
X8372126Y-9713445D02*
X8342126Y-9743445D01*
X8343000Y-10363000D02*
X8373000Y-10393000D01*
X8373000Y-10363000D02*
X8343000Y-10393000D01*
X8344000Y-10271000D02*
X8374000Y-10301000D01*
X8374000Y-10271000D02*
X8344000Y-10301000D01*
X8344940Y-9808500D02*
X8374940Y-9838500D01*
X8374940Y-9808500D02*
X8344940Y-9838500D01*
X8346000Y-10085000D02*
X8376000Y-10115000D01*
X8376000Y-10085000D02*
X8346000Y-10115000D01*
X8347500Y-10530000D02*
X8377500Y-10560000D01*
X8377500Y-10530000D02*
X8347500Y-10560000D01*
X8350000Y-10455527D02*
X8380000Y-10485527D01*
X8380000Y-10455527D02*
X8350000Y-10485527D01*
X8382500Y-11370000D02*
X8412500Y-11400000D01*
X8412500Y-11370000D02*
X8382500Y-11400000D01*
X8423750Y-10082000D02*
X8453750Y-10112000D01*
X8453750Y-10082000D02*
X8423750Y-10112000D01*
X8426946Y-9990000D02*
X8456946Y-10020000D01*
X8456946Y-9990000D02*
X8426946Y-10020000D01*
X8428823Y-10174000D02*
X8458823Y-10204000D01*
X8458823Y-10174000D02*
X8428823Y-10204000D01*
X8431000Y-9572000D02*
X8461000Y-9602000D01*
X8461000Y-9572000D02*
X8431000Y-9602000D01*
X8432000Y-9714000D02*
X8462000Y-9744000D01*
X8462000Y-9714000D02*
X8432000Y-9744000D01*
X8433830Y-9453278D02*
X8463830Y-9483278D01*
X8463830Y-9453278D02*
X8433830Y-9483278D01*
X8434000Y-9898000D02*
X8464000Y-9928000D01*
X8464000Y-9898000D02*
X8434000Y-9928000D01*
X8435000Y-10266000D02*
X8465000Y-10296000D01*
X8465000Y-10266000D02*
X8435000Y-10296000D01*
X8435000Y-11332500D02*
X8465000Y-11362500D01*
X8465000Y-11332500D02*
X8435000Y-11362500D01*
X8437928Y-9806000D02*
X8467928Y-9836000D01*
X8467928Y-9806000D02*
X8437928Y-9836000D01*
X8485000Y-11372500D02*
X8515000Y-11402500D01*
X8515000Y-11372500D02*
X8485000Y-11402500D01*
X8487400Y-10393054D02*
X8517400Y-10423054D01*
X8517400Y-10393054D02*
X8487400Y-10423054D01*
X8492500Y-9222500D02*
X8522500Y-9252500D01*
X8522500Y-9222500D02*
X8492500Y-9252500D01*
X8507500Y-10510000D02*
X8537500Y-10540000D01*
X8537500Y-10510000D02*
X8507500Y-10540000D01*
X8530000Y-8380000D02*
X8560000Y-8410000D01*
X8560000Y-8380000D02*
X8530000Y-8410000D01*
X8532500Y-11330000D02*
X8562500Y-11360000D01*
X8562500Y-11330000D02*
X8532500Y-11360000D01*
X8582500Y-8340000D02*
X8612500Y-8370000D01*
X8612500Y-8340000D02*
X8582500Y-8370000D01*
X8582500Y-9200000D02*
X8612500Y-9230000D01*
X8612500Y-9200000D02*
X8582500Y-9230000D01*
X8585000Y-11372500D02*
X8615000Y-11402500D01*
X8615000Y-11372500D02*
X8585000Y-11402500D01*
X8588250Y-10413251D02*
X8618250Y-10443251D01*
X8618250Y-10413251D02*
X8588250Y-10443251D01*
X8622000Y-10218000D02*
X8652000Y-10248000D01*
X8652000Y-10218000D02*
X8622000Y-10248000D01*
X8623000Y-9659000D02*
X8653000Y-9689000D01*
X8653000Y-9659000D02*
X8623000Y-9689000D01*
X8632500Y-11330000D02*
X8662500Y-11360000D01*
X8662500Y-11330000D02*
X8632500Y-11360000D01*
X8637356Y-10518357D02*
X8667356Y-10548357D01*
X8667356Y-10518357D02*
X8637356Y-10548357D01*
X8637500Y-8380000D02*
X8667500Y-8410000D01*
X8667500Y-8380000D02*
X8637500Y-8410000D01*
X8658824Y-9124719D02*
X8688824Y-9154719D01*
X8688824Y-9124719D02*
X8658824Y-9154719D01*
X8662500Y-10600000D02*
X8692500Y-10630000D01*
X8692500Y-10600000D02*
X8662500Y-10630000D01*
X8675867Y-9196527D02*
X8705867Y-9226527D01*
X8705867Y-9196527D02*
X8675867Y-9226527D01*
X8679512Y-11371789D02*
X8709512Y-11401789D01*
X8709512Y-11371789D02*
X8679512Y-11401789D01*
X8685000Y-8340000D02*
X8715000Y-8370000D01*
X8715000Y-8340000D02*
X8685000Y-8370000D01*
X8702500Y-9417500D02*
X8732500Y-9447500D01*
X8732500Y-9417500D02*
X8702500Y-9447500D01*
X8703000Y-9498500D02*
X8733000Y-9528500D01*
X8733000Y-9498500D02*
X8703000Y-9528500D01*
X8703000Y-9658000D02*
X8733000Y-9688000D01*
X8733000Y-9658000D02*
X8703000Y-9688000D01*
X8703000Y-9739000D02*
X8733000Y-9769000D01*
X8733000Y-9739000D02*
X8703000Y-9769000D01*
X8703000Y-9978000D02*
X8733000Y-10008000D01*
X8733000Y-9978000D02*
X8703000Y-10008000D01*
X8703000Y-10218000D02*
X8733000Y-10248000D01*
X8733000Y-10218000D02*
X8703000Y-10248000D01*
X8732500Y-8386000D02*
X8762500Y-8416000D01*
X8762500Y-8386000D02*
X8732500Y-8416000D01*
X8732500Y-11335000D02*
X8762500Y-11365000D01*
X8762500Y-11335000D02*
X8732500Y-11365000D01*
X8767500Y-9100000D02*
X8797500Y-9130000D01*
X8797500Y-9100000D02*
X8767500Y-9130000D01*
X8772500Y-10535000D02*
X8802500Y-10565000D01*
X8802500Y-10535000D02*
X8772500Y-10565000D01*
X8780222Y-9168002D02*
X8810222Y-9198002D01*
X8810222Y-9168002D02*
X8780222Y-9198002D01*
X8781000Y-8951000D02*
X8811000Y-8981000D01*
X8811000Y-8951000D02*
X8781000Y-8981000D01*
X8782500Y-9257500D02*
X8812500Y-9287500D01*
X8812500Y-9257500D02*
X8782500Y-9287500D01*
X8782881Y-11372659D02*
X8812881Y-11402659D01*
X8812881Y-11372659D02*
X8782881Y-11402659D01*
X8783000Y-9498000D02*
X8813000Y-9528000D01*
X8813000Y-9498000D02*
X8783000Y-9528000D01*
X8783000Y-9658000D02*
X8813000Y-9688000D01*
X8813000Y-9658000D02*
X8783000Y-9688000D01*
X8783000Y-9738000D02*
X8813000Y-9768000D01*
X8813000Y-9738000D02*
X8783000Y-9768000D01*
X8783000Y-9978000D02*
X8813000Y-10008000D01*
X8813000Y-9978000D02*
X8783000Y-10008000D01*
X8783000Y-10219000D02*
X8813000Y-10249000D01*
X8813000Y-10219000D02*
X8783000Y-10249000D01*
X8783001Y-10458502D02*
X8813001Y-10488502D01*
X8813001Y-10458502D02*
X8783001Y-10488502D01*
X8785000Y-10635000D02*
X8815000Y-10665000D01*
X8815000Y-10635000D02*
X8785000Y-10665000D01*
X8823000Y-9379000D02*
X8853000Y-9409000D01*
X8853000Y-9379000D02*
X8823000Y-9409000D01*
X8830000Y-8345000D02*
X8860000Y-8375000D01*
X8860000Y-8345000D02*
X8830000Y-8375000D01*
X8832501Y-11332500D02*
X8862501Y-11362500D01*
X8862501Y-11332500D02*
X8832501Y-11362500D01*
X8844247Y-10550316D02*
X8874247Y-10580316D01*
X8874247Y-10550316D02*
X8844247Y-10580316D01*
X8855000Y-9195000D02*
X8885000Y-9225000D01*
X8885000Y-9195000D02*
X8855000Y-9225000D01*
X8859900Y-9126698D02*
X8889900Y-9156698D01*
X8889900Y-9126698D02*
X8859900Y-9156698D01*
X8863000Y-10219000D02*
X8893000Y-10249000D01*
X8893000Y-10219000D02*
X8863000Y-10249000D01*
X8878000Y-11377000D02*
X8908000Y-11407000D01*
X8908000Y-11377000D02*
X8878000Y-11407000D01*
X8882500Y-8380000D02*
X8912500Y-8410000D01*
X8912500Y-8380000D02*
X8882500Y-8410000D01*
X8895130Y-10598970D02*
X8925130Y-10628970D01*
X8925130Y-10598970D02*
X8895130Y-10628970D01*
X8898042Y-9067525D02*
X8928042Y-9097525D01*
X8928042Y-9067525D02*
X8898042Y-9097525D01*
X8930000Y-8340000D02*
X8960000Y-8370000D01*
X8960000Y-8340000D02*
X8930000Y-8370000D01*
X8932500Y-11332500D02*
X8962500Y-11362500D01*
X8962500Y-11332500D02*
X8932500Y-11362500D01*
X8943000Y-10219000D02*
X8973000Y-10249000D01*
X8973000Y-10219000D02*
X8943000Y-10249000D01*
X8943000Y-10299000D02*
X8973000Y-10329000D01*
X8973000Y-10299000D02*
X8943000Y-10329000D01*
X8945529Y-9224830D02*
X8975529Y-9254830D01*
X8975529Y-9224830D02*
X8945529Y-9254830D01*
X8953345Y-9154865D02*
X8983345Y-9184865D01*
X8983345Y-9154865D02*
X8953345Y-9184865D01*
X8955093Y-10535802D02*
X8985093Y-10565802D01*
X8985093Y-10535802D02*
X8955093Y-10565802D01*
X8963626Y-10615231D02*
X8993626Y-10645231D01*
X8993626Y-10615231D02*
X8963626Y-10645231D01*
X8978828Y-8380000D02*
X9008828Y-8410000D01*
X9008828Y-8380000D02*
X8978828Y-8410000D01*
X8982500Y-11372500D02*
X9012500Y-11402500D01*
X9012500Y-11372500D02*
X8982500Y-11402500D01*
X8983000Y-9379000D02*
X9013000Y-9409000D01*
X9013000Y-9379000D02*
X8983000Y-9409000D01*
X9022500Y-10457500D02*
X9052500Y-10487500D01*
X9052500Y-10457500D02*
X9022500Y-10487500D01*
X9023000Y-9499000D02*
X9053000Y-9529000D01*
X9053000Y-9499000D02*
X9023000Y-9529000D01*
X9023000Y-9579000D02*
X9053000Y-9609000D01*
X9053000Y-9579000D02*
X9023000Y-9609000D01*
X9023000Y-9898000D02*
X9053000Y-9928000D01*
X9053000Y-9898000D02*
X9023000Y-9928000D01*
X9023000Y-9978000D02*
X9053000Y-10008000D01*
X9053000Y-9978000D02*
X9023000Y-10008000D01*
X9023000Y-10219000D02*
X9053000Y-10249000D01*
X9053000Y-10219000D02*
X9023000Y-10249000D01*
X9023000Y-10298000D02*
X9053000Y-10328000D01*
X9053000Y-10298000D02*
X9023000Y-10328000D01*
X9032500Y-8340000D02*
X9062500Y-8370000D01*
X9062500Y-8340000D02*
X9032500Y-8370000D01*
X9032500Y-9085000D02*
X9062500Y-9115000D01*
X9062500Y-9085000D02*
X9032500Y-9115000D01*
X9032500Y-11330000D02*
X9062500Y-11360000D01*
X9062500Y-11330000D02*
X9032500Y-11360000D01*
X9077500Y-11375000D02*
X9107500Y-11405000D01*
X9107500Y-11375000D02*
X9077500Y-11405000D01*
X9082500Y-8380000D02*
X9112500Y-8410000D01*
X9112500Y-8380000D02*
X9082500Y-8410000D01*
X9086479Y-9195063D02*
X9116479Y-9225063D01*
X9116479Y-9195063D02*
X9086479Y-9225063D01*
X9090000Y-10595000D02*
X9120000Y-10625000D01*
X9120000Y-10595000D02*
X9090000Y-10625000D01*
X9091800Y-10528133D02*
X9121800Y-10558133D01*
X9121800Y-10528133D02*
X9091800Y-10558133D01*
X9103000Y-9738000D02*
X9133000Y-9768000D01*
X9133000Y-9738000D02*
X9103000Y-9768000D01*
X9103000Y-9819000D02*
X9133000Y-9849000D01*
X9133000Y-9819000D02*
X9103000Y-9849000D01*
X9103000Y-9899000D02*
X9133000Y-9929000D01*
X9133000Y-9899000D02*
X9103000Y-9929000D01*
X9103000Y-9978000D02*
X9133000Y-10008000D01*
X9133000Y-9978000D02*
X9103000Y-10008000D01*
X9116074Y-9137386D02*
X9146074Y-9167386D01*
X9146074Y-9137386D02*
X9116074Y-9167386D01*
X9127186Y-9062346D02*
X9157186Y-9092346D01*
X9157186Y-9062346D02*
X9127186Y-9092346D01*
X9132500Y-11330000D02*
X9162500Y-11360000D01*
X9162500Y-11330000D02*
X9132500Y-11360000D01*
X9135000Y-8340000D02*
X9165000Y-8370000D01*
X9165000Y-8340000D02*
X9135000Y-8370000D01*
X9177500Y-11375000D02*
X9207500Y-11405000D01*
X9207500Y-11375000D02*
X9177500Y-11405000D01*
X9182500Y-8380000D02*
X9212500Y-8410000D01*
X9212500Y-8380000D02*
X9182500Y-8410000D01*
X9183000Y-9898000D02*
X9213000Y-9928000D01*
X9213000Y-9898000D02*
X9183000Y-9928000D01*
X9191037Y-9053209D02*
X9221037Y-9083209D01*
X9221037Y-9053209D02*
X9191037Y-9083209D01*
X9192031Y-10592268D02*
X9222031Y-10622268D01*
X9222031Y-10592268D02*
X9192031Y-10622268D01*
X9197091Y-10529084D02*
X9227091Y-10559084D01*
X9227091Y-10529084D02*
X9197091Y-10559084D01*
X9229277Y-8340000D02*
X9259277Y-8370000D01*
X9259277Y-8340000D02*
X9229277Y-8370000D01*
X9235000Y-11332500D02*
X9265000Y-11362500D01*
X9265000Y-11332500D02*
X9235000Y-11362500D01*
X9238478Y-9101101D02*
X9268478Y-9131101D01*
X9268478Y-9101101D02*
X9238478Y-9131101D01*
X9262000Y-9738000D02*
X9292000Y-9768000D01*
X9292000Y-9738000D02*
X9262000Y-9768000D01*
X9262703Y-9167202D02*
X9292703Y-9197202D01*
X9292703Y-9167202D02*
X9262703Y-9197202D01*
X9263000Y-9498500D02*
X9293000Y-9528500D01*
X9293000Y-9498500D02*
X9263000Y-9528500D01*
X9263000Y-9578000D02*
X9293000Y-9608000D01*
X9293000Y-9578000D02*
X9263000Y-9608000D01*
X9263000Y-10138000D02*
X9293000Y-10168000D01*
X9293000Y-10138000D02*
X9263000Y-10168000D01*
X9263000Y-10219000D02*
X9293000Y-10249000D01*
X9293000Y-10219000D02*
X9263000Y-10249000D01*
X9263000Y-10299000D02*
X9293000Y-10329000D01*
X9293000Y-10299000D02*
X9263000Y-10329000D01*
X9264000Y-9658000D02*
X9294000Y-9688000D01*
X9294000Y-9658000D02*
X9264000Y-9688000D01*
X9280000Y-8380000D02*
X9310000Y-8410000D01*
X9310000Y-8380000D02*
X9280000Y-8410000D01*
X9282500Y-11375000D02*
X9312500Y-11405000D01*
X9312500Y-11375000D02*
X9282500Y-11405000D01*
X9285000Y-10597500D02*
X9315000Y-10627500D01*
X9315000Y-10597500D02*
X9285000Y-10627500D01*
X9287500Y-10532500D02*
X9317500Y-10562500D01*
X9317500Y-10532500D02*
X9287500Y-10562500D01*
X9302000Y-9380000D02*
X9332000Y-9410000D01*
X9332000Y-9380000D02*
X9302000Y-9410000D01*
X9332500Y-11335000D02*
X9362500Y-11365000D01*
X9362500Y-11335000D02*
X9332500Y-11365000D01*
X9332989Y-9102824D02*
X9362989Y-9132824D01*
X9362989Y-9102824D02*
X9332989Y-9132824D01*
X9343000Y-10219000D02*
X9373000Y-10249000D01*
X9373000Y-10219000D02*
X9343000Y-10249000D01*
X9360288Y-10610084D02*
X9390288Y-10640084D01*
X9390288Y-10610084D02*
X9360288Y-10640084D01*
X9367503Y-9165595D02*
X9397503Y-9195595D01*
X9397503Y-9165595D02*
X9367503Y-9195595D01*
X9380000Y-10542500D02*
X9410000Y-10572500D01*
X9410000Y-10542500D02*
X9380000Y-10572500D01*
X9380000Y-11382500D02*
X9410000Y-11412500D01*
X9410000Y-11382500D02*
X9380000Y-11412500D01*
X9383168Y-8340000D02*
X9413168Y-8370000D01*
X9413168Y-8340000D02*
X9383168Y-8370000D01*
X9385000Y-8985000D02*
X9415000Y-9015000D01*
X9415000Y-8985000D02*
X9385000Y-9015000D01*
X9402500Y-9110000D02*
X9432500Y-9140000D01*
X9432500Y-9110000D02*
X9402500Y-9140000D01*
X9423000Y-10218000D02*
X9453000Y-10248000D01*
X9453000Y-10218000D02*
X9423000Y-10248000D01*
X9432000Y-11330000D02*
X9462000Y-11360000D01*
X9462000Y-11330000D02*
X9432000Y-11360000D01*
X9435000Y-8380000D02*
X9465000Y-8410000D01*
X9465000Y-8380000D02*
X9435000Y-8410000D01*
X9455000Y-10647500D02*
X9485000Y-10677500D01*
X9485000Y-10647500D02*
X9455000Y-10677500D01*
X9461597Y-9169137D02*
X9491597Y-9199137D01*
X9491597Y-9169137D02*
X9461597Y-9199137D01*
X9465000Y-9100000D02*
X9495000Y-9130000D01*
X9495000Y-9100000D02*
X9465000Y-9130000D01*
X9465000Y-10585000D02*
X9495000Y-10615000D01*
X9495000Y-10585000D02*
X9465000Y-10615000D01*
X9466000Y-9382000D02*
X9496000Y-9412000D01*
X9496000Y-9382000D02*
X9466000Y-9412000D01*
X9480000Y-11371000D02*
X9510000Y-11401000D01*
X9510000Y-11371000D02*
X9480000Y-11401000D01*
X9485000Y-8340000D02*
X9515000Y-8370000D01*
X9515000Y-8340000D02*
X9485000Y-8370000D01*
X9498453Y-10510697D02*
X9528453Y-10540697D01*
X9528453Y-10510697D02*
X9498453Y-10540697D01*
X9503000Y-9499000D02*
X9533000Y-9529000D01*
X9533000Y-9499000D02*
X9503000Y-9529000D01*
X9503000Y-9659000D02*
X9533000Y-9689000D01*
X9533000Y-9659000D02*
X9503000Y-9689000D01*
X9503000Y-9978000D02*
X9533000Y-10008000D01*
X9533000Y-9978000D02*
X9503000Y-10008000D01*
X9503000Y-10218000D02*
X9533000Y-10248000D01*
X9533000Y-10218000D02*
X9503000Y-10248000D01*
X9503000Y-10299000D02*
X9533000Y-10329000D01*
X9533000Y-10299000D02*
X9503000Y-10329000D01*
X9532500Y-8380000D02*
X9562500Y-8410000D01*
X9562500Y-8380000D02*
X9532500Y-8410000D01*
X9534000Y-11331000D02*
X9564000Y-11361000D01*
X9564000Y-11331000D02*
X9534000Y-11361000D01*
X9554836Y-9154310D02*
X9584836Y-9184310D01*
X9584836Y-9154310D02*
X9554836Y-9184310D01*
X9574677Y-11378978D02*
X9604677Y-11408978D01*
X9604677Y-11378978D02*
X9574677Y-11408978D01*
X9580000Y-8340000D02*
X9610000Y-8370000D01*
X9610000Y-8340000D02*
X9580000Y-8370000D01*
X9583000Y-9578500D02*
X9613000Y-9608500D01*
X9613000Y-9578500D02*
X9583000Y-9608500D01*
X9583000Y-9659000D02*
X9613000Y-9689000D01*
X9613000Y-9659000D02*
X9583000Y-9689000D01*
X9583000Y-9739000D02*
X9613000Y-9769000D01*
X9613000Y-9739000D02*
X9583000Y-9769000D01*
X9583000Y-9978000D02*
X9613000Y-10008000D01*
X9613000Y-9978000D02*
X9583000Y-10008000D01*
X9604000Y-10600000D02*
X9634000Y-10630000D01*
X9634000Y-10600000D02*
X9604000Y-10630000D01*
X9621879Y-9150754D02*
X9651879Y-9180754D01*
X9651879Y-9150754D02*
X9621879Y-9180754D01*
X9632000Y-11332000D02*
X9662000Y-11362000D01*
X9662000Y-11332000D02*
X9632000Y-11362000D01*
X9632500Y-8380000D02*
X9662500Y-8410000D01*
X9662500Y-8380000D02*
X9632500Y-8410000D01*
X9663000Y-9659000D02*
X9693000Y-9689000D01*
X9693000Y-9659000D02*
X9663000Y-9689000D01*
X9663000Y-9738000D02*
X9693000Y-9768000D01*
X9693000Y-9738000D02*
X9663000Y-9768000D01*
X9679000Y-11374000D02*
X9709000Y-11404000D01*
X9709000Y-11374000D02*
X9679000Y-11404000D01*
X9682500Y-8340000D02*
X9712500Y-8370000D01*
X9712500Y-8340000D02*
X9682500Y-8370000D01*
X9687092Y-9181033D02*
X9717092Y-9211033D01*
X9717092Y-9181033D02*
X9687092Y-9211033D01*
X9743000Y-10458500D02*
X9773000Y-10488500D01*
X9773000Y-10458500D02*
X9743000Y-10488500D01*
X9751000Y-9172000D02*
X9781000Y-9202000D01*
X9781000Y-9172000D02*
X9751000Y-9202000D01*
X9786519Y-9223912D02*
X9816519Y-9253912D01*
X9816519Y-9223912D02*
X9786519Y-9253912D01*
X9816000Y-9691000D02*
X9846000Y-9721000D01*
X9846000Y-9691000D02*
X9816000Y-9721000D01*
X9820000Y-9339000D02*
X9850000Y-9369000D01*
X9850000Y-9339000D02*
X9820000Y-9369000D01*
X9821664Y-9169994D02*
X9851664Y-9199994D01*
X9851664Y-9169994D02*
X9821664Y-9199994D01*
X9834000Y-10282000D02*
X9864000Y-10312000D01*
X9864000Y-10282000D02*
X9834000Y-10312000D01*
X9841000Y-9996000D02*
X9871000Y-10026000D01*
X9871000Y-9996000D02*
X9841000Y-10026000D01*
X9843000Y-10186000D02*
X9873000Y-10216000D01*
X9873000Y-10186000D02*
X9843000Y-10216000D01*
X9843413Y-10089402D02*
X9873413Y-10119402D01*
X9873413Y-10089402D02*
X9843413Y-10119402D01*
X9850000Y-10407000D02*
X9880000Y-10437000D01*
X9880000Y-10407000D02*
X9850000Y-10437000D01*
X9852000Y-10660000D02*
X9882000Y-10690000D01*
X9882000Y-10660000D02*
X9852000Y-10690000D01*
X9858000Y-10863000D02*
X9888000Y-10893000D01*
X9888000Y-10863000D02*
X9858000Y-10893000D01*
X9858000Y-10937000D02*
X9888000Y-10967000D01*
X9888000Y-10937000D02*
X9858000Y-10967000D01*
X9858000Y-11011000D02*
X9888000Y-11041000D01*
X9888000Y-11011000D02*
X9858000Y-11041000D01*
X9858000Y-11085000D02*
X9888000Y-11115000D01*
X9888000Y-11085000D02*
X9858000Y-11115000D01*
X9858000Y-11159000D02*
X9888000Y-11189000D01*
X9888000Y-11159000D02*
X9858000Y-11189000D01*
X9858000Y-11233000D02*
X9888000Y-11263000D01*
X9888000Y-11233000D02*
X9858000Y-11263000D01*
X9867500Y-9418500D02*
X9897500Y-9448500D01*
X9897500Y-9418500D02*
X9867500Y-9448500D01*
X9867824Y-9508650D02*
X9897824Y-9538650D01*
X9897824Y-9508650D02*
X9867824Y-9538650D01*
X9868000Y-8462000D02*
X9898000Y-8492000D01*
X9898000Y-8462000D02*
X9868000Y-8492000D01*
X9868000Y-8536000D02*
X9898000Y-8566000D01*
X9898000Y-8536000D02*
X9868000Y-8566000D01*
X9868000Y-8610000D02*
X9898000Y-8640000D01*
X9898000Y-8610000D02*
X9868000Y-8640000D01*
X9868000Y-8684000D02*
X9898000Y-8714000D01*
X9898000Y-8684000D02*
X9868000Y-8714000D01*
X9868000Y-8758000D02*
X9898000Y-8788000D01*
X9898000Y-8758000D02*
X9868000Y-8788000D01*
X9868000Y-8832000D02*
X9898000Y-8862000D01*
X9898000Y-8832000D02*
X9868000Y-8862000D01*
X9872000Y-10334000D02*
X9902000Y-10364000D01*
X9902000Y-10334000D02*
X9872000Y-10364000D01*
X9883100Y-9198384D02*
X9913100Y-9228384D01*
X9913100Y-9198384D02*
X9883100Y-9228384D01*
X9903000Y-10043000D02*
X9933000Y-10073000D01*
X9933000Y-10043000D02*
X9903000Y-10073000D01*
X9907000Y-9642000D02*
X9937000Y-9672000D01*
X9937000Y-9642000D02*
X9907000Y-9672000D01*
X9907500Y-9257500D02*
X9937500Y-9287500D01*
X9937500Y-9257500D02*
X9907500Y-9287500D01*
X9908487Y-9953118D02*
X9938487Y-9983118D01*
X9938487Y-9953118D02*
X9908487Y-9983118D01*
X9920000Y-10238000D02*
X9950000Y-10268000D01*
X9950000Y-10238000D02*
X9920000Y-10268000D01*
X9925000Y-10145000D02*
X9955000Y-10175000D01*
X9955000Y-10145000D02*
X9925000Y-10175000D01*
X9936000Y-8428000D02*
X9966000Y-8458000D01*
X9966000Y-8428000D02*
X9936000Y-8458000D01*
X9936000Y-8528000D02*
X9966000Y-8558000D01*
X9966000Y-8528000D02*
X9936000Y-8558000D01*
X9936000Y-8628000D02*
X9966000Y-8658000D01*
X9966000Y-8628000D02*
X9936000Y-8658000D01*
X9936000Y-8728000D02*
X9966000Y-8758000D01*
X9966000Y-8728000D02*
X9936000Y-8758000D01*
X9940337Y-9588661D02*
X9970337Y-9618661D01*
X9970337Y-9588661D02*
X9940337Y-9618661D01*
X9950000Y-9315000D02*
X9980000Y-9345000D01*
X9980000Y-9315000D02*
X9950000Y-9345000D01*
X9982758Y-9542218D02*
X10012758Y-9572218D01*
X10012758Y-9542218D02*
X9982758Y-9572218D01*
X9990000Y-9472500D02*
X10020000Y-9502500D01*
X10020000Y-9472500D02*
X9990000Y-9502500D01*
X10003000Y-11018000D02*
X10033000Y-11048000D01*
X10033000Y-11018000D02*
X10003000Y-11048000D01*
X10005000Y-11080000D02*
X10035000Y-11110000D01*
X10035000Y-11080000D02*
X10005000Y-11110000D01*
X10022000Y-8980000D02*
X10052000Y-9010000D01*
X10052000Y-8980000D02*
X10022000Y-9010000D01*
X10036000Y-8428000D02*
X10066000Y-8458000D01*
X10066000Y-8428000D02*
X10036000Y-8458000D01*
X10036000Y-8528000D02*
X10066000Y-8558000D01*
X10066000Y-8528000D02*
X10036000Y-8558000D01*
X10036000Y-8628000D02*
X10066000Y-8658000D01*
X10066000Y-8628000D02*
X10036000Y-8658000D01*
X10040000Y-9865000D02*
X10070000Y-9895000D01*
X10070000Y-9865000D02*
X10040000Y-9895000D01*
X10059000Y-10435000D02*
X10089000Y-10465000D01*
X10089000Y-10435000D02*
X10059000Y-10465000D01*
X10080861Y-9537640D02*
X10110861Y-9567640D01*
X10110861Y-9537640D02*
X10080861Y-9567640D01*
X10098082Y-9475418D02*
X10128082Y-9505418D01*
X10128082Y-9475418D02*
X10098082Y-9505418D01*
X10114617Y-9414730D02*
X10144617Y-9444730D01*
X10144617Y-9414730D02*
X10114617Y-9444730D01*
X10136000Y-8428000D02*
X10166000Y-8458000D01*
X10166000Y-8428000D02*
X10136000Y-8458000D01*
X10136000Y-8528000D02*
X10166000Y-8558000D01*
X10166000Y-8528000D02*
X10136000Y-8558000D01*
X10136000Y-8628000D02*
X10166000Y-8658000D01*
X10166000Y-8628000D02*
X10136000Y-8658000D01*
X10136000Y-8728000D02*
X10166000Y-8758000D01*
X10166000Y-8728000D02*
X10136000Y-8758000D01*
X10236000Y-8428000D02*
X10266000Y-8458000D01*
X10266000Y-8428000D02*
X10236000Y-8458000D01*
X10236000Y-8528000D02*
X10266000Y-8558000D01*
X10266000Y-8528000D02*
X10236000Y-8558000D01*
X10236000Y-8628000D02*
X10266000Y-8658000D01*
X10266000Y-8628000D02*
X10236000Y-8658000D01*
X10236000Y-8728000D02*
X10266000Y-8758000D01*
X10266000Y-8728000D02*
X10236000Y-8758000D01*
X10236000Y-8828000D02*
X10266000Y-8858000D01*
X10266000Y-8828000D02*
X10236000Y-8858000D01*
X10336000Y-8428000D02*
X10366000Y-8458000D01*
X10366000Y-8428000D02*
X10336000Y-8458000D01*
X10336000Y-8528000D02*
X10366000Y-8558000D01*
X10366000Y-8528000D02*
X10336000Y-8558000D01*
X10336000Y-8628000D02*
X10366000Y-8658000D01*
X10366000Y-8628000D02*
X10336000Y-8658000D01*
X10336000Y-8728000D02*
X10366000Y-8758000D01*
X10366000Y-8728000D02*
X10336000Y-8758000D01*
X10336000Y-8828000D02*
X10366000Y-8858000D01*
X10366000Y-8828000D02*
X10336000Y-8858000D01*
X10336000Y-8928000D02*
X10366000Y-8958000D01*
X10366000Y-8928000D02*
X10336000Y-8958000D01*
X10390077Y-10036000D02*
X10420077Y-10066000D01*
X10420077Y-10036000D02*
X10390077Y-10066000D01*
X10390077Y-10096500D02*
X10420077Y-10126500D01*
X10420077Y-10096500D02*
X10390077Y-10126500D01*
X10390077Y-10157000D02*
X10420077Y-10187000D01*
X10420077Y-10157000D02*
X10390077Y-10187000D01*
X10390077Y-10217500D02*
X10420077Y-10247500D01*
X10420077Y-10217500D02*
X10390077Y-10247500D01*
X10390077Y-10278000D02*
X10420077Y-10308000D01*
X10420077Y-10278000D02*
X10390077Y-10308000D01*
X10436000Y-8428000D02*
X10466000Y-8458000D01*
X10466000Y-8428000D02*
X10436000Y-8458000D01*
X10436000Y-8528000D02*
X10466000Y-8558000D01*
X10466000Y-8528000D02*
X10436000Y-8558000D01*
X10436000Y-8628000D02*
X10466000Y-8658000D01*
X10466000Y-8628000D02*
X10436000Y-8658000D01*
X10436000Y-8728000D02*
X10466000Y-8758000D01*
X10466000Y-8728000D02*
X10436000Y-8758000D01*
X10436000Y-8828000D02*
X10466000Y-8858000D01*
X10466000Y-8828000D02*
X10436000Y-8858000D01*
X10436000Y-8928000D02*
X10466000Y-8958000D01*
X10466000Y-8928000D02*
X10436000Y-8958000D01*
X10436000Y-10828000D02*
X10466000Y-10858000D01*
X10466000Y-10828000D02*
X10436000Y-10858000D01*
X10482539Y-10036000D02*
X10512539Y-10066000D01*
X10512539Y-10036000D02*
X10482539Y-10066000D01*
X10482539Y-10096500D02*
X10512539Y-10126500D01*
X10512539Y-10096500D02*
X10482539Y-10126500D01*
X10482539Y-10157000D02*
X10512539Y-10187000D01*
X10512539Y-10157000D02*
X10482539Y-10187000D01*
X10482539Y-10217500D02*
X10512539Y-10247500D01*
X10512539Y-10217500D02*
X10482539Y-10247500D01*
X10482539Y-10278000D02*
X10512539Y-10308000D01*
X10512539Y-10278000D02*
X10482539Y-10308000D01*
X10536000Y-8428000D02*
X10566000Y-8458000D01*
X10566000Y-8428000D02*
X10536000Y-8458000D01*
X10536000Y-8528000D02*
X10566000Y-8558000D01*
X10566000Y-8528000D02*
X10536000Y-8558000D01*
X10536000Y-8628000D02*
X10566000Y-8658000D01*
X10566000Y-8628000D02*
X10536000Y-8658000D01*
X10536000Y-8728000D02*
X10566000Y-8758000D01*
X10566000Y-8728000D02*
X10536000Y-8758000D01*
X10536000Y-8828000D02*
X10566000Y-8858000D01*
X10566000Y-8828000D02*
X10536000Y-8858000D01*
X10536000Y-8928000D02*
X10566000Y-8958000D01*
X10566000Y-8928000D02*
X10536000Y-8958000D01*
X10542000Y-11080000D02*
X10572000Y-11110000D01*
X10572000Y-11080000D02*
X10542000Y-11110000D01*
X10543000Y-11018000D02*
X10573000Y-11048000D01*
X10573000Y-11018000D02*
X10543000Y-11048000D01*
X10575000Y-10036000D02*
X10605000Y-10066000D01*
X10605000Y-10036000D02*
X10575000Y-10066000D01*
X10575000Y-10096500D02*
X10605000Y-10126500D01*
X10605000Y-10096500D02*
X10575000Y-10126500D01*
X10575000Y-10157000D02*
X10605000Y-10187000D01*
X10605000Y-10157000D02*
X10575000Y-10187000D01*
X10575000Y-10217500D02*
X10605000Y-10247500D01*
X10605000Y-10217500D02*
X10575000Y-10247500D01*
X10575000Y-10278000D02*
X10605000Y-10308000D01*
X10605000Y-10278000D02*
X10575000Y-10308000D01*
X10585000Y-10567500D02*
X10615000Y-10597500D01*
X10615000Y-10567500D02*
X10585000Y-10597500D01*
X10601000Y-11080000D02*
X10631000Y-11110000D01*
X10631000Y-11080000D02*
X10601000Y-11110000D01*
X10602000Y-11018000D02*
X10632000Y-11048000D01*
X10632000Y-11018000D02*
X10602000Y-11048000D01*
X10613000Y-9216000D02*
X10643000Y-9246000D01*
X10643000Y-9216000D02*
X10613000Y-9246000D01*
X10636000Y-8428000D02*
X10666000Y-8458000D01*
X10666000Y-8428000D02*
X10636000Y-8458000D01*
X10636000Y-8528000D02*
X10666000Y-8558000D01*
X10666000Y-8528000D02*
X10636000Y-8558000D01*
X10636000Y-8628000D02*
X10666000Y-8658000D01*
X10666000Y-8628000D02*
X10636000Y-8658000D01*
X10636000Y-8728000D02*
X10666000Y-8758000D01*
X10666000Y-8728000D02*
X10636000Y-8758000D01*
X10636000Y-8828000D02*
X10666000Y-8858000D01*
X10666000Y-8828000D02*
X10636000Y-8858000D01*
X10636000Y-8928000D02*
X10666000Y-8958000D01*
X10666000Y-8928000D02*
X10636000Y-8958000D01*
X10660000Y-11080000D02*
X10690000Y-11110000D01*
X10690000Y-11080000D02*
X10660000Y-11110000D01*
X10661000Y-11018000D02*
X10691000Y-11048000D01*
X10691000Y-11018000D02*
X10661000Y-11048000D01*
X10667462Y-10036000D02*
X10697462Y-10066000D01*
X10697462Y-10036000D02*
X10667462Y-10066000D01*
X10667462Y-10096500D02*
X10697462Y-10126500D01*
X10697462Y-10096500D02*
X10667462Y-10126500D01*
X10667462Y-10157000D02*
X10697462Y-10187000D01*
X10697462Y-10157000D02*
X10667462Y-10187000D01*
X10667462Y-10217500D02*
X10697462Y-10247500D01*
X10697462Y-10217500D02*
X10667462Y-10247500D01*
X10667462Y-10278000D02*
X10697462Y-10308000D01*
X10697462Y-10278000D02*
X10667462Y-10308000D01*
X10732400Y-10421202D02*
X10762400Y-10451202D01*
X10762400Y-10421202D02*
X10732400Y-10451202D01*
X10759923Y-10036000D02*
X10789923Y-10066000D01*
X10789923Y-10036000D02*
X10759923Y-10066000D01*
X10759923Y-10096500D02*
X10789923Y-10126500D01*
X10789923Y-10096500D02*
X10759923Y-10126500D01*
X10759923Y-10157000D02*
X10789923Y-10187000D01*
X10789923Y-10157000D02*
X10759923Y-10187000D01*
X10759923Y-10217500D02*
X10789923Y-10247500D01*
X10789923Y-10217500D02*
X10759923Y-10247500D01*
X10759923Y-10278000D02*
X10789923Y-10308000D01*
X10789923Y-10278000D02*
X10759923Y-10308000D01*
X10770000Y-9765000D02*
X10800000Y-9795000D01*
X10800000Y-9765000D02*
X10770000Y-9795000D01*
X10864000Y-10140000D02*
X10894000Y-10170000D01*
X10894000Y-10140000D02*
X10864000Y-10170000D01*
X10864000Y-10214000D02*
X10894000Y-10244000D01*
X10894000Y-10214000D02*
X10864000Y-10244000D01*
X10864000Y-10279000D02*
X10894000Y-10309000D01*
X10894000Y-10279000D02*
X10864000Y-10309000D01*
X10864000Y-10689000D02*
X10894000Y-10719000D01*
X10894000Y-10689000D02*
X10864000Y-10719000D01*
X10864000Y-10745000D02*
X10894000Y-10775000D01*
X10894000Y-10745000D02*
X10864000Y-10775000D01*
X10297500Y-9465000D02*
G75*
G02*
X10232500Y-9465000I-32500J0D01*
G01*
X10232500Y-9465000D02*
G75*
G02*
X10297500Y-9465000I32500J0D01*
G01*
X10297500Y-9592000D02*
G75*
G02*
X10232500Y-9592000I-32500J0D01*
G01*
X10232500Y-9592000D02*
G75*
G02*
X10297500Y-9592000I32500J0D01*
G01*
X10297500Y-9719000D02*
G75*
G02*
X10232500Y-9719000I-32500J0D01*
G01*
X10232500Y-9719000D02*
G75*
G02*
X10297500Y-9719000I32500J0D01*
G01*
X10297500Y-9846000D02*
G75*
G02*
X10232500Y-9846000I-32500J0D01*
G01*
X10232500Y-9846000D02*
G75*
G02*
X10297500Y-9846000I32500J0D01*
G01*
X10297500Y-9973000D02*
G75*
G02*
X10232500Y-9973000I-32500J0D01*
G01*
X10232500Y-9973000D02*
G75*
G02*
X10297500Y-9973000I32500J0D01*
G01*
X10297500Y-10100000D02*
G75*
G02*
X10232500Y-10100000I-32500J0D01*
G01*
X10232500Y-10100000D02*
G75*
G02*
X10297500Y-10100000I32500J0D01*
G01*
X10297500Y-10227000D02*
G75*
G02*
X10232500Y-10227000I-32500J0D01*
G01*
X10232500Y-10227000D02*
G75*
G02*
X10297500Y-10227000I32500J0D01*
G01*
X10297500Y-10354000D02*
G75*
G02*
X10232500Y-10354000I-32500J0D01*
G01*
X10232500Y-10354000D02*
G75*
G02*
X10297500Y-10354000I32500J0D01*
G01*
D11*
X7608277Y-11800484D02*
X7608277Y-11600484D01*
X7608277Y-11600484D02*
X7655896Y-11600484D01*
X7655896Y-11600484D02*
X7684467Y-11610008D01*
X7684467Y-11610008D02*
X7703515Y-11629055D01*
X7703515Y-11629055D02*
X7713039Y-11648103D01*
X7713039Y-11648103D02*
X7722562Y-11686198D01*
X7722562Y-11686198D02*
X7722562Y-11714769D01*
X7722562Y-11714769D02*
X7713039Y-11752865D01*
X7713039Y-11752865D02*
X7703515Y-11771912D01*
X7703515Y-11771912D02*
X7684467Y-11790960D01*
X7684467Y-11790960D02*
X7655896Y-11800484D01*
X7655896Y-11800484D02*
X7608277Y-11800484D01*
X7808277Y-11800484D02*
X7808277Y-11667150D01*
X7808277Y-11705246D02*
X7817801Y-11686198D01*
X7817801Y-11686198D02*
X7827324Y-11676674D01*
X7827324Y-11676674D02*
X7846372Y-11667150D01*
X7846372Y-11667150D02*
X7865420Y-11667150D01*
X7932086Y-11800484D02*
X7932086Y-11667150D01*
X7932086Y-11600484D02*
X7922562Y-11610008D01*
X7922562Y-11610008D02*
X7932086Y-11619531D01*
X7932086Y-11619531D02*
X7941610Y-11610008D01*
X7941610Y-11610008D02*
X7932086Y-11600484D01*
X7932086Y-11600484D02*
X7932086Y-11619531D01*
X8055896Y-11800484D02*
X8036848Y-11790960D01*
X8036848Y-11790960D02*
X8027324Y-11771912D01*
X8027324Y-11771912D02*
X8027324Y-11600484D01*
X8160658Y-11800484D02*
X8141610Y-11790960D01*
X8141610Y-11790960D02*
X8132086Y-11771912D01*
X8132086Y-11771912D02*
X8132086Y-11600484D01*
X8389229Y-11800484D02*
X8389229Y-11600484D01*
X8389229Y-11600484D02*
X8455896Y-11743341D01*
X8455896Y-11743341D02*
X8522563Y-11600484D01*
X8522563Y-11600484D02*
X8522563Y-11800484D01*
X8703515Y-11800484D02*
X8703515Y-11695722D01*
X8703515Y-11695722D02*
X8693991Y-11676674D01*
X8693991Y-11676674D02*
X8674944Y-11667150D01*
X8674944Y-11667150D02*
X8636848Y-11667150D01*
X8636848Y-11667150D02*
X8617801Y-11676674D01*
X8703515Y-11790960D02*
X8684467Y-11800484D01*
X8684467Y-11800484D02*
X8636848Y-11800484D01*
X8636848Y-11800484D02*
X8617801Y-11790960D01*
X8617801Y-11790960D02*
X8608277Y-11771912D01*
X8608277Y-11771912D02*
X8608277Y-11752865D01*
X8608277Y-11752865D02*
X8617801Y-11733817D01*
X8617801Y-11733817D02*
X8636848Y-11724293D01*
X8636848Y-11724293D02*
X8684467Y-11724293D01*
X8684467Y-11724293D02*
X8703515Y-11714769D01*
X8798753Y-11667150D02*
X8798753Y-11867150D01*
X8798753Y-11676674D02*
X8817801Y-11667150D01*
X8817801Y-11667150D02*
X8855896Y-11667150D01*
X8855896Y-11667150D02*
X8874944Y-11676674D01*
X8874944Y-11676674D02*
X8884467Y-11686198D01*
X8884467Y-11686198D02*
X8893991Y-11705246D01*
X8893991Y-11705246D02*
X8893991Y-11762388D01*
X8893991Y-11762388D02*
X8884467Y-11781436D01*
X8884467Y-11781436D02*
X8874944Y-11790960D01*
X8874944Y-11790960D02*
X8855896Y-11800484D01*
X8855896Y-11800484D02*
X8817801Y-11800484D01*
X8817801Y-11800484D02*
X8798753Y-11790960D01*
X8979705Y-11781436D02*
X8989229Y-11790960D01*
X8989229Y-11790960D02*
X8979705Y-11800484D01*
X8979705Y-11800484D02*
X8970182Y-11790960D01*
X8970182Y-11790960D02*
X8979705Y-11781436D01*
X8979705Y-11781436D02*
X8979705Y-11800484D01*
X8979705Y-11676674D02*
X8989229Y-11686198D01*
X8989229Y-11686198D02*
X8979705Y-11695722D01*
X8979705Y-11695722D02*
X8970182Y-11686198D01*
X8970182Y-11686198D02*
X8979705Y-11676674D01*
X8979705Y-11676674D02*
X8979705Y-11695722D01*
D12*
X7317500Y-12114000D02*
X7347500Y-12144000D01*
X7347500Y-12114000D02*
X7317500Y-12144000D01*
D11*
X7646372Y-12020484D02*
X7665420Y-12020484D01*
X7665420Y-12020484D02*
X7684467Y-12030008D01*
X7684467Y-12030008D02*
X7693991Y-12039531D01*
X7693991Y-12039531D02*
X7703515Y-12058579D01*
X7703515Y-12058579D02*
X7713039Y-12096674D01*
X7713039Y-12096674D02*
X7713039Y-12144293D01*
X7713039Y-12144293D02*
X7703515Y-12182388D01*
X7703515Y-12182388D02*
X7693991Y-12201436D01*
X7693991Y-12201436D02*
X7684467Y-12210960D01*
X7684467Y-12210960D02*
X7665420Y-12220484D01*
X7665420Y-12220484D02*
X7646372Y-12220484D01*
X7646372Y-12220484D02*
X7627324Y-12210960D01*
X7627324Y-12210960D02*
X7617801Y-12201436D01*
X7617801Y-12201436D02*
X7608277Y-12182388D01*
X7608277Y-12182388D02*
X7598753Y-12144293D01*
X7598753Y-12144293D02*
X7598753Y-12096674D01*
X7598753Y-12096674D02*
X7608277Y-12058579D01*
X7608277Y-12058579D02*
X7617801Y-12039531D01*
X7617801Y-12039531D02*
X7627324Y-12030008D01*
X7627324Y-12030008D02*
X7646372Y-12020484D01*
X7798753Y-12201436D02*
X7808277Y-12210960D01*
X7808277Y-12210960D02*
X7798753Y-12220484D01*
X7798753Y-12220484D02*
X7789229Y-12210960D01*
X7789229Y-12210960D02*
X7798753Y-12201436D01*
X7798753Y-12201436D02*
X7798753Y-12220484D01*
X7874943Y-12020484D02*
X7998753Y-12020484D01*
X7998753Y-12020484D02*
X7932086Y-12096674D01*
X7932086Y-12096674D02*
X7960658Y-12096674D01*
X7960658Y-12096674D02*
X7979705Y-12106198D01*
X7979705Y-12106198D02*
X7989229Y-12115722D01*
X7989229Y-12115722D02*
X7998753Y-12134769D01*
X7998753Y-12134769D02*
X7998753Y-12182388D01*
X7998753Y-12182388D02*
X7989229Y-12201436D01*
X7989229Y-12201436D02*
X7979705Y-12210960D01*
X7979705Y-12210960D02*
X7960658Y-12220484D01*
X7960658Y-12220484D02*
X7903515Y-12220484D01*
X7903515Y-12220484D02*
X7884467Y-12210960D01*
X7884467Y-12210960D02*
X7874943Y-12201436D01*
X8122562Y-12020484D02*
X8141610Y-12020484D01*
X8141610Y-12020484D02*
X8160658Y-12030008D01*
X8160658Y-12030008D02*
X8170182Y-12039531D01*
X8170182Y-12039531D02*
X8179705Y-12058579D01*
X8179705Y-12058579D02*
X8189229Y-12096674D01*
X8189229Y-12096674D02*
X8189229Y-12144293D01*
X8189229Y-12144293D02*
X8179705Y-12182388D01*
X8179705Y-12182388D02*
X8170182Y-12201436D01*
X8170182Y-12201436D02*
X8160658Y-12210960D01*
X8160658Y-12210960D02*
X8141610Y-12220484D01*
X8141610Y-12220484D02*
X8122562Y-12220484D01*
X8122562Y-12220484D02*
X8103515Y-12210960D01*
X8103515Y-12210960D02*
X8093991Y-12201436D01*
X8093991Y-12201436D02*
X8084467Y-12182388D01*
X8084467Y-12182388D02*
X8074943Y-12144293D01*
X8074943Y-12144293D02*
X8074943Y-12096674D01*
X8074943Y-12096674D02*
X8084467Y-12058579D01*
X8084467Y-12058579D02*
X8093991Y-12039531D01*
X8093991Y-12039531D02*
X8103515Y-12030008D01*
X8103515Y-12030008D02*
X8122562Y-12020484D01*
X8313039Y-12020484D02*
X8332086Y-12020484D01*
X8332086Y-12020484D02*
X8351134Y-12030008D01*
X8351134Y-12030008D02*
X8360658Y-12039531D01*
X8360658Y-12039531D02*
X8370182Y-12058579D01*
X8370182Y-12058579D02*
X8379705Y-12096674D01*
X8379705Y-12096674D02*
X8379705Y-12144293D01*
X8379705Y-12144293D02*
X8370182Y-12182388D01*
X8370182Y-12182388D02*
X8360658Y-12201436D01*
X8360658Y-12201436D02*
X8351134Y-12210960D01*
X8351134Y-12210960D02*
X8332086Y-12220484D01*
X8332086Y-12220484D02*
X8313039Y-12220484D01*
X8313039Y-12220484D02*
X8293991Y-12210960D01*
X8293991Y-12210960D02*
X8284467Y-12201436D01*
X8284467Y-12201436D02*
X8274943Y-12182388D01*
X8274943Y-12182388D02*
X8265420Y-12144293D01*
X8265420Y-12144293D02*
X8265420Y-12096674D01*
X8265420Y-12096674D02*
X8274943Y-12058579D01*
X8274943Y-12058579D02*
X8284467Y-12039531D01*
X8284467Y-12039531D02*
X8293991Y-12030008D01*
X8293991Y-12030008D02*
X8313039Y-12020484D01*
X8465420Y-12220484D02*
X8465420Y-12087150D01*
X8465420Y-12106198D02*
X8474944Y-12096674D01*
X8474944Y-12096674D02*
X8493991Y-12087150D01*
X8493991Y-12087150D02*
X8522563Y-12087150D01*
X8522563Y-12087150D02*
X8541610Y-12096674D01*
X8541610Y-12096674D02*
X8551134Y-12115722D01*
X8551134Y-12115722D02*
X8551134Y-12220484D01*
X8551134Y-12115722D02*
X8560658Y-12096674D01*
X8560658Y-12096674D02*
X8579705Y-12087150D01*
X8579705Y-12087150D02*
X8608277Y-12087150D01*
X8608277Y-12087150D02*
X8627325Y-12096674D01*
X8627325Y-12096674D02*
X8636848Y-12115722D01*
X8636848Y-12115722D02*
X8636848Y-12220484D01*
X8732086Y-12220484D02*
X8732086Y-12087150D01*
X8732086Y-12106198D02*
X8741610Y-12096674D01*
X8741610Y-12096674D02*
X8760658Y-12087150D01*
X8760658Y-12087150D02*
X8789229Y-12087150D01*
X8789229Y-12087150D02*
X8808277Y-12096674D01*
X8808277Y-12096674D02*
X8817801Y-12115722D01*
X8817801Y-12115722D02*
X8817801Y-12220484D01*
X8817801Y-12115722D02*
X8827325Y-12096674D01*
X8827325Y-12096674D02*
X8846372Y-12087150D01*
X8846372Y-12087150D02*
X8874944Y-12087150D01*
X8874944Y-12087150D02*
X8893991Y-12096674D01*
X8893991Y-12096674D02*
X8903515Y-12115722D01*
X8903515Y-12115722D02*
X8903515Y-12220484D01*
X9293991Y-12010960D02*
X9122563Y-12268103D01*
X9551134Y-12020484D02*
X9570182Y-12020484D01*
X9570182Y-12020484D02*
X9589229Y-12030008D01*
X9589229Y-12030008D02*
X9598753Y-12039531D01*
X9598753Y-12039531D02*
X9608277Y-12058579D01*
X9608277Y-12058579D02*
X9617801Y-12096674D01*
X9617801Y-12096674D02*
X9617801Y-12144293D01*
X9617801Y-12144293D02*
X9608277Y-12182388D01*
X9608277Y-12182388D02*
X9598753Y-12201436D01*
X9598753Y-12201436D02*
X9589229Y-12210960D01*
X9589229Y-12210960D02*
X9570182Y-12220484D01*
X9570182Y-12220484D02*
X9551134Y-12220484D01*
X9551134Y-12220484D02*
X9532087Y-12210960D01*
X9532087Y-12210960D02*
X9522563Y-12201436D01*
X9522563Y-12201436D02*
X9513039Y-12182388D01*
X9513039Y-12182388D02*
X9503515Y-12144293D01*
X9503515Y-12144293D02*
X9503515Y-12096674D01*
X9503515Y-12096674D02*
X9513039Y-12058579D01*
X9513039Y-12058579D02*
X9522563Y-12039531D01*
X9522563Y-12039531D02*
X9532087Y-12030008D01*
X9532087Y-12030008D02*
X9551134Y-12020484D01*
X9703515Y-12201436D02*
X9713039Y-12210960D01*
X9713039Y-12210960D02*
X9703515Y-12220484D01*
X9703515Y-12220484D02*
X9693991Y-12210960D01*
X9693991Y-12210960D02*
X9703515Y-12201436D01*
X9703515Y-12201436D02*
X9703515Y-12220484D01*
X9836848Y-12020484D02*
X9855896Y-12020484D01*
X9855896Y-12020484D02*
X9874944Y-12030008D01*
X9874944Y-12030008D02*
X9884468Y-12039531D01*
X9884468Y-12039531D02*
X9893991Y-12058579D01*
X9893991Y-12058579D02*
X9903515Y-12096674D01*
X9903515Y-12096674D02*
X9903515Y-12144293D01*
X9903515Y-12144293D02*
X9893991Y-12182388D01*
X9893991Y-12182388D02*
X9884468Y-12201436D01*
X9884468Y-12201436D02*
X9874944Y-12210960D01*
X9874944Y-12210960D02*
X9855896Y-12220484D01*
X9855896Y-12220484D02*
X9836848Y-12220484D01*
X9836848Y-12220484D02*
X9817801Y-12210960D01*
X9817801Y-12210960D02*
X9808277Y-12201436D01*
X9808277Y-12201436D02*
X9798753Y-12182388D01*
X9798753Y-12182388D02*
X9789229Y-12144293D01*
X9789229Y-12144293D02*
X9789229Y-12096674D01*
X9789229Y-12096674D02*
X9798753Y-12058579D01*
X9798753Y-12058579D02*
X9808277Y-12039531D01*
X9808277Y-12039531D02*
X9817801Y-12030008D01*
X9817801Y-12030008D02*
X9836848Y-12020484D01*
X10093991Y-12220484D02*
X9979706Y-12220484D01*
X10036848Y-12220484D02*
X10036848Y-12020484D01*
X10036848Y-12020484D02*
X10017801Y-12049055D01*
X10017801Y-12049055D02*
X9998753Y-12068103D01*
X9998753Y-12068103D02*
X9979706Y-12077627D01*
X10284468Y-12220484D02*
X10170182Y-12220484D01*
X10227325Y-12220484D02*
X10227325Y-12020484D01*
X10227325Y-12020484D02*
X10208277Y-12049055D01*
X10208277Y-12049055D02*
X10189229Y-12068103D01*
X10189229Y-12068103D02*
X10170182Y-12077627D01*
X10398753Y-12106198D02*
X10379706Y-12096674D01*
X10379706Y-12096674D02*
X10370182Y-12087150D01*
X10370182Y-12087150D02*
X10360658Y-12068103D01*
X10360658Y-12068103D02*
X10360658Y-12058579D01*
X10360658Y-12058579D02*
X10370182Y-12039531D01*
X10370182Y-12039531D02*
X10379706Y-12030008D01*
X10379706Y-12030008D02*
X10398753Y-12020484D01*
X10398753Y-12020484D02*
X10436849Y-12020484D01*
X10436849Y-12020484D02*
X10455896Y-12030008D01*
X10455896Y-12030008D02*
X10465420Y-12039531D01*
X10465420Y-12039531D02*
X10474944Y-12058579D01*
X10474944Y-12058579D02*
X10474944Y-12068103D01*
X10474944Y-12068103D02*
X10465420Y-12087150D01*
X10465420Y-12087150D02*
X10455896Y-12096674D01*
X10455896Y-12096674D02*
X10436849Y-12106198D01*
X10436849Y-12106198D02*
X10398753Y-12106198D01*
X10398753Y-12106198D02*
X10379706Y-12115722D01*
X10379706Y-12115722D02*
X10370182Y-12125246D01*
X10370182Y-12125246D02*
X10360658Y-12144293D01*
X10360658Y-12144293D02*
X10360658Y-12182388D01*
X10360658Y-12182388D02*
X10370182Y-12201436D01*
X10370182Y-12201436D02*
X10379706Y-12210960D01*
X10379706Y-12210960D02*
X10398753Y-12220484D01*
X10398753Y-12220484D02*
X10436849Y-12220484D01*
X10436849Y-12220484D02*
X10455896Y-12210960D01*
X10455896Y-12210960D02*
X10465420Y-12201436D01*
X10465420Y-12201436D02*
X10474944Y-12182388D01*
X10474944Y-12182388D02*
X10474944Y-12144293D01*
X10474944Y-12144293D02*
X10465420Y-12125246D01*
X10465420Y-12125246D02*
X10455896Y-12115722D01*
X10455896Y-12115722D02*
X10436849Y-12106198D01*
X10551134Y-12020484D02*
X10551134Y-12058579D01*
X10627325Y-12020484D02*
X10627325Y-12058579D01*
X10922563Y-12296674D02*
X10913039Y-12287150D01*
X10913039Y-12287150D02*
X10893991Y-12258579D01*
X10893991Y-12258579D02*
X10884468Y-12239531D01*
X10884468Y-12239531D02*
X10874944Y-12210960D01*
X10874944Y-12210960D02*
X10865420Y-12163341D01*
X10865420Y-12163341D02*
X10865420Y-12125246D01*
X10865420Y-12125246D02*
X10874944Y-12077627D01*
X10874944Y-12077627D02*
X10884468Y-12049055D01*
X10884468Y-12049055D02*
X10893991Y-12030008D01*
X10893991Y-12030008D02*
X10913039Y-12001436D01*
X10913039Y-12001436D02*
X10922563Y-11991912D01*
X10979706Y-12020484D02*
X11103515Y-12020484D01*
X11103515Y-12020484D02*
X11036849Y-12096674D01*
X11036849Y-12096674D02*
X11065420Y-12096674D01*
X11065420Y-12096674D02*
X11084468Y-12106198D01*
X11084468Y-12106198D02*
X11093991Y-12115722D01*
X11093991Y-12115722D02*
X11103515Y-12134769D01*
X11103515Y-12134769D02*
X11103515Y-12182388D01*
X11103515Y-12182388D02*
X11093991Y-12201436D01*
X11093991Y-12201436D02*
X11084468Y-12210960D01*
X11084468Y-12210960D02*
X11065420Y-12220484D01*
X11065420Y-12220484D02*
X11008277Y-12220484D01*
X11008277Y-12220484D02*
X10989230Y-12210960D01*
X10989230Y-12210960D02*
X10979706Y-12201436D01*
X11284468Y-12020484D02*
X11189229Y-12020484D01*
X11189229Y-12020484D02*
X11179706Y-12115722D01*
X11179706Y-12115722D02*
X11189229Y-12106198D01*
X11189229Y-12106198D02*
X11208277Y-12096674D01*
X11208277Y-12096674D02*
X11255896Y-12096674D01*
X11255896Y-12096674D02*
X11274944Y-12106198D01*
X11274944Y-12106198D02*
X11284468Y-12115722D01*
X11284468Y-12115722D02*
X11293991Y-12134769D01*
X11293991Y-12134769D02*
X11293991Y-12182388D01*
X11293991Y-12182388D02*
X11284468Y-12201436D01*
X11284468Y-12201436D02*
X11274944Y-12210960D01*
X11274944Y-12210960D02*
X11255896Y-12220484D01*
X11255896Y-12220484D02*
X11208277Y-12220484D01*
X11208277Y-12220484D02*
X11189229Y-12210960D01*
X11189229Y-12210960D02*
X11179706Y-12201436D01*
X11360658Y-12020484D02*
X11493991Y-12020484D01*
X11493991Y-12020484D02*
X11408277Y-12220484D01*
X11722563Y-12220484D02*
X11722563Y-12020484D01*
X11808277Y-12220484D02*
X11808277Y-12115722D01*
X11808277Y-12115722D02*
X11798753Y-12096674D01*
X11798753Y-12096674D02*
X11779706Y-12087150D01*
X11779706Y-12087150D02*
X11751134Y-12087150D01*
X11751134Y-12087150D02*
X11732087Y-12096674D01*
X11732087Y-12096674D02*
X11722563Y-12106198D01*
X11932087Y-12220484D02*
X11913039Y-12210960D01*
X11913039Y-12210960D02*
X11903515Y-12201436D01*
X11903515Y-12201436D02*
X11893991Y-12182388D01*
X11893991Y-12182388D02*
X11893991Y-12125246D01*
X11893991Y-12125246D02*
X11903515Y-12106198D01*
X11903515Y-12106198D02*
X11913039Y-12096674D01*
X11913039Y-12096674D02*
X11932087Y-12087150D01*
X11932087Y-12087150D02*
X11960658Y-12087150D01*
X11960658Y-12087150D02*
X11979706Y-12096674D01*
X11979706Y-12096674D02*
X11989230Y-12106198D01*
X11989230Y-12106198D02*
X11998753Y-12125246D01*
X11998753Y-12125246D02*
X11998753Y-12182388D01*
X11998753Y-12182388D02*
X11989230Y-12201436D01*
X11989230Y-12201436D02*
X11979706Y-12210960D01*
X11979706Y-12210960D02*
X11960658Y-12220484D01*
X11960658Y-12220484D02*
X11932087Y-12220484D01*
X12113039Y-12220484D02*
X12093991Y-12210960D01*
X12093991Y-12210960D02*
X12084468Y-12191912D01*
X12084468Y-12191912D02*
X12084468Y-12020484D01*
X12265420Y-12210960D02*
X12246372Y-12220484D01*
X12246372Y-12220484D02*
X12208277Y-12220484D01*
X12208277Y-12220484D02*
X12189230Y-12210960D01*
X12189230Y-12210960D02*
X12179706Y-12191912D01*
X12179706Y-12191912D02*
X12179706Y-12115722D01*
X12179706Y-12115722D02*
X12189230Y-12096674D01*
X12189230Y-12096674D02*
X12208277Y-12087150D01*
X12208277Y-12087150D02*
X12246372Y-12087150D01*
X12246372Y-12087150D02*
X12265420Y-12096674D01*
X12265420Y-12096674D02*
X12274944Y-12115722D01*
X12274944Y-12115722D02*
X12274944Y-12134769D01*
X12274944Y-12134769D02*
X12179706Y-12153817D01*
X12351134Y-12210960D02*
X12370182Y-12220484D01*
X12370182Y-12220484D02*
X12408277Y-12220484D01*
X12408277Y-12220484D02*
X12427325Y-12210960D01*
X12427325Y-12210960D02*
X12436849Y-12191912D01*
X12436849Y-12191912D02*
X12436849Y-12182388D01*
X12436849Y-12182388D02*
X12427325Y-12163341D01*
X12427325Y-12163341D02*
X12408277Y-12153817D01*
X12408277Y-12153817D02*
X12379706Y-12153817D01*
X12379706Y-12153817D02*
X12360658Y-12144293D01*
X12360658Y-12144293D02*
X12351134Y-12125246D01*
X12351134Y-12125246D02*
X12351134Y-12115722D01*
X12351134Y-12115722D02*
X12360658Y-12096674D01*
X12360658Y-12096674D02*
X12379706Y-12087150D01*
X12379706Y-12087150D02*
X12408277Y-12087150D01*
X12408277Y-12087150D02*
X12427325Y-12096674D01*
X12503515Y-12296674D02*
X12513039Y-12287150D01*
X12513039Y-12287150D02*
X12532087Y-12258579D01*
X12532087Y-12258579D02*
X12541611Y-12239531D01*
X12541611Y-12239531D02*
X12551134Y-12210960D01*
X12551134Y-12210960D02*
X12560658Y-12163341D01*
X12560658Y-12163341D02*
X12560658Y-12125246D01*
X12560658Y-12125246D02*
X12551134Y-12077627D01*
X12551134Y-12077627D02*
X12541611Y-12049055D01*
X12541611Y-12049055D02*
X12532087Y-12030008D01*
X12532087Y-12030008D02*
X12513039Y-12001436D01*
X12513039Y-12001436D02*
X12503515Y-11991912D01*
D12*
X7347500Y-12393000D02*
G75*
G02*
X7282500Y-12393000I-32500J0D01*
G01*
X7282500Y-12393000D02*
G75*
G02*
X7347500Y-12393000I32500J0D01*
G01*
D11*
X7646372Y-12284484D02*
X7665420Y-12284484D01*
X7665420Y-12284484D02*
X7684467Y-12294008D01*
X7684467Y-12294008D02*
X7693991Y-12303531D01*
X7693991Y-12303531D02*
X7703515Y-12322579D01*
X7703515Y-12322579D02*
X7713039Y-12360674D01*
X7713039Y-12360674D02*
X7713039Y-12408293D01*
X7713039Y-12408293D02*
X7703515Y-12446388D01*
X7703515Y-12446388D02*
X7693991Y-12465436D01*
X7693991Y-12465436D02*
X7684467Y-12474960D01*
X7684467Y-12474960D02*
X7665420Y-12484484D01*
X7665420Y-12484484D02*
X7646372Y-12484484D01*
X7646372Y-12484484D02*
X7627324Y-12474960D01*
X7627324Y-12474960D02*
X7617801Y-12465436D01*
X7617801Y-12465436D02*
X7608277Y-12446388D01*
X7608277Y-12446388D02*
X7598753Y-12408293D01*
X7598753Y-12408293D02*
X7598753Y-12360674D01*
X7598753Y-12360674D02*
X7608277Y-12322579D01*
X7608277Y-12322579D02*
X7617801Y-12303531D01*
X7617801Y-12303531D02*
X7627324Y-12294008D01*
X7627324Y-12294008D02*
X7646372Y-12284484D01*
X7798753Y-12465436D02*
X7808277Y-12474960D01*
X7808277Y-12474960D02*
X7798753Y-12484484D01*
X7798753Y-12484484D02*
X7789229Y-12474960D01*
X7789229Y-12474960D02*
X7798753Y-12465436D01*
X7798753Y-12465436D02*
X7798753Y-12484484D01*
X7979705Y-12284484D02*
X7941610Y-12284484D01*
X7941610Y-12284484D02*
X7922562Y-12294008D01*
X7922562Y-12294008D02*
X7913039Y-12303531D01*
X7913039Y-12303531D02*
X7893991Y-12332103D01*
X7893991Y-12332103D02*
X7884467Y-12370198D01*
X7884467Y-12370198D02*
X7884467Y-12446388D01*
X7884467Y-12446388D02*
X7893991Y-12465436D01*
X7893991Y-12465436D02*
X7903515Y-12474960D01*
X7903515Y-12474960D02*
X7922562Y-12484484D01*
X7922562Y-12484484D02*
X7960658Y-12484484D01*
X7960658Y-12484484D02*
X7979705Y-12474960D01*
X7979705Y-12474960D02*
X7989229Y-12465436D01*
X7989229Y-12465436D02*
X7998753Y-12446388D01*
X7998753Y-12446388D02*
X7998753Y-12398769D01*
X7998753Y-12398769D02*
X7989229Y-12379722D01*
X7989229Y-12379722D02*
X7979705Y-12370198D01*
X7979705Y-12370198D02*
X7960658Y-12360674D01*
X7960658Y-12360674D02*
X7922562Y-12360674D01*
X7922562Y-12360674D02*
X7903515Y-12370198D01*
X7903515Y-12370198D02*
X7893991Y-12379722D01*
X7893991Y-12379722D02*
X7884467Y-12398769D01*
X8179705Y-12284484D02*
X8084467Y-12284484D01*
X8084467Y-12284484D02*
X8074943Y-12379722D01*
X8074943Y-12379722D02*
X8084467Y-12370198D01*
X8084467Y-12370198D02*
X8103515Y-12360674D01*
X8103515Y-12360674D02*
X8151134Y-12360674D01*
X8151134Y-12360674D02*
X8170182Y-12370198D01*
X8170182Y-12370198D02*
X8179705Y-12379722D01*
X8179705Y-12379722D02*
X8189229Y-12398769D01*
X8189229Y-12398769D02*
X8189229Y-12446388D01*
X8189229Y-12446388D02*
X8179705Y-12465436D01*
X8179705Y-12465436D02*
X8170182Y-12474960D01*
X8170182Y-12474960D02*
X8151134Y-12484484D01*
X8151134Y-12484484D02*
X8103515Y-12484484D01*
X8103515Y-12484484D02*
X8084467Y-12474960D01*
X8084467Y-12474960D02*
X8074943Y-12465436D01*
X8313039Y-12284484D02*
X8332086Y-12284484D01*
X8332086Y-12284484D02*
X8351134Y-12294008D01*
X8351134Y-12294008D02*
X8360658Y-12303531D01*
X8360658Y-12303531D02*
X8370182Y-12322579D01*
X8370182Y-12322579D02*
X8379705Y-12360674D01*
X8379705Y-12360674D02*
X8379705Y-12408293D01*
X8379705Y-12408293D02*
X8370182Y-12446388D01*
X8370182Y-12446388D02*
X8360658Y-12465436D01*
X8360658Y-12465436D02*
X8351134Y-12474960D01*
X8351134Y-12474960D02*
X8332086Y-12484484D01*
X8332086Y-12484484D02*
X8313039Y-12484484D01*
X8313039Y-12484484D02*
X8293991Y-12474960D01*
X8293991Y-12474960D02*
X8284467Y-12465436D01*
X8284467Y-12465436D02*
X8274943Y-12446388D01*
X8274943Y-12446388D02*
X8265420Y-12408293D01*
X8265420Y-12408293D02*
X8265420Y-12360674D01*
X8265420Y-12360674D02*
X8274943Y-12322579D01*
X8274943Y-12322579D02*
X8284467Y-12303531D01*
X8284467Y-12303531D02*
X8293991Y-12294008D01*
X8293991Y-12294008D02*
X8313039Y-12284484D01*
X8465420Y-12484484D02*
X8465420Y-12351150D01*
X8465420Y-12370198D02*
X8474944Y-12360674D01*
X8474944Y-12360674D02*
X8493991Y-12351150D01*
X8493991Y-12351150D02*
X8522563Y-12351150D01*
X8522563Y-12351150D02*
X8541610Y-12360674D01*
X8541610Y-12360674D02*
X8551134Y-12379722D01*
X8551134Y-12379722D02*
X8551134Y-12484484D01*
X8551134Y-12379722D02*
X8560658Y-12360674D01*
X8560658Y-12360674D02*
X8579705Y-12351150D01*
X8579705Y-12351150D02*
X8608277Y-12351150D01*
X8608277Y-12351150D02*
X8627325Y-12360674D01*
X8627325Y-12360674D02*
X8636848Y-12379722D01*
X8636848Y-12379722D02*
X8636848Y-12484484D01*
X8732086Y-12484484D02*
X8732086Y-12351150D01*
X8732086Y-12370198D02*
X8741610Y-12360674D01*
X8741610Y-12360674D02*
X8760658Y-12351150D01*
X8760658Y-12351150D02*
X8789229Y-12351150D01*
X8789229Y-12351150D02*
X8808277Y-12360674D01*
X8808277Y-12360674D02*
X8817801Y-12379722D01*
X8817801Y-12379722D02*
X8817801Y-12484484D01*
X8817801Y-12379722D02*
X8827325Y-12360674D01*
X8827325Y-12360674D02*
X8846372Y-12351150D01*
X8846372Y-12351150D02*
X8874944Y-12351150D01*
X8874944Y-12351150D02*
X8893991Y-12360674D01*
X8893991Y-12360674D02*
X8903515Y-12379722D01*
X8903515Y-12379722D02*
X8903515Y-12484484D01*
X9293991Y-12274960D02*
X9122563Y-12532103D01*
X9551134Y-12284484D02*
X9570182Y-12284484D01*
X9570182Y-12284484D02*
X9589229Y-12294008D01*
X9589229Y-12294008D02*
X9598753Y-12303531D01*
X9598753Y-12303531D02*
X9608277Y-12322579D01*
X9608277Y-12322579D02*
X9617801Y-12360674D01*
X9617801Y-12360674D02*
X9617801Y-12408293D01*
X9617801Y-12408293D02*
X9608277Y-12446388D01*
X9608277Y-12446388D02*
X9598753Y-12465436D01*
X9598753Y-12465436D02*
X9589229Y-12474960D01*
X9589229Y-12474960D02*
X9570182Y-12484484D01*
X9570182Y-12484484D02*
X9551134Y-12484484D01*
X9551134Y-12484484D02*
X9532087Y-12474960D01*
X9532087Y-12474960D02*
X9522563Y-12465436D01*
X9522563Y-12465436D02*
X9513039Y-12446388D01*
X9513039Y-12446388D02*
X9503515Y-12408293D01*
X9503515Y-12408293D02*
X9503515Y-12360674D01*
X9503515Y-12360674D02*
X9513039Y-12322579D01*
X9513039Y-12322579D02*
X9522563Y-12303531D01*
X9522563Y-12303531D02*
X9532087Y-12294008D01*
X9532087Y-12294008D02*
X9551134Y-12284484D01*
X9703515Y-12465436D02*
X9713039Y-12474960D01*
X9713039Y-12474960D02*
X9703515Y-12484484D01*
X9703515Y-12484484D02*
X9693991Y-12474960D01*
X9693991Y-12474960D02*
X9703515Y-12465436D01*
X9703515Y-12465436D02*
X9703515Y-12484484D01*
X9836848Y-12284484D02*
X9855896Y-12284484D01*
X9855896Y-12284484D02*
X9874944Y-12294008D01*
X9874944Y-12294008D02*
X9884468Y-12303531D01*
X9884468Y-12303531D02*
X9893991Y-12322579D01*
X9893991Y-12322579D02*
X9903515Y-12360674D01*
X9903515Y-12360674D02*
X9903515Y-12408293D01*
X9903515Y-12408293D02*
X9893991Y-12446388D01*
X9893991Y-12446388D02*
X9884468Y-12465436D01*
X9884468Y-12465436D02*
X9874944Y-12474960D01*
X9874944Y-12474960D02*
X9855896Y-12484484D01*
X9855896Y-12484484D02*
X9836848Y-12484484D01*
X9836848Y-12484484D02*
X9817801Y-12474960D01*
X9817801Y-12474960D02*
X9808277Y-12465436D01*
X9808277Y-12465436D02*
X9798753Y-12446388D01*
X9798753Y-12446388D02*
X9789229Y-12408293D01*
X9789229Y-12408293D02*
X9789229Y-12360674D01*
X9789229Y-12360674D02*
X9798753Y-12322579D01*
X9798753Y-12322579D02*
X9808277Y-12303531D01*
X9808277Y-12303531D02*
X9817801Y-12294008D01*
X9817801Y-12294008D02*
X9836848Y-12284484D01*
X9979706Y-12303531D02*
X9989229Y-12294008D01*
X9989229Y-12294008D02*
X10008277Y-12284484D01*
X10008277Y-12284484D02*
X10055896Y-12284484D01*
X10055896Y-12284484D02*
X10074944Y-12294008D01*
X10074944Y-12294008D02*
X10084468Y-12303531D01*
X10084468Y-12303531D02*
X10093991Y-12322579D01*
X10093991Y-12322579D02*
X10093991Y-12341627D01*
X10093991Y-12341627D02*
X10084468Y-12370198D01*
X10084468Y-12370198D02*
X9970182Y-12484484D01*
X9970182Y-12484484D02*
X10093991Y-12484484D01*
X10274944Y-12284484D02*
X10179706Y-12284484D01*
X10179706Y-12284484D02*
X10170182Y-12379722D01*
X10170182Y-12379722D02*
X10179706Y-12370198D01*
X10179706Y-12370198D02*
X10198753Y-12360674D01*
X10198753Y-12360674D02*
X10246372Y-12360674D01*
X10246372Y-12360674D02*
X10265420Y-12370198D01*
X10265420Y-12370198D02*
X10274944Y-12379722D01*
X10274944Y-12379722D02*
X10284468Y-12398769D01*
X10284468Y-12398769D02*
X10284468Y-12446388D01*
X10284468Y-12446388D02*
X10274944Y-12465436D01*
X10274944Y-12465436D02*
X10265420Y-12474960D01*
X10265420Y-12474960D02*
X10246372Y-12484484D01*
X10246372Y-12484484D02*
X10198753Y-12484484D01*
X10198753Y-12484484D02*
X10179706Y-12474960D01*
X10179706Y-12474960D02*
X10170182Y-12465436D01*
X10455896Y-12284484D02*
X10417801Y-12284484D01*
X10417801Y-12284484D02*
X10398753Y-12294008D01*
X10398753Y-12294008D02*
X10389229Y-12303531D01*
X10389229Y-12303531D02*
X10370182Y-12332103D01*
X10370182Y-12332103D02*
X10360658Y-12370198D01*
X10360658Y-12370198D02*
X10360658Y-12446388D01*
X10360658Y-12446388D02*
X10370182Y-12465436D01*
X10370182Y-12465436D02*
X10379706Y-12474960D01*
X10379706Y-12474960D02*
X10398753Y-12484484D01*
X10398753Y-12484484D02*
X10436849Y-12484484D01*
X10436849Y-12484484D02*
X10455896Y-12474960D01*
X10455896Y-12474960D02*
X10465420Y-12465436D01*
X10465420Y-12465436D02*
X10474944Y-12446388D01*
X10474944Y-12446388D02*
X10474944Y-12398769D01*
X10474944Y-12398769D02*
X10465420Y-12379722D01*
X10465420Y-12379722D02*
X10455896Y-12370198D01*
X10455896Y-12370198D02*
X10436849Y-12360674D01*
X10436849Y-12360674D02*
X10398753Y-12360674D01*
X10398753Y-12360674D02*
X10379706Y-12370198D01*
X10379706Y-12370198D02*
X10370182Y-12379722D01*
X10370182Y-12379722D02*
X10360658Y-12398769D01*
X10551134Y-12284484D02*
X10551134Y-12322579D01*
X10627325Y-12284484D02*
X10627325Y-12322579D01*
X10922563Y-12560674D02*
X10913039Y-12551150D01*
X10913039Y-12551150D02*
X10893991Y-12522579D01*
X10893991Y-12522579D02*
X10884468Y-12503531D01*
X10884468Y-12503531D02*
X10874944Y-12474960D01*
X10874944Y-12474960D02*
X10865420Y-12427341D01*
X10865420Y-12427341D02*
X10865420Y-12389246D01*
X10865420Y-12389246D02*
X10874944Y-12341627D01*
X10874944Y-12341627D02*
X10884468Y-12313055D01*
X10884468Y-12313055D02*
X10893991Y-12294008D01*
X10893991Y-12294008D02*
X10913039Y-12265436D01*
X10913039Y-12265436D02*
X10922563Y-12255912D01*
X11027325Y-12370198D02*
X11008277Y-12360674D01*
X11008277Y-12360674D02*
X10998753Y-12351150D01*
X10998753Y-12351150D02*
X10989230Y-12332103D01*
X10989230Y-12332103D02*
X10989230Y-12322579D01*
X10989230Y-12322579D02*
X10998753Y-12303531D01*
X10998753Y-12303531D02*
X11008277Y-12294008D01*
X11008277Y-12294008D02*
X11027325Y-12284484D01*
X11027325Y-12284484D02*
X11065420Y-12284484D01*
X11065420Y-12284484D02*
X11084468Y-12294008D01*
X11084468Y-12294008D02*
X11093991Y-12303531D01*
X11093991Y-12303531D02*
X11103515Y-12322579D01*
X11103515Y-12322579D02*
X11103515Y-12332103D01*
X11103515Y-12332103D02*
X11093991Y-12351150D01*
X11093991Y-12351150D02*
X11084468Y-12360674D01*
X11084468Y-12360674D02*
X11065420Y-12370198D01*
X11065420Y-12370198D02*
X11027325Y-12370198D01*
X11027325Y-12370198D02*
X11008277Y-12379722D01*
X11008277Y-12379722D02*
X10998753Y-12389246D01*
X10998753Y-12389246D02*
X10989230Y-12408293D01*
X10989230Y-12408293D02*
X10989230Y-12446388D01*
X10989230Y-12446388D02*
X10998753Y-12465436D01*
X10998753Y-12465436D02*
X11008277Y-12474960D01*
X11008277Y-12474960D02*
X11027325Y-12484484D01*
X11027325Y-12484484D02*
X11065420Y-12484484D01*
X11065420Y-12484484D02*
X11084468Y-12474960D01*
X11084468Y-12474960D02*
X11093991Y-12465436D01*
X11093991Y-12465436D02*
X11103515Y-12446388D01*
X11103515Y-12446388D02*
X11103515Y-12408293D01*
X11103515Y-12408293D02*
X11093991Y-12389246D01*
X11093991Y-12389246D02*
X11084468Y-12379722D01*
X11084468Y-12379722D02*
X11065420Y-12370198D01*
X11341610Y-12484484D02*
X11341610Y-12284484D01*
X11427325Y-12484484D02*
X11427325Y-12379722D01*
X11427325Y-12379722D02*
X11417801Y-12360674D01*
X11417801Y-12360674D02*
X11398753Y-12351150D01*
X11398753Y-12351150D02*
X11370182Y-12351150D01*
X11370182Y-12351150D02*
X11351134Y-12360674D01*
X11351134Y-12360674D02*
X11341610Y-12370198D01*
X11551134Y-12484484D02*
X11532087Y-12474960D01*
X11532087Y-12474960D02*
X11522563Y-12465436D01*
X11522563Y-12465436D02*
X11513039Y-12446388D01*
X11513039Y-12446388D02*
X11513039Y-12389246D01*
X11513039Y-12389246D02*
X11522563Y-12370198D01*
X11522563Y-12370198D02*
X11532087Y-12360674D01*
X11532087Y-12360674D02*
X11551134Y-12351150D01*
X11551134Y-12351150D02*
X11579706Y-12351150D01*
X11579706Y-12351150D02*
X11598753Y-12360674D01*
X11598753Y-12360674D02*
X11608277Y-12370198D01*
X11608277Y-12370198D02*
X11617801Y-12389246D01*
X11617801Y-12389246D02*
X11617801Y-12446388D01*
X11617801Y-12446388D02*
X11608277Y-12465436D01*
X11608277Y-12465436D02*
X11598753Y-12474960D01*
X11598753Y-12474960D02*
X11579706Y-12484484D01*
X11579706Y-12484484D02*
X11551134Y-12484484D01*
X11732087Y-12484484D02*
X11713039Y-12474960D01*
X11713039Y-12474960D02*
X11703515Y-12455912D01*
X11703515Y-12455912D02*
X11703515Y-12284484D01*
X11884468Y-12474960D02*
X11865420Y-12484484D01*
X11865420Y-12484484D02*
X11827325Y-12484484D01*
X11827325Y-12484484D02*
X11808277Y-12474960D01*
X11808277Y-12474960D02*
X11798753Y-12455912D01*
X11798753Y-12455912D02*
X11798753Y-12379722D01*
X11798753Y-12379722D02*
X11808277Y-12360674D01*
X11808277Y-12360674D02*
X11827325Y-12351150D01*
X11827325Y-12351150D02*
X11865420Y-12351150D01*
X11865420Y-12351150D02*
X11884468Y-12360674D01*
X11884468Y-12360674D02*
X11893991Y-12379722D01*
X11893991Y-12379722D02*
X11893991Y-12398769D01*
X11893991Y-12398769D02*
X11798753Y-12417817D01*
X11970182Y-12474960D02*
X11989230Y-12484484D01*
X11989230Y-12484484D02*
X12027325Y-12484484D01*
X12027325Y-12484484D02*
X12046372Y-12474960D01*
X12046372Y-12474960D02*
X12055896Y-12455912D01*
X12055896Y-12455912D02*
X12055896Y-12446388D01*
X12055896Y-12446388D02*
X12046372Y-12427341D01*
X12046372Y-12427341D02*
X12027325Y-12417817D01*
X12027325Y-12417817D02*
X11998753Y-12417817D01*
X11998753Y-12417817D02*
X11979706Y-12408293D01*
X11979706Y-12408293D02*
X11970182Y-12389246D01*
X11970182Y-12389246D02*
X11970182Y-12379722D01*
X11970182Y-12379722D02*
X11979706Y-12360674D01*
X11979706Y-12360674D02*
X11998753Y-12351150D01*
X11998753Y-12351150D02*
X12027325Y-12351150D01*
X12027325Y-12351150D02*
X12046372Y-12360674D01*
X12122563Y-12560674D02*
X12132087Y-12551150D01*
X12132087Y-12551150D02*
X12151134Y-12522579D01*
X12151134Y-12522579D02*
X12160658Y-12503531D01*
X12160658Y-12503531D02*
X12170182Y-12474960D01*
X12170182Y-12474960D02*
X12179706Y-12427341D01*
X12179706Y-12427341D02*
X12179706Y-12389246D01*
X12179706Y-12389246D02*
X12170182Y-12341627D01*
X12170182Y-12341627D02*
X12160658Y-12313055D01*
X12160658Y-12313055D02*
X12151134Y-12294008D01*
X12151134Y-12294008D02*
X12132087Y-12265436D01*
X12132087Y-12265436D02*
X12122563Y-12255912D01*
M02*
