%TF.GenerationSoftware,KiCad,Pcbnew,8.0.4-8.0.4-0~ubuntu20.04.1*%
%TF.CreationDate,2024-10-25T22:34:00+02:00*%
%TF.ProjectId,home_auto,686f6d65-5f61-4757-946f-2e6b69636164,rev?*%
%TF.SameCoordinates,Original*%
%TF.FileFunction,Legend,Bot*%
%TF.FilePolarity,Positive*%
%FSLAX46Y46*%
G04 Gerber Fmt 4.6, Leading zero omitted, Abs format (unit mm)*
G04 Created by KiCad (PCBNEW 8.0.4-8.0.4-0~ubuntu20.04.1) date 2024-10-25 22:34:00*
%MOMM*%
%LPD*%
G01*
G04 APERTURE LIST*
%ADD10C,0.150000*%
%ADD11C,0.120000*%
%ADD12C,0.127000*%
%ADD13C,0.200000*%
G04 APERTURE END LIST*
D10*
X104696666Y-109299580D02*
X104744285Y-109347200D01*
X104744285Y-109347200D02*
X104887142Y-109394819D01*
X104887142Y-109394819D02*
X104982380Y-109394819D01*
X104982380Y-109394819D02*
X105125237Y-109347200D01*
X105125237Y-109347200D02*
X105220475Y-109251961D01*
X105220475Y-109251961D02*
X105268094Y-109156723D01*
X105268094Y-109156723D02*
X105315713Y-108966247D01*
X105315713Y-108966247D02*
X105315713Y-108823390D01*
X105315713Y-108823390D02*
X105268094Y-108632914D01*
X105268094Y-108632914D02*
X105220475Y-108537676D01*
X105220475Y-108537676D02*
X105125237Y-108442438D01*
X105125237Y-108442438D02*
X104982380Y-108394819D01*
X104982380Y-108394819D02*
X104887142Y-108394819D01*
X104887142Y-108394819D02*
X104744285Y-108442438D01*
X104744285Y-108442438D02*
X104696666Y-108490057D01*
X103744285Y-109394819D02*
X104315713Y-109394819D01*
X104029999Y-109394819D02*
X104029999Y-108394819D01*
X104029999Y-108394819D02*
X104125237Y-108537676D01*
X104125237Y-108537676D02*
X104220475Y-108632914D01*
X104220475Y-108632914D02*
X104315713Y-108680533D01*
X97287467Y-82544065D02*
X97287467Y-83106495D01*
X97287467Y-83106495D02*
X97324962Y-83218981D01*
X97324962Y-83218981D02*
X97399953Y-83293972D01*
X97399953Y-83293972D02*
X97512439Y-83331467D01*
X97512439Y-83331467D02*
X97587430Y-83331467D01*
X96500065Y-83331467D02*
X96950009Y-83331467D01*
X96725037Y-83331467D02*
X96725037Y-82544065D01*
X96725037Y-82544065D02*
X96800028Y-82656551D01*
X96800028Y-82656551D02*
X96875019Y-82731542D01*
X96875019Y-82731542D02*
X96950009Y-82769037D01*
X94129047Y-94204819D02*
X94462380Y-93728628D01*
X94700475Y-94204819D02*
X94700475Y-93204819D01*
X94700475Y-93204819D02*
X94319523Y-93204819D01*
X94319523Y-93204819D02*
X94224285Y-93252438D01*
X94224285Y-93252438D02*
X94176666Y-93300057D01*
X94176666Y-93300057D02*
X94129047Y-93395295D01*
X94129047Y-93395295D02*
X94129047Y-93538152D01*
X94129047Y-93538152D02*
X94176666Y-93633390D01*
X94176666Y-93633390D02*
X94224285Y-93681009D01*
X94224285Y-93681009D02*
X94319523Y-93728628D01*
X94319523Y-93728628D02*
X94700475Y-93728628D01*
X93176666Y-94204819D02*
X93748094Y-94204819D01*
X93462380Y-94204819D02*
X93462380Y-93204819D01*
X93462380Y-93204819D02*
X93557618Y-93347676D01*
X93557618Y-93347676D02*
X93652856Y-93442914D01*
X93652856Y-93442914D02*
X93748094Y-93490533D01*
X92605237Y-93633390D02*
X92700475Y-93585771D01*
X92700475Y-93585771D02*
X92748094Y-93538152D01*
X92748094Y-93538152D02*
X92795713Y-93442914D01*
X92795713Y-93442914D02*
X92795713Y-93395295D01*
X92795713Y-93395295D02*
X92748094Y-93300057D01*
X92748094Y-93300057D02*
X92700475Y-93252438D01*
X92700475Y-93252438D02*
X92605237Y-93204819D01*
X92605237Y-93204819D02*
X92414761Y-93204819D01*
X92414761Y-93204819D02*
X92319523Y-93252438D01*
X92319523Y-93252438D02*
X92271904Y-93300057D01*
X92271904Y-93300057D02*
X92224285Y-93395295D01*
X92224285Y-93395295D02*
X92224285Y-93442914D01*
X92224285Y-93442914D02*
X92271904Y-93538152D01*
X92271904Y-93538152D02*
X92319523Y-93585771D01*
X92319523Y-93585771D02*
X92414761Y-93633390D01*
X92414761Y-93633390D02*
X92605237Y-93633390D01*
X92605237Y-93633390D02*
X92700475Y-93681009D01*
X92700475Y-93681009D02*
X92748094Y-93728628D01*
X92748094Y-93728628D02*
X92795713Y-93823866D01*
X92795713Y-93823866D02*
X92795713Y-94014342D01*
X92795713Y-94014342D02*
X92748094Y-94109580D01*
X92748094Y-94109580D02*
X92700475Y-94157200D01*
X92700475Y-94157200D02*
X92605237Y-94204819D01*
X92605237Y-94204819D02*
X92414761Y-94204819D01*
X92414761Y-94204819D02*
X92319523Y-94157200D01*
X92319523Y-94157200D02*
X92271904Y-94109580D01*
X92271904Y-94109580D02*
X92224285Y-94014342D01*
X92224285Y-94014342D02*
X92224285Y-93823866D01*
X92224285Y-93823866D02*
X92271904Y-93728628D01*
X92271904Y-93728628D02*
X92319523Y-93681009D01*
X92319523Y-93681009D02*
X92414761Y-93633390D01*
X91319523Y-93204819D02*
X91795713Y-93204819D01*
X91795713Y-93204819D02*
X91843332Y-93681009D01*
X91843332Y-93681009D02*
X91795713Y-93633390D01*
X91795713Y-93633390D02*
X91700475Y-93585771D01*
X91700475Y-93585771D02*
X91462380Y-93585771D01*
X91462380Y-93585771D02*
X91367142Y-93633390D01*
X91367142Y-93633390D02*
X91319523Y-93681009D01*
X91319523Y-93681009D02*
X91271904Y-93776247D01*
X91271904Y-93776247D02*
X91271904Y-94014342D01*
X91271904Y-94014342D02*
X91319523Y-94109580D01*
X91319523Y-94109580D02*
X91367142Y-94157200D01*
X91367142Y-94157200D02*
X91462380Y-94204819D01*
X91462380Y-94204819D02*
X91700475Y-94204819D01*
X91700475Y-94204819D02*
X91795713Y-94157200D01*
X91795713Y-94157200D02*
X91843332Y-94109580D01*
X104956666Y-107349580D02*
X105004285Y-107397200D01*
X105004285Y-107397200D02*
X105147142Y-107444819D01*
X105147142Y-107444819D02*
X105242380Y-107444819D01*
X105242380Y-107444819D02*
X105385237Y-107397200D01*
X105385237Y-107397200D02*
X105480475Y-107301961D01*
X105480475Y-107301961D02*
X105528094Y-107206723D01*
X105528094Y-107206723D02*
X105575713Y-107016247D01*
X105575713Y-107016247D02*
X105575713Y-106873390D01*
X105575713Y-106873390D02*
X105528094Y-106682914D01*
X105528094Y-106682914D02*
X105480475Y-106587676D01*
X105480475Y-106587676D02*
X105385237Y-106492438D01*
X105385237Y-106492438D02*
X105242380Y-106444819D01*
X105242380Y-106444819D02*
X105147142Y-106444819D01*
X105147142Y-106444819D02*
X105004285Y-106492438D01*
X105004285Y-106492438D02*
X104956666Y-106540057D01*
X104099523Y-106778152D02*
X104099523Y-107444819D01*
X104337618Y-106397200D02*
X104575713Y-107111485D01*
X104575713Y-107111485D02*
X103956666Y-107111485D01*
X103881666Y-107934580D02*
X103929285Y-107982200D01*
X103929285Y-107982200D02*
X104072142Y-108029819D01*
X104072142Y-108029819D02*
X104167380Y-108029819D01*
X104167380Y-108029819D02*
X104310237Y-107982200D01*
X104310237Y-107982200D02*
X104405475Y-107886961D01*
X104405475Y-107886961D02*
X104453094Y-107791723D01*
X104453094Y-107791723D02*
X104500713Y-107601247D01*
X104500713Y-107601247D02*
X104500713Y-107458390D01*
X104500713Y-107458390D02*
X104453094Y-107267914D01*
X104453094Y-107267914D02*
X104405475Y-107172676D01*
X104405475Y-107172676D02*
X104310237Y-107077438D01*
X104310237Y-107077438D02*
X104167380Y-107029819D01*
X104167380Y-107029819D02*
X104072142Y-107029819D01*
X104072142Y-107029819D02*
X103929285Y-107077438D01*
X103929285Y-107077438D02*
X103881666Y-107125057D01*
X103548332Y-107029819D02*
X102881666Y-107029819D01*
X102881666Y-107029819D02*
X103310237Y-108029819D01*
X101304819Y-91310952D02*
X100828628Y-90977619D01*
X101304819Y-90739524D02*
X100304819Y-90739524D01*
X100304819Y-90739524D02*
X100304819Y-91120476D01*
X100304819Y-91120476D02*
X100352438Y-91215714D01*
X100352438Y-91215714D02*
X100400057Y-91263333D01*
X100400057Y-91263333D02*
X100495295Y-91310952D01*
X100495295Y-91310952D02*
X100638152Y-91310952D01*
X100638152Y-91310952D02*
X100733390Y-91263333D01*
X100733390Y-91263333D02*
X100781009Y-91215714D01*
X100781009Y-91215714D02*
X100828628Y-91120476D01*
X100828628Y-91120476D02*
X100828628Y-90739524D01*
X101304819Y-92263333D02*
X101304819Y-91691905D01*
X101304819Y-91977619D02*
X100304819Y-91977619D01*
X100304819Y-91977619D02*
X100447676Y-91882381D01*
X100447676Y-91882381D02*
X100542914Y-91787143D01*
X100542914Y-91787143D02*
X100590533Y-91691905D01*
X100733390Y-92834762D02*
X100685771Y-92739524D01*
X100685771Y-92739524D02*
X100638152Y-92691905D01*
X100638152Y-92691905D02*
X100542914Y-92644286D01*
X100542914Y-92644286D02*
X100495295Y-92644286D01*
X100495295Y-92644286D02*
X100400057Y-92691905D01*
X100400057Y-92691905D02*
X100352438Y-92739524D01*
X100352438Y-92739524D02*
X100304819Y-92834762D01*
X100304819Y-92834762D02*
X100304819Y-93025238D01*
X100304819Y-93025238D02*
X100352438Y-93120476D01*
X100352438Y-93120476D02*
X100400057Y-93168095D01*
X100400057Y-93168095D02*
X100495295Y-93215714D01*
X100495295Y-93215714D02*
X100542914Y-93215714D01*
X100542914Y-93215714D02*
X100638152Y-93168095D01*
X100638152Y-93168095D02*
X100685771Y-93120476D01*
X100685771Y-93120476D02*
X100733390Y-93025238D01*
X100733390Y-93025238D02*
X100733390Y-92834762D01*
X100733390Y-92834762D02*
X100781009Y-92739524D01*
X100781009Y-92739524D02*
X100828628Y-92691905D01*
X100828628Y-92691905D02*
X100923866Y-92644286D01*
X100923866Y-92644286D02*
X101114342Y-92644286D01*
X101114342Y-92644286D02*
X101209580Y-92691905D01*
X101209580Y-92691905D02*
X101257200Y-92739524D01*
X101257200Y-92739524D02*
X101304819Y-92834762D01*
X101304819Y-92834762D02*
X101304819Y-93025238D01*
X101304819Y-93025238D02*
X101257200Y-93120476D01*
X101257200Y-93120476D02*
X101209580Y-93168095D01*
X101209580Y-93168095D02*
X101114342Y-93215714D01*
X101114342Y-93215714D02*
X100923866Y-93215714D01*
X100923866Y-93215714D02*
X100828628Y-93168095D01*
X100828628Y-93168095D02*
X100781009Y-93120476D01*
X100781009Y-93120476D02*
X100733390Y-93025238D01*
X100304819Y-93549048D02*
X100304819Y-94215714D01*
X100304819Y-94215714D02*
X101304819Y-93787143D01*
X97287467Y-106344065D02*
X97287467Y-106906495D01*
X97287467Y-106906495D02*
X97324962Y-107018981D01*
X97324962Y-107018981D02*
X97399953Y-107093972D01*
X97399953Y-107093972D02*
X97512439Y-107131467D01*
X97512439Y-107131467D02*
X97587430Y-107131467D01*
X96950009Y-106419056D02*
X96912514Y-106381560D01*
X96912514Y-106381560D02*
X96837523Y-106344065D01*
X96837523Y-106344065D02*
X96650047Y-106344065D01*
X96650047Y-106344065D02*
X96575056Y-106381560D01*
X96575056Y-106381560D02*
X96537561Y-106419056D01*
X96537561Y-106419056D02*
X96500065Y-106494046D01*
X96500065Y-106494046D02*
X96500065Y-106569037D01*
X96500065Y-106569037D02*
X96537561Y-106681523D01*
X96537561Y-106681523D02*
X96987505Y-107131467D01*
X96987505Y-107131467D02*
X96500065Y-107131467D01*
X104136666Y-106074819D02*
X104469999Y-105598628D01*
X104708094Y-106074819D02*
X104708094Y-105074819D01*
X104708094Y-105074819D02*
X104327142Y-105074819D01*
X104327142Y-105074819D02*
X104231904Y-105122438D01*
X104231904Y-105122438D02*
X104184285Y-105170057D01*
X104184285Y-105170057D02*
X104136666Y-105265295D01*
X104136666Y-105265295D02*
X104136666Y-105408152D01*
X104136666Y-105408152D02*
X104184285Y-105503390D01*
X104184285Y-105503390D02*
X104231904Y-105551009D01*
X104231904Y-105551009D02*
X104327142Y-105598628D01*
X104327142Y-105598628D02*
X104708094Y-105598628D01*
X103184285Y-106074819D02*
X103755713Y-106074819D01*
X103469999Y-106074819D02*
X103469999Y-105074819D01*
X103469999Y-105074819D02*
X103565237Y-105217676D01*
X103565237Y-105217676D02*
X103660475Y-105312914D01*
X103660475Y-105312914D02*
X103755713Y-105360533D01*
X96274819Y-92400952D02*
X95798628Y-92067619D01*
X96274819Y-91829524D02*
X95274819Y-91829524D01*
X95274819Y-91829524D02*
X95274819Y-92210476D01*
X95274819Y-92210476D02*
X95322438Y-92305714D01*
X95322438Y-92305714D02*
X95370057Y-92353333D01*
X95370057Y-92353333D02*
X95465295Y-92400952D01*
X95465295Y-92400952D02*
X95608152Y-92400952D01*
X95608152Y-92400952D02*
X95703390Y-92353333D01*
X95703390Y-92353333D02*
X95751009Y-92305714D01*
X95751009Y-92305714D02*
X95798628Y-92210476D01*
X95798628Y-92210476D02*
X95798628Y-91829524D01*
X96274819Y-93353333D02*
X96274819Y-92781905D01*
X96274819Y-93067619D02*
X95274819Y-93067619D01*
X95274819Y-93067619D02*
X95417676Y-92972381D01*
X95417676Y-92972381D02*
X95512914Y-92877143D01*
X95512914Y-92877143D02*
X95560533Y-92781905D01*
X95703390Y-93924762D02*
X95655771Y-93829524D01*
X95655771Y-93829524D02*
X95608152Y-93781905D01*
X95608152Y-93781905D02*
X95512914Y-93734286D01*
X95512914Y-93734286D02*
X95465295Y-93734286D01*
X95465295Y-93734286D02*
X95370057Y-93781905D01*
X95370057Y-93781905D02*
X95322438Y-93829524D01*
X95322438Y-93829524D02*
X95274819Y-93924762D01*
X95274819Y-93924762D02*
X95274819Y-94115238D01*
X95274819Y-94115238D02*
X95322438Y-94210476D01*
X95322438Y-94210476D02*
X95370057Y-94258095D01*
X95370057Y-94258095D02*
X95465295Y-94305714D01*
X95465295Y-94305714D02*
X95512914Y-94305714D01*
X95512914Y-94305714D02*
X95608152Y-94258095D01*
X95608152Y-94258095D02*
X95655771Y-94210476D01*
X95655771Y-94210476D02*
X95703390Y-94115238D01*
X95703390Y-94115238D02*
X95703390Y-93924762D01*
X95703390Y-93924762D02*
X95751009Y-93829524D01*
X95751009Y-93829524D02*
X95798628Y-93781905D01*
X95798628Y-93781905D02*
X95893866Y-93734286D01*
X95893866Y-93734286D02*
X96084342Y-93734286D01*
X96084342Y-93734286D02*
X96179580Y-93781905D01*
X96179580Y-93781905D02*
X96227200Y-93829524D01*
X96227200Y-93829524D02*
X96274819Y-93924762D01*
X96274819Y-93924762D02*
X96274819Y-94115238D01*
X96274819Y-94115238D02*
X96227200Y-94210476D01*
X96227200Y-94210476D02*
X96179580Y-94258095D01*
X96179580Y-94258095D02*
X96084342Y-94305714D01*
X96084342Y-94305714D02*
X95893866Y-94305714D01*
X95893866Y-94305714D02*
X95798628Y-94258095D01*
X95798628Y-94258095D02*
X95751009Y-94210476D01*
X95751009Y-94210476D02*
X95703390Y-94115238D01*
X95608152Y-95162857D02*
X96274819Y-95162857D01*
X95227200Y-94924762D02*
X95941485Y-94686667D01*
X95941485Y-94686667D02*
X95941485Y-95305714D01*
X103459523Y-92409819D02*
X103459523Y-93124104D01*
X103459523Y-93124104D02*
X103507142Y-93266961D01*
X103507142Y-93266961D02*
X103602380Y-93362200D01*
X103602380Y-93362200D02*
X103745237Y-93409819D01*
X103745237Y-93409819D02*
X103840475Y-93409819D01*
X102459523Y-93409819D02*
X103030951Y-93409819D01*
X102745237Y-93409819D02*
X102745237Y-92409819D01*
X102745237Y-92409819D02*
X102840475Y-92552676D01*
X102840475Y-92552676D02*
X102935713Y-92647914D01*
X102935713Y-92647914D02*
X103030951Y-92695533D01*
X102126189Y-92409819D02*
X101507142Y-92409819D01*
X101507142Y-92409819D02*
X101840475Y-92790771D01*
X101840475Y-92790771D02*
X101697618Y-92790771D01*
X101697618Y-92790771D02*
X101602380Y-92838390D01*
X101602380Y-92838390D02*
X101554761Y-92886009D01*
X101554761Y-92886009D02*
X101507142Y-92981247D01*
X101507142Y-92981247D02*
X101507142Y-93219342D01*
X101507142Y-93219342D02*
X101554761Y-93314580D01*
X101554761Y-93314580D02*
X101602380Y-93362200D01*
X101602380Y-93362200D02*
X101697618Y-93409819D01*
X101697618Y-93409819D02*
X101983332Y-93409819D01*
X101983332Y-93409819D02*
X102078570Y-93362200D01*
X102078570Y-93362200D02*
X102126189Y-93314580D01*
X102394819Y-91310952D02*
X101918628Y-90977619D01*
X102394819Y-90739524D02*
X101394819Y-90739524D01*
X101394819Y-90739524D02*
X101394819Y-91120476D01*
X101394819Y-91120476D02*
X101442438Y-91215714D01*
X101442438Y-91215714D02*
X101490057Y-91263333D01*
X101490057Y-91263333D02*
X101585295Y-91310952D01*
X101585295Y-91310952D02*
X101728152Y-91310952D01*
X101728152Y-91310952D02*
X101823390Y-91263333D01*
X101823390Y-91263333D02*
X101871009Y-91215714D01*
X101871009Y-91215714D02*
X101918628Y-91120476D01*
X101918628Y-91120476D02*
X101918628Y-90739524D01*
X102394819Y-92263333D02*
X102394819Y-91691905D01*
X102394819Y-91977619D02*
X101394819Y-91977619D01*
X101394819Y-91977619D02*
X101537676Y-91882381D01*
X101537676Y-91882381D02*
X101632914Y-91787143D01*
X101632914Y-91787143D02*
X101680533Y-91691905D01*
X101823390Y-92834762D02*
X101775771Y-92739524D01*
X101775771Y-92739524D02*
X101728152Y-92691905D01*
X101728152Y-92691905D02*
X101632914Y-92644286D01*
X101632914Y-92644286D02*
X101585295Y-92644286D01*
X101585295Y-92644286D02*
X101490057Y-92691905D01*
X101490057Y-92691905D02*
X101442438Y-92739524D01*
X101442438Y-92739524D02*
X101394819Y-92834762D01*
X101394819Y-92834762D02*
X101394819Y-93025238D01*
X101394819Y-93025238D02*
X101442438Y-93120476D01*
X101442438Y-93120476D02*
X101490057Y-93168095D01*
X101490057Y-93168095D02*
X101585295Y-93215714D01*
X101585295Y-93215714D02*
X101632914Y-93215714D01*
X101632914Y-93215714D02*
X101728152Y-93168095D01*
X101728152Y-93168095D02*
X101775771Y-93120476D01*
X101775771Y-93120476D02*
X101823390Y-93025238D01*
X101823390Y-93025238D02*
X101823390Y-92834762D01*
X101823390Y-92834762D02*
X101871009Y-92739524D01*
X101871009Y-92739524D02*
X101918628Y-92691905D01*
X101918628Y-92691905D02*
X102013866Y-92644286D01*
X102013866Y-92644286D02*
X102204342Y-92644286D01*
X102204342Y-92644286D02*
X102299580Y-92691905D01*
X102299580Y-92691905D02*
X102347200Y-92739524D01*
X102347200Y-92739524D02*
X102394819Y-92834762D01*
X102394819Y-92834762D02*
X102394819Y-93025238D01*
X102394819Y-93025238D02*
X102347200Y-93120476D01*
X102347200Y-93120476D02*
X102299580Y-93168095D01*
X102299580Y-93168095D02*
X102204342Y-93215714D01*
X102204342Y-93215714D02*
X102013866Y-93215714D01*
X102013866Y-93215714D02*
X101918628Y-93168095D01*
X101918628Y-93168095D02*
X101871009Y-93120476D01*
X101871009Y-93120476D02*
X101823390Y-93025238D01*
X101823390Y-93787143D02*
X101775771Y-93691905D01*
X101775771Y-93691905D02*
X101728152Y-93644286D01*
X101728152Y-93644286D02*
X101632914Y-93596667D01*
X101632914Y-93596667D02*
X101585295Y-93596667D01*
X101585295Y-93596667D02*
X101490057Y-93644286D01*
X101490057Y-93644286D02*
X101442438Y-93691905D01*
X101442438Y-93691905D02*
X101394819Y-93787143D01*
X101394819Y-93787143D02*
X101394819Y-93977619D01*
X101394819Y-93977619D02*
X101442438Y-94072857D01*
X101442438Y-94072857D02*
X101490057Y-94120476D01*
X101490057Y-94120476D02*
X101585295Y-94168095D01*
X101585295Y-94168095D02*
X101632914Y-94168095D01*
X101632914Y-94168095D02*
X101728152Y-94120476D01*
X101728152Y-94120476D02*
X101775771Y-94072857D01*
X101775771Y-94072857D02*
X101823390Y-93977619D01*
X101823390Y-93977619D02*
X101823390Y-93787143D01*
X101823390Y-93787143D02*
X101871009Y-93691905D01*
X101871009Y-93691905D02*
X101918628Y-93644286D01*
X101918628Y-93644286D02*
X102013866Y-93596667D01*
X102013866Y-93596667D02*
X102204342Y-93596667D01*
X102204342Y-93596667D02*
X102299580Y-93644286D01*
X102299580Y-93644286D02*
X102347200Y-93691905D01*
X102347200Y-93691905D02*
X102394819Y-93787143D01*
X102394819Y-93787143D02*
X102394819Y-93977619D01*
X102394819Y-93977619D02*
X102347200Y-94072857D01*
X102347200Y-94072857D02*
X102299580Y-94120476D01*
X102299580Y-94120476D02*
X102204342Y-94168095D01*
X102204342Y-94168095D02*
X102013866Y-94168095D01*
X102013866Y-94168095D02*
X101918628Y-94120476D01*
X101918628Y-94120476D02*
X101871009Y-94072857D01*
X101871009Y-94072857D02*
X101823390Y-93977619D01*
X101836666Y-108039580D02*
X101884285Y-108087200D01*
X101884285Y-108087200D02*
X102027142Y-108134819D01*
X102027142Y-108134819D02*
X102122380Y-108134819D01*
X102122380Y-108134819D02*
X102265237Y-108087200D01*
X102265237Y-108087200D02*
X102360475Y-107991961D01*
X102360475Y-107991961D02*
X102408094Y-107896723D01*
X102408094Y-107896723D02*
X102455713Y-107706247D01*
X102455713Y-107706247D02*
X102455713Y-107563390D01*
X102455713Y-107563390D02*
X102408094Y-107372914D01*
X102408094Y-107372914D02*
X102360475Y-107277676D01*
X102360475Y-107277676D02*
X102265237Y-107182438D01*
X102265237Y-107182438D02*
X102122380Y-107134819D01*
X102122380Y-107134819D02*
X102027142Y-107134819D01*
X102027142Y-107134819D02*
X101884285Y-107182438D01*
X101884285Y-107182438D02*
X101836666Y-107230057D01*
X100979523Y-107134819D02*
X101169999Y-107134819D01*
X101169999Y-107134819D02*
X101265237Y-107182438D01*
X101265237Y-107182438D02*
X101312856Y-107230057D01*
X101312856Y-107230057D02*
X101408094Y-107372914D01*
X101408094Y-107372914D02*
X101455713Y-107563390D01*
X101455713Y-107563390D02*
X101455713Y-107944342D01*
X101455713Y-107944342D02*
X101408094Y-108039580D01*
X101408094Y-108039580D02*
X101360475Y-108087200D01*
X101360475Y-108087200D02*
X101265237Y-108134819D01*
X101265237Y-108134819D02*
X101074761Y-108134819D01*
X101074761Y-108134819D02*
X100979523Y-108087200D01*
X100979523Y-108087200D02*
X100931904Y-108039580D01*
X100931904Y-108039580D02*
X100884285Y-107944342D01*
X100884285Y-107944342D02*
X100884285Y-107706247D01*
X100884285Y-107706247D02*
X100931904Y-107611009D01*
X100931904Y-107611009D02*
X100979523Y-107563390D01*
X100979523Y-107563390D02*
X101074761Y-107515771D01*
X101074761Y-107515771D02*
X101265237Y-107515771D01*
X101265237Y-107515771D02*
X101360475Y-107563390D01*
X101360475Y-107563390D02*
X101408094Y-107611009D01*
X101408094Y-107611009D02*
X101455713Y-107706247D01*
D11*
%TO.C,C22*%
X95002164Y-100270000D02*
X95217836Y-100270000D01*
X95002164Y-100990000D02*
X95217836Y-100990000D01*
%TO.C,C1*%
X106988748Y-108075000D02*
X107511252Y-108075000D01*
X106988748Y-109545000D02*
X107511252Y-109545000D01*
%TO.C,C30*%
X89082164Y-99620000D02*
X89297836Y-99620000D01*
X89082164Y-100340000D02*
X89297836Y-100340000D01*
%TO.C,C41*%
X96610000Y-95342164D02*
X96610000Y-95557836D01*
X97330000Y-95342164D02*
X97330000Y-95557836D01*
%TO.C,C21*%
X87227836Y-98890000D02*
X87012164Y-98890000D01*
X87227836Y-99610000D02*
X87012164Y-99610000D01*
%TO.C,R186*%
X96790000Y-99816359D02*
X96790000Y-100123641D01*
X97550000Y-99816359D02*
X97550000Y-100123641D01*
%TO.C,C52*%
X91620000Y-97862164D02*
X91620000Y-98077836D01*
X92340000Y-97862164D02*
X92340000Y-98077836D01*
D12*
%TO.C,J1*%
X82175000Y-85025000D02*
X82175000Y-88625000D01*
X82175000Y-88625000D02*
X83005000Y-88625000D01*
X83005000Y-85025000D02*
X82175000Y-85025000D01*
X98445000Y-88625000D02*
X99275000Y-88625000D01*
X99275000Y-85025000D02*
X98445000Y-85025000D01*
X99275000Y-88625000D02*
X99275000Y-85025000D01*
D13*
X83575000Y-90175000D02*
G75*
G02*
X83375000Y-90175000I-100000J0D01*
G01*
X83375000Y-90175000D02*
G75*
G02*
X83575000Y-90175000I100000J0D01*
G01*
D11*
%TO.C,C53*%
X92600000Y-100132164D02*
X92600000Y-100347836D01*
X93320000Y-100132164D02*
X93320000Y-100347836D01*
%TO.C,C55*%
X96557836Y-97930000D02*
X96342164Y-97930000D01*
X96557836Y-98650000D02*
X96342164Y-98650000D01*
%TO.C,R185*%
X93163641Y-92200000D02*
X92856359Y-92200000D01*
X93163641Y-92960000D02*
X92856359Y-92960000D01*
%TO.C,C4*%
X106792164Y-106690000D02*
X107007836Y-106690000D01*
X106792164Y-107410000D02*
X107007836Y-107410000D01*
%TO.C,C18*%
X90402164Y-101170000D02*
X90617836Y-101170000D01*
X90402164Y-101890000D02*
X90617836Y-101890000D01*
%TO.C,C40*%
X88330000Y-95457836D02*
X88330000Y-95242164D01*
X89050000Y-95457836D02*
X89050000Y-95242164D01*
%TO.C,C19*%
X88192164Y-102680000D02*
X88407836Y-102680000D01*
X88192164Y-103400000D02*
X88407836Y-103400000D01*
%TO.C,C37*%
X94087836Y-94820000D02*
X93872164Y-94820000D01*
X94087836Y-95540000D02*
X93872164Y-95540000D01*
%TO.C,C47*%
X88452164Y-101160000D02*
X88667836Y-101160000D01*
X88452164Y-101880000D02*
X88667836Y-101880000D01*
%TO.C,C45*%
X90050000Y-98007836D02*
X90050000Y-97792164D01*
X90770000Y-98007836D02*
X90770000Y-97792164D01*
%TO.C,C20*%
X94272164Y-101260000D02*
X94487836Y-101260000D01*
X94272164Y-101980000D02*
X94487836Y-101980000D01*
%TO.C,C49*%
X87247836Y-97890000D02*
X87032164Y-97890000D01*
X87247836Y-98610000D02*
X87032164Y-98610000D01*
%TO.C,C7*%
X103040000Y-109713748D02*
X103040000Y-110236252D01*
X104510000Y-109713748D02*
X104510000Y-110236252D01*
%TO.C,C32*%
X91407836Y-100170000D02*
X91192164Y-100170000D01*
X91407836Y-100890000D02*
X91192164Y-100890000D01*
%TO.C,C31*%
X94600000Y-98507836D02*
X94600000Y-98292164D01*
X95320000Y-98507836D02*
X95320000Y-98292164D01*
%TO.C,R187*%
X101640000Y-92583641D02*
X101640000Y-92276359D01*
X102400000Y-92583641D02*
X102400000Y-92276359D01*
D12*
%TO.C,J2*%
X82175000Y-108825000D02*
X82175000Y-112425000D01*
X82175000Y-112425000D02*
X83005000Y-112425000D01*
X83005000Y-108825000D02*
X82175000Y-108825000D01*
X98445000Y-112425000D02*
X99275000Y-112425000D01*
X99275000Y-108825000D02*
X98445000Y-108825000D01*
X99275000Y-112425000D02*
X99275000Y-108825000D01*
D13*
X83575000Y-113975000D02*
G75*
G02*
X83375000Y-113975000I-100000J0D01*
G01*
X83375000Y-113975000D02*
G75*
G02*
X83575000Y-113975000I100000J0D01*
G01*
D11*
%TO.C,C34*%
X95580000Y-103427836D02*
X95580000Y-103212164D01*
X96300000Y-103427836D02*
X96300000Y-103212164D01*
%TO.C,C50*%
X95590000Y-94557836D02*
X95590000Y-94342164D01*
X96310000Y-94557836D02*
X96310000Y-94342164D01*
%TO.C,R1*%
X103732742Y-106527500D02*
X104207258Y-106527500D01*
X103732742Y-107572500D02*
X104207258Y-107572500D01*
%TO.C,C33*%
X88470000Y-97337836D02*
X88470000Y-97122164D01*
X89190000Y-97337836D02*
X89190000Y-97122164D01*
%TO.C,R184*%
X96610000Y-93673641D02*
X96610000Y-93366359D01*
X97370000Y-93673641D02*
X97370000Y-93366359D01*
%TO.C,C43*%
X87247836Y-95640000D02*
X87032164Y-95640000D01*
X87247836Y-96360000D02*
X87032164Y-96360000D01*
%TO.C,C58*%
X91590000Y-102432164D02*
X91590000Y-102647836D01*
X92310000Y-102432164D02*
X92310000Y-102647836D01*
%TO.C,C38*%
X91697836Y-93990000D02*
X91482164Y-93990000D01*
X91697836Y-94710000D02*
X91482164Y-94710000D01*
%TO.C,C59*%
X94097836Y-102740000D02*
X93882164Y-102740000D01*
X94097836Y-103460000D02*
X93882164Y-103460000D01*
%TO.C,J13*%
X103760000Y-104235000D02*
X103760000Y-95410000D01*
X103760000Y-93890000D02*
X103760000Y-94650000D01*
X103213471Y-95410000D02*
X103760000Y-95410000D01*
X102957530Y-104235000D02*
X103760000Y-104235000D01*
X102650000Y-93890000D02*
X103760000Y-93890000D01*
X101540000Y-104235000D02*
X102342470Y-104235000D01*
X101540000Y-104235000D02*
X101540000Y-95410000D01*
X101540000Y-95410000D02*
X102086529Y-95410000D01*
%TO.C,R188*%
X102730000Y-92583641D02*
X102730000Y-92276359D01*
X103490000Y-92583641D02*
X103490000Y-92276359D01*
%TO.C,C6*%
X100865000Y-109688748D02*
X100865000Y-110211252D01*
X102335000Y-109688748D02*
X102335000Y-110211252D01*
%TO.C,C48*%
X86610000Y-101002164D02*
X86610000Y-101217836D01*
X87330000Y-101002164D02*
X87330000Y-101217836D01*
%TO.C,C46*%
X91640000Y-95832164D02*
X91640000Y-96047836D01*
X92360000Y-95832164D02*
X92360000Y-96047836D01*
%TO.C,C35*%
X89300000Y-95242164D02*
X89300000Y-95457836D01*
X90020000Y-95242164D02*
X90020000Y-95457836D01*
%TD*%
M02*
