%TF.GenerationSoftware,KiCad,Pcbnew,8.0.4-8.0.4-0~ubuntu20.04.1*%
%TF.CreationDate,2024-10-25T22:34:00+02:00*%
%TF.ProjectId,home_auto,686f6d65-5f61-4757-946f-2e6b69636164,rev?*%
%TF.SameCoordinates,Original*%
%TF.FileFunction,Copper,L4,Inr*%
%TF.FilePolarity,Positive*%
%FSLAX46Y46*%
G04 Gerber Fmt 4.6, Leading zero omitted, Abs format (unit mm)*
G04 Created by KiCad (PCBNEW 8.0.4-8.0.4-0~ubuntu20.04.1) date 2024-10-25 22:34:00*
%MOMM*%
%LPD*%
G01*
G04 APERTURE LIST*
%TA.AperFunction,ComponentPad*%
%ADD10O,1.000000X1.000000*%
%TD*%
%TA.AperFunction,ComponentPad*%
%ADD11R,1.000000X1.000000*%
%TD*%
%TA.AperFunction,ViaPad*%
%ADD12C,0.450000*%
%TD*%
%TA.AperFunction,ViaPad*%
%ADD13C,0.500000*%
%TD*%
%TA.AperFunction,Conductor*%
%ADD14C,0.090000*%
%TD*%
G04 APERTURE END LIST*
D10*
%TO.N,/FPGA_machX05/FTDI/NX_TCK*%
%TO.C,J13*%
X102650000Y-103540000D03*
%TO.N,GND*%
X102650000Y-102270000D03*
%TO.N,/FPGA_machX05/FTDI/NX_TMS*%
X102650000Y-101000000D03*
%TO.N,/FPGA_machX05/FTDI/JTAG_EN*%
X102650000Y-99730000D03*
%TO.N,unconnected-(J13-Pin_4-Pad4)*%
X102650000Y-98460000D03*
%TO.N,/FPGA_machX05/FTDI/NX_TDI*%
X102650000Y-97190000D03*
%TO.N,/FPGA_machX05/FTDI/NX_TDO*%
X102650000Y-95920000D03*
D11*
%TO.N,+3V3_BANK*%
X102650000Y-94650000D03*
%TD*%
D12*
%TO.N,+3V3_BANK*%
X83110000Y-91400000D03*
%TO.N,GND*%
X98670000Y-106750000D03*
X106510000Y-89430000D03*
X106510000Y-88430000D03*
X106510000Y-87430000D03*
X106510000Y-86430000D03*
X106510000Y-85430000D03*
X106510000Y-84430000D03*
X105510000Y-89430000D03*
X105510000Y-88430000D03*
X105510000Y-87430000D03*
X105510000Y-86430000D03*
X105510000Y-85430000D03*
X105510000Y-84430000D03*
X104510000Y-108430000D03*
X104510000Y-89430000D03*
X104510000Y-88430000D03*
X104510000Y-87430000D03*
X104510000Y-86430000D03*
X104510000Y-85430000D03*
X104510000Y-84430000D03*
X103510000Y-89430000D03*
X103510000Y-88430000D03*
X103510000Y-87430000D03*
X103510000Y-86430000D03*
X103510000Y-85430000D03*
X103510000Y-84430000D03*
X102510000Y-88430000D03*
X102510000Y-87430000D03*
X102510000Y-86430000D03*
X102510000Y-85430000D03*
X102510000Y-84430000D03*
X101510000Y-87430000D03*
X101510000Y-86430000D03*
X101510000Y-85430000D03*
X101510000Y-84430000D03*
X100510000Y-86430000D03*
X100510000Y-85430000D03*
X100510000Y-84430000D03*
X99510000Y-87430000D03*
X99510000Y-86430000D03*
X99510000Y-85430000D03*
X99510000Y-84430000D03*
X82510000Y-109430000D03*
X82510000Y-90430000D03*
X81510000Y-109430000D03*
X81510000Y-108430000D03*
%TO.N,+3V3_BANK*%
X100370000Y-89950000D03*
%TO.N,GND*%
X82650000Y-96660000D03*
X75350000Y-98260000D03*
X87960000Y-89660000D03*
X88930000Y-113920000D03*
%TO.N,/FPGA_machX05/FPGA_GPIO/PWM38*%
X96940000Y-113890000D03*
%TO.N,/FPGA_machX05/FPGA_GPIO/PWM32*%
X95490000Y-113460000D03*
%TO.N,/FPGA_machX05/FPGA_GPIO/PWM30*%
X94950000Y-113860000D03*
%TO.N,GND*%
X94470000Y-113450000D03*
%TO.N,+1V8*%
X82736153Y-88016743D03*
X82030000Y-89286743D03*
X82030000Y-88030000D03*
X82030000Y-88658480D03*
X82736153Y-89273486D03*
X82736153Y-88645223D03*
X78640000Y-103180667D03*
X78640000Y-102551798D03*
X78640000Y-101930000D03*
X78640000Y-101302435D03*
X78640000Y-100673564D03*
%TO.N,+3V3*%
X82090000Y-84313257D03*
X82090000Y-85570000D03*
X82090000Y-84941737D03*
X82796153Y-85556743D03*
X82796153Y-84928480D03*
X82796153Y-84300000D03*
X77698940Y-90488872D03*
X77685330Y-91110180D03*
X77056329Y-91108854D03*
X77070000Y-90480000D03*
%TO.N,+1V8_BANK*%
X76850000Y-97793236D03*
X76850000Y-99050000D03*
X76850000Y-98421618D03*
X77537928Y-99028382D03*
X77537928Y-98400000D03*
X77537928Y-97771618D03*
%TO.N,VCC_AUX*%
X81690000Y-107870000D03*
X81110000Y-107870000D03*
D13*
%TO.N,VCC_AUXA*%
X80250000Y-95510000D03*
X79590000Y-95540000D03*
D12*
%TO.N,+5V*%
X108790000Y-101550000D03*
X108790000Y-102290000D03*
X108790000Y-102940000D03*
X108790000Y-107040000D03*
X108790000Y-107600000D03*
X98830000Y-86250000D03*
X98830000Y-88470000D03*
X98830000Y-86990000D03*
X98830000Y-85510000D03*
X98830000Y-87730000D03*
X98830000Y-84770000D03*
X98730000Y-112480000D03*
X98730000Y-111740000D03*
X98730000Y-111000000D03*
X98730000Y-110260000D03*
X98730000Y-109520000D03*
X98730000Y-108780000D03*
%TO.N,+1V0*%
X106750000Y-110950000D03*
X106760000Y-110330000D03*
X106170000Y-110330000D03*
X106160000Y-110950000D03*
X105570000Y-110950000D03*
X105580000Y-110330000D03*
X100200000Y-110950000D03*
X100180000Y-110330000D03*
%TO.N,GND*%
X94000000Y-90000000D03*
X95180000Y-95140000D03*
X104975385Y-102325000D03*
X92780000Y-102340000D03*
X97579998Y-104735000D03*
X87980000Y-99930000D03*
X105900000Y-102930000D03*
X87180000Y-96730000D03*
X104975385Y-101720000D03*
X105900000Y-101720000D03*
X90380000Y-95140000D03*
X95180000Y-99930000D03*
X106824615Y-101115000D03*
X107749230Y-100510000D03*
X107749230Y-102325000D03*
X87980000Y-97530000D03*
X106824615Y-101720000D03*
X95980000Y-96740000D03*
X98015188Y-92389120D03*
X85225000Y-105250000D03*
X104975385Y-100510000D03*
X107749230Y-101115000D03*
X104050770Y-102325000D03*
X104050770Y-100510000D03*
X92780000Y-95135000D03*
X94380000Y-102330000D03*
X91180000Y-99140000D03*
X105900000Y-101115000D03*
X106824615Y-102930000D03*
X96780000Y-97530000D03*
X105900000Y-100510000D03*
X104050770Y-101720000D03*
X90380000Y-99130000D03*
X107749230Y-101720000D03*
X91180000Y-98340000D03*
X105900000Y-102325000D03*
X85075000Y-92375000D03*
X106824615Y-102325000D03*
X104050770Y-102930000D03*
X106824615Y-100510000D03*
X107749230Y-102930000D03*
X104050770Y-101115000D03*
X87980000Y-95130000D03*
X104975385Y-102930000D03*
X89580000Y-102340000D03*
X90380000Y-103130000D03*
X104975385Y-101115000D03*
X95134525Y-105256969D03*
X87980000Y-102340000D03*
%TO.N,+5V*%
X76130000Y-86580000D03*
X77050000Y-83960000D03*
X75570000Y-86580000D03*
X78010000Y-83970000D03*
X75020000Y-86580000D03*
X77530000Y-83950000D03*
X77610000Y-112869998D03*
X78420000Y-112869998D03*
X76800000Y-112869998D03*
X79230000Y-112869998D03*
D13*
%TO.N,Net-(PS1-BOOT)*%
X107474000Y-104362024D03*
%TO.N,Net-(PS1-SW)*%
X106000000Y-105825000D03*
D12*
%TO.N,+1V0*%
X106280000Y-92310000D03*
X95180000Y-96740000D03*
X91180000Y-99930000D03*
X82873860Y-95858413D03*
X82501000Y-94490000D03*
X90380000Y-99930000D03*
X87980000Y-96730000D03*
%TO.N,VCC_AUXA*%
X90380000Y-95940000D03*
X91180000Y-97530000D03*
%TO.N,VCC_AUX*%
X92780000Y-101530000D03*
X91980000Y-99130000D03*
X88780000Y-102340000D03*
X92780000Y-95930000D03*
X100550000Y-98800000D03*
%TO.N,VCC_ADC*%
X100740000Y-104500000D03*
X95180000Y-103140000D03*
%TO.N,Net-(PS1-EN)*%
X107850000Y-97800000D03*
%TO.N,/FPGA_machX05/FPGA_GPIO/PWM73*%
X96975000Y-83550000D03*
X100958608Y-95526399D03*
%TO.N,/FPGA_machX05/FPGA_GPIO/PWM22*%
X83490000Y-94950000D03*
%TO.N,/FPGA_machX05/FPGA_GPIO/PWM7*%
X86945122Y-113867887D03*
X84500000Y-102810000D03*
%TO.N,/FPGA_machX05/FPGA_GPIO/PWM35*%
X99400000Y-101600000D03*
%TO.N,/FPGA_machX05/FPGA_GPIO/PWM50*%
X97660000Y-91870000D03*
%TO.N,/FPGA_machX05/FPGA_GPIO/PWM48*%
X98981000Y-92133843D03*
%TO.N,/FPGA_machX05/FPGA_GPIO/PWM64*%
X88700000Y-92100000D03*
%TO.N,/FPGA_machX05/FPGA_GPIO/PWM30*%
X98650000Y-104220000D03*
%TO.N,/FPGA_machX05/FPGA_GPIO/PWM28*%
X87175000Y-94325000D03*
%TO.N,/FPGA_machX05/FPGA_GPIO/PWM58*%
X91310736Y-91523861D03*
%TO.N,/FPGA_machX05/FPGA_GPIO/PWM54*%
X92777033Y-91822015D03*
%TO.N,/FPGA_machX05/FPGA_GPIO/PWM0*%
X83625000Y-105450000D03*
%TO.N,/FPGA_machX05/FPGA_GPIO/PWM29*%
X86525000Y-83950000D03*
X87180000Y-95135000D03*
%TO.N,/FPGA_machX05/FPGA_GPIO/PWM6*%
X83590000Y-102860000D03*
%TO.N,/FPGA_machX05/FPGA_GPIO/PWM55*%
X93479892Y-91178240D03*
X91975000Y-83950000D03*
%TO.N,/FPGA_machX05/FPGA_GPIO/PWM53*%
X94175000Y-91250000D03*
X92442769Y-83550000D03*
%TO.N,/FPGA_machX05/FPGA_GPIO/PWM37*%
X99180000Y-100580000D03*
%TO.N,/FPGA_machX05/FPGA_GPIO/PWM66*%
X87975000Y-92725000D03*
%TO.N,/FPGA_machX05/FPGA_GPIO/PWM32*%
X98490000Y-102970000D03*
%TO.N,/FPGA_machX05/FPGA_GPIO/PWM39*%
X99234871Y-99681178D03*
%TO.N,/FPGA_machX05/FPGA_GPIO/PWM5*%
X88475006Y-113475000D03*
X86370000Y-102330000D03*
%TO.N,/FPGA_machX05/FPGA_GPIO/PWM20*%
X83502755Y-95870000D03*
%TO.N,/FPGA_machX05/FPGA_GPIO/PWM67*%
X88975000Y-83950000D03*
X89130415Y-90825247D03*
%TO.N,/FPGA_machX05/FPGA_GPIO/PWM3*%
X87475000Y-113500002D03*
X85024000Y-104080539D03*
%TO.N,/FPGA_machX05/FPGA_GPIO/PWM43*%
X95475000Y-83950000D03*
X98828237Y-95236495D03*
%TO.N,/FPGA_machX05/FPGA_GPIO/PWM27*%
X86738241Y-91397193D03*
X87475000Y-84010000D03*
%TO.N,/FPGA_machX05/FPGA_GPIO/PWM21*%
X84460000Y-95870000D03*
X85450000Y-83950000D03*
%TO.N,/FPGA_machX05/FPGA_GPIO/PWM8*%
X83550000Y-101920000D03*
%TO.N,/FPGA_machX05/FPGA_GPIO/PWM47*%
X98366642Y-91849944D03*
X94500000Y-83950000D03*
%TO.N,/FPGA_machX05/FPGA_GPIO/PWM25*%
X87000000Y-83550000D03*
X85975000Y-92150000D03*
%TO.N,/FPGA_machX05/FPGA_GPIO/PWM24*%
X83492410Y-93457402D03*
%TO.N,/FPGA_machX05/FPGA_GPIO/PWM26*%
X86908673Y-92115266D03*
%TO.N,/FPGA_machX05/FPGA_GPIO/PWM60*%
X90475000Y-91000000D03*
%TO.N,/FPGA_machX05/FPGA_GPIO/PWM61*%
X91014789Y-92100630D03*
X90475000Y-83550000D03*
%TO.N,/FPGA_machX05/FPGA_GPIO/PWM68*%
X87825000Y-91150000D03*
%TO.N,/FPGA_machX05/FPGA_GPIO/PWM33*%
X99350000Y-102530000D03*
%TO.N,/FPGA_machX05/FPGA_GPIO/PWM70*%
X101130818Y-94904183D03*
%TO.N,/FPGA_machX05/FPGA_GPIO/PWM23*%
X84488295Y-94682784D03*
X85975000Y-83550000D03*
%TO.N,/FPGA_machX05/FPGA_GPIO/PWM49*%
X93981676Y-83550000D03*
X97020916Y-91960334D03*
%TO.N,/FPGA_machX05/FPGA_GPIO/PWM40*%
X99977577Y-95572179D03*
%TO.N,/FPGA_machX05/FPGA_GPIO/PWM69*%
X88450001Y-83599998D03*
X87952216Y-91830019D03*
%TO.N,/FPGA_machX05/FPGA_GPIO/PWM51*%
X96368785Y-91657535D03*
X92950000Y-83950000D03*
%TO.N,/FPGA_machX05/FPGA_GPIO/PWM11*%
X84387504Y-100970000D03*
X86000000Y-113875000D03*
%TO.N,/FPGA_machX05/FTDI/NX_TDO*%
X92790000Y-96730000D03*
%TO.N,/FPGA_machX05/FPGA_GPIO/PWM9*%
X84438230Y-101890000D03*
X86475002Y-113449998D03*
%TO.N,/FPGA_machX05/FPGA_GPIO/PWM36*%
X96470000Y-113470000D03*
X98584127Y-101044021D03*
%TO.N,/FPGA_machX05/FTDI/NX_TCK*%
X92770000Y-97530000D03*
%TO.N,/FPGA_machX05/FPGA_GPIO/PWM31*%
X98870000Y-103490000D03*
%TO.N,/FPGA_machX05/FPGA_GPIO/PWM65*%
X89450000Y-83550000D03*
X88749000Y-91416976D03*
%TO.N,/FPGA_machX05/FPGA_GPIO/PWM45*%
X95000000Y-83550000D03*
X98824996Y-94335000D03*
%TO.N,/FPGA_machX05/FPGA_GPIO/PWM52*%
X94800000Y-91150000D03*
%TO.N,/FPGA_machX05/FPGA_GPIO/PWM44*%
X99650000Y-93300000D03*
%TO.N,/FPGA_machX05/FPGA_GPIO/PWM57*%
X92534779Y-91161006D03*
X91500000Y-83550000D03*
%TO.N,/FPGA_machX05/FPGA_GPIO/PWM46*%
X99225000Y-92725000D03*
%TO.N,/FPGA_machX05/FPGA_GPIO/PWM62*%
X89605292Y-92398296D03*
%TO.N,/FPGA_machX05/FPGA_GPIO/PWM34*%
X98580000Y-102010000D03*
X95896767Y-113939776D03*
%TO.N,/FPGA_machX05/FPGA_GPIO/PWM56*%
X92060369Y-90682088D03*
%TO.N,/FPGA_machX05/FPGA_GPIO/PWM63*%
X89938284Y-83950000D03*
X89683452Y-91698645D03*
%TO.N,/FPGA_machX05/FPGA_GPIO/PWM59*%
X91421864Y-90773459D03*
X90975000Y-83950000D03*
%TO.N,/FPGA_machX05/FPGA_GPIO/PWM38*%
X98560000Y-100110000D03*
%TO.N,/FPGA_machX05/FPGA_GPIO/PWM12*%
X83570000Y-100080000D03*
%TO.N,/FPGA_machX05/FPGA_GPIO/PWM42*%
X99553371Y-96036607D03*
%TO.N,/FPGA_machX05/FPGA_GPIO/PWM4*%
X83580000Y-103780000D03*
%TO.N,/FPGA_machX05/FPGA_GPIO/PWM41*%
X95950000Y-83550000D03*
X99220000Y-96570000D03*
%TO.N,/FPGA_machX05/FPGA_GPIO/PWM1*%
X86032495Y-104282505D03*
X87978808Y-113876595D03*
%TO.N,/FPGA_machX05/FPGA_GPIO/PWM2*%
X83650000Y-104705270D03*
%TO.N,/FPGA_machX05/FPGA_GPIO/PWM15*%
X84490000Y-99130000D03*
X85000000Y-113875000D03*
%TO.N,/FPGA_machX05/FPGA_GPIO/PWM16*%
X83599404Y-98235000D03*
%TO.N,/FPGA_machX05/FPGA_GPIO/PWM17*%
X84500000Y-113475000D03*
X84529277Y-98210000D03*
%TO.N,+1V8_BANK*%
X93580000Y-102340000D03*
X92780000Y-103140000D03*
X89580000Y-103140000D03*
X90380000Y-102340000D03*
X96190000Y-106150000D03*
%TO.N,/FPGA_machX05/FPGA_GPIO/PWM18*%
X83975000Y-113850000D03*
X84470000Y-97290000D03*
%TO.N,/FPGA_machX05/FPGA_GPIO/PWM19*%
X83571256Y-97284448D03*
%TO.N,/FPGA_machX05/FPGA_GPIO/PWM13*%
X85475000Y-113450000D03*
X84419463Y-100050000D03*
%TO.N,/FPGA_machX05/FPGA_GPIO/PWM14*%
X83540000Y-99155000D03*
%TO.N,/FPGA_machX05/FPGA_GPIO/PWM10*%
X83610000Y-101000000D03*
%TO.N,+3V3_BANK*%
X89980000Y-93940000D03*
X95180000Y-102330000D03*
X95980000Y-99930000D03*
X94810000Y-93970000D03*
X77780000Y-93220000D03*
X87180000Y-102330000D03*
X95980000Y-97540000D03*
X87180000Y-97540000D03*
X78440000Y-93860000D03*
X86380000Y-96740000D03*
X96780000Y-96740000D03*
X78440000Y-93210000D03*
X88380000Y-93940000D03*
X87180000Y-99930000D03*
X77790000Y-93850000D03*
X93170000Y-93950000D03*
%TO.N,/FPGA_machX05/FPGA_GPIO/PWM72*%
X101296169Y-94297303D03*
%TO.N,/FPGA_machX05/FPGA_GPIO/dim_sw8_P*%
X93950000Y-105575000D03*
X93950000Y-113975000D03*
%TO.N,/FPGA_machX05/FPGA_GPIO/dim_sw5_N*%
X91068000Y-105431332D03*
%TO.N,/FPGA_machX05/FPGA_GPIO/dim_sw7_N*%
X93000000Y-106125000D03*
%TO.N,/FPGA_machX05/FPGA_GPIO/dim_sw6_N*%
X92975000Y-113900000D03*
X92070308Y-106072676D03*
%TO.N,/FPGA_machX05/FPGA_GPIO/dim_sw8_N*%
X93475000Y-113500000D03*
X93752879Y-106250843D03*
%TO.N,/FPGA_machX05/FPGA_GPIO/dim_sw9_N*%
X94700000Y-106625000D03*
%TO.N,/FPGA_machX05/FPGA_GPIO/dim_sw4_N*%
X91925000Y-113900000D03*
X90375000Y-104725000D03*
%TO.N,/FPGA_machX05/FPGA_GPIO/dim_sw7_P*%
X93025000Y-105475000D03*
%TO.N,/FPGA_machX05/FPGA_GPIO/dim_sw9_P*%
X94800000Y-106000000D03*
%TO.N,/FPGA_machX05/FPGA_GPIO/dim_sw6_P*%
X92500000Y-113475000D03*
X92120911Y-105440835D03*
%TO.N,/FPGA_machX05/FPGA_GPIO/dim_sw1_N*%
X88000000Y-106500000D03*
%TO.N,/FPGA_machX05/FPGA_GPIO/dim_sw0_P*%
X86523560Y-105333567D03*
X89975000Y-113875000D03*
%TO.N,/FPGA_machX05/FPGA_GPIO/dim_sw0_N*%
X87875000Y-105500000D03*
%TO.N,/FPGA_machX05/FPGA_GPIO/dim_sw3_N*%
X89786262Y-106302312D03*
%TO.N,/FPGA_machX05/FPGA_GPIO/dim_sw3_P*%
X89101298Y-106139697D03*
%TO.N,/FPGA_machX05/FPGA_GPIO/dim_sw2_P*%
X90475000Y-113450000D03*
X87980009Y-104735018D03*
%TO.N,/FPGA_machX05/FPGA_GPIO/dim_sw1_P*%
X86775000Y-106149998D03*
X89475000Y-113475000D03*
%TO.N,/FPGA_machX05/FPGA_GPIO/dim_sw2_N*%
X88592474Y-105653160D03*
X90925000Y-113900000D03*
%TO.N,/FPGA_machX05/FPGA_GPIO/dim_sw5_P*%
X91050000Y-106100000D03*
%TO.N,/FPGA_machX05/FPGA_GPIO/dim_sw4_P*%
X89700928Y-105508024D03*
X91475000Y-113450000D03*
%TO.N,/FPGA_machX05/FPGA_GPIO/PWM71*%
X96475000Y-83950000D03*
X100050000Y-94875000D03*
%TO.N,/FPGA_machX05/FTDI/NX_TDI*%
X98310000Y-97060000D03*
%TO.N,/FPGA_machX05/FTDI/JTAG_EN*%
X98350000Y-93540000D03*
%TO.N,/FPGA_machX05/FTDI/NX_TMS*%
X95980000Y-95935000D03*
%TO.N,/FPGA_machX05/FTDI/PROGRAMN*%
X94765973Y-91841368D03*
%TO.N,/FPGA_machX05/FTDI/DONE*%
X93825033Y-91805948D03*
%TO.N,/FPGA_machX05/FTDI/INIT*%
X95698360Y-91693096D03*
%TD*%
D14*
%TO.N,/FPGA_machX05/FPGA_GPIO/PWM47*%
X94500000Y-87983302D02*
X98366642Y-91849944D01*
X94500000Y-83900000D02*
X94500000Y-87983302D01*
%TO.N,/FPGA_machX05/FPGA_GPIO/PWM27*%
X87475000Y-84010000D02*
X87475000Y-90660434D01*
X87475000Y-90660434D02*
X86738241Y-91397193D01*
%TO.N,/FPGA_machX05/FPGA_GPIO/PWM38*%
X96950000Y-113425000D02*
X96950000Y-113880000D01*
X96950000Y-113880000D02*
X96940000Y-113890000D01*
%TO.N,/FPGA_machX05/FPGA_GPIO/PWM36*%
X96470000Y-107730000D02*
X96470000Y-113470000D01*
X100025000Y-104175000D02*
X96470000Y-107730000D01*
X100025000Y-101590018D02*
X100025000Y-104175000D01*
X98584127Y-101044021D02*
X99479003Y-101044021D01*
%TO.N,/FPGA_machX05/FPGA_GPIO/PWM34*%
X95896767Y-113939776D02*
X95940000Y-113896543D01*
X95940000Y-113896543D02*
X95940000Y-107948874D01*
X95940000Y-107948874D02*
X99799000Y-104089874D01*
X99799000Y-104089874D02*
X99799000Y-102324000D01*
X99556000Y-102081000D02*
X98651000Y-102081000D01*
X98651000Y-102081000D02*
X98580000Y-102010000D01*
%TO.N,/FPGA_machX05/FPGA_GPIO/PWM32*%
X95490000Y-113460000D02*
X95490000Y-108060000D01*
X95490000Y-108060000D02*
X98600000Y-104950000D01*
X98625000Y-104950000D02*
X99319000Y-104256000D01*
X99319000Y-104256000D02*
X99319000Y-103194000D01*
X99095000Y-102970000D02*
X98490000Y-102970000D01*
%TO.N,/FPGA_machX05/FPGA_GPIO/PWM30*%
X98650000Y-104220000D02*
X98650000Y-104521048D01*
X98650000Y-104521048D02*
X94950000Y-108221048D01*
X94950000Y-108221048D02*
X94950000Y-113860000D01*
%TO.N,VCC_AUX*%
X92780000Y-101530000D02*
X92780000Y-101540000D01*
%TO.N,/FPGA_machX05/FPGA_GPIO/PWM51*%
X96368785Y-91318785D02*
X96368785Y-91657535D01*
X92950000Y-87900000D02*
X96368785Y-91318785D01*
X92950000Y-83925000D02*
X92950000Y-87900000D01*
%TO.N,/FPGA_machX05/FPGA_GPIO/PWM73*%
X100600000Y-95167791D02*
X100600000Y-94229487D01*
X96975000Y-88088874D02*
X96975000Y-83650000D01*
X100978999Y-93500000D02*
X100978999Y-92092873D01*
X100978999Y-92092873D02*
X98505563Y-89619437D01*
X100958608Y-95526399D02*
X100600000Y-95167791D01*
X96975000Y-83650000D02*
X96975000Y-83550000D01*
X100600000Y-94229487D02*
X100978999Y-93850488D01*
%TO.N,/FPGA_machX05/FPGA_GPIO/PWM7*%
X86945122Y-113867887D02*
X87025005Y-113788004D01*
X87025005Y-113788004D02*
X87025005Y-109250005D01*
X84500000Y-106725000D02*
X84500000Y-102810000D01*
%TO.N,/FPGA_machX05/FPGA_GPIO/PWM29*%
X85526000Y-93481000D02*
X85526000Y-91274000D01*
X87180000Y-95135000D02*
X85526000Y-93481000D01*
X86525000Y-90275000D02*
X86525000Y-83950000D01*
%TO.N,/FPGA_machX05/FPGA_GPIO/PWM55*%
X93479892Y-90954892D02*
X93479892Y-91178240D01*
X91975000Y-84000000D02*
X91975000Y-89450000D01*
X91975000Y-89450000D02*
X93479892Y-90954892D01*
%TO.N,/FPGA_machX05/FPGA_GPIO/PWM53*%
X94175000Y-90459982D02*
X94175000Y-91250000D01*
X92442769Y-87742769D02*
X94449000Y-89749000D01*
X92442769Y-83553031D02*
X92442769Y-87742769D01*
X94449000Y-89749000D02*
X94449000Y-90185982D01*
%TO.N,/FPGA_machX05/FPGA_GPIO/PWM5*%
X86370000Y-102330000D02*
X86550000Y-102510000D01*
X88475006Y-109725006D02*
X88475006Y-113475000D01*
X85999560Y-107249560D02*
X88475006Y-109725006D01*
X86550000Y-102510000D02*
X86550000Y-104566079D01*
X85999560Y-105116519D02*
X85999560Y-107249560D01*
%TO.N,/FPGA_machX05/FPGA_GPIO/PWM67*%
X89050002Y-90744834D02*
X89130415Y-90825247D01*
X88975000Y-83950000D02*
X89050002Y-84025002D01*
X89050002Y-84025002D02*
X89050002Y-90744834D01*
%TO.N,/FPGA_machX05/FPGA_GPIO/PWM3*%
X84726000Y-104378539D02*
X85024000Y-104080539D01*
X84726000Y-106639874D02*
X84726000Y-104378539D01*
X87475000Y-113500002D02*
X87475000Y-109388874D01*
X87475000Y-109388874D02*
X84726000Y-106639874D01*
%TO.N,/FPGA_machX05/FPGA_GPIO/PWM43*%
X98828237Y-95236495D02*
X98828237Y-95067871D01*
X98828237Y-95067871D02*
X100273054Y-93623054D01*
X95475000Y-87625000D02*
X95475000Y-83925000D01*
X100319000Y-93577109D02*
X100319000Y-92469000D01*
X100319000Y-92469000D02*
X95475000Y-87625000D01*
%TO.N,/FPGA_machX05/FPGA_GPIO/PWM21*%
X85475000Y-90650000D02*
X85475000Y-83975000D01*
X84460000Y-95870000D02*
X83939000Y-95349000D01*
X85475000Y-83975000D02*
X85450000Y-83950000D01*
X84039295Y-94585705D02*
X84039295Y-92085705D01*
X83939000Y-95349000D02*
X83939000Y-94686000D01*
%TO.N,/FPGA_machX05/FPGA_GPIO/PWM25*%
X85975000Y-91461126D02*
X87000000Y-90436126D01*
X85975000Y-92150000D02*
X85975000Y-91461126D01*
X87000000Y-90436126D02*
X87000000Y-83525000D01*
%TO.N,/FPGA_machX05/FPGA_GPIO/PWM61*%
X90861736Y-91947577D02*
X91014789Y-92100630D01*
X90861736Y-91337879D02*
X90861736Y-91947577D01*
X90475000Y-83575000D02*
X90475000Y-85975000D01*
X90925000Y-86425000D02*
X90925000Y-91274615D01*
%TO.N,/FPGA_machX05/FPGA_GPIO/PWM23*%
X84488295Y-94682784D02*
X84488295Y-91961705D01*
X85975000Y-90475000D02*
X85975000Y-83600000D01*
%TO.N,/FPGA_machX05/FPGA_GPIO/PWM49*%
X97020916Y-91470916D02*
X97020916Y-91960334D01*
X93981676Y-83543652D02*
X93981676Y-88431676D01*
X93981676Y-88431676D02*
X97020916Y-91470916D01*
%TO.N,/FPGA_machX05/FPGA_GPIO/PWM69*%
X88274000Y-91508235D02*
X88274000Y-91126000D01*
X87952216Y-91830019D02*
X88274000Y-91508235D01*
X88450000Y-90950000D02*
X88450000Y-83600000D01*
%TO.N,/FPGA_machX05/FPGA_GPIO/PWM11*%
X82900000Y-101925000D02*
X82900000Y-105800000D01*
X82900000Y-105800000D02*
X86000000Y-108900000D01*
X84387504Y-100970000D02*
X83886504Y-101471000D01*
X86000000Y-108900000D02*
X86000000Y-113875000D01*
X83354000Y-101471000D02*
X82900000Y-101925000D01*
%TO.N,/FPGA_machX05/FTDI/NX_TDO*%
X92810000Y-96730000D02*
X92790000Y-96730000D01*
X95920000Y-98229000D02*
X95920000Y-98749000D01*
X99611000Y-97989000D02*
X97360000Y-97989000D01*
X94840000Y-97989000D02*
X94069000Y-97989000D01*
X97120000Y-98229000D02*
X97120000Y-98749000D01*
X94069000Y-97989000D02*
X92810000Y-96730000D01*
X96280000Y-97989000D02*
X96160000Y-97989000D01*
X96520000Y-98749000D02*
X96520000Y-98229000D01*
X96880000Y-98989000D02*
X96760000Y-98989000D01*
X95680000Y-98989000D02*
X95560000Y-98989000D01*
X95320000Y-98749000D02*
X95320000Y-98229000D01*
X95080000Y-97989000D02*
X94960000Y-97989000D01*
X101680000Y-95920000D02*
X99611000Y-97989000D01*
X102650000Y-95920000D02*
X101680000Y-95920000D01*
X96760000Y-98989000D02*
G75*
G02*
X96520000Y-98749000I0J240000D01*
G01*
X96520000Y-98229000D02*
G75*
G03*
X96280000Y-97989000I-240000J0D01*
G01*
X96160000Y-97989000D02*
G75*
G03*
X95920000Y-98229000I0J-240000D01*
G01*
X95560000Y-98989000D02*
G75*
G02*
X95320000Y-98749000I0J240000D01*
G01*
X95920000Y-98749000D02*
G75*
G02*
X95680000Y-98989000I-240000J0D01*
G01*
X97120000Y-98749000D02*
G75*
G02*
X96880000Y-98989000I-240000J0D01*
G01*
X95320000Y-98229000D02*
G75*
G03*
X95080000Y-97989000I-240000J0D01*
G01*
X97360000Y-97989000D02*
G75*
G03*
X97120000Y-98229000I0J-240000D01*
G01*
%TO.N,/FPGA_machX05/FPGA_GPIO/PWM9*%
X83756000Y-102369000D02*
X83281000Y-102369000D01*
X86475002Y-109063876D02*
X86475002Y-113449998D01*
X84438230Y-101890000D02*
X84235000Y-101890000D01*
X83131000Y-105719874D02*
X86475002Y-109063876D01*
X84235000Y-101890000D02*
X83756000Y-102369000D01*
X83131000Y-102519000D02*
X83131000Y-105719874D01*
%TO.N,/FPGA_machX05/FTDI/NX_TCK*%
X92770000Y-97530000D02*
X94472178Y-99232178D01*
X99770071Y-100005662D02*
X99706431Y-99942022D01*
X101300000Y-101111325D02*
X100194337Y-100005662D01*
X97535000Y-99022178D02*
X97865000Y-99022178D01*
X98405000Y-99232178D02*
X98604034Y-99232178D01*
X99642793Y-99454118D02*
X99420853Y-99232178D01*
X102650000Y-103540000D02*
X101300000Y-102190000D01*
X99706430Y-99517756D02*
X99642793Y-99454118D01*
X99420853Y-99232178D02*
X98620530Y-99232178D01*
X98075000Y-99232178D02*
X98405000Y-99232178D01*
X94472178Y-99232178D02*
X97325000Y-99232178D01*
X97970000Y-99127178D02*
G75*
G03*
X98075000Y-99232200I105000J-22D01*
G01*
X97325000Y-99232178D02*
G75*
G03*
X97429978Y-99127178I0J104978D01*
G01*
X99982203Y-100005661D02*
G75*
G02*
X99770035Y-100005699I-106103J106061D01*
G01*
X97430000Y-99127178D02*
G75*
G02*
X97535000Y-99022200I105000J-22D01*
G01*
X100194337Y-100005662D02*
G75*
G03*
X99982234Y-100005691I-106037J-106038D01*
G01*
X97865000Y-99022178D02*
G75*
G02*
X97970022Y-99127178I0J-105022D01*
G01*
X99706431Y-99942022D02*
G75*
G02*
X99706475Y-99729934I106069J106022D01*
G01*
X99706431Y-99729890D02*
G75*
G03*
X99706454Y-99517732I-106031J106090D01*
G01*
%TO.N,/FPGA_machX05/FPGA_GPIO/PWM65*%
X89450000Y-83500000D02*
X89450000Y-90483952D01*
X89330139Y-91416976D02*
X88749000Y-91416976D01*
X89649000Y-90682952D02*
X89649000Y-91098115D01*
X89649000Y-91098115D02*
X89330139Y-91416976D01*
%TO.N,/FPGA_machX05/FPGA_GPIO/PWM45*%
X99226000Y-93749000D02*
X98824996Y-94150004D01*
X99835982Y-93749000D02*
X99226000Y-93749000D01*
X98824996Y-94150004D02*
X98824996Y-94335000D01*
X95000000Y-83450000D02*
X95000000Y-87500000D01*
X95000000Y-87500000D02*
X100099000Y-92599000D01*
X100099000Y-92599000D02*
X100099000Y-93485982D01*
%TO.N,/FPGA_machX05/FPGA_GPIO/PWM57*%
X91500000Y-89400000D02*
X92534779Y-90434779D01*
X92534779Y-90434779D02*
X92534779Y-91161006D01*
X91500000Y-83575000D02*
X91500000Y-89400000D01*
%TO.N,/FPGA_machX05/FPGA_GPIO/PWM63*%
X89938284Y-91443813D02*
X89683452Y-91698645D01*
X89938284Y-83902993D02*
X89938284Y-91443813D01*
%TO.N,/FPGA_machX05/FPGA_GPIO/PWM59*%
X91220000Y-90571595D02*
X91421864Y-90773459D01*
X90975000Y-83975000D02*
X91220000Y-84220000D01*
X91220000Y-84220000D02*
X91220000Y-90571595D01*
%TO.N,/FPGA_machX05/FPGA_GPIO/PWM38*%
X96950000Y-107561126D02*
X96950000Y-112100000D01*
X98560000Y-100110000D02*
X98581000Y-100131000D01*
X96950000Y-112100000D02*
X96950000Y-113425000D01*
X99365982Y-100131000D02*
X100250000Y-101015018D01*
X100250000Y-101700000D02*
X100250000Y-104261126D01*
X99193063Y-105318063D02*
X96950000Y-107561126D01*
X98581000Y-100131000D02*
X99365982Y-100131000D01*
%TO.N,/FPGA_machX05/FPGA_GPIO/PWM41*%
X99220000Y-96570000D02*
X99104371Y-96454371D01*
X95950000Y-87700000D02*
X95950000Y-83500000D01*
X100539000Y-92289000D02*
X95950000Y-87700000D01*
X100539000Y-93200000D02*
X100539000Y-92289000D01*
X100539000Y-93668236D02*
X100539000Y-93200000D01*
X100493054Y-93714180D02*
X100538999Y-93668238D01*
X99325000Y-95375000D02*
X99325000Y-94882234D01*
X99325000Y-94882234D02*
X100493054Y-93714180D01*
X100539000Y-93275000D02*
X100539000Y-93200000D01*
X99104371Y-96454371D02*
X99104371Y-95595629D01*
%TO.N,/FPGA_machX05/FPGA_GPIO/PWM1*%
X85674000Y-107276748D02*
X85674000Y-104641000D01*
X87978808Y-113876595D02*
X87976674Y-113874461D01*
X87976674Y-113874461D02*
X87976674Y-109579422D01*
X85674000Y-104641000D02*
X86032495Y-104282505D01*
X87976674Y-109579422D02*
X85674000Y-107276748D01*
%TO.N,/FPGA_machX05/FPGA_GPIO/PWM15*%
X84975000Y-113850000D02*
X85000000Y-113875000D01*
X82425000Y-101250000D02*
X82425000Y-105975000D01*
X84975000Y-111475000D02*
X84975000Y-113850000D01*
X84470000Y-99130000D02*
X84000000Y-99600000D01*
X83969000Y-99631000D02*
X83344000Y-99631000D01*
X84975000Y-108525000D02*
X84975000Y-111475000D01*
X83344000Y-99631000D02*
X82425000Y-100550000D01*
X84490000Y-99130000D02*
X84470000Y-99130000D01*
X82800000Y-106350000D02*
X84975000Y-108525000D01*
%TO.N,/FPGA_machX05/FPGA_GPIO/PWM17*%
X84529277Y-98210000D02*
X84515000Y-98210000D01*
X83294000Y-98706000D02*
X82200000Y-99800000D01*
X84475000Y-113450000D02*
X84500000Y-113475000D01*
X84475000Y-108336126D02*
X84475000Y-112350000D01*
X82200000Y-100575000D02*
X82200000Y-106061126D01*
X84475000Y-112350000D02*
X84475000Y-113450000D01*
X84019000Y-98706000D02*
X83294000Y-98706000D01*
X84515000Y-98210000D02*
X84050000Y-98675000D01*
X82200000Y-106061126D02*
X83719437Y-107580563D01*
%TO.N,/FPGA_machX05/FPGA_GPIO/PWM18*%
X84470000Y-97290000D02*
X83974000Y-97786000D01*
X83974000Y-97786000D02*
X83514000Y-97786000D01*
X81950000Y-106150000D02*
X83300000Y-107500000D01*
X83413422Y-97786000D02*
X81950000Y-99249422D01*
X83950000Y-108150000D02*
X83950000Y-111200000D01*
X83950000Y-113825000D02*
X83975000Y-113850000D01*
X81950000Y-100350000D02*
X81950000Y-106150000D01*
X83950000Y-111200000D02*
X83950000Y-113825000D01*
%TO.N,/FPGA_machX05/FPGA_GPIO/PWM13*%
X84375000Y-100050000D02*
X83900000Y-100525000D01*
X85475000Y-108686126D02*
X85475000Y-112925000D01*
X83424018Y-100551000D02*
X82675000Y-101300018D01*
X83749000Y-100551000D02*
X83424018Y-100551000D01*
X84419463Y-100050000D02*
X84375000Y-100050000D01*
X83900000Y-100525000D02*
X83775000Y-100525000D01*
X85475000Y-112925000D02*
X85475000Y-113450000D01*
X82675000Y-102325000D02*
X82675000Y-105900000D01*
X84938874Y-108150000D02*
X85456937Y-108668063D01*
X82675000Y-105900000D02*
X84925000Y-108150000D01*
%TO.N,/FPGA_machX05/FPGA_GPIO/dim_sw8_P*%
X93975000Y-113950000D02*
X93950000Y-113975000D01*
X94201879Y-105826879D02*
X94201879Y-110548121D01*
X93975000Y-110775000D02*
X93975000Y-113950000D01*
X93950000Y-105575000D02*
X94201879Y-105826879D01*
%TO.N,/FPGA_machX05/FPGA_GPIO/dim_sw6_N*%
X92975000Y-111527748D02*
X92975000Y-113900000D01*
X92070308Y-106072676D02*
X92070308Y-110623056D01*
%TO.N,/FPGA_machX05/FPGA_GPIO/dim_sw8_N*%
X93752879Y-106250843D02*
X93752879Y-110022121D01*
X93475000Y-110300000D02*
X93475000Y-113500000D01*
%TO.N,/FPGA_machX05/FPGA_GPIO/dim_sw4_N*%
X90375000Y-104725000D02*
X90455262Y-104805262D01*
X91950000Y-112400000D02*
X91950000Y-113875000D01*
X91950000Y-113875000D02*
X91925000Y-113900000D01*
X90825000Y-110000000D02*
X91950000Y-111125000D01*
X90455262Y-104805262D02*
X90455262Y-109630262D01*
%TO.N,/FPGA_machX05/FPGA_GPIO/dim_sw6_P*%
X91934165Y-105440835D02*
X91625000Y-105750000D01*
X91621308Y-110485182D02*
X92500000Y-111363874D01*
X92120911Y-105440835D02*
X91934165Y-105440835D01*
X91621308Y-105880437D02*
X91621308Y-110485182D01*
X92500000Y-111400000D02*
X92500000Y-113475000D01*
X91625000Y-105750000D02*
X91625000Y-105876745D01*
%TO.N,/FPGA_machX05/FPGA_GPIO/dim_sw0_P*%
X87224000Y-106010127D02*
X87224000Y-107649000D01*
X86593551Y-105333567D02*
X87205000Y-105945016D01*
X87224000Y-107649000D02*
X89975000Y-110400000D01*
X89975000Y-110400000D02*
X89975000Y-113875000D01*
X86523560Y-105333567D02*
X86593551Y-105333567D01*
X87205000Y-105945016D02*
X87205000Y-105991127D01*
%TO.N,/FPGA_machX05/FPGA_GPIO/dim_sw2_P*%
X90375000Y-113350000D02*
X90475000Y-113450000D01*
X87444000Y-106575000D02*
X87444000Y-107557874D01*
X87880563Y-107994437D02*
X90375000Y-110488874D01*
X90375000Y-110488874D02*
X90375000Y-113350000D01*
X87725000Y-104725000D02*
X87425000Y-105025000D01*
X87444000Y-105919000D02*
X87444000Y-106575000D01*
X87980009Y-104735018D02*
X87735018Y-104735018D01*
X87425000Y-105025000D02*
X87425000Y-105900000D01*
%TO.N,/FPGA_machX05/FPGA_GPIO/dim_sw1_P*%
X86730000Y-107466126D02*
X89475000Y-110211126D01*
X86730000Y-106194998D02*
X86730000Y-107466126D01*
X89475000Y-110211126D02*
X89475000Y-113475000D01*
X86775000Y-106149998D02*
X86730000Y-106194998D01*
%TO.N,/FPGA_machX05/FPGA_GPIO/dim_sw2_N*%
X90950000Y-113875000D02*
X90950000Y-110752748D01*
X88592474Y-108395222D02*
X88592474Y-105653160D01*
X90950000Y-110752748D02*
X88592474Y-108395222D01*
X90925000Y-113900000D02*
X90950000Y-113875000D01*
%TO.N,/FPGA_machX05/FPGA_GPIO/dim_sw4_P*%
X90235262Y-106042358D02*
X90235262Y-109721388D01*
X91475000Y-110961126D02*
X91475000Y-113450000D01*
X89700928Y-105508024D02*
X90235262Y-106042358D01*
%TO.N,/FPGA_machX05/FPGA_GPIO/PWM71*%
X96475000Y-87900000D02*
X96475000Y-83950000D01*
X100758999Y-93759361D02*
X100758999Y-92183999D01*
X100050000Y-94875000D02*
X100050000Y-94468360D01*
X100050000Y-94468360D02*
X100758999Y-93759361D01*
X100758999Y-92183999D02*
X96475000Y-87900000D01*
%TO.N,/FPGA_machX05/FPGA_GPIO/dim_sw4_P*%
X90235262Y-109721388D02*
X91475000Y-110961126D01*
%TO.N,/FPGA_machX05/FPGA_GPIO/dim_sw2_P*%
X87444000Y-107557874D02*
X87880563Y-107994437D01*
X87425000Y-105900000D02*
X87444000Y-105919000D01*
X87735018Y-104735018D02*
X87725000Y-104725000D01*
%TO.N,/FPGA_machX05/FPGA_GPIO/dim_sw0_P*%
X87205000Y-105991127D02*
X87224000Y-106010127D01*
%TO.N,/FPGA_machX05/FPGA_GPIO/dim_sw6_P*%
X91625000Y-105876745D02*
X91621308Y-105880437D01*
X92500000Y-111363874D02*
X92500000Y-111400000D01*
%TO.N,/FPGA_machX05/FPGA_GPIO/dim_sw4_N*%
X90455262Y-109630262D02*
X90825000Y-110000000D01*
X91950000Y-111125000D02*
X91950000Y-112400000D01*
%TO.N,/FPGA_machX05/FPGA_GPIO/dim_sw8_N*%
X93752879Y-110022121D02*
X93475000Y-110300000D01*
%TO.N,/FPGA_machX05/FPGA_GPIO/dim_sw6_N*%
X92070308Y-110623056D02*
X92975000Y-111527748D01*
%TO.N,/FPGA_machX05/FPGA_GPIO/dim_sw8_P*%
X94201879Y-110548121D02*
X93975000Y-110775000D01*
%TO.N,/FPGA_machX05/FPGA_GPIO/PWM13*%
X83775000Y-100525000D02*
X83749000Y-100551000D01*
X82675000Y-101300018D02*
X82675000Y-102325000D01*
X84925000Y-108150000D02*
X84938874Y-108150000D01*
X85456937Y-108668063D02*
X85475000Y-108686126D01*
%TO.N,/FPGA_machX05/FPGA_GPIO/PWM18*%
X83514000Y-97786000D02*
X83413422Y-97786000D01*
X81950000Y-99249422D02*
X81950000Y-100350000D01*
X83300000Y-107500000D02*
X83950000Y-108150000D01*
%TO.N,/FPGA_machX05/FPGA_GPIO/PWM17*%
X84050000Y-98675000D02*
X84019000Y-98706000D01*
X82200000Y-99800000D02*
X82200000Y-100575000D01*
X83719437Y-107580563D02*
X84475000Y-108336126D01*
%TO.N,/FPGA_machX05/FPGA_GPIO/PWM15*%
X84000000Y-99600000D02*
X83969000Y-99631000D01*
X82425000Y-100550000D02*
X82425000Y-101250000D01*
X82425000Y-105975000D02*
X82800000Y-106350000D01*
%TO.N,/FPGA_machX05/FPGA_GPIO/PWM41*%
X99104371Y-95595629D02*
X99325000Y-95375000D01*
X100538999Y-93668238D02*
X100539000Y-93668236D01*
%TO.N,/FPGA_machX05/FPGA_GPIO/PWM38*%
X100250000Y-101015018D02*
X100250000Y-101700000D01*
X100250000Y-104261126D02*
X99193063Y-105318063D01*
%TO.N,/FPGA_machX05/FPGA_GPIO/PWM45*%
X100099000Y-93485982D02*
X99835982Y-93749000D01*
%TO.N,/FPGA_machX05/FPGA_GPIO/PWM65*%
X89450000Y-90483952D02*
X89649000Y-90682952D01*
%TO.N,/FPGA_machX05/FTDI/NX_TCK*%
X101300000Y-102190000D02*
X101300000Y-101111325D01*
X98604034Y-99232178D02*
X98620530Y-99232178D01*
%TO.N,/FPGA_machX05/FPGA_GPIO/PWM9*%
X83281000Y-102369000D02*
X83131000Y-102519000D01*
%TO.N,/FPGA_machX05/FTDI/NX_TDO*%
X94960000Y-97989000D02*
X94840000Y-97989000D01*
%TO.N,/FPGA_machX05/FPGA_GPIO/PWM11*%
X83886504Y-101471000D02*
X83354000Y-101471000D01*
%TO.N,/FPGA_machX05/FPGA_GPIO/PWM69*%
X88274000Y-91126000D02*
X88450000Y-90950000D01*
%TO.N,/FPGA_machX05/FPGA_GPIO/PWM23*%
X84488295Y-91961705D02*
X85975000Y-90475000D01*
%TO.N,/FPGA_machX05/FPGA_GPIO/PWM61*%
X90925000Y-91274615D02*
X90861736Y-91337879D01*
X90475000Y-85975000D02*
X90925000Y-86425000D01*
%TO.N,/FPGA_machX05/FPGA_GPIO/PWM21*%
X83939000Y-94686000D02*
X84039295Y-94585705D01*
X84039295Y-92085705D02*
X85475000Y-90650000D01*
%TO.N,/FPGA_machX05/FPGA_GPIO/PWM43*%
X100273054Y-93623054D02*
X100319000Y-93577109D01*
%TO.N,/FPGA_machX05/FPGA_GPIO/PWM5*%
X86550000Y-104566079D02*
X85999560Y-105116519D01*
%TO.N,/FPGA_machX05/FPGA_GPIO/PWM53*%
X94449000Y-90185982D02*
X94175000Y-90459982D01*
%TO.N,/FPGA_machX05/FPGA_GPIO/PWM29*%
X85526000Y-91274000D02*
X86525000Y-90275000D01*
%TO.N,/FPGA_machX05/FPGA_GPIO/PWM7*%
X87025005Y-109250005D02*
X84500000Y-106725000D01*
%TO.N,/FPGA_machX05/FPGA_GPIO/PWM73*%
X100978999Y-93850488D02*
X100978999Y-93500000D01*
X98505563Y-89619437D02*
X96975000Y-88088874D01*
%TO.N,/FPGA_machX05/FPGA_GPIO/PWM32*%
X99319000Y-103194000D02*
X99095000Y-102970000D01*
X98600000Y-104950000D02*
X98625000Y-104950000D01*
%TO.N,/FPGA_machX05/FPGA_GPIO/PWM34*%
X99799000Y-102324000D02*
X99556000Y-102081000D01*
%TO.N,/FPGA_machX05/FPGA_GPIO/PWM36*%
X99479003Y-101044021D02*
X100025000Y-101590018D01*
%TD*%
%TA.AperFunction,Conductor*%
%TO.N,+1V8_BANK*%
G36*
X92028124Y-101809685D02*
G01*
X92070516Y-101855684D01*
X92078500Y-101870666D01*
X92105899Y-101922083D01*
X92105901Y-101922086D01*
X92151660Y-101974895D01*
X92167903Y-101991472D01*
X92169246Y-101992843D01*
X92169247Y-101992844D01*
X92169249Y-101992845D01*
X92241118Y-102033046D01*
X92249063Y-102037490D01*
X92281825Y-102047110D01*
X92287543Y-102048789D01*
X92346320Y-102086565D01*
X92375344Y-102150121D01*
X92371304Y-102197155D01*
X92371807Y-102197235D01*
X92370694Y-102204259D01*
X92370538Y-102206081D01*
X92370280Y-102206874D01*
X92349196Y-102339997D01*
X92349196Y-102340002D01*
X92370279Y-102473121D01*
X92370280Y-102473124D01*
X92370281Y-102473126D01*
X92431472Y-102593220D01*
X92431473Y-102593221D01*
X92431476Y-102593225D01*
X92526774Y-102688523D01*
X92526778Y-102688526D01*
X92526780Y-102688528D01*
X92646874Y-102749719D01*
X92646876Y-102749719D01*
X92646878Y-102749720D01*
X92779998Y-102770804D01*
X92780000Y-102770804D01*
X92780002Y-102770804D01*
X92913121Y-102749720D01*
X92913121Y-102749719D01*
X92913126Y-102749719D01*
X93033220Y-102688528D01*
X93128528Y-102593220D01*
X93189719Y-102473126D01*
X93192366Y-102456414D01*
X93210804Y-102340002D01*
X93210804Y-102339997D01*
X93189720Y-102206878D01*
X93189719Y-102206876D01*
X93189719Y-102206874D01*
X93185590Y-102198771D01*
X93172695Y-102130105D01*
X93198971Y-102065364D01*
X93237758Y-102033049D01*
X93292085Y-102004100D01*
X93344889Y-101958345D01*
X93362843Y-101940754D01*
X93407490Y-101860937D01*
X93407490Y-101860935D01*
X93410889Y-101854860D01*
X93413311Y-101856214D01*
X93449510Y-101811774D01*
X93515919Y-101790057D01*
X93519695Y-101790000D01*
X94018889Y-101790000D01*
X94085928Y-101809685D01*
X94131683Y-101862489D01*
X94141627Y-101931647D01*
X94112602Y-101995203D01*
X94106570Y-102001681D01*
X94031476Y-102076774D01*
X94031473Y-102076778D01*
X93970279Y-102196878D01*
X93949196Y-102329997D01*
X93949196Y-102330002D01*
X93970279Y-102463121D01*
X93970280Y-102463124D01*
X93970281Y-102463126D01*
X94002546Y-102526449D01*
X94031473Y-102583221D01*
X94031476Y-102583225D01*
X94126774Y-102678523D01*
X94126777Y-102678525D01*
X94126780Y-102678528D01*
X94197829Y-102714729D01*
X94248624Y-102762702D01*
X94265532Y-102824550D01*
X94269333Y-103535337D01*
X94250007Y-103602481D01*
X94197449Y-103648517D01*
X94145335Y-103660000D01*
X90751111Y-103660000D01*
X90684072Y-103640315D01*
X90638317Y-103587511D01*
X90628373Y-103518353D01*
X90657398Y-103454797D01*
X90663430Y-103448319D01*
X90728523Y-103383225D01*
X90728528Y-103383220D01*
X90789719Y-103263126D01*
X90810804Y-103130000D01*
X90789719Y-102996874D01*
X90728528Y-102876780D01*
X90728526Y-102876778D01*
X90728523Y-102876774D01*
X90633225Y-102781476D01*
X90633221Y-102781473D01*
X90633220Y-102781472D01*
X90513126Y-102720281D01*
X90513124Y-102720280D01*
X90513121Y-102720279D01*
X90380002Y-102699196D01*
X90379998Y-102699196D01*
X90246878Y-102720279D01*
X90126778Y-102781473D01*
X90126774Y-102781476D01*
X90031476Y-102876774D01*
X90031473Y-102876778D01*
X89970279Y-102996878D01*
X89949196Y-103129997D01*
X89949196Y-103130002D01*
X89970279Y-103263121D01*
X89970280Y-103263124D01*
X89970281Y-103263126D01*
X90031472Y-103383220D01*
X90031473Y-103383221D01*
X90031476Y-103383225D01*
X90096570Y-103448319D01*
X90130055Y-103509642D01*
X90125071Y-103579334D01*
X90083199Y-103635267D01*
X90017735Y-103659684D01*
X90008889Y-103660000D01*
X88594000Y-103660000D01*
X88526961Y-103640315D01*
X88481206Y-103587511D01*
X88470000Y-103536000D01*
X88470000Y-103059500D01*
X88489685Y-102992461D01*
X88542489Y-102946706D01*
X88594000Y-102935500D01*
X89065991Y-102935500D01*
X89066000Y-102935500D01*
X89109684Y-102930803D01*
X89138875Y-102924452D01*
X89161174Y-102919602D01*
X89161190Y-102919598D01*
X89161195Y-102919597D01*
X89171373Y-102917110D01*
X89252085Y-102874100D01*
X89304889Y-102828345D01*
X89322843Y-102810754D01*
X89322847Y-102810745D01*
X89328230Y-102803708D01*
X89329594Y-102804751D01*
X89371983Y-102763212D01*
X89440402Y-102749052D01*
X89449698Y-102750166D01*
X89503972Y-102758762D01*
X89579998Y-102770804D01*
X89580000Y-102770804D01*
X89580002Y-102770804D01*
X89713121Y-102749720D01*
X89713121Y-102749719D01*
X89713126Y-102749719D01*
X89833220Y-102688528D01*
X89928528Y-102593220D01*
X89989719Y-102473126D01*
X89992366Y-102456414D01*
X90010804Y-102340002D01*
X90010804Y-102339997D01*
X89989720Y-102206878D01*
X89989719Y-102206876D01*
X89989719Y-102206874D01*
X89928528Y-102086780D01*
X89928526Y-102086778D01*
X89928523Y-102086774D01*
X89843430Y-102001681D01*
X89809945Y-101940358D01*
X89814929Y-101870666D01*
X89856801Y-101814733D01*
X89922265Y-101790316D01*
X89931111Y-101790000D01*
X91961085Y-101790000D01*
X92028124Y-101809685D01*
G37*
%TD.AperFunction*%
%TD*%
%TA.AperFunction,Conductor*%
%TO.N,+3V3_BANK*%
G36*
X89430697Y-92800877D02*
G01*
X89468873Y-92806945D01*
X89472169Y-92808016D01*
X89605290Y-92829100D01*
X89605292Y-92829100D01*
X89605294Y-92829100D01*
X89663227Y-92819924D01*
X89738418Y-92808015D01*
X89738425Y-92808011D01*
X89740496Y-92807339D01*
X89778952Y-92801268D01*
X97426739Y-92809861D01*
X97493756Y-92829621D01*
X97539451Y-92882476D01*
X97550598Y-92933259D01*
X97559997Y-94869584D01*
X97559997Y-94870000D01*
X95511749Y-94870000D01*
X95433225Y-94791476D01*
X95433221Y-94791473D01*
X95433220Y-94791472D01*
X95313126Y-94730281D01*
X95313124Y-94730280D01*
X95313121Y-94730279D01*
X95180002Y-94709196D01*
X95179998Y-94709196D01*
X95046878Y-94730279D01*
X94926779Y-94791472D01*
X94881066Y-94837184D01*
X94819742Y-94870667D01*
X94793544Y-94873500D01*
X93173818Y-94875550D01*
X93106754Y-94855950D01*
X93085980Y-94839231D01*
X93033225Y-94786476D01*
X93033221Y-94786473D01*
X93033220Y-94786472D01*
X92913126Y-94725281D01*
X92913124Y-94725280D01*
X92913121Y-94725279D01*
X92780002Y-94704196D01*
X92779998Y-94704196D01*
X92646878Y-94725279D01*
X92526777Y-94786473D01*
X92473018Y-94840231D01*
X92411694Y-94873715D01*
X92385496Y-94876548D01*
X90771859Y-94878591D01*
X90704795Y-94858991D01*
X90684021Y-94842272D01*
X90633225Y-94791476D01*
X90633221Y-94791473D01*
X90633220Y-94791472D01*
X90513126Y-94730281D01*
X90513124Y-94730280D01*
X90513121Y-94730279D01*
X90380002Y-94709196D01*
X90379998Y-94709196D01*
X90246878Y-94730279D01*
X90126777Y-94791473D01*
X90074982Y-94843267D01*
X90013658Y-94876751D01*
X89987460Y-94879584D01*
X89660000Y-94879999D01*
X89660000Y-98506000D01*
X89640315Y-98573039D01*
X89587511Y-98618794D01*
X89536000Y-98630000D01*
X87591318Y-98630000D01*
X87590000Y-98000000D01*
X86810000Y-98000000D01*
X86811318Y-98630000D01*
X85803489Y-98630000D01*
X85736450Y-98610315D01*
X85690695Y-98557511D01*
X85679490Y-98506512D01*
X85670515Y-96334512D01*
X85689922Y-96267392D01*
X85742537Y-96221419D01*
X85794514Y-96210000D01*
X86798889Y-96210000D01*
X86865928Y-96229685D01*
X86911683Y-96282489D01*
X86921627Y-96351647D01*
X86892602Y-96415203D01*
X86886570Y-96421681D01*
X86831476Y-96476774D01*
X86831473Y-96476778D01*
X86770279Y-96596878D01*
X86749196Y-96729997D01*
X86749196Y-96730002D01*
X86770279Y-96863121D01*
X86770280Y-96863124D01*
X86770281Y-96863126D01*
X86780000Y-96882200D01*
X86831473Y-96983221D01*
X86831476Y-96983225D01*
X86926774Y-97078523D01*
X86926778Y-97078526D01*
X86926780Y-97078528D01*
X87046874Y-97139719D01*
X87046876Y-97139719D01*
X87046878Y-97139720D01*
X87179998Y-97160804D01*
X87180000Y-97160804D01*
X87180002Y-97160804D01*
X87313121Y-97139720D01*
X87313121Y-97139719D01*
X87313126Y-97139719D01*
X87433220Y-97078528D01*
X87433225Y-97078523D01*
X87492319Y-97019430D01*
X87553642Y-96985945D01*
X87623334Y-96990929D01*
X87667681Y-97019430D01*
X87690570Y-97042319D01*
X87724055Y-97103642D01*
X87719071Y-97173334D01*
X87690570Y-97217681D01*
X87631476Y-97276774D01*
X87631473Y-97276778D01*
X87570279Y-97396878D01*
X87549196Y-97529997D01*
X87549196Y-97530002D01*
X87570279Y-97663121D01*
X87570280Y-97663124D01*
X87570281Y-97663126D01*
X87631472Y-97783220D01*
X87631473Y-97783221D01*
X87631476Y-97783225D01*
X87726774Y-97878523D01*
X87726778Y-97878526D01*
X87726780Y-97878528D01*
X87846874Y-97939719D01*
X87846876Y-97939719D01*
X87846878Y-97939720D01*
X87979998Y-97960804D01*
X87980000Y-97960804D01*
X87980002Y-97960804D01*
X88113121Y-97939720D01*
X88113121Y-97939719D01*
X88113126Y-97939719D01*
X88233220Y-97878528D01*
X88328528Y-97783220D01*
X88389719Y-97663126D01*
X88410804Y-97530000D01*
X88389719Y-97396874D01*
X88328528Y-97276780D01*
X88328526Y-97276778D01*
X88328523Y-97276774D01*
X88269430Y-97217681D01*
X88235945Y-97156358D01*
X88240929Y-97086666D01*
X88269430Y-97042319D01*
X88328523Y-96983225D01*
X88328528Y-96983220D01*
X88389719Y-96863126D01*
X88410804Y-96730000D01*
X88389719Y-96596874D01*
X88328528Y-96476780D01*
X88328526Y-96476778D01*
X88328523Y-96476774D01*
X88273430Y-96421681D01*
X88239945Y-96360358D01*
X88244929Y-96290666D01*
X88286801Y-96234733D01*
X88352265Y-96210316D01*
X88361111Y-96210000D01*
X88520000Y-96210000D01*
X88520000Y-94660000D01*
X87914000Y-94660000D01*
X87846961Y-94640315D01*
X87801206Y-94587511D01*
X87790000Y-94536000D01*
X87790000Y-93913654D01*
X87809685Y-93846615D01*
X87817343Y-93835979D01*
X88612721Y-92846381D01*
X88670059Y-92806462D01*
X88709502Y-92800066D01*
X89430697Y-92800877D01*
G37*
%TD.AperFunction*%
%TD*%
%TA.AperFunction,Conductor*%
%TO.N,+3V3_BANK*%
G36*
X87591318Y-98630000D02*
G01*
X87592757Y-99318087D01*
X87593600Y-99721077D01*
X87580086Y-99777629D01*
X87570280Y-99796873D01*
X87570280Y-99796875D01*
X87549196Y-99929997D01*
X87549196Y-99930002D01*
X87570280Y-100063124D01*
X87580962Y-100084090D01*
X87594476Y-100140123D01*
X87598621Y-102121223D01*
X87585106Y-102177776D01*
X87570281Y-102206871D01*
X87570280Y-102206875D01*
X87549196Y-102339997D01*
X87549196Y-102340002D01*
X87570280Y-102473125D01*
X87586024Y-102504024D01*
X87599539Y-102560058D01*
X87599740Y-102655740D01*
X87580196Y-102722820D01*
X87527488Y-102768686D01*
X87475740Y-102780000D01*
X86943741Y-102780000D01*
X86876702Y-102760315D01*
X86830947Y-102707511D01*
X86819741Y-102656259D01*
X86819540Y-102560058D01*
X86811318Y-98630000D01*
X86810000Y-98000000D01*
X87590000Y-98000000D01*
X87591318Y-98630000D01*
G37*
%TD.AperFunction*%
%TD*%
%TA.AperFunction,Conductor*%
%TO.N,VCC_AUX*%
G36*
X93173039Y-98699685D02*
G01*
X93218794Y-98752489D01*
X93230000Y-98804000D01*
X93230000Y-101736000D01*
X93210315Y-101803039D01*
X93157511Y-101848794D01*
X93106000Y-101860000D01*
X92374000Y-101860000D01*
X92306961Y-101840315D01*
X92261206Y-101787511D01*
X92250000Y-101736000D01*
X92250000Y-101580000D01*
X89190000Y-101580000D01*
X89190000Y-102138404D01*
X89176485Y-102194698D01*
X89170279Y-102206876D01*
X89149196Y-102339997D01*
X89149196Y-102340002D01*
X89170279Y-102473123D01*
X89170280Y-102473124D01*
X89170280Y-102473125D01*
X89170281Y-102473126D01*
X89176483Y-102485299D01*
X89190000Y-102541595D01*
X89190000Y-102606000D01*
X89170315Y-102673039D01*
X89117511Y-102718794D01*
X89066000Y-102730000D01*
X88461184Y-102730000D01*
X88394145Y-102710315D01*
X88348390Y-102657511D01*
X88338446Y-102588353D01*
X88350697Y-102549710D01*
X88389719Y-102473126D01*
X88410804Y-102340000D01*
X88389719Y-102206874D01*
X88328528Y-102086780D01*
X88328526Y-102086778D01*
X88328523Y-102086774D01*
X88286319Y-102044570D01*
X88252834Y-101983247D01*
X88250000Y-101956889D01*
X88250000Y-100494000D01*
X88269685Y-100426961D01*
X88322489Y-100381206D01*
X88374000Y-100370000D01*
X91620000Y-100370000D01*
X91620000Y-98730000D01*
X92380000Y-98730000D01*
X92380000Y-98680000D01*
X93106000Y-98680000D01*
X93173039Y-98699685D01*
G37*
%TD.AperFunction*%
%TD*%
%TA.AperFunction,Conductor*%
%TO.N,+3V3_BANK*%
G36*
X97559997Y-94870602D02*
G01*
X97550803Y-97619915D01*
X97530895Y-97686888D01*
X97477938Y-97732466D01*
X97426804Y-97743500D01*
X97322174Y-97743500D01*
X97255135Y-97723815D01*
X97209380Y-97671011D01*
X97199436Y-97601853D01*
X97199701Y-97600102D01*
X97210804Y-97530001D01*
X97210804Y-97529997D01*
X97189720Y-97396878D01*
X97189719Y-97396876D01*
X97189719Y-97396874D01*
X97128528Y-97276780D01*
X97128526Y-97276778D01*
X97128523Y-97276774D01*
X97033225Y-97181476D01*
X97033221Y-97181473D01*
X97033220Y-97181472D01*
X96913126Y-97120281D01*
X96913124Y-97120280D01*
X96913121Y-97120279D01*
X96780002Y-97099196D01*
X96779998Y-97099196D01*
X96646878Y-97120279D01*
X96526778Y-97181473D01*
X96526774Y-97181476D01*
X96431476Y-97276774D01*
X96431473Y-97276778D01*
X96370279Y-97396878D01*
X96349196Y-97529997D01*
X96349196Y-97530001D01*
X96360299Y-97600102D01*
X96351345Y-97669395D01*
X96306349Y-97722847D01*
X96239597Y-97743487D01*
X96237826Y-97743500D01*
X96096083Y-97743500D01*
X95972603Y-97776586D01*
X95925326Y-97803881D01*
X95861896Y-97840504D01*
X95861894Y-97840505D01*
X95856904Y-97843387D01*
X95794903Y-97860000D01*
X95445097Y-97860000D01*
X95383096Y-97843387D01*
X95378105Y-97840505D01*
X95378104Y-97840504D01*
X95267396Y-97776586D01*
X95211904Y-97761717D01*
X95152246Y-97725353D01*
X95121717Y-97662506D01*
X95120000Y-97641943D01*
X95120000Y-97286213D01*
X95139685Y-97219174D01*
X95192489Y-97173419D01*
X95224603Y-97163740D01*
X95313121Y-97149720D01*
X95313121Y-97149719D01*
X95313126Y-97149719D01*
X95433220Y-97088528D01*
X95433225Y-97088523D01*
X95492319Y-97029430D01*
X95553642Y-96995945D01*
X95623334Y-97000929D01*
X95667681Y-97029430D01*
X95726774Y-97088523D01*
X95726778Y-97088526D01*
X95726780Y-97088528D01*
X95846874Y-97149719D01*
X95846876Y-97149719D01*
X95846878Y-97149720D01*
X95979998Y-97170804D01*
X95980000Y-97170804D01*
X95980002Y-97170804D01*
X96113121Y-97149720D01*
X96113121Y-97149719D01*
X96113126Y-97149719D01*
X96233220Y-97088528D01*
X96328528Y-96993220D01*
X96389719Y-96873126D01*
X96410804Y-96740000D01*
X96389719Y-96606874D01*
X96328528Y-96486780D01*
X96328526Y-96486778D01*
X96328523Y-96486774D01*
X96266930Y-96425181D01*
X96233445Y-96363858D01*
X96238429Y-96294166D01*
X96266930Y-96249819D01*
X96328523Y-96188225D01*
X96328528Y-96188220D01*
X96389719Y-96068126D01*
X96410804Y-95935000D01*
X96389719Y-95801874D01*
X96328528Y-95681780D01*
X96328526Y-95681778D01*
X96328523Y-95681774D01*
X96233225Y-95586476D01*
X96233221Y-95586473D01*
X96233220Y-95586472D01*
X96113126Y-95525281D01*
X96113124Y-95525280D01*
X96113121Y-95525279D01*
X95980002Y-95504196D01*
X95979998Y-95504196D01*
X95846878Y-95525279D01*
X95726778Y-95586473D01*
X95726774Y-95586476D01*
X95631476Y-95681774D01*
X95631473Y-95681778D01*
X95570279Y-95801878D01*
X95549196Y-95934997D01*
X95549196Y-95935002D01*
X95570279Y-96068121D01*
X95570280Y-96068124D01*
X95570281Y-96068126D01*
X95631472Y-96188220D01*
X95631473Y-96188221D01*
X95631476Y-96188225D01*
X95693070Y-96249819D01*
X95726555Y-96311142D01*
X95721571Y-96380834D01*
X95693070Y-96425181D01*
X95667681Y-96450570D01*
X95606358Y-96484055D01*
X95536666Y-96479071D01*
X95492319Y-96450570D01*
X95433225Y-96391476D01*
X95433221Y-96391473D01*
X95433220Y-96391472D01*
X95313126Y-96330281D01*
X95313124Y-96330280D01*
X95313121Y-96330279D01*
X95224602Y-96316259D01*
X95161467Y-96286329D01*
X95124536Y-96227018D01*
X95120000Y-96193786D01*
X95120000Y-95686213D01*
X95139685Y-95619174D01*
X95192489Y-95573419D01*
X95224603Y-95563740D01*
X95313121Y-95549720D01*
X95313121Y-95549719D01*
X95313126Y-95549719D01*
X95433220Y-95488528D01*
X95528528Y-95393220D01*
X95589719Y-95273126D01*
X95610804Y-95140000D01*
X95589719Y-95006874D01*
X95528528Y-94886780D01*
X95528526Y-94886778D01*
X95528523Y-94886774D01*
X95511749Y-94870000D01*
X97559997Y-94870000D01*
X97559997Y-94870602D01*
G37*
%TD.AperFunction*%
%TD*%
%TA.AperFunction,Conductor*%
%TO.N,+3V3_BANK*%
G36*
X96482657Y-99519685D02*
G01*
X96528412Y-99572489D01*
X96539617Y-99624382D01*
X96530380Y-102626382D01*
X96510490Y-102693360D01*
X96457545Y-102738952D01*
X96406381Y-102750000D01*
X95381596Y-102750000D01*
X95325302Y-102736485D01*
X95313123Y-102730279D01*
X95180002Y-102709196D01*
X95179998Y-102709196D01*
X95046876Y-102730279D01*
X95034698Y-102736485D01*
X94978404Y-102750000D01*
X94884000Y-102750000D01*
X94816961Y-102730315D01*
X94771206Y-102677511D01*
X94760000Y-102626000D01*
X94760000Y-102551221D01*
X94773515Y-102494927D01*
X94789719Y-102463126D01*
X94789719Y-102463123D01*
X94789720Y-102463123D01*
X94810804Y-102330002D01*
X94810804Y-102329997D01*
X94789720Y-102196877D01*
X94789719Y-102196875D01*
X94789719Y-102196874D01*
X94773513Y-102165069D01*
X94760000Y-102108777D01*
X94760000Y-100964000D01*
X94779685Y-100896961D01*
X94832489Y-100851206D01*
X94884000Y-100840000D01*
X95590000Y-100840000D01*
X95590000Y-100071108D01*
X95591527Y-100051710D01*
X95610804Y-99930001D01*
X95610804Y-99929997D01*
X95591527Y-99808289D01*
X95590000Y-99788891D01*
X95590000Y-99624000D01*
X95609685Y-99556961D01*
X95662489Y-99511206D01*
X95714000Y-99500000D01*
X96415618Y-99500000D01*
X96482657Y-99519685D01*
G37*
%TD.AperFunction*%
%TD*%
%TA.AperFunction,Conductor*%
%TO.N,VCC_AUX*%
G36*
X93423039Y-95609685D02*
G01*
X93468794Y-95662489D01*
X93480000Y-95714000D01*
X93480000Y-96206000D01*
X93460315Y-96273039D01*
X93407511Y-96318794D01*
X93356000Y-96330000D01*
X92971971Y-96330000D01*
X92933252Y-96320702D01*
X92932410Y-96323297D01*
X92923124Y-96320280D01*
X92790002Y-96299196D01*
X92789998Y-96299196D01*
X92656875Y-96320280D01*
X92647590Y-96323297D01*
X92646747Y-96320702D01*
X92608029Y-96330000D01*
X92380000Y-96330000D01*
X92380000Y-96588891D01*
X92378473Y-96608289D01*
X92359196Y-96729997D01*
X92359196Y-96730001D01*
X92378473Y-96851710D01*
X92380000Y-96871108D01*
X92380000Y-97328404D01*
X92366485Y-97384698D01*
X92360279Y-97396876D01*
X92339196Y-97529997D01*
X92339196Y-97530002D01*
X92360279Y-97663123D01*
X92360280Y-97663124D01*
X92360280Y-97663125D01*
X92360281Y-97663126D01*
X92366483Y-97675299D01*
X92380000Y-97731595D01*
X92380000Y-98730000D01*
X91620000Y-98730000D01*
X91620000Y-95714000D01*
X91639685Y-95646961D01*
X91692489Y-95601206D01*
X91744000Y-95590000D01*
X93356000Y-95590000D01*
X93423039Y-95609685D01*
G37*
%TD.AperFunction*%
%TD*%
%TA.AperFunction,Conductor*%
%TO.N,+5V*%
G36*
X109975603Y-82909891D02*
G01*
X110042624Y-82929629D01*
X110088336Y-82982470D01*
X110099500Y-83033890D01*
X110099500Y-114426147D01*
X110079815Y-114493186D01*
X110027011Y-114538941D01*
X109975600Y-114550147D01*
X97874452Y-114559899D01*
X97807397Y-114540268D01*
X97761599Y-114487501D01*
X97750352Y-114435550D01*
X97769651Y-107622885D01*
X97789526Y-107555904D01*
X97842459Y-107510299D01*
X97892883Y-107499241D01*
X99265235Y-107490770D01*
X99332394Y-107510041D01*
X99378474Y-107562561D01*
X99390000Y-107614768D01*
X99390000Y-111900000D01*
X99389999Y-111900000D01*
X99399999Y-111900011D01*
X108220000Y-111910000D01*
X108235251Y-98010777D01*
X108248767Y-97954620D01*
X108256131Y-97940167D01*
X108259719Y-97933126D01*
X108259719Y-97933124D01*
X108259720Y-97933123D01*
X108280804Y-97800002D01*
X108280804Y-97799997D01*
X108259720Y-97666876D01*
X108259719Y-97666875D01*
X108259719Y-97666874D01*
X108249228Y-97646284D01*
X108235713Y-97589859D01*
X108250000Y-84570000D01*
X108249999Y-84570000D01*
X107063742Y-84571366D01*
X106996680Y-84551759D01*
X106950864Y-84499007D01*
X106942276Y-84439759D01*
X106940804Y-84439759D01*
X106940804Y-84429997D01*
X106919720Y-84296878D01*
X106919719Y-84296876D01*
X106919719Y-84296874D01*
X106858528Y-84176780D01*
X106858526Y-84176778D01*
X106858523Y-84176774D01*
X106763225Y-84081476D01*
X106763221Y-84081473D01*
X106763220Y-84081472D01*
X106643126Y-84020281D01*
X106643124Y-84020280D01*
X106643121Y-84020279D01*
X106510002Y-83999196D01*
X106509998Y-83999196D01*
X106376878Y-84020279D01*
X106256778Y-84081473D01*
X106256774Y-84081476D01*
X106161476Y-84176774D01*
X106161473Y-84176779D01*
X106120485Y-84257222D01*
X106072510Y-84308018D01*
X106004689Y-84324813D01*
X105938554Y-84302275D01*
X105899515Y-84257222D01*
X105858528Y-84176780D01*
X105858524Y-84176776D01*
X105858523Y-84176774D01*
X105763225Y-84081476D01*
X105763221Y-84081473D01*
X105763220Y-84081472D01*
X105643126Y-84020281D01*
X105643124Y-84020280D01*
X105643121Y-84020279D01*
X105510002Y-83999196D01*
X105509998Y-83999196D01*
X105376878Y-84020279D01*
X105256778Y-84081473D01*
X105256774Y-84081476D01*
X105161476Y-84176774D01*
X105161473Y-84176779D01*
X105120485Y-84257222D01*
X105072510Y-84308018D01*
X105004689Y-84324813D01*
X104938554Y-84302275D01*
X104899515Y-84257222D01*
X104858528Y-84176780D01*
X104858524Y-84176776D01*
X104858523Y-84176774D01*
X104763225Y-84081476D01*
X104763221Y-84081473D01*
X104763220Y-84081472D01*
X104643126Y-84020281D01*
X104643124Y-84020280D01*
X104643121Y-84020279D01*
X104510002Y-83999196D01*
X104509998Y-83999196D01*
X104376878Y-84020279D01*
X104256778Y-84081473D01*
X104256774Y-84081476D01*
X104161476Y-84176774D01*
X104161473Y-84176779D01*
X104120485Y-84257222D01*
X104072510Y-84308018D01*
X104004689Y-84324813D01*
X103938554Y-84302275D01*
X103899515Y-84257222D01*
X103858528Y-84176780D01*
X103858524Y-84176776D01*
X103858523Y-84176774D01*
X103763225Y-84081476D01*
X103763221Y-84081473D01*
X103763220Y-84081472D01*
X103643126Y-84020281D01*
X103643124Y-84020280D01*
X103643121Y-84020279D01*
X103510002Y-83999196D01*
X103509998Y-83999196D01*
X103376878Y-84020279D01*
X103256778Y-84081473D01*
X103256774Y-84081476D01*
X103161476Y-84176774D01*
X103161473Y-84176779D01*
X103120485Y-84257222D01*
X103072510Y-84308018D01*
X103004689Y-84324813D01*
X102938554Y-84302275D01*
X102899515Y-84257222D01*
X102858528Y-84176780D01*
X102858524Y-84176776D01*
X102858523Y-84176774D01*
X102763225Y-84081476D01*
X102763221Y-84081473D01*
X102763220Y-84081472D01*
X102643126Y-84020281D01*
X102643124Y-84020280D01*
X102643121Y-84020279D01*
X102510002Y-83999196D01*
X102509998Y-83999196D01*
X102376878Y-84020279D01*
X102256778Y-84081473D01*
X102256774Y-84081476D01*
X102161476Y-84176774D01*
X102161473Y-84176779D01*
X102120485Y-84257222D01*
X102072510Y-84308018D01*
X102004689Y-84324813D01*
X101938554Y-84302275D01*
X101899515Y-84257222D01*
X101858528Y-84176780D01*
X101858524Y-84176776D01*
X101858523Y-84176774D01*
X101763225Y-84081476D01*
X101763221Y-84081473D01*
X101763220Y-84081472D01*
X101643126Y-84020281D01*
X101643124Y-84020280D01*
X101643121Y-84020279D01*
X101510002Y-83999196D01*
X101509998Y-83999196D01*
X101376878Y-84020279D01*
X101256778Y-84081473D01*
X101256774Y-84081476D01*
X101161476Y-84176774D01*
X101161473Y-84176779D01*
X101120485Y-84257222D01*
X101072510Y-84308018D01*
X101004689Y-84324813D01*
X100938554Y-84302275D01*
X100899515Y-84257222D01*
X100858528Y-84176780D01*
X100858524Y-84176776D01*
X100858523Y-84176774D01*
X100763225Y-84081476D01*
X100763221Y-84081473D01*
X100763220Y-84081472D01*
X100643126Y-84020281D01*
X100643124Y-84020280D01*
X100643121Y-84020279D01*
X100510002Y-83999196D01*
X100509998Y-83999196D01*
X100376878Y-84020279D01*
X100256778Y-84081473D01*
X100256774Y-84081476D01*
X100161476Y-84176774D01*
X100161473Y-84176779D01*
X100120485Y-84257222D01*
X100072510Y-84308018D01*
X100004689Y-84324813D01*
X99938554Y-84302275D01*
X99899515Y-84257222D01*
X99858528Y-84176780D01*
X99858524Y-84176776D01*
X99858523Y-84176774D01*
X99763225Y-84081476D01*
X99763221Y-84081473D01*
X99763220Y-84081472D01*
X99643126Y-84020281D01*
X99643124Y-84020280D01*
X99643121Y-84020279D01*
X99510002Y-83999196D01*
X99509998Y-83999196D01*
X99376878Y-84020279D01*
X99256778Y-84081473D01*
X99256774Y-84081476D01*
X99161476Y-84176774D01*
X99161473Y-84176778D01*
X99100279Y-84296878D01*
X99079196Y-84429997D01*
X99079196Y-84430002D01*
X99100279Y-84563121D01*
X99100280Y-84563124D01*
X99100281Y-84563126D01*
X99161472Y-84683220D01*
X99161473Y-84683221D01*
X99161476Y-84683225D01*
X99256774Y-84778523D01*
X99256776Y-84778524D01*
X99256780Y-84778528D01*
X99337222Y-84819515D01*
X99388018Y-84867490D01*
X99404813Y-84935311D01*
X99382275Y-85001446D01*
X99337222Y-85040484D01*
X99256780Y-85081472D01*
X99256779Y-85081473D01*
X99256774Y-85081476D01*
X99161476Y-85176774D01*
X99161473Y-85176778D01*
X99100279Y-85296878D01*
X99079196Y-85429997D01*
X99079196Y-85430002D01*
X99100279Y-85563121D01*
X99100280Y-85563124D01*
X99100281Y-85563126D01*
X99161472Y-85683220D01*
X99161473Y-85683221D01*
X99161476Y-85683225D01*
X99256774Y-85778523D01*
X99256776Y-85778524D01*
X99256780Y-85778528D01*
X99337222Y-85819515D01*
X99388018Y-85867490D01*
X99404813Y-85935311D01*
X99382275Y-86001446D01*
X99337222Y-86040484D01*
X99256780Y-86081472D01*
X99256779Y-86081473D01*
X99256774Y-86081476D01*
X99161476Y-86176774D01*
X99161473Y-86176778D01*
X99100279Y-86296878D01*
X99079196Y-86429997D01*
X99079196Y-86430002D01*
X99100279Y-86563121D01*
X99100280Y-86563124D01*
X99100281Y-86563126D01*
X99161472Y-86683220D01*
X99161473Y-86683221D01*
X99161476Y-86683225D01*
X99256774Y-86778523D01*
X99256776Y-86778524D01*
X99256780Y-86778528D01*
X99337222Y-86819515D01*
X99388018Y-86867490D01*
X99404813Y-86935311D01*
X99382275Y-87001446D01*
X99337222Y-87040484D01*
X99256780Y-87081472D01*
X99256779Y-87081473D01*
X99256774Y-87081476D01*
X99161476Y-87176774D01*
X99161473Y-87176778D01*
X99100279Y-87296878D01*
X99079196Y-87429997D01*
X99079196Y-87430002D01*
X99100279Y-87563121D01*
X99100280Y-87563124D01*
X99100281Y-87563126D01*
X99161472Y-87683220D01*
X99161473Y-87683221D01*
X99161476Y-87683225D01*
X99256774Y-87778523D01*
X99256778Y-87778526D01*
X99256780Y-87778528D01*
X99376874Y-87839719D01*
X99427511Y-87847739D01*
X99490644Y-87877667D01*
X99527576Y-87936978D01*
X99532104Y-87971597D01*
X99511370Y-89827385D01*
X99490938Y-89894201D01*
X99437626Y-89939363D01*
X99387378Y-89950000D01*
X99234678Y-89950000D01*
X99167639Y-89930315D01*
X99146997Y-89913681D01*
X97814252Y-88580936D01*
X97780767Y-88519613D01*
X97777933Y-88493439D01*
X97770176Y-83024275D01*
X97789766Y-82957209D01*
X97842505Y-82911379D01*
X97894272Y-82900100D01*
X109975603Y-82909891D01*
G37*
%TD.AperFunction*%
%TD*%
%TA.AperFunction,Conductor*%
%TO.N,+1V8*%
G36*
X84243039Y-87359685D02*
G01*
X84288794Y-87412489D01*
X84300000Y-87464000D01*
X84300000Y-89826000D01*
X84280315Y-89893039D01*
X84227511Y-89938794D01*
X84176000Y-89950000D01*
X81340000Y-89950000D01*
X81349765Y-95086406D01*
X81330208Y-95153483D01*
X81277491Y-95199338D01*
X81226407Y-95210640D01*
X80646577Y-95213644D01*
X80579437Y-95194307D01*
X80552220Y-95170847D01*
X80548049Y-95166033D01*
X80439069Y-95095996D01*
X80439065Y-95095994D01*
X80439064Y-95095994D01*
X80314774Y-95059500D01*
X80314772Y-95059500D01*
X80185228Y-95059500D01*
X80185226Y-95059500D01*
X80060933Y-95095994D01*
X80060932Y-95095994D01*
X79963697Y-95158483D01*
X79896658Y-95178167D01*
X79829621Y-95158483D01*
X79779066Y-95125994D01*
X79654774Y-95089500D01*
X79654772Y-95089500D01*
X79525228Y-95089500D01*
X79525226Y-95089500D01*
X79400935Y-95125994D01*
X79400932Y-95125995D01*
X79400931Y-95125996D01*
X79358160Y-95153483D01*
X79291950Y-95196033D01*
X79207118Y-95293937D01*
X79207117Y-95293938D01*
X79153302Y-95411774D01*
X79134867Y-95540000D01*
X79153302Y-95668225D01*
X79179362Y-95725287D01*
X79207118Y-95786063D01*
X79291951Y-95883967D01*
X79354250Y-95924004D01*
X79361212Y-95928478D01*
X79406967Y-95981282D01*
X79418173Y-96033072D01*
X79402588Y-102976692D01*
X79400279Y-104006000D01*
X79400278Y-104006278D01*
X79380443Y-104073273D01*
X79327536Y-104118910D01*
X79276278Y-104130000D01*
X77264000Y-104130000D01*
X77196961Y-104110315D01*
X77151206Y-104057511D01*
X77140000Y-104006000D01*
X77140000Y-99505526D01*
X77159685Y-99438487D01*
X77212489Y-99392732D01*
X77281647Y-99382788D01*
X77320292Y-99395041D01*
X77404802Y-99438101D01*
X77449177Y-99445129D01*
X77537926Y-99459186D01*
X77537928Y-99459186D01*
X77537930Y-99459186D01*
X77671049Y-99438102D01*
X77671049Y-99438101D01*
X77671054Y-99438101D01*
X77791148Y-99376910D01*
X77886456Y-99281602D01*
X77947647Y-99161508D01*
X77948678Y-99155000D01*
X77968732Y-99028384D01*
X77968732Y-99028379D01*
X77947648Y-98895260D01*
X77947647Y-98895258D01*
X77947647Y-98895256D01*
X77886456Y-98775162D01*
X77886453Y-98775159D01*
X77884072Y-98770486D01*
X77871176Y-98701817D01*
X77884072Y-98657896D01*
X77886453Y-98653222D01*
X77886456Y-98653220D01*
X77947647Y-98533126D01*
X77968732Y-98400000D01*
X77962152Y-98358458D01*
X77947648Y-98266878D01*
X77947647Y-98266876D01*
X77947647Y-98266874D01*
X77886456Y-98146780D01*
X77886453Y-98146777D01*
X77884072Y-98142104D01*
X77871176Y-98073435D01*
X77884072Y-98029514D01*
X77886453Y-98024840D01*
X77886456Y-98024838D01*
X77947647Y-97904744D01*
X77954501Y-97861472D01*
X77968732Y-97771620D01*
X77968732Y-97771615D01*
X77947648Y-97638496D01*
X77947647Y-97638494D01*
X77947647Y-97638492D01*
X77886456Y-97518398D01*
X77886454Y-97518396D01*
X77886451Y-97518392D01*
X77791153Y-97423094D01*
X77791149Y-97423091D01*
X77791148Y-97423090D01*
X77671054Y-97361899D01*
X77671052Y-97361898D01*
X77671049Y-97361897D01*
X77537930Y-97340814D01*
X77537926Y-97340814D01*
X77404806Y-97361897D01*
X77404802Y-97361898D01*
X77404802Y-97361899D01*
X77320293Y-97404958D01*
X77251625Y-97417854D01*
X77186885Y-97391577D01*
X77146628Y-97334471D01*
X77140000Y-97294473D01*
X77140000Y-94026521D01*
X77159685Y-93959482D01*
X77212489Y-93913727D01*
X77281647Y-93903783D01*
X77345203Y-93932808D01*
X77373570Y-93975592D01*
X77375851Y-93974430D01*
X77380280Y-93983123D01*
X77380281Y-93983126D01*
X77441472Y-94103220D01*
X77441473Y-94103221D01*
X77441476Y-94103225D01*
X77536774Y-94198523D01*
X77536778Y-94198526D01*
X77536780Y-94198528D01*
X77656874Y-94259719D01*
X77656876Y-94259719D01*
X77656878Y-94259720D01*
X77789998Y-94280804D01*
X77790000Y-94280804D01*
X77790002Y-94280804D01*
X77923121Y-94259720D01*
X77923121Y-94259719D01*
X77923126Y-94259719D01*
X78043220Y-94198528D01*
X78043222Y-94198525D01*
X78051806Y-94194152D01*
X78120475Y-94181256D01*
X78180983Y-94204317D01*
X78186774Y-94208524D01*
X78186778Y-94208526D01*
X78186780Y-94208528D01*
X78306874Y-94269719D01*
X78306876Y-94269719D01*
X78306878Y-94269720D01*
X78439998Y-94290804D01*
X78440000Y-94290804D01*
X78440002Y-94290804D01*
X78573121Y-94269720D01*
X78573121Y-94269719D01*
X78573126Y-94269719D01*
X78693220Y-94208528D01*
X78788528Y-94113220D01*
X78849719Y-93993126D01*
X78855048Y-93959482D01*
X78870804Y-93860002D01*
X78870804Y-93859997D01*
X78849720Y-93726878D01*
X78849719Y-93726876D01*
X78849719Y-93726874D01*
X78788528Y-93606780D01*
X78788526Y-93606778D01*
X78784097Y-93598085D01*
X78785566Y-93597336D01*
X78765851Y-93542076D01*
X78781678Y-93474023D01*
X78788171Y-93463917D01*
X78788524Y-93463223D01*
X78788528Y-93463220D01*
X78849719Y-93343126D01*
X78870804Y-93210000D01*
X78860701Y-93146215D01*
X78849720Y-93076878D01*
X78849719Y-93076876D01*
X78849719Y-93076874D01*
X78788528Y-92956780D01*
X78788526Y-92956778D01*
X78788523Y-92956774D01*
X78693225Y-92861476D01*
X78693221Y-92861473D01*
X78693220Y-92861472D01*
X78573126Y-92800281D01*
X78573124Y-92800280D01*
X78573121Y-92800279D01*
X78440002Y-92779196D01*
X78439998Y-92779196D01*
X78306878Y-92800279D01*
X78186778Y-92861473D01*
X78178881Y-92867211D01*
X78177084Y-92864737D01*
X78129907Y-92890486D01*
X78060216Y-92885487D01*
X78042011Y-92875713D01*
X78041915Y-92875903D01*
X78033221Y-92871473D01*
X78033220Y-92871472D01*
X77913126Y-92810281D01*
X77913124Y-92810280D01*
X77913121Y-92810279D01*
X77780002Y-92789196D01*
X77779998Y-92789196D01*
X77646878Y-92810279D01*
X77526778Y-92871473D01*
X77526774Y-92871476D01*
X77431476Y-92966774D01*
X77431473Y-92966779D01*
X77431472Y-92966780D01*
X77374485Y-93078624D01*
X77326510Y-93129420D01*
X77258689Y-93146215D01*
X77192554Y-93123677D01*
X77149103Y-93068962D01*
X77140000Y-93022329D01*
X77140000Y-91619759D01*
X77159685Y-91552720D01*
X77207705Y-91509275D01*
X77313233Y-91455505D01*
X77381902Y-91442608D01*
X77425823Y-91455504D01*
X77432108Y-91458706D01*
X77432110Y-91458708D01*
X77552204Y-91519899D01*
X77552206Y-91519899D01*
X77552208Y-91519900D01*
X77685328Y-91540984D01*
X77685330Y-91540984D01*
X77685332Y-91540984D01*
X77818451Y-91519900D01*
X77818451Y-91519899D01*
X77818456Y-91519899D01*
X77938550Y-91458708D01*
X78033858Y-91363400D01*
X78095049Y-91243306D01*
X78116134Y-91110180D01*
X78095049Y-90977054D01*
X78039562Y-90868155D01*
X78026667Y-90799489D01*
X78044873Y-90751722D01*
X78043037Y-90750787D01*
X78047466Y-90742093D01*
X78047468Y-90742092D01*
X78108659Y-90621998D01*
X78108660Y-90621993D01*
X78129744Y-90488874D01*
X78129744Y-90488869D01*
X78108660Y-90355750D01*
X78108659Y-90355748D01*
X78108659Y-90355746D01*
X78047468Y-90235652D01*
X78047466Y-90235650D01*
X78047463Y-90235646D01*
X77952165Y-90140348D01*
X77952161Y-90140345D01*
X77952160Y-90140344D01*
X77832066Y-90079153D01*
X77832064Y-90079152D01*
X77832061Y-90079151D01*
X77698942Y-90058068D01*
X77698938Y-90058068D01*
X77565816Y-90079151D01*
X77448598Y-90138877D01*
X77379929Y-90151773D01*
X77332950Y-90133870D01*
X77331915Y-90135903D01*
X77323221Y-90131473D01*
X77323220Y-90131472D01*
X77207705Y-90072614D01*
X77156909Y-90024639D01*
X77140000Y-89962129D01*
X77140000Y-87464000D01*
X77159685Y-87396961D01*
X77212489Y-87351206D01*
X77264000Y-87340000D01*
X84176000Y-87340000D01*
X84243039Y-87359685D01*
G37*
%TD.AperFunction*%
%TD*%
%TA.AperFunction,Conductor*%
%TO.N,GND*%
G36*
X85974217Y-82886115D02*
G01*
X85996041Y-82876523D01*
X86011934Y-82875500D01*
X86963066Y-82875500D01*
X86999217Y-82886115D01*
X87021041Y-82876523D01*
X87036934Y-82875500D01*
X89413066Y-82875500D01*
X89449217Y-82886115D01*
X89471041Y-82876523D01*
X89486934Y-82875500D01*
X90438066Y-82875500D01*
X90474217Y-82886115D01*
X90496041Y-82876523D01*
X90511934Y-82875500D01*
X91463066Y-82875500D01*
X91499217Y-82886115D01*
X91521041Y-82876523D01*
X91536934Y-82875500D01*
X92405835Y-82875500D01*
X92441986Y-82886115D01*
X92463810Y-82876523D01*
X92479703Y-82875500D01*
X93944742Y-82875500D01*
X93980893Y-82886115D01*
X94002717Y-82876523D01*
X94018610Y-82875500D01*
X94963066Y-82875500D01*
X94999217Y-82886115D01*
X95021041Y-82876523D01*
X95036934Y-82875500D01*
X95913066Y-82875500D01*
X95949217Y-82886115D01*
X95971041Y-82876523D01*
X95986934Y-82875500D01*
X96938066Y-82875500D01*
X96974217Y-82886115D01*
X96996041Y-82876523D01*
X97011934Y-82875500D01*
X97442994Y-82875500D01*
X97510033Y-82895185D01*
X97555788Y-82947989D01*
X97565756Y-83016976D01*
X97564676Y-83024558D01*
X97564676Y-83024563D01*
X97565001Y-83254027D01*
X97545411Y-83321094D01*
X97492672Y-83366923D01*
X97423528Y-83376965D01*
X97359931Y-83348030D01*
X97330518Y-83310499D01*
X97323528Y-83296780D01*
X97323526Y-83296778D01*
X97323523Y-83296774D01*
X97228225Y-83201476D01*
X97228221Y-83201473D01*
X97228220Y-83201472D01*
X97108126Y-83140281D01*
X97108124Y-83140280D01*
X97108121Y-83140279D01*
X96992536Y-83121973D01*
X96978163Y-83115159D01*
X96973001Y-83118477D01*
X96957464Y-83121973D01*
X96841878Y-83140279D01*
X96721778Y-83201473D01*
X96721774Y-83201476D01*
X96626476Y-83296774D01*
X96626471Y-83296781D01*
X96572983Y-83401756D01*
X96525009Y-83452551D01*
X96457187Y-83469346D01*
X96391053Y-83446808D01*
X96352016Y-83401756D01*
X96298528Y-83296780D01*
X96298525Y-83296777D01*
X96298523Y-83296774D01*
X96203225Y-83201476D01*
X96203221Y-83201473D01*
X96203220Y-83201472D01*
X96083126Y-83140281D01*
X96083124Y-83140280D01*
X96083121Y-83140279D01*
X95967536Y-83121973D01*
X95953163Y-83115159D01*
X95948001Y-83118477D01*
X95932464Y-83121973D01*
X95816878Y-83140279D01*
X95696778Y-83201473D01*
X95696774Y-83201476D01*
X95601476Y-83296774D01*
X95601470Y-83296782D01*
X95585482Y-83328160D01*
X95537507Y-83378954D01*
X95469685Y-83395748D01*
X95403551Y-83373209D01*
X95364516Y-83328158D01*
X95348528Y-83296780D01*
X95348526Y-83296778D01*
X95348523Y-83296774D01*
X95253225Y-83201476D01*
X95253221Y-83201473D01*
X95253220Y-83201472D01*
X95133126Y-83140281D01*
X95133124Y-83140280D01*
X95133121Y-83140279D01*
X95017536Y-83121973D01*
X95003163Y-83115159D01*
X94998001Y-83118477D01*
X94982464Y-83121973D01*
X94866878Y-83140279D01*
X94746778Y-83201473D01*
X94746774Y-83201476D01*
X94651476Y-83296774D01*
X94651471Y-83296781D01*
X94601321Y-83395205D01*
X94553347Y-83446000D01*
X94485525Y-83462795D01*
X94419391Y-83440257D01*
X94380354Y-83395205D01*
X94330204Y-83296780D01*
X94330201Y-83296777D01*
X94330199Y-83296774D01*
X94234901Y-83201476D01*
X94234897Y-83201473D01*
X94234896Y-83201472D01*
X94114802Y-83140281D01*
X94114800Y-83140280D01*
X94114797Y-83140279D01*
X93999212Y-83121973D01*
X93984839Y-83115159D01*
X93979677Y-83118477D01*
X93964140Y-83121973D01*
X93848554Y-83140279D01*
X93728454Y-83201473D01*
X93728450Y-83201476D01*
X93633152Y-83296774D01*
X93633149Y-83296778D01*
X93571955Y-83416878D01*
X93550872Y-83549997D01*
X93550872Y-83550002D01*
X93571955Y-83683121D01*
X93571956Y-83683124D01*
X93571957Y-83683126D01*
X93633148Y-83803220D01*
X93699858Y-83869930D01*
X93733342Y-83931251D01*
X93736176Y-83957610D01*
X93736176Y-88039624D01*
X93716491Y-88106663D01*
X93663687Y-88152418D01*
X93594529Y-88162362D01*
X93530973Y-88133337D01*
X93524495Y-88127305D01*
X93231819Y-87834629D01*
X93198334Y-87773306D01*
X93195500Y-87746948D01*
X93195500Y-84357610D01*
X93215185Y-84290571D01*
X93231814Y-84269933D01*
X93298528Y-84203220D01*
X93359719Y-84083126D01*
X93371301Y-84010000D01*
X93380804Y-83950002D01*
X93380804Y-83949997D01*
X93359720Y-83816878D01*
X93359719Y-83816876D01*
X93359719Y-83816874D01*
X93298528Y-83696780D01*
X93298526Y-83696778D01*
X93298523Y-83696774D01*
X93203225Y-83601476D01*
X93203221Y-83601473D01*
X93203220Y-83601472D01*
X93083126Y-83540281D01*
X93083124Y-83540280D01*
X93083121Y-83540279D01*
X92955584Y-83520080D01*
X92892450Y-83490151D01*
X92855518Y-83430840D01*
X92852508Y-83417002D01*
X92852488Y-83416874D01*
X92791297Y-83296780D01*
X92791295Y-83296778D01*
X92791292Y-83296774D01*
X92695994Y-83201476D01*
X92695990Y-83201473D01*
X92695989Y-83201472D01*
X92575895Y-83140281D01*
X92575893Y-83140280D01*
X92575890Y-83140279D01*
X92460305Y-83121973D01*
X92445932Y-83115159D01*
X92440770Y-83118477D01*
X92425233Y-83121973D01*
X92309647Y-83140279D01*
X92189547Y-83201473D01*
X92189543Y-83201476D01*
X92094245Y-83296774D01*
X92094241Y-83296779D01*
X92081868Y-83321063D01*
X92033892Y-83371858D01*
X91966071Y-83388652D01*
X91899936Y-83366113D01*
X91860900Y-83321063D01*
X91848528Y-83296780D01*
X91848526Y-83296778D01*
X91848523Y-83296774D01*
X91753225Y-83201476D01*
X91753221Y-83201473D01*
X91753220Y-83201472D01*
X91633126Y-83140281D01*
X91633124Y-83140280D01*
X91633121Y-83140279D01*
X91517536Y-83121973D01*
X91503163Y-83115159D01*
X91498001Y-83118477D01*
X91482464Y-83121973D01*
X91366878Y-83140279D01*
X91246778Y-83201473D01*
X91246774Y-83201476D01*
X91151476Y-83296774D01*
X91151471Y-83296781D01*
X91097983Y-83401756D01*
X91050009Y-83452551D01*
X90982187Y-83469346D01*
X90916053Y-83446808D01*
X90877016Y-83401756D01*
X90823528Y-83296780D01*
X90823525Y-83296777D01*
X90823523Y-83296774D01*
X90728225Y-83201476D01*
X90728221Y-83201473D01*
X90728220Y-83201472D01*
X90608126Y-83140281D01*
X90608124Y-83140280D01*
X90608121Y-83140279D01*
X90492536Y-83121973D01*
X90478163Y-83115159D01*
X90473001Y-83118477D01*
X90457464Y-83121973D01*
X90341878Y-83140279D01*
X90221778Y-83201473D01*
X90221774Y-83201476D01*
X90126476Y-83296774D01*
X90126471Y-83296781D01*
X90072983Y-83401756D01*
X90025009Y-83452551D01*
X89957187Y-83469346D01*
X89891053Y-83446808D01*
X89852016Y-83401756D01*
X89798528Y-83296780D01*
X89798525Y-83296777D01*
X89798523Y-83296774D01*
X89703225Y-83201476D01*
X89703221Y-83201473D01*
X89703220Y-83201472D01*
X89583126Y-83140281D01*
X89583124Y-83140280D01*
X89583121Y-83140279D01*
X89467536Y-83121973D01*
X89453163Y-83115159D01*
X89448001Y-83118477D01*
X89432464Y-83121973D01*
X89316878Y-83140279D01*
X89196778Y-83201473D01*
X89196774Y-83201476D01*
X89101476Y-83296774D01*
X89101471Y-83296781D01*
X89047746Y-83402221D01*
X88999771Y-83453016D01*
X88931950Y-83469811D01*
X88865816Y-83447273D01*
X88826778Y-83402220D01*
X88798529Y-83346778D01*
X88798526Y-83346775D01*
X88798524Y-83346772D01*
X88703226Y-83251474D01*
X88703222Y-83251471D01*
X88703221Y-83251470D01*
X88583127Y-83190279D01*
X88583125Y-83190278D01*
X88583122Y-83190277D01*
X88450003Y-83169194D01*
X88449999Y-83169194D01*
X88316879Y-83190277D01*
X88196779Y-83251471D01*
X88196775Y-83251474D01*
X88101477Y-83346772D01*
X88101474Y-83346776D01*
X88040280Y-83466876D01*
X88020947Y-83588948D01*
X88019197Y-83599998D01*
X88021015Y-83611476D01*
X88025824Y-83641843D01*
X88016868Y-83711137D01*
X87971870Y-83764588D01*
X87905118Y-83785226D01*
X87837805Y-83766500D01*
X87815669Y-83748920D01*
X87728225Y-83661476D01*
X87728221Y-83661473D01*
X87728220Y-83661472D01*
X87608126Y-83600281D01*
X87608124Y-83600280D01*
X87608121Y-83600279D01*
X87523392Y-83586860D01*
X87460258Y-83556931D01*
X87423326Y-83497620D01*
X87420317Y-83483784D01*
X87409720Y-83416878D01*
X87409719Y-83416876D01*
X87409719Y-83416874D01*
X87348528Y-83296780D01*
X87348526Y-83296778D01*
X87348523Y-83296774D01*
X87253225Y-83201476D01*
X87253221Y-83201473D01*
X87253220Y-83201472D01*
X87133126Y-83140281D01*
X87133124Y-83140280D01*
X87133121Y-83140279D01*
X87017536Y-83121973D01*
X87003163Y-83115159D01*
X86998001Y-83118477D01*
X86982464Y-83121973D01*
X86866878Y-83140279D01*
X86746778Y-83201473D01*
X86746774Y-83201476D01*
X86651476Y-83296774D01*
X86651471Y-83296781D01*
X86597983Y-83401756D01*
X86550009Y-83452551D01*
X86482187Y-83469346D01*
X86416053Y-83446808D01*
X86377016Y-83401756D01*
X86323528Y-83296780D01*
X86323525Y-83296777D01*
X86323523Y-83296774D01*
X86228225Y-83201476D01*
X86228221Y-83201473D01*
X86228220Y-83201472D01*
X86108126Y-83140281D01*
X86108124Y-83140280D01*
X86108121Y-83140279D01*
X85992536Y-83121973D01*
X85978163Y-83115159D01*
X85973001Y-83118477D01*
X85957464Y-83121973D01*
X85841878Y-83140279D01*
X85721778Y-83201473D01*
X85721774Y-83201476D01*
X85626476Y-83296774D01*
X85626474Y-83296778D01*
X85626472Y-83296780D01*
X85610486Y-83328155D01*
X85565279Y-83416876D01*
X85562264Y-83426158D01*
X85560441Y-83425565D01*
X85535707Y-83477734D01*
X85476393Y-83514662D01*
X85459527Y-83516963D01*
X85459639Y-83517669D01*
X85316878Y-83540279D01*
X85316874Y-83540280D01*
X85316874Y-83540281D01*
X85297252Y-83550279D01*
X85196778Y-83601473D01*
X85196774Y-83601476D01*
X85101476Y-83696774D01*
X85101473Y-83696778D01*
X85040279Y-83816878D01*
X85019196Y-83949997D01*
X85019196Y-83950002D01*
X85040279Y-84083121D01*
X85040280Y-84083124D01*
X85040281Y-84083126D01*
X85101472Y-84203220D01*
X85193182Y-84294930D01*
X85226666Y-84356251D01*
X85229500Y-84382610D01*
X85229500Y-90496948D01*
X85209815Y-90563987D01*
X85193181Y-90584629D01*
X83831169Y-91946640D01*
X83831167Y-91946642D01*
X83793796Y-92036868D01*
X83793795Y-92036873D01*
X83793795Y-92931682D01*
X83774110Y-92998721D01*
X83721306Y-93044476D01*
X83652148Y-93054420D01*
X83631476Y-93049613D01*
X83625532Y-93047681D01*
X83492412Y-93026598D01*
X83492408Y-93026598D01*
X83359288Y-93047681D01*
X83239188Y-93108875D01*
X83239184Y-93108878D01*
X83143886Y-93204176D01*
X83143883Y-93204180D01*
X83143882Y-93204182D01*
X83098764Y-93292732D01*
X83082689Y-93324280D01*
X83061606Y-93457399D01*
X83061606Y-93457404D01*
X83082689Y-93590523D01*
X83082690Y-93590526D01*
X83082691Y-93590528D01*
X83143882Y-93710622D01*
X83143883Y-93710623D01*
X83143886Y-93710627D01*
X83239184Y-93805925D01*
X83239188Y-93805928D01*
X83239190Y-93805930D01*
X83359284Y-93867121D01*
X83359286Y-93867121D01*
X83359288Y-93867122D01*
X83492408Y-93888206D01*
X83492410Y-93888206D01*
X83492412Y-93888206D01*
X83625527Y-93867123D01*
X83625530Y-93867121D01*
X83625536Y-93867121D01*
X83625541Y-93867118D01*
X83631469Y-93865192D01*
X83701310Y-93863193D01*
X83761146Y-93899269D01*
X83791978Y-93961968D01*
X83793795Y-93983121D01*
X83793795Y-94425062D01*
X83774110Y-94492101D01*
X83721306Y-94537856D01*
X83652148Y-94547800D01*
X83631485Y-94542996D01*
X83623125Y-94540280D01*
X83490002Y-94519196D01*
X83489998Y-94519196D01*
X83356878Y-94540279D01*
X83236778Y-94601473D01*
X83236774Y-94601476D01*
X83141476Y-94696774D01*
X83135739Y-94704672D01*
X83132870Y-94702587D01*
X83097094Y-94740418D01*
X83062428Y-94748978D01*
X83071235Y-94760065D01*
X83078817Y-94826111D01*
X83059196Y-94949996D01*
X83059196Y-94950002D01*
X83080279Y-95083121D01*
X83080280Y-95083124D01*
X83080281Y-95083126D01*
X83139405Y-95199163D01*
X83141473Y-95203221D01*
X83141476Y-95203225D01*
X83228066Y-95289815D01*
X83261551Y-95351138D01*
X83256567Y-95420830D01*
X83214695Y-95476763D01*
X83149231Y-95501180D01*
X83084091Y-95487981D01*
X83006986Y-95448694D01*
X83006984Y-95448693D01*
X83006981Y-95448692D01*
X82873862Y-95427609D01*
X82873858Y-95427609D01*
X82740738Y-95448692D01*
X82740734Y-95448693D01*
X82740734Y-95448694D01*
X82688888Y-95475111D01*
X82620638Y-95509886D01*
X82620634Y-95509889D01*
X82525336Y-95605187D01*
X82525333Y-95605191D01*
X82525332Y-95605193D01*
X82469891Y-95714003D01*
X82464139Y-95725291D01*
X82443056Y-95858410D01*
X82443056Y-95858415D01*
X82464139Y-95991534D01*
X82464140Y-95991537D01*
X82464141Y-95991539D01*
X82525306Y-96111581D01*
X82525333Y-96111634D01*
X82525336Y-96111638D01*
X82620634Y-96206936D01*
X82620638Y-96206939D01*
X82620640Y-96206941D01*
X82740734Y-96268132D01*
X82740736Y-96268132D01*
X82740738Y-96268133D01*
X82873858Y-96289217D01*
X82873860Y-96289217D01*
X82873862Y-96289217D01*
X83006981Y-96268133D01*
X83006981Y-96268132D01*
X83006986Y-96268132D01*
X83121980Y-96209539D01*
X83190646Y-96196644D01*
X83240125Y-96215500D01*
X83240840Y-96214097D01*
X83249533Y-96218526D01*
X83249535Y-96218528D01*
X83369629Y-96279719D01*
X83369631Y-96279719D01*
X83369633Y-96279720D01*
X83502753Y-96300804D01*
X83502755Y-96300804D01*
X83502757Y-96300804D01*
X83635876Y-96279720D01*
X83635876Y-96279719D01*
X83635881Y-96279719D01*
X83755975Y-96218528D01*
X83851283Y-96123220D01*
X83870894Y-96084730D01*
X83918865Y-96033937D01*
X83986686Y-96017141D01*
X84052821Y-96039677D01*
X84091860Y-96084730D01*
X84111472Y-96123220D01*
X84111474Y-96123222D01*
X84111476Y-96123225D01*
X84206774Y-96218523D01*
X84206778Y-96218526D01*
X84206780Y-96218528D01*
X84326874Y-96279719D01*
X84326876Y-96279719D01*
X84326878Y-96279720D01*
X84459998Y-96300804D01*
X84460000Y-96300804D01*
X84460002Y-96300804D01*
X84593121Y-96279720D01*
X84593121Y-96279719D01*
X84593126Y-96279719D01*
X84713220Y-96218528D01*
X84808528Y-96123220D01*
X84869719Y-96003126D01*
X84873081Y-95981898D01*
X84890804Y-95870002D01*
X84890804Y-95869997D01*
X84869720Y-95736878D01*
X84869719Y-95736876D01*
X84869719Y-95736874D01*
X84808528Y-95616780D01*
X84808526Y-95616778D01*
X84808523Y-95616774D01*
X84713225Y-95521476D01*
X84713221Y-95521473D01*
X84713220Y-95521472D01*
X84593126Y-95460281D01*
X84593124Y-95460280D01*
X84593121Y-95460279D01*
X84460002Y-95439196D01*
X84459999Y-95439196D01*
X84450217Y-95440745D01*
X84380924Y-95431788D01*
X84343142Y-95405952D01*
X84238258Y-95301068D01*
X84204773Y-95239745D01*
X84209757Y-95170053D01*
X84251629Y-95114120D01*
X84317093Y-95089703D01*
X84345185Y-95093148D01*
X84345530Y-95090977D01*
X84488293Y-95113588D01*
X84488295Y-95113588D01*
X84488297Y-95113588D01*
X84621416Y-95092504D01*
X84621416Y-95092503D01*
X84621421Y-95092503D01*
X84741515Y-95031312D01*
X84836823Y-94936004D01*
X84898014Y-94815910D01*
X84898706Y-94811542D01*
X84919099Y-94682786D01*
X84919099Y-94682781D01*
X84898015Y-94549662D01*
X84898014Y-94549660D01*
X84898014Y-94549658D01*
X84836823Y-94429564D01*
X84836821Y-94429562D01*
X84836818Y-94429558D01*
X84770114Y-94362854D01*
X84736629Y-94301531D01*
X84733795Y-94275173D01*
X84733795Y-92114757D01*
X84753480Y-92047718D01*
X84770114Y-92027076D01*
X85068819Y-91728371D01*
X85130142Y-91694886D01*
X85199834Y-91699870D01*
X85255767Y-91741742D01*
X85280184Y-91807206D01*
X85280500Y-91816052D01*
X85280500Y-93529831D01*
X85280501Y-93529836D01*
X85317872Y-93620062D01*
X86715952Y-95018142D01*
X86749437Y-95079465D01*
X86750745Y-95125217D01*
X86749196Y-95134999D01*
X86749196Y-95135002D01*
X86770279Y-95268121D01*
X86770280Y-95268124D01*
X86770281Y-95268126D01*
X86831472Y-95388220D01*
X86831473Y-95388221D01*
X86831476Y-95388225D01*
X86926774Y-95483523D01*
X86926778Y-95483526D01*
X86926780Y-95483528D01*
X87046874Y-95544719D01*
X87046876Y-95544719D01*
X87046878Y-95544720D01*
X87179998Y-95565804D01*
X87180000Y-95565804D01*
X87180002Y-95565804D01*
X87313121Y-95544720D01*
X87313121Y-95544719D01*
X87313126Y-95544719D01*
X87433220Y-95483528D01*
X87528528Y-95388220D01*
X87589719Y-95268126D01*
X87592047Y-95253427D01*
X87610804Y-95135002D01*
X87610804Y-95134997D01*
X87589720Y-95001876D01*
X87580885Y-94984536D01*
X87578519Y-94979894D01*
X87565624Y-94911226D01*
X87591901Y-94846486D01*
X87649007Y-94806229D01*
X87718813Y-94803237D01*
X87749533Y-94815378D01*
X87789063Y-94837490D01*
X87856102Y-94857175D01*
X87914000Y-94865500D01*
X88190500Y-94865500D01*
X88257539Y-94885185D01*
X88303294Y-94937989D01*
X88314500Y-94989500D01*
X88314500Y-95918978D01*
X88294815Y-95986017D01*
X88242011Y-96031772D01*
X88233835Y-96035159D01*
X88214997Y-96042185D01*
X88214992Y-96042187D01*
X88192018Y-96052395D01*
X88192015Y-96052397D01*
X88122295Y-96111575D01*
X88122289Y-96111581D01*
X88080428Y-96167499D01*
X88080424Y-96167505D01*
X88066610Y-96188525D01*
X88066609Y-96188527D01*
X88058176Y-96216202D01*
X88019803Y-96274592D01*
X87958961Y-96302527D01*
X87846877Y-96320279D01*
X87726778Y-96381473D01*
X87726774Y-96381476D01*
X87631476Y-96476774D01*
X87631473Y-96476778D01*
X87631472Y-96476780D01*
X87570788Y-96595880D01*
X87570279Y-96596878D01*
X87553480Y-96702947D01*
X87523551Y-96766082D01*
X87464732Y-96802875D01*
X87455160Y-96805580D01*
X87393836Y-96839065D01*
X87347009Y-96874118D01*
X87324812Y-96896315D01*
X87293428Y-96919116D01*
X87266331Y-96932923D01*
X87229432Y-96944913D01*
X87199396Y-96949670D01*
X87160599Y-96949669D01*
X87130562Y-96944911D01*
X87093668Y-96932923D01*
X87066570Y-96919116D01*
X87035183Y-96896312D01*
X87013688Y-96874817D01*
X86990884Y-96843430D01*
X86977072Y-96816322D01*
X86965084Y-96779425D01*
X86960328Y-96749396D01*
X86960327Y-96710609D01*
X86965085Y-96680561D01*
X86977069Y-96643680D01*
X86990885Y-96616565D01*
X87013683Y-96585188D01*
X87031879Y-96566993D01*
X87036965Y-96561722D01*
X87042997Y-96555244D01*
X87079531Y-96500571D01*
X87108556Y-96437015D01*
X87117581Y-96413551D01*
X87117581Y-96413548D01*
X87117582Y-96413546D01*
X87125035Y-96322403D01*
X87125035Y-96322401D01*
X87123011Y-96308325D01*
X87115091Y-96253242D01*
X87109999Y-96228627D01*
X87066989Y-96147915D01*
X87021234Y-96095111D01*
X87021228Y-96095104D01*
X87003646Y-96077160D01*
X87003645Y-96077159D01*
X87003643Y-96077157D01*
X87003641Y-96077156D01*
X87003639Y-96077154D01*
X86923829Y-96032511D01*
X86923824Y-96032509D01*
X86856792Y-96012826D01*
X86856788Y-96012825D01*
X86856787Y-96012825D01*
X86798889Y-96004500D01*
X85794514Y-96004500D01*
X85750420Y-96009286D01*
X85750419Y-96009287D01*
X85698454Y-96020703D01*
X85687855Y-96023327D01*
X85687854Y-96023327D01*
X85612662Y-96063796D01*
X85607323Y-96066670D01*
X85586651Y-96084732D01*
X85554701Y-96112648D01*
X85536824Y-96130310D01*
X85492508Y-96210311D01*
X85492507Y-96210313D01*
X85473101Y-96277428D01*
X85465017Y-96335357D01*
X85465017Y-96335361D01*
X85473992Y-98507366D01*
X85477979Y-98543402D01*
X85478777Y-98550611D01*
X85481696Y-98563898D01*
X85489986Y-98601631D01*
X85492378Y-98611372D01*
X85535388Y-98692083D01*
X85535390Y-98692086D01*
X85581149Y-98744895D01*
X85590434Y-98754371D01*
X85598735Y-98762843D01*
X85598736Y-98762844D01*
X85598738Y-98762845D01*
X85678548Y-98807488D01*
X85678552Y-98807490D01*
X85745591Y-98827175D01*
X85803489Y-98835500D01*
X86482506Y-98835500D01*
X86549545Y-98855185D01*
X86595300Y-98907989D01*
X86606505Y-98959240D01*
X86610579Y-100906102D01*
X86612432Y-101792148D01*
X86592887Y-101859228D01*
X86540179Y-101905093D01*
X86471042Y-101915182D01*
X86469035Y-101914881D01*
X86407232Y-101905093D01*
X86370000Y-101899196D01*
X86369998Y-101899196D01*
X86369997Y-101899196D01*
X86236878Y-101920279D01*
X86116778Y-101981473D01*
X86116774Y-101981476D01*
X86021476Y-102076774D01*
X86021473Y-102076778D01*
X86021472Y-102076780D01*
X85965629Y-102186379D01*
X85960279Y-102196878D01*
X85939196Y-102329997D01*
X85939196Y-102330002D01*
X85960279Y-102463121D01*
X85960280Y-102463124D01*
X85960281Y-102463126D01*
X86014849Y-102570221D01*
X86021473Y-102583221D01*
X86021476Y-102583225D01*
X86116774Y-102678523D01*
X86116777Y-102678525D01*
X86116780Y-102678528D01*
X86236796Y-102739679D01*
X86287590Y-102787651D01*
X86304500Y-102850162D01*
X86304500Y-103749596D01*
X86284815Y-103816635D01*
X86232011Y-103862390D01*
X86162853Y-103872334D01*
X86161103Y-103872069D01*
X86032499Y-103851701D01*
X86032493Y-103851701D01*
X85899373Y-103872784D01*
X85779273Y-103933978D01*
X85779269Y-103933981D01*
X85683971Y-104029279D01*
X85683966Y-104029285D01*
X85676209Y-104044510D01*
X85628232Y-104095304D01*
X85560411Y-104112097D01*
X85494277Y-104089557D01*
X85450827Y-104034840D01*
X85443254Y-104007615D01*
X85433719Y-103947413D01*
X85372528Y-103827319D01*
X85372526Y-103827317D01*
X85372523Y-103827313D01*
X85277225Y-103732015D01*
X85277221Y-103732012D01*
X85277220Y-103732011D01*
X85157126Y-103670820D01*
X85157124Y-103670819D01*
X85157121Y-103670818D01*
X85024002Y-103649735D01*
X85023997Y-103649735D01*
X84888897Y-103671132D01*
X84819604Y-103662177D01*
X84766152Y-103617181D01*
X84745513Y-103550429D01*
X84745500Y-103548659D01*
X84745500Y-103217610D01*
X84765185Y-103150571D01*
X84781814Y-103129933D01*
X84848528Y-103063220D01*
X84909719Y-102943126D01*
X84909720Y-102943121D01*
X84930804Y-102810002D01*
X84930804Y-102809997D01*
X84909720Y-102676878D01*
X84909719Y-102676876D01*
X84909719Y-102676874D01*
X84848528Y-102556780D01*
X84848526Y-102556778D01*
X84848523Y-102556774D01*
X84753225Y-102461476D01*
X84753222Y-102461474D01*
X84753220Y-102461472D01*
X84716675Y-102442851D01*
X84665881Y-102394878D01*
X84649086Y-102327057D01*
X84671623Y-102260922D01*
X84685291Y-102244686D01*
X84691447Y-102238529D01*
X84691450Y-102238528D01*
X84786758Y-102143220D01*
X84847949Y-102023126D01*
X84850028Y-102010000D01*
X84869034Y-101890002D01*
X84869034Y-101889997D01*
X84847950Y-101756878D01*
X84847949Y-101756876D01*
X84847949Y-101756874D01*
X84786758Y-101636780D01*
X84786756Y-101636778D01*
X84786753Y-101636774D01*
X84691455Y-101541476D01*
X84691451Y-101541473D01*
X84691450Y-101541472D01*
X84661560Y-101526242D01*
X84610766Y-101478270D01*
X84593971Y-101410449D01*
X84616508Y-101344314D01*
X84634481Y-101326086D01*
X84633824Y-101325429D01*
X84736027Y-101223225D01*
X84736032Y-101223220D01*
X84797223Y-101103126D01*
X84797224Y-101103121D01*
X84818308Y-100970002D01*
X84818308Y-100969997D01*
X84797224Y-100836878D01*
X84797223Y-100836876D01*
X84797223Y-100836874D01*
X84736032Y-100716780D01*
X84736030Y-100716778D01*
X84736027Y-100716774D01*
X84640728Y-100621475D01*
X84637241Y-100618942D01*
X84634025Y-100614772D01*
X84633824Y-100614571D01*
X84633849Y-100614545D01*
X84594572Y-100563615D01*
X84588589Y-100494001D01*
X84621192Y-100432205D01*
X84653823Y-100408137D01*
X84672683Y-100398528D01*
X84767991Y-100303220D01*
X84829182Y-100183126D01*
X84829219Y-100182891D01*
X84850267Y-100050002D01*
X84850267Y-100049997D01*
X84829183Y-99916878D01*
X84829182Y-99916876D01*
X84829182Y-99916874D01*
X84767991Y-99796780D01*
X84767989Y-99796778D01*
X84767986Y-99796774D01*
X84669483Y-99698271D01*
X84635998Y-99636948D01*
X84640982Y-99567256D01*
X84682854Y-99511323D01*
X84700854Y-99500114D01*
X84743220Y-99478528D01*
X84838528Y-99383220D01*
X84899719Y-99263126D01*
X84899886Y-99262071D01*
X84920804Y-99130002D01*
X84920804Y-99129997D01*
X84899720Y-98996878D01*
X84899719Y-98996876D01*
X84899719Y-98996874D01*
X84838528Y-98876780D01*
X84838526Y-98876778D01*
X84838523Y-98876774D01*
X84743223Y-98781474D01*
X84742748Y-98781129D01*
X84742310Y-98780561D01*
X84736320Y-98774571D01*
X84737094Y-98773796D01*
X84700083Y-98725799D01*
X84694104Y-98656186D01*
X84726710Y-98594391D01*
X84759337Y-98570328D01*
X84782497Y-98558528D01*
X84877805Y-98463220D01*
X84938996Y-98343126D01*
X84942003Y-98324142D01*
X84960081Y-98210002D01*
X84960081Y-98209997D01*
X84938997Y-98076878D01*
X84938996Y-98076876D01*
X84938996Y-98076874D01*
X84877805Y-97956780D01*
X84877803Y-97956778D01*
X84877800Y-97956774D01*
X84782502Y-97861476D01*
X84782499Y-97861474D01*
X84782497Y-97861472D01*
X84747581Y-97843681D01*
X84696787Y-97795708D01*
X84679992Y-97727887D01*
X84702529Y-97661752D01*
X84717533Y-97646642D01*
X84716320Y-97645429D01*
X84818523Y-97543225D01*
X84818528Y-97543220D01*
X84879719Y-97423126D01*
X84879720Y-97423121D01*
X84900804Y-97290002D01*
X84900804Y-97289997D01*
X84879720Y-97156878D01*
X84879719Y-97156876D01*
X84879719Y-97156874D01*
X84818528Y-97036780D01*
X84818526Y-97036778D01*
X84818523Y-97036774D01*
X84723225Y-96941476D01*
X84723221Y-96941473D01*
X84723220Y-96941472D01*
X84603126Y-96880281D01*
X84603124Y-96880280D01*
X84603121Y-96880279D01*
X84470002Y-96859196D01*
X84469998Y-96859196D01*
X84336878Y-96880279D01*
X84336874Y-96880280D01*
X84336874Y-96880281D01*
X84311407Y-96893257D01*
X84216778Y-96941473D01*
X84216774Y-96941476D01*
X84114571Y-97043680D01*
X84113170Y-97042279D01*
X84067622Y-97077397D01*
X83998008Y-97083370D01*
X83936216Y-97050758D01*
X83922322Y-97034722D01*
X83919780Y-97031223D01*
X83824481Y-96935924D01*
X83824477Y-96935921D01*
X83824476Y-96935920D01*
X83704382Y-96874729D01*
X83704380Y-96874728D01*
X83704377Y-96874727D01*
X83571258Y-96853644D01*
X83571254Y-96853644D01*
X83438134Y-96874727D01*
X83318034Y-96935921D01*
X83318030Y-96935924D01*
X83222732Y-97031222D01*
X83222729Y-97031226D01*
X83161535Y-97151326D01*
X83140452Y-97284445D01*
X83140452Y-97284450D01*
X83161535Y-97417569D01*
X83161536Y-97417572D01*
X83161537Y-97417574D01*
X83212826Y-97518234D01*
X83225722Y-97586903D01*
X83199446Y-97651643D01*
X83190022Y-97662209D01*
X81810935Y-99041297D01*
X81741874Y-99110357D01*
X81741872Y-99110359D01*
X81704501Y-99200585D01*
X81704500Y-99200590D01*
X81704500Y-106198831D01*
X81704501Y-106198836D01*
X81741872Y-106289062D01*
X81741875Y-106289065D01*
X83091875Y-107639065D01*
X83389844Y-107937034D01*
X83668181Y-108215370D01*
X83701666Y-108276693D01*
X83704500Y-108303051D01*
X83704500Y-113467389D01*
X83684815Y-113534428D01*
X83668181Y-113555070D01*
X83626476Y-113596774D01*
X83626473Y-113596778D01*
X83565279Y-113716878D01*
X83544196Y-113849997D01*
X83544196Y-113850002D01*
X83565279Y-113983121D01*
X83565280Y-113983124D01*
X83565281Y-113983126D01*
X83626472Y-114103220D01*
X83626473Y-114103221D01*
X83626476Y-114103225D01*
X83721774Y-114198523D01*
X83721778Y-114198526D01*
X83721780Y-114198528D01*
X83841874Y-114259719D01*
X83841876Y-114259719D01*
X83841878Y-114259720D01*
X83974998Y-114280804D01*
X83975000Y-114280804D01*
X83975002Y-114280804D01*
X84108121Y-114259720D01*
X84108121Y-114259719D01*
X84108126Y-114259719D01*
X84228220Y-114198528D01*
X84323528Y-114103220D01*
X84370648Y-114010741D01*
X84418619Y-113959949D01*
X84486439Y-113943153D01*
X84552574Y-113965690D01*
X84591614Y-114010743D01*
X84651472Y-114128220D01*
X84651474Y-114128222D01*
X84651476Y-114128225D01*
X84746774Y-114223523D01*
X84746778Y-114223526D01*
X84746780Y-114223528D01*
X84866874Y-114284719D01*
X84866876Y-114284719D01*
X84866878Y-114284720D01*
X84999998Y-114305804D01*
X85000000Y-114305804D01*
X85000002Y-114305804D01*
X85133121Y-114284720D01*
X85133121Y-114284719D01*
X85133126Y-114284719D01*
X85253220Y-114223528D01*
X85348528Y-114128220D01*
X85389516Y-114047775D01*
X85437489Y-113996981D01*
X85505310Y-113980186D01*
X85571445Y-114002723D01*
X85610483Y-114047774D01*
X85651472Y-114128220D01*
X85651473Y-114128221D01*
X85651476Y-114128225D01*
X85746774Y-114223523D01*
X85746778Y-114223526D01*
X85746780Y-114223528D01*
X85866874Y-114284719D01*
X85866876Y-114284719D01*
X85866878Y-114284720D01*
X85999998Y-114305804D01*
X86000000Y-114305804D01*
X86000002Y-114305804D01*
X86133121Y-114284720D01*
X86133121Y-114284719D01*
X86133126Y-114284719D01*
X86253220Y-114223528D01*
X86348528Y-114128220D01*
X86363889Y-114098071D01*
X86411861Y-114047277D01*
X86479682Y-114030481D01*
X86545817Y-114053018D01*
X86584856Y-114098071D01*
X86596593Y-114121105D01*
X86596598Y-114121112D01*
X86691896Y-114216410D01*
X86691900Y-114216413D01*
X86691902Y-114216415D01*
X86811996Y-114277606D01*
X86811998Y-114277606D01*
X86812000Y-114277607D01*
X86945120Y-114298691D01*
X86945122Y-114298691D01*
X86945124Y-114298691D01*
X87078243Y-114277607D01*
X87078243Y-114277606D01*
X87078248Y-114277606D01*
X87198342Y-114216415D01*
X87293650Y-114121107D01*
X87349262Y-114011961D01*
X87397235Y-113961166D01*
X87465056Y-113944371D01*
X87531191Y-113966908D01*
X87570230Y-114011961D01*
X87630280Y-114129815D01*
X87630282Y-114129817D01*
X87630284Y-114129820D01*
X87725582Y-114225118D01*
X87725586Y-114225121D01*
X87725588Y-114225123D01*
X87845682Y-114286314D01*
X87845684Y-114286314D01*
X87845686Y-114286315D01*
X87978806Y-114307399D01*
X87978808Y-114307399D01*
X87978810Y-114307399D01*
X88111929Y-114286315D01*
X88111929Y-114286314D01*
X88111934Y-114286314D01*
X88232028Y-114225123D01*
X88327336Y-114129815D01*
X88388527Y-114009721D01*
X88389090Y-114006162D01*
X88390974Y-114002188D01*
X88391544Y-114000436D01*
X88391770Y-114000509D01*
X88419018Y-113943029D01*
X88478328Y-113906096D01*
X88492167Y-113903086D01*
X88608127Y-113884720D01*
X88608127Y-113884719D01*
X88608132Y-113884719D01*
X88728226Y-113823528D01*
X88823534Y-113728220D01*
X88864519Y-113647781D01*
X88912492Y-113596986D01*
X88980313Y-113580191D01*
X89046448Y-113602728D01*
X89085486Y-113647780D01*
X89109633Y-113695171D01*
X89126471Y-113728218D01*
X89126476Y-113728225D01*
X89221774Y-113823523D01*
X89221778Y-113823526D01*
X89221780Y-113823528D01*
X89341874Y-113884719D01*
X89341876Y-113884719D01*
X89341878Y-113884720D01*
X89461997Y-113903745D01*
X89525132Y-113933674D01*
X89562064Y-113992985D01*
X89565073Y-114006815D01*
X89565281Y-114008126D01*
X89626472Y-114128220D01*
X89626473Y-114128221D01*
X89626476Y-114128225D01*
X89721774Y-114223523D01*
X89721778Y-114223526D01*
X89721780Y-114223528D01*
X89841874Y-114284719D01*
X89841876Y-114284719D01*
X89841878Y-114284720D01*
X89974998Y-114305804D01*
X89975000Y-114305804D01*
X89975002Y-114305804D01*
X90108121Y-114284720D01*
X90108121Y-114284719D01*
X90108126Y-114284719D01*
X90228220Y-114223528D01*
X90323528Y-114128220D01*
X90333146Y-114109341D01*
X90381116Y-114058548D01*
X90448936Y-114041751D01*
X90515072Y-114064286D01*
X90554114Y-114109341D01*
X90576471Y-114153218D01*
X90576476Y-114153225D01*
X90671774Y-114248523D01*
X90671778Y-114248526D01*
X90671780Y-114248528D01*
X90791874Y-114309719D01*
X90791876Y-114309719D01*
X90791878Y-114309720D01*
X90924998Y-114330804D01*
X90925000Y-114330804D01*
X90925002Y-114330804D01*
X91058121Y-114309720D01*
X91058121Y-114309719D01*
X91058126Y-114309719D01*
X91178220Y-114248528D01*
X91273528Y-114153220D01*
X91314516Y-114072775D01*
X91362489Y-114021981D01*
X91430310Y-114005186D01*
X91496445Y-114027723D01*
X91535483Y-114072774D01*
X91576471Y-114153218D01*
X91576473Y-114153221D01*
X91576476Y-114153225D01*
X91671774Y-114248523D01*
X91671778Y-114248526D01*
X91671780Y-114248528D01*
X91791874Y-114309719D01*
X91791876Y-114309719D01*
X91791878Y-114309720D01*
X91924998Y-114330804D01*
X91925000Y-114330804D01*
X91925002Y-114330804D01*
X92058121Y-114309720D01*
X92058121Y-114309719D01*
X92058126Y-114309719D01*
X92178220Y-114248528D01*
X92273528Y-114153220D01*
X92334719Y-114033126D01*
X92334719Y-114033123D01*
X92339149Y-114024430D01*
X92342444Y-114026109D01*
X92371492Y-113983616D01*
X92435847Y-113956408D01*
X92504695Y-113968312D01*
X92556178Y-114015549D01*
X92560350Y-114024685D01*
X92560851Y-114024430D01*
X92565280Y-114033123D01*
X92565281Y-114033126D01*
X92626471Y-114153218D01*
X92626473Y-114153221D01*
X92626476Y-114153225D01*
X92721774Y-114248523D01*
X92721778Y-114248526D01*
X92721780Y-114248528D01*
X92841874Y-114309719D01*
X92841876Y-114309719D01*
X92841878Y-114309720D01*
X92974998Y-114330804D01*
X92975000Y-114330804D01*
X92975002Y-114330804D01*
X93108121Y-114309720D01*
X93108121Y-114309719D01*
X93108126Y-114309719D01*
X93228220Y-114248528D01*
X93323528Y-114153220D01*
X93332909Y-114134808D01*
X93380878Y-114084015D01*
X93448698Y-114067218D01*
X93514834Y-114089753D01*
X93553876Y-114134808D01*
X93601472Y-114228220D01*
X93601474Y-114228222D01*
X93601476Y-114228225D01*
X93696774Y-114323523D01*
X93696778Y-114323526D01*
X93696780Y-114323528D01*
X93816874Y-114384719D01*
X93816876Y-114384719D01*
X93816878Y-114384720D01*
X93949998Y-114405804D01*
X93950000Y-114405804D01*
X93950002Y-114405804D01*
X94083121Y-114384720D01*
X94083121Y-114384719D01*
X94083126Y-114384719D01*
X94203220Y-114323528D01*
X94298528Y-114228220D01*
X94359719Y-114108126D01*
X94359720Y-114108118D01*
X94360335Y-114106228D01*
X94361709Y-114104218D01*
X94364149Y-114099430D01*
X94364767Y-114099745D01*
X94399773Y-114048553D01*
X94464132Y-114021355D01*
X94532978Y-114033270D01*
X94584454Y-114080514D01*
X94588746Y-114088245D01*
X94599047Y-114108461D01*
X94601471Y-114113218D01*
X94601476Y-114113225D01*
X94696774Y-114208523D01*
X94696778Y-114208526D01*
X94696780Y-114208528D01*
X94816874Y-114269719D01*
X94816876Y-114269719D01*
X94816878Y-114269720D01*
X94949998Y-114290804D01*
X94950000Y-114290804D01*
X94950002Y-114290804D01*
X95083121Y-114269720D01*
X95083121Y-114269719D01*
X95083126Y-114269719D01*
X95203220Y-114208528D01*
X95298528Y-114113220D01*
X95298531Y-114113212D01*
X95302469Y-114107794D01*
X95357796Y-114065125D01*
X95427409Y-114059141D01*
X95489206Y-114091743D01*
X95513274Y-114124375D01*
X95548239Y-114192996D01*
X95548241Y-114192998D01*
X95548243Y-114193001D01*
X95643541Y-114288299D01*
X95643545Y-114288302D01*
X95643547Y-114288304D01*
X95763641Y-114349495D01*
X95763643Y-114349495D01*
X95763645Y-114349496D01*
X95896765Y-114370580D01*
X95896767Y-114370580D01*
X95896769Y-114370580D01*
X96029888Y-114349496D01*
X96029888Y-114349495D01*
X96029893Y-114349495D01*
X96149987Y-114288304D01*
X96245295Y-114192996D01*
X96306486Y-114072902D01*
X96306486Y-114072897D01*
X96306488Y-114072895D01*
X96309504Y-114063616D01*
X96311771Y-114064352D01*
X96335783Y-114013677D01*
X96395088Y-113976735D01*
X96464951Y-113977720D01*
X96523190Y-114016319D01*
X96538825Y-114039896D01*
X96591472Y-114143220D01*
X96591474Y-114143222D01*
X96591476Y-114143225D01*
X96686774Y-114238523D01*
X96686778Y-114238526D01*
X96686780Y-114238528D01*
X96806874Y-114299719D01*
X96806876Y-114299719D01*
X96806878Y-114299720D01*
X96939998Y-114320804D01*
X96940000Y-114320804D01*
X96940002Y-114320804D01*
X97073121Y-114299720D01*
X97073121Y-114299719D01*
X97073126Y-114299719D01*
X97193220Y-114238528D01*
X97288528Y-114143220D01*
X97311161Y-114098799D01*
X97359134Y-114048005D01*
X97426955Y-114031209D01*
X97493090Y-114053746D01*
X97536542Y-114108461D01*
X97545644Y-114155445D01*
X97545261Y-114290804D01*
X97544853Y-114434967D01*
X97549505Y-114479030D01*
X97549506Y-114479041D01*
X97557132Y-114514262D01*
X97552079Y-114583949D01*
X97510152Y-114639841D01*
X97444663Y-114664193D01*
X97435940Y-114664500D01*
X73824500Y-114664500D01*
X73757461Y-114644815D01*
X73711706Y-114592011D01*
X73700500Y-114540500D01*
X73700500Y-112869995D01*
X76369196Y-112869995D01*
X76369196Y-112870000D01*
X76390279Y-113003119D01*
X76390280Y-113003122D01*
X76390281Y-113003124D01*
X76451126Y-113122538D01*
X76451473Y-113123219D01*
X76451476Y-113123223D01*
X76546774Y-113218521D01*
X76546778Y-113218524D01*
X76546780Y-113218526D01*
X76666874Y-113279717D01*
X76666876Y-113279717D01*
X76666878Y-113279718D01*
X76799998Y-113300802D01*
X76800000Y-113300802D01*
X76800002Y-113300802D01*
X76933121Y-113279718D01*
X76933121Y-113279717D01*
X76933126Y-113279717D01*
X77053220Y-113218526D01*
X77053225Y-113218521D01*
X77117319Y-113154428D01*
X77178642Y-113120943D01*
X77248334Y-113125927D01*
X77292681Y-113154428D01*
X77356774Y-113218521D01*
X77356778Y-113218524D01*
X77356780Y-113218526D01*
X77476874Y-113279717D01*
X77476876Y-113279717D01*
X77476878Y-113279718D01*
X77609998Y-113300802D01*
X77610000Y-113300802D01*
X77610002Y-113300802D01*
X77743121Y-113279718D01*
X77743121Y-113279717D01*
X77743126Y-113279717D01*
X77863220Y-113218526D01*
X77863225Y-113218521D01*
X77927319Y-113154428D01*
X77988642Y-113120943D01*
X78058334Y-113125927D01*
X78102681Y-113154428D01*
X78166774Y-113218521D01*
X78166778Y-113218524D01*
X78166780Y-113218526D01*
X78286874Y-113279717D01*
X78286876Y-113279717D01*
X78286878Y-113279718D01*
X78419998Y-113300802D01*
X78420000Y-113300802D01*
X78420002Y-113300802D01*
X78553121Y-113279718D01*
X78553121Y-113279717D01*
X78553126Y-113279717D01*
X78673220Y-113218526D01*
X78673225Y-113218521D01*
X78737319Y-113154428D01*
X78798642Y-113120943D01*
X78868334Y-113125927D01*
X78912681Y-113154428D01*
X78976774Y-113218521D01*
X78976778Y-113218524D01*
X78976780Y-113218526D01*
X79096874Y-113279717D01*
X79096876Y-113279717D01*
X79096878Y-113279718D01*
X79229998Y-113300802D01*
X79230000Y-113300802D01*
X79230002Y-113300802D01*
X79363121Y-113279718D01*
X79363121Y-113279717D01*
X79363126Y-113279717D01*
X79483220Y-113218526D01*
X79578528Y-113123218D01*
X79639719Y-113003124D01*
X79660804Y-112869998D01*
X79639719Y-112736872D01*
X79578528Y-112616778D01*
X79578526Y-112616776D01*
X79578523Y-112616772D01*
X79483225Y-112521474D01*
X79483221Y-112521471D01*
X79483220Y-112521470D01*
X79363126Y-112460279D01*
X79363124Y-112460278D01*
X79363121Y-112460277D01*
X79230002Y-112439194D01*
X79229998Y-112439194D01*
X79096878Y-112460277D01*
X78976778Y-112521471D01*
X78976774Y-112521474D01*
X78912681Y-112585568D01*
X78851358Y-112619053D01*
X78781666Y-112614069D01*
X78737319Y-112585568D01*
X78673225Y-112521474D01*
X78673221Y-112521471D01*
X78673220Y-112521470D01*
X78553126Y-112460279D01*
X78553124Y-112460278D01*
X78553121Y-112460277D01*
X78420002Y-112439194D01*
X78419998Y-112439194D01*
X78286878Y-112460277D01*
X78166778Y-112521471D01*
X78166774Y-112521474D01*
X78102681Y-112585568D01*
X78041358Y-112619053D01*
X77971666Y-112614069D01*
X77927319Y-112585568D01*
X77863225Y-112521474D01*
X77863221Y-112521471D01*
X77863220Y-112521470D01*
X77743126Y-112460279D01*
X77743124Y-112460278D01*
X77743121Y-112460277D01*
X77610002Y-112439194D01*
X77609998Y-112439194D01*
X77476878Y-112460277D01*
X77356778Y-112521471D01*
X77356774Y-112521474D01*
X77292681Y-112585568D01*
X77231358Y-112619053D01*
X77161666Y-112614069D01*
X77117319Y-112585568D01*
X77053225Y-112521474D01*
X77053221Y-112521471D01*
X77053220Y-112521470D01*
X76933126Y-112460279D01*
X76933124Y-112460278D01*
X76933121Y-112460277D01*
X76800002Y-112439194D01*
X76799998Y-112439194D01*
X76666878Y-112460277D01*
X76546778Y-112521471D01*
X76546774Y-112521474D01*
X76451476Y-112616772D01*
X76451473Y-112616776D01*
X76390279Y-112736876D01*
X76369196Y-112869995D01*
X73700500Y-112869995D01*
X73700500Y-107869997D01*
X80679196Y-107869997D01*
X80679196Y-107870002D01*
X80700279Y-108003121D01*
X80700280Y-108003124D01*
X80700281Y-108003126D01*
X80705273Y-108012923D01*
X80761473Y-108123221D01*
X80761476Y-108123225D01*
X80856774Y-108218523D01*
X80856778Y-108218526D01*
X80856780Y-108218528D01*
X80976874Y-108279719D01*
X80976876Y-108279719D01*
X80976878Y-108279720D01*
X81109998Y-108300804D01*
X81110000Y-108300804D01*
X81110002Y-108300804D01*
X81243121Y-108279720D01*
X81243121Y-108279719D01*
X81243126Y-108279719D01*
X81343709Y-108228469D01*
X81412374Y-108215574D01*
X81456288Y-108228468D01*
X81556874Y-108279719D01*
X81556876Y-108279719D01*
X81556878Y-108279720D01*
X81689998Y-108300804D01*
X81690000Y-108300804D01*
X81690002Y-108300804D01*
X81823121Y-108279720D01*
X81823121Y-108279719D01*
X81823126Y-108279719D01*
X81943220Y-108218528D01*
X82038528Y-108123220D01*
X82099719Y-108003126D01*
X82114784Y-107908009D01*
X82120804Y-107870002D01*
X82120804Y-107869997D01*
X82099720Y-107736878D01*
X82099719Y-107736876D01*
X82099719Y-107736874D01*
X82038528Y-107616780D01*
X82038526Y-107616778D01*
X82038523Y-107616774D01*
X81943225Y-107521476D01*
X81943221Y-107521473D01*
X81943220Y-107521472D01*
X81823126Y-107460281D01*
X81823124Y-107460280D01*
X81823121Y-107460279D01*
X81690002Y-107439196D01*
X81689998Y-107439196D01*
X81556878Y-107460279D01*
X81556874Y-107460280D01*
X81556874Y-107460281D01*
X81456293Y-107511529D01*
X81387625Y-107524425D01*
X81343706Y-107511529D01*
X81243126Y-107460281D01*
X81243124Y-107460280D01*
X81243121Y-107460279D01*
X81110002Y-107439196D01*
X81109998Y-107439196D01*
X80976878Y-107460279D01*
X80856778Y-107521473D01*
X80856774Y-107521476D01*
X80761476Y-107616774D01*
X80761473Y-107616778D01*
X80700279Y-107736878D01*
X80679196Y-107869997D01*
X73700500Y-107869997D01*
X73700500Y-97793233D01*
X76419196Y-97793233D01*
X76419196Y-97793238D01*
X76440279Y-97926357D01*
X76440280Y-97926360D01*
X76440281Y-97926362D01*
X76501472Y-98046456D01*
X76503855Y-98051132D01*
X76516751Y-98119802D01*
X76503855Y-98163722D01*
X76501472Y-98168397D01*
X76501472Y-98168398D01*
X76467537Y-98235000D01*
X76440279Y-98288496D01*
X76419196Y-98421615D01*
X76419196Y-98421620D01*
X76440279Y-98554739D01*
X76440280Y-98554742D01*
X76440281Y-98554744D01*
X76501472Y-98674838D01*
X76503855Y-98679514D01*
X76516751Y-98748184D01*
X76503855Y-98792104D01*
X76501472Y-98796779D01*
X76501472Y-98796780D01*
X76471713Y-98855185D01*
X76440279Y-98916878D01*
X76419196Y-99049997D01*
X76419196Y-99050002D01*
X76440279Y-99183121D01*
X76440280Y-99183124D01*
X76440281Y-99183126D01*
X76500868Y-99302034D01*
X76501473Y-99303221D01*
X76501476Y-99303225D01*
X76596774Y-99398523D01*
X76596778Y-99398526D01*
X76596780Y-99398528D01*
X76716874Y-99459719D01*
X76716876Y-99459719D01*
X76716878Y-99459720D01*
X76829897Y-99477620D01*
X76893032Y-99507549D01*
X76929964Y-99566860D01*
X76934500Y-99600093D01*
X76934500Y-104006007D01*
X76939197Y-104049686D01*
X76950397Y-104101174D01*
X76952342Y-104109133D01*
X76952890Y-104111373D01*
X76995900Y-104192085D01*
X77012120Y-104210804D01*
X77041660Y-104244895D01*
X77059242Y-104262839D01*
X77059246Y-104262843D01*
X77059247Y-104262844D01*
X77059249Y-104262845D01*
X77117719Y-104295551D01*
X77139063Y-104307490D01*
X77206102Y-104327175D01*
X77264000Y-104335500D01*
X77264004Y-104335500D01*
X79276272Y-104335500D01*
X79276278Y-104335500D01*
X79319734Y-104330853D01*
X79370992Y-104319763D01*
X79380953Y-104317346D01*
X79461762Y-104274518D01*
X79514669Y-104228881D01*
X79532663Y-104211329D01*
X79544814Y-104189719D01*
X79577487Y-104131615D01*
X79577489Y-104131608D01*
X79580708Y-104120736D01*
X79597323Y-104064617D01*
X79605777Y-104007017D01*
X79605778Y-104006739D01*
X79605778Y-104006461D01*
X79608087Y-102977153D01*
X79623540Y-96092213D01*
X79643374Y-96025223D01*
X79696281Y-95979586D01*
X79712595Y-95973521D01*
X79779069Y-95954004D01*
X79876301Y-95891517D01*
X79943340Y-95871832D01*
X80010378Y-95891515D01*
X80060931Y-95924004D01*
X80185225Y-95960499D01*
X80185227Y-95960500D01*
X80185228Y-95960500D01*
X80314773Y-95960500D01*
X80314773Y-95960499D01*
X80439069Y-95924004D01*
X80548049Y-95853967D01*
X80632882Y-95756063D01*
X80686697Y-95638226D01*
X80703038Y-95524569D01*
X80732061Y-95461016D01*
X80790839Y-95423241D01*
X80825128Y-95418220D01*
X81227472Y-95416137D01*
X81270799Y-95411288D01*
X81321883Y-95399986D01*
X81331729Y-95397551D01*
X81412359Y-95354389D01*
X81465076Y-95308534D01*
X81482999Y-95290906D01*
X81527494Y-95211004D01*
X81547051Y-95143927D01*
X81555265Y-95086015D01*
X81554132Y-94489997D01*
X82070196Y-94489997D01*
X82070196Y-94490002D01*
X82091279Y-94623121D01*
X82091280Y-94623124D01*
X82091281Y-94623126D01*
X82152472Y-94743220D01*
X82152473Y-94743221D01*
X82152476Y-94743225D01*
X82247774Y-94838523D01*
X82247778Y-94838526D01*
X82247780Y-94838528D01*
X82367874Y-94899719D01*
X82367876Y-94899719D01*
X82367878Y-94899720D01*
X82500998Y-94920804D01*
X82501000Y-94920804D01*
X82501002Y-94920804D01*
X82634121Y-94899720D01*
X82634121Y-94899719D01*
X82634126Y-94899719D01*
X82754220Y-94838528D01*
X82849528Y-94743220D01*
X82849531Y-94743213D01*
X82855261Y-94735328D01*
X82858139Y-94737419D01*
X82893819Y-94699631D01*
X82928588Y-94691015D01*
X82919727Y-94679842D01*
X82912182Y-94613887D01*
X82914149Y-94601472D01*
X82931804Y-94490000D01*
X82930856Y-94484015D01*
X82910720Y-94356878D01*
X82910719Y-94356876D01*
X82910719Y-94356874D01*
X82849528Y-94236780D01*
X82849526Y-94236778D01*
X82849523Y-94236774D01*
X82754225Y-94141476D01*
X82754221Y-94141473D01*
X82754220Y-94141472D01*
X82634126Y-94080281D01*
X82634124Y-94080280D01*
X82634121Y-94080279D01*
X82501002Y-94059196D01*
X82500998Y-94059196D01*
X82367878Y-94080279D01*
X82247778Y-94141473D01*
X82247774Y-94141476D01*
X82152476Y-94236774D01*
X82152473Y-94236778D01*
X82091279Y-94356878D01*
X82070196Y-94489997D01*
X81554132Y-94489997D01*
X81548257Y-91399997D01*
X82679196Y-91399997D01*
X82679196Y-91400002D01*
X82700279Y-91533121D01*
X82700280Y-91533124D01*
X82700281Y-91533126D01*
X82760042Y-91650413D01*
X82761473Y-91653221D01*
X82761476Y-91653225D01*
X82856774Y-91748523D01*
X82856778Y-91748526D01*
X82856780Y-91748528D01*
X82976874Y-91809719D01*
X82976876Y-91809719D01*
X82976878Y-91809720D01*
X83109998Y-91830804D01*
X83110000Y-91830804D01*
X83110002Y-91830804D01*
X83243121Y-91809720D01*
X83243121Y-91809719D01*
X83243126Y-91809719D01*
X83363220Y-91748528D01*
X83458528Y-91653220D01*
X83519719Y-91533126D01*
X83520164Y-91530319D01*
X83540804Y-91400002D01*
X83540804Y-91399997D01*
X83519720Y-91266878D01*
X83519719Y-91266876D01*
X83519719Y-91266874D01*
X83458528Y-91146780D01*
X83458526Y-91146778D01*
X83458523Y-91146774D01*
X83363225Y-91051476D01*
X83363221Y-91051473D01*
X83363220Y-91051472D01*
X83243126Y-90990281D01*
X83243124Y-90990280D01*
X83243121Y-90990279D01*
X83110002Y-90969196D01*
X83109998Y-90969196D01*
X82976878Y-90990279D01*
X82976874Y-90990280D01*
X82976874Y-90990281D01*
X82905439Y-91026679D01*
X82856778Y-91051473D01*
X82856774Y-91051476D01*
X82761476Y-91146774D01*
X82761473Y-91146778D01*
X82761472Y-91146780D01*
X82713626Y-91240684D01*
X82700279Y-91266878D01*
X82679196Y-91399997D01*
X81548257Y-91399997D01*
X81546127Y-90279735D01*
X81565684Y-90212659D01*
X81618401Y-90166804D01*
X81670127Y-90155500D01*
X84175991Y-90155500D01*
X84176000Y-90155500D01*
X84219684Y-90150803D01*
X84248875Y-90144452D01*
X84271174Y-90139602D01*
X84271190Y-90139598D01*
X84271195Y-90139597D01*
X84281373Y-90137110D01*
X84362085Y-90094100D01*
X84414889Y-90048345D01*
X84432843Y-90030754D01*
X84477490Y-89950937D01*
X84497175Y-89883898D01*
X84505500Y-89826000D01*
X84505500Y-87464000D01*
X84500803Y-87420316D01*
X84492157Y-87380572D01*
X84489602Y-87368825D01*
X84489348Y-87367789D01*
X84487110Y-87358627D01*
X84444100Y-87277915D01*
X84398345Y-87225111D01*
X84398339Y-87225104D01*
X84380757Y-87207160D01*
X84380756Y-87207159D01*
X84380754Y-87207157D01*
X84380752Y-87207156D01*
X84380750Y-87207154D01*
X84300940Y-87162511D01*
X84300935Y-87162509D01*
X84233903Y-87142826D01*
X84233899Y-87142825D01*
X84233898Y-87142825D01*
X84176000Y-87134500D01*
X77264000Y-87134500D01*
X77263992Y-87134500D01*
X77220313Y-87139197D01*
X77168825Y-87150397D01*
X77158627Y-87152890D01*
X77158624Y-87152891D01*
X77077916Y-87195899D01*
X77077913Y-87195901D01*
X77025104Y-87241660D01*
X77007160Y-87259242D01*
X77007154Y-87259249D01*
X76962511Y-87339059D01*
X76962509Y-87339064D01*
X76942826Y-87406096D01*
X76942825Y-87406101D01*
X76942825Y-87406102D01*
X76934500Y-87464000D01*
X76934500Y-89962129D01*
X76936553Y-89977581D01*
X76925866Y-90046629D01*
X76879546Y-90098937D01*
X76869928Y-90104391D01*
X76816781Y-90131471D01*
X76816774Y-90131476D01*
X76721476Y-90226774D01*
X76721473Y-90226778D01*
X76660279Y-90346878D01*
X76639196Y-90479997D01*
X76639196Y-90480002D01*
X76660279Y-90613121D01*
X76660280Y-90613124D01*
X76660281Y-90613126D01*
X76714334Y-90719211D01*
X76718001Y-90726407D01*
X76730897Y-90795077D01*
X76711311Y-90846470D01*
X76712232Y-90846939D01*
X76707871Y-90855497D01*
X76707841Y-90855577D01*
X76707806Y-90855624D01*
X76646608Y-90975732D01*
X76625525Y-91108851D01*
X76625525Y-91108856D01*
X76646608Y-91241975D01*
X76646609Y-91241978D01*
X76646610Y-91241980D01*
X76707801Y-91362074D01*
X76707802Y-91362075D01*
X76707805Y-91362079D01*
X76803103Y-91457377D01*
X76803106Y-91457379D01*
X76803109Y-91457382D01*
X76868211Y-91490553D01*
X76919007Y-91538526D01*
X76935802Y-91606347D01*
X76934656Y-91618668D01*
X76934500Y-91619747D01*
X76934500Y-93022339D01*
X76938305Y-93061692D01*
X76938307Y-93061704D01*
X76947408Y-93108329D01*
X76948662Y-93114281D01*
X76973320Y-93165752D01*
X76984531Y-93234716D01*
X76969713Y-93279855D01*
X76962510Y-93292732D01*
X76942826Y-93359766D01*
X76942825Y-93359771D01*
X76942825Y-93359772D01*
X76934794Y-93415629D01*
X76934500Y-93417673D01*
X76934500Y-93673477D01*
X76942016Y-93728548D01*
X76945939Y-93742652D01*
X76959824Y-93792571D01*
X76964330Y-93805930D01*
X76966429Y-93812152D01*
X76969203Y-93881967D01*
X76963253Y-93899814D01*
X76962513Y-93901575D01*
X76942826Y-93968617D01*
X76942825Y-93968622D01*
X76942825Y-93968623D01*
X76938191Y-94000856D01*
X76934500Y-94026524D01*
X76934500Y-97243142D01*
X76914815Y-97310181D01*
X76862011Y-97355936D01*
X76829898Y-97365615D01*
X76716878Y-97383515D01*
X76596778Y-97444709D01*
X76596774Y-97444712D01*
X76501476Y-97540010D01*
X76501473Y-97540014D01*
X76440279Y-97660114D01*
X76419196Y-97793233D01*
X73700500Y-97793233D01*
X73700500Y-86579997D01*
X74589196Y-86579997D01*
X74589196Y-86580002D01*
X74610279Y-86713121D01*
X74610280Y-86713124D01*
X74610281Y-86713126D01*
X74671472Y-86833220D01*
X74671473Y-86833221D01*
X74671476Y-86833225D01*
X74766774Y-86928523D01*
X74766778Y-86928526D01*
X74766780Y-86928528D01*
X74886874Y-86989719D01*
X74886876Y-86989719D01*
X74886878Y-86989720D01*
X75019998Y-87010804D01*
X75020000Y-87010804D01*
X75020002Y-87010804D01*
X75153121Y-86989720D01*
X75153121Y-86989719D01*
X75153126Y-86989719D01*
X75238708Y-86946112D01*
X75307374Y-86933217D01*
X75351289Y-86946111D01*
X75436874Y-86989719D01*
X75436876Y-86989719D01*
X75436878Y-86989720D01*
X75569998Y-87010804D01*
X75570000Y-87010804D01*
X75570002Y-87010804D01*
X75703122Y-86989720D01*
X75703123Y-86989719D01*
X75703126Y-86989719D01*
X75793707Y-86943565D01*
X75862374Y-86930669D01*
X75906290Y-86943564D01*
X75996874Y-86989719D01*
X75996875Y-86989719D01*
X75996877Y-86989720D01*
X76129998Y-87010804D01*
X76130000Y-87010804D01*
X76130002Y-87010804D01*
X76263121Y-86989720D01*
X76263121Y-86989719D01*
X76263126Y-86989719D01*
X76383220Y-86928528D01*
X76478528Y-86833220D01*
X76539719Y-86713126D01*
X76546531Y-86670115D01*
X76560804Y-86580002D01*
X76560804Y-86579997D01*
X76539720Y-86446878D01*
X76539719Y-86446876D01*
X76539719Y-86446874D01*
X76478528Y-86326780D01*
X76478526Y-86326778D01*
X76478523Y-86326774D01*
X76383225Y-86231476D01*
X76383221Y-86231473D01*
X76383220Y-86231472D01*
X76263126Y-86170281D01*
X76263124Y-86170280D01*
X76263121Y-86170279D01*
X76130002Y-86149196D01*
X76129998Y-86149196D01*
X75996878Y-86170279D01*
X75996874Y-86170280D01*
X75996874Y-86170281D01*
X75906292Y-86216434D01*
X75837625Y-86229330D01*
X75793708Y-86216434D01*
X75703126Y-86170281D01*
X75703124Y-86170280D01*
X75703121Y-86170279D01*
X75570002Y-86149196D01*
X75569998Y-86149196D01*
X75436876Y-86170279D01*
X75351294Y-86213886D01*
X75282625Y-86226782D01*
X75238706Y-86213886D01*
X75153123Y-86170279D01*
X75020002Y-86149196D01*
X75019998Y-86149196D01*
X74886878Y-86170279D01*
X74766778Y-86231473D01*
X74766774Y-86231476D01*
X74671476Y-86326774D01*
X74671473Y-86326778D01*
X74610279Y-86446878D01*
X74589196Y-86579997D01*
X73700500Y-86579997D01*
X73700500Y-83959997D01*
X76619196Y-83959997D01*
X76619196Y-83960002D01*
X76640279Y-84093121D01*
X76640280Y-84093124D01*
X76640281Y-84093126D01*
X76699998Y-84210327D01*
X76701473Y-84213221D01*
X76701476Y-84213225D01*
X76796774Y-84308523D01*
X76796778Y-84308526D01*
X76796780Y-84308528D01*
X76916874Y-84369719D01*
X76916876Y-84369719D01*
X76916878Y-84369720D01*
X77049998Y-84390804D01*
X77050000Y-84390804D01*
X77050002Y-84390804D01*
X77183122Y-84369720D01*
X77183123Y-84369719D01*
X77183126Y-84369719D01*
X77243520Y-84338945D01*
X77312184Y-84326050D01*
X77356106Y-84338946D01*
X77390068Y-84356251D01*
X77396874Y-84359719D01*
X77396876Y-84359720D01*
X77529998Y-84380804D01*
X77530000Y-84380804D01*
X77530002Y-84380804D01*
X77663123Y-84359720D01*
X77663124Y-84359719D01*
X77663126Y-84359719D01*
X77694078Y-84343948D01*
X77762748Y-84331051D01*
X77806665Y-84343945D01*
X77876874Y-84379719D01*
X77876876Y-84379719D01*
X77876878Y-84379720D01*
X78009998Y-84400804D01*
X78010000Y-84400804D01*
X78010002Y-84400804D01*
X78143121Y-84379720D01*
X78143121Y-84379719D01*
X78143126Y-84379719D01*
X78263220Y-84318528D01*
X78268494Y-84313254D01*
X81659196Y-84313254D01*
X81659196Y-84313259D01*
X81680279Y-84446378D01*
X81680280Y-84446381D01*
X81680281Y-84446383D01*
X81737125Y-84557945D01*
X81743880Y-84571202D01*
X81756776Y-84639872D01*
X81743880Y-84683792D01*
X81741472Y-84688516D01*
X81741472Y-84688517D01*
X81696456Y-84776866D01*
X81680279Y-84808615D01*
X81659196Y-84941734D01*
X81659196Y-84941739D01*
X81680279Y-85074860D01*
X81743824Y-85199574D01*
X81756720Y-85268243D01*
X81743824Y-85312162D01*
X81680279Y-85436876D01*
X81659196Y-85569997D01*
X81659196Y-85570002D01*
X81680279Y-85703121D01*
X81680280Y-85703124D01*
X81680281Y-85703126D01*
X81740824Y-85821948D01*
X81741473Y-85823221D01*
X81741476Y-85823225D01*
X81836774Y-85918523D01*
X81836778Y-85918526D01*
X81836780Y-85918528D01*
X81956874Y-85979719D01*
X81956876Y-85979719D01*
X81956878Y-85979720D01*
X82089998Y-86000804D01*
X82090000Y-86000804D01*
X82090002Y-86000804D01*
X82223121Y-85979720D01*
X82223121Y-85979719D01*
X82223126Y-85979719D01*
X82343220Y-85918528D01*
X82362023Y-85899724D01*
X82423341Y-85866240D01*
X82493033Y-85871222D01*
X82537385Y-85899724D01*
X82542927Y-85905266D01*
X82542931Y-85905269D01*
X82542933Y-85905271D01*
X82663027Y-85966462D01*
X82663029Y-85966462D01*
X82663031Y-85966463D01*
X82796151Y-85987547D01*
X82796153Y-85987547D01*
X82796155Y-85987547D01*
X82929274Y-85966463D01*
X82929274Y-85966462D01*
X82929279Y-85966462D01*
X83049373Y-85905271D01*
X83144681Y-85809963D01*
X83205872Y-85689869D01*
X83214339Y-85636410D01*
X83226957Y-85556745D01*
X83226957Y-85556740D01*
X83205873Y-85423621D01*
X83205872Y-85423619D01*
X83205872Y-85423617D01*
X83144681Y-85303523D01*
X83144679Y-85303521D01*
X83142328Y-85298906D01*
X83129432Y-85230236D01*
X83142328Y-85186316D01*
X83144678Y-85181702D01*
X83144681Y-85181700D01*
X83205872Y-85061606D01*
X83205873Y-85061601D01*
X83226957Y-84928482D01*
X83226957Y-84928477D01*
X83205873Y-84795358D01*
X83205872Y-84795356D01*
X83205872Y-84795354D01*
X83144681Y-84675260D01*
X83144677Y-84675256D01*
X83142272Y-84670535D01*
X83129376Y-84601866D01*
X83142272Y-84557945D01*
X83144677Y-84553223D01*
X83144681Y-84553220D01*
X83205872Y-84433126D01*
X83208166Y-84418641D01*
X83226957Y-84300002D01*
X83226957Y-84299997D01*
X83205873Y-84166878D01*
X83205872Y-84166876D01*
X83205872Y-84166874D01*
X83144681Y-84046780D01*
X83144679Y-84046778D01*
X83144676Y-84046774D01*
X83049378Y-83951476D01*
X83049374Y-83951473D01*
X83049373Y-83951472D01*
X82929279Y-83890281D01*
X82929277Y-83890280D01*
X82929274Y-83890279D01*
X82796155Y-83869196D01*
X82796151Y-83869196D01*
X82663031Y-83890279D01*
X82663027Y-83890280D01*
X82663027Y-83890281D01*
X82582964Y-83931075D01*
X82542931Y-83951473D01*
X82524127Y-83970277D01*
X82462803Y-84003761D01*
X82393111Y-83998775D01*
X82348764Y-83970273D01*
X82343220Y-83964729D01*
X82223126Y-83903538D01*
X82223124Y-83903537D01*
X82223121Y-83903536D01*
X82090002Y-83882453D01*
X82089998Y-83882453D01*
X81956878Y-83903536D01*
X81836778Y-83964730D01*
X81836774Y-83964733D01*
X81741476Y-84060031D01*
X81741473Y-84060035D01*
X81680279Y-84180135D01*
X81659196Y-84313254D01*
X78268494Y-84313254D01*
X78358528Y-84223220D01*
X78419719Y-84103126D01*
X78422887Y-84083126D01*
X78440804Y-83970002D01*
X78440804Y-83969997D01*
X78419720Y-83836878D01*
X78419719Y-83836876D01*
X78419719Y-83836874D01*
X78358528Y-83716780D01*
X78358526Y-83716778D01*
X78358523Y-83716774D01*
X78263225Y-83621476D01*
X78263221Y-83621473D01*
X78263220Y-83621472D01*
X78143126Y-83560281D01*
X78143124Y-83560280D01*
X78143121Y-83560279D01*
X78010002Y-83539196D01*
X78009998Y-83539196D01*
X77876875Y-83560280D01*
X77876873Y-83560280D01*
X77845918Y-83576053D01*
X77777249Y-83588948D01*
X77733331Y-83576052D01*
X77663123Y-83540279D01*
X77530002Y-83519196D01*
X77529998Y-83519196D01*
X77396877Y-83540279D01*
X77336479Y-83571053D01*
X77267809Y-83583948D01*
X77223891Y-83571052D01*
X77183123Y-83550279D01*
X77050002Y-83529196D01*
X77049998Y-83529196D01*
X76916878Y-83550279D01*
X76796778Y-83611473D01*
X76796774Y-83611476D01*
X76701476Y-83706774D01*
X76701473Y-83706778D01*
X76640279Y-83826878D01*
X76619196Y-83959997D01*
X73700500Y-83959997D01*
X73700500Y-82999500D01*
X73720185Y-82932461D01*
X73772989Y-82886706D01*
X73824500Y-82875500D01*
X85938066Y-82875500D01*
X85974217Y-82886115D01*
G37*
%TD.AperFunction*%
%TA.AperFunction,Conductor*%
G36*
X97788687Y-99336214D02*
G01*
X97790734Y-99338575D01*
X97794521Y-99342363D01*
X97794522Y-99342364D01*
X97823395Y-99371243D01*
X97859777Y-99407633D01*
X97939700Y-99453784D01*
X97939701Y-99453784D01*
X97939704Y-99453786D01*
X98013395Y-99473534D01*
X98024802Y-99477407D01*
X98026165Y-99477678D01*
X98026167Y-99477678D01*
X98075000Y-99477678D01*
X98118288Y-99477678D01*
X98347261Y-99477678D01*
X98414300Y-99497363D01*
X98460055Y-99550167D01*
X98469999Y-99619325D01*
X98440974Y-99682881D01*
X98403559Y-99712160D01*
X98342761Y-99743139D01*
X98306778Y-99761473D01*
X98306774Y-99761476D01*
X98211476Y-99856774D01*
X98211473Y-99856778D01*
X98150279Y-99976878D01*
X98129196Y-100109997D01*
X98129196Y-100110002D01*
X98150279Y-100243121D01*
X98150280Y-100243124D01*
X98150281Y-100243126D01*
X98211472Y-100363220D01*
X98211473Y-100363221D01*
X98211476Y-100363225D01*
X98306774Y-100458523D01*
X98306779Y-100458527D01*
X98306780Y-100458528D01*
X98334541Y-100472672D01*
X98385336Y-100520647D01*
X98402131Y-100588468D01*
X98379593Y-100654603D01*
X98334544Y-100693640D01*
X98330907Y-100695492D01*
X98330901Y-100695497D01*
X98235603Y-100790795D01*
X98235600Y-100790799D01*
X98174406Y-100910899D01*
X98153323Y-101044018D01*
X98153323Y-101044023D01*
X98174406Y-101177142D01*
X98174407Y-101177145D01*
X98174408Y-101177147D01*
X98235599Y-101297241D01*
X98235600Y-101297242D01*
X98235603Y-101297246D01*
X98330901Y-101392544D01*
X98330903Y-101392545D01*
X98330907Y-101392549D01*
X98375902Y-101415475D01*
X98426697Y-101463449D01*
X98443492Y-101531270D01*
X98420955Y-101597405D01*
X98375902Y-101636442D01*
X98326780Y-101661472D01*
X98326779Y-101661473D01*
X98326774Y-101661476D01*
X98231476Y-101756774D01*
X98231473Y-101756778D01*
X98170279Y-101876878D01*
X98149196Y-102009997D01*
X98149196Y-102010002D01*
X98170279Y-102143121D01*
X98170280Y-102143124D01*
X98170281Y-102143126D01*
X98230429Y-102261173D01*
X98231473Y-102263221D01*
X98231476Y-102263225D01*
X98326774Y-102358523D01*
X98326777Y-102358525D01*
X98326780Y-102358528D01*
X98326782Y-102358529D01*
X98334672Y-102364261D01*
X98333216Y-102366264D01*
X98373765Y-102404560D01*
X98390561Y-102472381D01*
X98368024Y-102538516D01*
X98322970Y-102577555D01*
X98236783Y-102621469D01*
X98236774Y-102621476D01*
X98141476Y-102716774D01*
X98141473Y-102716778D01*
X98080279Y-102836878D01*
X98059196Y-102969997D01*
X98059196Y-102970002D01*
X98080279Y-103103121D01*
X98080280Y-103103124D01*
X98080281Y-103103126D01*
X98135786Y-103212060D01*
X98141473Y-103223221D01*
X98141476Y-103223225D01*
X98236774Y-103318523D01*
X98236778Y-103318526D01*
X98236780Y-103318528D01*
X98356874Y-103379719D01*
X98356876Y-103379719D01*
X98365570Y-103384149D01*
X98364541Y-103386167D01*
X98411191Y-103418067D01*
X98437525Y-103480383D01*
X98437669Y-103480361D01*
X98437761Y-103480942D01*
X98438388Y-103482426D01*
X98438609Y-103486298D01*
X98460279Y-103623123D01*
X98491356Y-103684115D01*
X98504252Y-103752784D01*
X98477975Y-103817525D01*
X98437168Y-103850893D01*
X98396779Y-103871472D01*
X98396774Y-103871476D01*
X98301476Y-103966774D01*
X98301473Y-103966778D01*
X98240279Y-104086878D01*
X98219196Y-104219997D01*
X98219196Y-104220002D01*
X98240279Y-104353123D01*
X98277167Y-104425519D01*
X98290063Y-104494188D01*
X98263786Y-104558928D01*
X98254363Y-104569494D01*
X96790361Y-106033495D01*
X96729038Y-106066980D01*
X96659346Y-106061996D01*
X96603413Y-106020124D01*
X96592199Y-106002116D01*
X96538528Y-105896780D01*
X96538526Y-105896778D01*
X96538523Y-105896774D01*
X96443225Y-105801476D01*
X96443221Y-105801473D01*
X96443220Y-105801472D01*
X96323126Y-105740281D01*
X96323124Y-105740280D01*
X96323121Y-105740279D01*
X96190002Y-105719196D01*
X96189998Y-105719196D01*
X96056878Y-105740279D01*
X95936778Y-105801473D01*
X95936774Y-105801476D01*
X95841476Y-105896774D01*
X95841473Y-105896778D01*
X95780279Y-106016878D01*
X95759196Y-106149997D01*
X95759196Y-106150002D01*
X95780279Y-106283121D01*
X95780280Y-106283124D01*
X95780281Y-106283126D01*
X95836063Y-106392604D01*
X95841473Y-106403221D01*
X95841476Y-106403225D01*
X95936774Y-106498523D01*
X95936778Y-106498526D01*
X95936780Y-106498528D01*
X96042110Y-106552196D01*
X96092905Y-106600169D01*
X96109700Y-106667990D01*
X96087163Y-106734125D01*
X96073495Y-106750361D01*
X94810935Y-108012923D01*
X94741874Y-108081983D01*
X94741872Y-108081985D01*
X94704501Y-108172211D01*
X94704500Y-108172216D01*
X94704500Y-113452389D01*
X94684815Y-113519428D01*
X94668181Y-113540070D01*
X94601476Y-113606774D01*
X94601473Y-113606778D01*
X94601472Y-113606780D01*
X94540281Y-113726874D01*
X94540280Y-113726875D01*
X94540278Y-113726881D01*
X94539660Y-113728783D01*
X94538284Y-113730794D01*
X94535851Y-113735570D01*
X94535233Y-113735255D01*
X94500216Y-113786454D01*
X94435854Y-113813645D01*
X94367009Y-113801723D01*
X94315539Y-113754473D01*
X94311262Y-113746773D01*
X94298528Y-113721780D01*
X94298526Y-113721778D01*
X94298523Y-113721774D01*
X94256819Y-113680070D01*
X94223334Y-113618747D01*
X94220500Y-113592389D01*
X94220500Y-110928052D01*
X94240185Y-110861013D01*
X94256819Y-110840371D01*
X94326752Y-110770438D01*
X94410004Y-110687186D01*
X94410004Y-110687184D01*
X94410006Y-110687183D01*
X94428691Y-110642070D01*
X94447379Y-110596954D01*
X94447379Y-110499288D01*
X94447379Y-107160978D01*
X94467064Y-107093939D01*
X94519868Y-107048184D01*
X94589026Y-107038240D01*
X94590777Y-107038505D01*
X94699998Y-107055804D01*
X94700000Y-107055804D01*
X94700002Y-107055804D01*
X94833121Y-107034720D01*
X94833121Y-107034719D01*
X94833126Y-107034719D01*
X94953220Y-106973528D01*
X95048528Y-106878220D01*
X95109719Y-106758126D01*
X95110949Y-106750361D01*
X95130804Y-106625002D01*
X95130804Y-106624997D01*
X95109720Y-106491878D01*
X95109719Y-106491876D01*
X95109719Y-106491874D01*
X95083162Y-106439753D01*
X95070267Y-106371088D01*
X95096543Y-106306347D01*
X95105968Y-106295780D01*
X95148524Y-106253224D01*
X95148528Y-106253220D01*
X95209719Y-106133126D01*
X95216505Y-106090281D01*
X95230804Y-106000002D01*
X95230804Y-105999997D01*
X95209720Y-105866878D01*
X95209719Y-105866876D01*
X95209719Y-105866874D01*
X95148528Y-105746780D01*
X95148526Y-105746778D01*
X95148523Y-105746774D01*
X95053225Y-105651476D01*
X95053221Y-105651473D01*
X95053220Y-105651472D01*
X94933126Y-105590281D01*
X94933124Y-105590280D01*
X94933121Y-105590279D01*
X94800002Y-105569196D01*
X94799998Y-105569196D01*
X94666876Y-105590279D01*
X94556474Y-105646532D01*
X94487805Y-105659428D01*
X94423065Y-105633151D01*
X94382808Y-105576044D01*
X94377707Y-105555444D01*
X94359720Y-105441878D01*
X94359719Y-105441876D01*
X94359719Y-105441874D01*
X94298528Y-105321780D01*
X94298526Y-105321778D01*
X94298523Y-105321774D01*
X94203225Y-105226476D01*
X94203221Y-105226473D01*
X94203220Y-105226472D01*
X94083126Y-105165281D01*
X94083124Y-105165280D01*
X94083121Y-105165279D01*
X93950002Y-105144196D01*
X93949998Y-105144196D01*
X93816878Y-105165279D01*
X93696778Y-105226473D01*
X93604904Y-105318347D01*
X93543580Y-105351831D01*
X93473889Y-105346847D01*
X93417956Y-105304975D01*
X93406742Y-105286967D01*
X93373528Y-105221780D01*
X93373526Y-105221778D01*
X93373523Y-105221774D01*
X93278225Y-105126476D01*
X93278221Y-105126473D01*
X93278220Y-105126472D01*
X93158126Y-105065281D01*
X93158124Y-105065280D01*
X93158121Y-105065279D01*
X93025002Y-105044196D01*
X93024998Y-105044196D01*
X92891878Y-105065279D01*
X92771778Y-105126473D01*
X92671535Y-105226716D01*
X92610212Y-105260200D01*
X92540520Y-105255216D01*
X92484587Y-105213344D01*
X92473370Y-105195330D01*
X92473309Y-105195212D01*
X92469439Y-105187615D01*
X92469436Y-105187612D01*
X92469434Y-105187609D01*
X92374136Y-105092311D01*
X92374132Y-105092308D01*
X92374131Y-105092307D01*
X92254037Y-105031116D01*
X92254035Y-105031115D01*
X92254032Y-105031114D01*
X92120913Y-105010031D01*
X92120909Y-105010031D01*
X91987789Y-105031114D01*
X91987785Y-105031115D01*
X91987785Y-105031116D01*
X91943269Y-105053798D01*
X91867689Y-105092308D01*
X91867685Y-105092311D01*
X91772387Y-105187609D01*
X91772382Y-105187616D01*
X91710851Y-105308375D01*
X91688048Y-105339760D01*
X91682572Y-105345236D01*
X91621249Y-105378721D01*
X91551557Y-105373737D01*
X91495624Y-105331865D01*
X91482569Y-105306687D01*
X91482149Y-105306902D01*
X91477719Y-105298208D01*
X91477719Y-105298206D01*
X91416528Y-105178112D01*
X91416526Y-105178110D01*
X91416523Y-105178106D01*
X91321225Y-105082808D01*
X91321221Y-105082805D01*
X91321220Y-105082804D01*
X91201126Y-105021613D01*
X91201124Y-105021612D01*
X91201121Y-105021611D01*
X91068002Y-105000528D01*
X91067998Y-105000528D01*
X90925235Y-105023139D01*
X90924842Y-105020660D01*
X90869207Y-105022246D01*
X90809377Y-104986161D01*
X90778553Y-104923457D01*
X90782812Y-104863993D01*
X90784717Y-104858129D01*
X90784719Y-104858126D01*
X90786239Y-104848528D01*
X90805804Y-104725002D01*
X90805804Y-104724997D01*
X90784720Y-104591878D01*
X90784719Y-104591876D01*
X90784719Y-104591874D01*
X90723528Y-104471780D01*
X90723526Y-104471778D01*
X90723523Y-104471774D01*
X90628225Y-104376476D01*
X90628221Y-104376473D01*
X90628220Y-104376472D01*
X90508126Y-104315281D01*
X90508124Y-104315280D01*
X90508121Y-104315279D01*
X90375002Y-104294196D01*
X90374998Y-104294196D01*
X90241878Y-104315279D01*
X90121778Y-104376473D01*
X90121774Y-104376476D01*
X90026476Y-104471774D01*
X90026473Y-104471778D01*
X89965279Y-104591878D01*
X89944196Y-104724997D01*
X89944196Y-104725002D01*
X89965279Y-104858121D01*
X89965280Y-104858124D01*
X89965281Y-104858126D01*
X90003328Y-104932798D01*
X90016224Y-105001465D01*
X89989948Y-105066206D01*
X89932841Y-105106463D01*
X89863036Y-105109455D01*
X89836553Y-105099578D01*
X89834052Y-105098304D01*
X89700930Y-105077220D01*
X89700926Y-105077220D01*
X89567806Y-105098303D01*
X89567802Y-105098304D01*
X89567802Y-105098305D01*
X89565304Y-105099578D01*
X89447706Y-105159497D01*
X89447702Y-105159500D01*
X89352404Y-105254798D01*
X89352401Y-105254802D01*
X89291207Y-105374902D01*
X89270124Y-105508021D01*
X89270124Y-105508024D01*
X89274240Y-105534011D01*
X89280402Y-105572920D01*
X89271446Y-105642213D01*
X89226449Y-105695664D01*
X89159697Y-105716303D01*
X89138529Y-105714789D01*
X89119305Y-105711744D01*
X89056170Y-105681814D01*
X89019240Y-105622502D01*
X89016234Y-105608688D01*
X89002193Y-105520034D01*
X88941002Y-105399940D01*
X88941000Y-105399938D01*
X88940997Y-105399934D01*
X88845699Y-105304636D01*
X88845695Y-105304633D01*
X88845694Y-105304632D01*
X88725600Y-105243441D01*
X88725598Y-105243440D01*
X88725595Y-105243439D01*
X88592476Y-105222356D01*
X88592472Y-105222356D01*
X88459350Y-105243439D01*
X88379832Y-105283956D01*
X88311163Y-105296852D01*
X88246423Y-105270575D01*
X88223202Y-105246332D01*
X88221152Y-105243509D01*
X88197689Y-105177697D01*
X88213530Y-105109647D01*
X88233804Y-105082970D01*
X88328537Y-104988238D01*
X88389728Y-104868144D01*
X88390143Y-104865522D01*
X88410813Y-104735020D01*
X88410813Y-104735015D01*
X88389729Y-104601896D01*
X88389728Y-104601894D01*
X88389728Y-104601892D01*
X88328537Y-104481798D01*
X88328535Y-104481796D01*
X88328532Y-104481792D01*
X88233234Y-104386494D01*
X88233230Y-104386491D01*
X88233229Y-104386490D01*
X88113135Y-104325299D01*
X88113133Y-104325298D01*
X88113130Y-104325297D01*
X87980011Y-104304214D01*
X87980007Y-104304214D01*
X87846887Y-104325297D01*
X87846883Y-104325298D01*
X87846883Y-104325299D01*
X87789208Y-104354686D01*
X87726787Y-104386491D01*
X87726783Y-104386494D01*
X87624580Y-104488698D01*
X87622547Y-104486665D01*
X87594966Y-104508408D01*
X87596090Y-104510090D01*
X87585933Y-104516876D01*
X87216872Y-104885937D01*
X87179501Y-104976163D01*
X87179500Y-104976168D01*
X87179500Y-105179447D01*
X87159815Y-105246486D01*
X87107011Y-105292241D01*
X87037853Y-105302185D01*
X86974297Y-105273160D01*
X86936523Y-105214382D01*
X86933625Y-105201505D01*
X86933281Y-105200447D01*
X86933279Y-105200444D01*
X86933279Y-105200441D01*
X86872088Y-105080347D01*
X86872086Y-105080345D01*
X86872083Y-105080341D01*
X86776785Y-104985043D01*
X86776781Y-104985040D01*
X86776780Y-104985039D01*
X86752391Y-104972612D01*
X86731070Y-104961748D01*
X86680274Y-104913773D01*
X86663480Y-104845952D01*
X86686018Y-104779817D01*
X86699674Y-104763594D01*
X86758125Y-104705144D01*
X86774257Y-104666197D01*
X86789003Y-104630600D01*
X86795500Y-104614914D01*
X86795501Y-104614911D01*
X86795501Y-104507257D01*
X86795500Y-104507243D01*
X86795500Y-103107289D01*
X86815185Y-103040250D01*
X86867989Y-102994495D01*
X86937143Y-102984551D01*
X86943741Y-102985500D01*
X86943745Y-102985500D01*
X87475736Y-102985500D01*
X87475740Y-102985500D01*
X87519633Y-102980758D01*
X87571381Y-102969444D01*
X87581766Y-102966888D01*
X87662388Y-102923709D01*
X87715096Y-102877843D01*
X87733013Y-102860214D01*
X87777493Y-102780303D01*
X87797037Y-102713223D01*
X87805240Y-102655308D01*
X87805039Y-102559626D01*
X87799310Y-102511875D01*
X87785795Y-102455841D01*
X87785794Y-102455838D01*
X87785793Y-102455834D01*
X87772203Y-102419059D01*
X87766043Y-102395479D01*
X87760328Y-102359394D01*
X87760328Y-102320602D01*
X87760328Y-102320601D01*
X87766242Y-102283264D01*
X87772357Y-102259805D01*
X87772887Y-102258367D01*
X87784978Y-102225541D01*
X87798493Y-102168988D01*
X87804121Y-102120793D01*
X87803940Y-102034710D01*
X87823484Y-101967633D01*
X87876192Y-101921768D01*
X87945330Y-101911679D01*
X88008946Y-101940571D01*
X88046844Y-101999270D01*
X88047639Y-102002430D01*
X88059646Y-102040774D01*
X88072107Y-102080572D01*
X88072470Y-102081729D01*
X88072471Y-102081734D01*
X88076062Y-102088310D01*
X88105956Y-102143056D01*
X88105958Y-102143059D01*
X88105960Y-102143062D01*
X88140998Y-102189866D01*
X88141002Y-102189870D01*
X88141009Y-102189880D01*
X88141016Y-102189887D01*
X88146311Y-102195182D01*
X88169115Y-102226569D01*
X88182924Y-102253671D01*
X88194912Y-102290567D01*
X88199669Y-102320601D01*
X88199669Y-102359397D01*
X88194912Y-102389432D01*
X88182926Y-102426324D01*
X88167600Y-102456405D01*
X88167597Y-102456410D01*
X88167596Y-102456414D01*
X88155952Y-102484814D01*
X88154806Y-102487608D01*
X88154802Y-102487618D01*
X88142562Y-102526223D01*
X88142563Y-102526224D01*
X88142493Y-102526443D01*
X88142491Y-102526453D01*
X88135037Y-102617597D01*
X88135037Y-102617598D01*
X88144981Y-102686754D01*
X88147297Y-102697949D01*
X88150074Y-102711373D01*
X88186803Y-102780299D01*
X88193083Y-102792083D01*
X88193085Y-102792086D01*
X88227273Y-102831542D01*
X88238839Y-102844889D01*
X88249500Y-102855770D01*
X88282357Y-102917430D01*
X88279906Y-102977484D01*
X88272826Y-103001594D01*
X88272825Y-103001602D01*
X88265157Y-103054935D01*
X88264500Y-103059503D01*
X88264500Y-103536007D01*
X88269197Y-103579686D01*
X88280397Y-103631174D01*
X88282890Y-103641372D01*
X88282891Y-103641375D01*
X88287346Y-103649735D01*
X88325900Y-103722085D01*
X88344080Y-103743066D01*
X88371660Y-103774895D01*
X88389242Y-103792839D01*
X88389246Y-103792843D01*
X88389247Y-103792844D01*
X88389249Y-103792845D01*
X88469059Y-103837488D01*
X88469063Y-103837490D01*
X88536102Y-103857175D01*
X88594000Y-103865500D01*
X88594004Y-103865500D01*
X90008893Y-103865500D01*
X90009343Y-103865491D01*
X90016225Y-103865369D01*
X90025071Y-103865053D01*
X90089550Y-103852227D01*
X90155014Y-103827810D01*
X90177983Y-103817603D01*
X90247709Y-103758421D01*
X90279835Y-103715505D01*
X90335767Y-103673635D01*
X90405459Y-103668651D01*
X90466782Y-103702136D01*
X90481317Y-103719618D01*
X90483010Y-103722084D01*
X90528771Y-103774895D01*
X90546353Y-103792839D01*
X90546357Y-103792843D01*
X90546358Y-103792844D01*
X90546360Y-103792845D01*
X90626170Y-103837488D01*
X90626174Y-103837490D01*
X90693213Y-103857175D01*
X90751111Y-103865500D01*
X90751115Y-103865500D01*
X94145336Y-103865500D01*
X94151490Y-103864829D01*
X94189555Y-103860686D01*
X94241669Y-103849203D01*
X94252370Y-103846542D01*
X94332851Y-103803102D01*
X94365654Y-103774369D01*
X94385411Y-103757065D01*
X94399390Y-103743220D01*
X94403270Y-103739378D01*
X94447489Y-103659322D01*
X94466815Y-103592178D01*
X94474830Y-103534238D01*
X94474777Y-103524301D01*
X94471843Y-102975560D01*
X94491169Y-102908416D01*
X94543727Y-102862380D01*
X94612832Y-102852067D01*
X94671438Y-102878453D01*
X94672202Y-102877456D01*
X94676468Y-102880718D01*
X94676541Y-102880751D01*
X94676674Y-102880875D01*
X94679249Y-102882845D01*
X94694999Y-102891654D01*
X94701528Y-102895307D01*
X94705451Y-102897501D01*
X94754350Y-102947407D01*
X94768504Y-103015828D01*
X94767391Y-103025118D01*
X94749196Y-103140002D01*
X94770279Y-103273121D01*
X94770280Y-103273124D01*
X94770281Y-103273126D01*
X94831472Y-103393220D01*
X94831473Y-103393221D01*
X94831476Y-103393225D01*
X94926774Y-103488523D01*
X94926778Y-103488526D01*
X94926780Y-103488528D01*
X95046874Y-103549719D01*
X95046876Y-103549719D01*
X95046878Y-103549720D01*
X95179998Y-103570804D01*
X95180000Y-103570804D01*
X95180002Y-103570804D01*
X95313121Y-103549720D01*
X95313121Y-103549719D01*
X95313126Y-103549719D01*
X95433220Y-103488528D01*
X95528528Y-103393220D01*
X95589719Y-103273126D01*
X95591651Y-103260928D01*
X95610804Y-103140002D01*
X95610804Y-103140001D01*
X95604294Y-103098896D01*
X95613250Y-103029603D01*
X95658247Y-102976152D01*
X95724999Y-102955513D01*
X95726768Y-102955500D01*
X96406381Y-102955500D01*
X96449756Y-102950870D01*
X96500920Y-102939822D01*
X96510795Y-102937433D01*
X96591639Y-102894673D01*
X96644584Y-102849081D01*
X96662596Y-102831541D01*
X96707487Y-102751861D01*
X96727377Y-102684883D01*
X96735879Y-102627014D01*
X96742075Y-100613217D01*
X96745116Y-99625027D01*
X96745115Y-99625026D01*
X96745116Y-99625014D01*
X96744026Y-99614647D01*
X96756591Y-99545916D01*
X96804320Y-99494890D01*
X96867346Y-99477678D01*
X97273616Y-99477678D01*
X97273694Y-99477700D01*
X97325000Y-99477699D01*
X97325000Y-99477700D01*
X97368943Y-99477699D01*
X97373726Y-99477699D01*
X97373832Y-99477678D01*
X97373833Y-99477678D01*
X97373834Y-99477677D01*
X97375294Y-99477387D01*
X97386465Y-99473593D01*
X97460305Y-99453807D01*
X97540236Y-99407651D01*
X97549362Y-99398523D01*
X97611244Y-99336629D01*
X97613426Y-99338811D01*
X97658005Y-99306225D01*
X97727749Y-99302034D01*
X97788687Y-99336214D01*
G37*
%TD.AperFunction*%
%TA.AperFunction,Conductor*%
G36*
X99559433Y-84215085D02*
G01*
X99596323Y-84227072D01*
X99623429Y-84240883D01*
X99654816Y-84263687D01*
X99676311Y-84285182D01*
X99699114Y-84316567D01*
X99716411Y-84350514D01*
X99716415Y-84350520D01*
X99744209Y-84391797D01*
X99744210Y-84391798D01*
X99783249Y-84436852D01*
X99794432Y-84448765D01*
X99794433Y-84448766D01*
X99872266Y-84496790D01*
X99938382Y-84519322D01*
X99938390Y-84519324D01*
X99938401Y-84519328D01*
X99962646Y-84525966D01*
X99962649Y-84525965D01*
X99962650Y-84525966D01*
X99968695Y-84525854D01*
X100054086Y-84524288D01*
X100121907Y-84507493D01*
X100145892Y-84499969D01*
X100221910Y-84449121D01*
X100269885Y-84398325D01*
X100303587Y-84350517D01*
X100320886Y-84316564D01*
X100343686Y-84285182D01*
X100365183Y-84263685D01*
X100396565Y-84240885D01*
X100423675Y-84227071D01*
X100460563Y-84215085D01*
X100490609Y-84210327D01*
X100529389Y-84210327D01*
X100559433Y-84215085D01*
X100596323Y-84227072D01*
X100623429Y-84240883D01*
X100654816Y-84263687D01*
X100676311Y-84285182D01*
X100699114Y-84316567D01*
X100716411Y-84350514D01*
X100716415Y-84350520D01*
X100744209Y-84391797D01*
X100744210Y-84391798D01*
X100783249Y-84436852D01*
X100794432Y-84448765D01*
X100794433Y-84448766D01*
X100872266Y-84496790D01*
X100938382Y-84519322D01*
X100938390Y-84519324D01*
X100938401Y-84519328D01*
X100962646Y-84525966D01*
X100962649Y-84525965D01*
X100962650Y-84525966D01*
X100968695Y-84525854D01*
X101054086Y-84524288D01*
X101121907Y-84507493D01*
X101145892Y-84499969D01*
X101221910Y-84449121D01*
X101269885Y-84398325D01*
X101303587Y-84350517D01*
X101320886Y-84316564D01*
X101343686Y-84285182D01*
X101365183Y-84263685D01*
X101396565Y-84240885D01*
X101423675Y-84227071D01*
X101460563Y-84215085D01*
X101490609Y-84210327D01*
X101529389Y-84210327D01*
X101559433Y-84215085D01*
X101596323Y-84227072D01*
X101623429Y-84240883D01*
X101654816Y-84263687D01*
X101676311Y-84285182D01*
X101699114Y-84316567D01*
X101716411Y-84350514D01*
X101716415Y-84350520D01*
X101744209Y-84391797D01*
X101744210Y-84391798D01*
X101783249Y-84436852D01*
X101794432Y-84448765D01*
X101794433Y-84448766D01*
X101872266Y-84496790D01*
X101938382Y-84519322D01*
X101938390Y-84519324D01*
X101938401Y-84519328D01*
X101962646Y-84525966D01*
X101962649Y-84525965D01*
X101962650Y-84525966D01*
X101968695Y-84525854D01*
X102054086Y-84524288D01*
X102121907Y-84507493D01*
X102145892Y-84499969D01*
X102221910Y-84449121D01*
X102269885Y-84398325D01*
X102303587Y-84350517D01*
X102320886Y-84316564D01*
X102343686Y-84285182D01*
X102365183Y-84263685D01*
X102396565Y-84240885D01*
X102423675Y-84227071D01*
X102460563Y-84215085D01*
X102490609Y-84210327D01*
X102529389Y-84210327D01*
X102559433Y-84215085D01*
X102596323Y-84227072D01*
X102623429Y-84240883D01*
X102654816Y-84263687D01*
X102676311Y-84285182D01*
X102699114Y-84316567D01*
X102716411Y-84350514D01*
X102716415Y-84350520D01*
X102744209Y-84391797D01*
X102744210Y-84391798D01*
X102783249Y-84436852D01*
X102794432Y-84448765D01*
X102794433Y-84448766D01*
X102872266Y-84496790D01*
X102938382Y-84519322D01*
X102938390Y-84519324D01*
X102938401Y-84519328D01*
X102962646Y-84525966D01*
X102962649Y-84525965D01*
X102962650Y-84525966D01*
X102968695Y-84525854D01*
X103054086Y-84524288D01*
X103121907Y-84507493D01*
X103145892Y-84499969D01*
X103221910Y-84449121D01*
X103269885Y-84398325D01*
X103303587Y-84350517D01*
X103320886Y-84316564D01*
X103343686Y-84285182D01*
X103365183Y-84263685D01*
X103396565Y-84240885D01*
X103423675Y-84227071D01*
X103460563Y-84215085D01*
X103490609Y-84210327D01*
X103529389Y-84210327D01*
X103559433Y-84215085D01*
X103596323Y-84227072D01*
X103623429Y-84240883D01*
X103654816Y-84263687D01*
X103676311Y-84285182D01*
X103699114Y-84316567D01*
X103716411Y-84350514D01*
X103716415Y-84350520D01*
X103744209Y-84391797D01*
X103744210Y-84391798D01*
X103783249Y-84436852D01*
X103794432Y-84448765D01*
X103794433Y-84448766D01*
X103872266Y-84496790D01*
X103938382Y-84519322D01*
X103938390Y-84519324D01*
X103938401Y-84519328D01*
X103962646Y-84525966D01*
X103962649Y-84525965D01*
X103962650Y-84525966D01*
X103968695Y-84525854D01*
X104054086Y-84524288D01*
X104121907Y-84507493D01*
X104145892Y-84499969D01*
X104221910Y-84449121D01*
X104269885Y-84398325D01*
X104303587Y-84350517D01*
X104320886Y-84316564D01*
X104343686Y-84285182D01*
X104365183Y-84263685D01*
X104396565Y-84240885D01*
X104423675Y-84227071D01*
X104460563Y-84215085D01*
X104490609Y-84210327D01*
X104529389Y-84210327D01*
X104559433Y-84215085D01*
X104596323Y-84227072D01*
X104623429Y-84240883D01*
X104654816Y-84263687D01*
X104676311Y-84285182D01*
X104699114Y-84316567D01*
X104716411Y-84350514D01*
X104716415Y-84350520D01*
X104744209Y-84391797D01*
X104744210Y-84391798D01*
X104783249Y-84436852D01*
X104794432Y-84448765D01*
X104794433Y-84448766D01*
X104872266Y-84496790D01*
X104938382Y-84519322D01*
X104938390Y-84519324D01*
X104938401Y-84519328D01*
X104962646Y-84525966D01*
X104962649Y-84525965D01*
X104962650Y-84525966D01*
X104968695Y-84525854D01*
X105054086Y-84524288D01*
X105121907Y-84507493D01*
X105145892Y-84499969D01*
X105221910Y-84449121D01*
X105269885Y-84398325D01*
X105303587Y-84350517D01*
X105320886Y-84316564D01*
X105343686Y-84285182D01*
X105365183Y-84263685D01*
X105396565Y-84240885D01*
X105423675Y-84227071D01*
X105460563Y-84215085D01*
X105490609Y-84210327D01*
X105529389Y-84210327D01*
X105559433Y-84215085D01*
X105596323Y-84227072D01*
X105623429Y-84240883D01*
X105654816Y-84263687D01*
X105676311Y-84285182D01*
X105699114Y-84316567D01*
X105716411Y-84350514D01*
X105716415Y-84350520D01*
X105744209Y-84391797D01*
X105744210Y-84391798D01*
X105783249Y-84436852D01*
X105794432Y-84448765D01*
X105794433Y-84448766D01*
X105872266Y-84496790D01*
X105938382Y-84519322D01*
X105938390Y-84519324D01*
X105938401Y-84519328D01*
X105962646Y-84525966D01*
X105962649Y-84525965D01*
X105962650Y-84525966D01*
X105968695Y-84525854D01*
X106054086Y-84524288D01*
X106121907Y-84507493D01*
X106145892Y-84499969D01*
X106221910Y-84449121D01*
X106269885Y-84398325D01*
X106303587Y-84350517D01*
X106320886Y-84316564D01*
X106343686Y-84285182D01*
X106365183Y-84263685D01*
X106396565Y-84240885D01*
X106423675Y-84227071D01*
X106460563Y-84215085D01*
X106490609Y-84210327D01*
X106529389Y-84210327D01*
X106559433Y-84215085D01*
X106596323Y-84227072D01*
X106623429Y-84240883D01*
X106654816Y-84263687D01*
X106676311Y-84285182D01*
X106699115Y-84316569D01*
X106712925Y-84343673D01*
X106724913Y-84380569D01*
X106737370Y-84459218D01*
X106738117Y-84464731D01*
X106740658Y-84487286D01*
X106743281Y-84499461D01*
X106747487Y-84528475D01*
X106747488Y-84528479D01*
X106752610Y-84553099D01*
X106795711Y-84633758D01*
X106795712Y-84633759D01*
X106841528Y-84686511D01*
X106841537Y-84686520D01*
X106841544Y-84686528D01*
X106859142Y-84704447D01*
X106883599Y-84718090D01*
X106939012Y-84749002D01*
X107006074Y-84768609D01*
X107063979Y-84776866D01*
X107919993Y-84775880D01*
X107987055Y-84795487D01*
X108032871Y-84848239D01*
X108044136Y-84900016D01*
X108030582Y-97252747D01*
X108010824Y-97319765D01*
X107957970Y-97365462D01*
X107888800Y-97375329D01*
X107887187Y-97375085D01*
X107850000Y-97369196D01*
X107849998Y-97369196D01*
X107716878Y-97390279D01*
X107596778Y-97451473D01*
X107596774Y-97451476D01*
X107501476Y-97546774D01*
X107501473Y-97546778D01*
X107440279Y-97666878D01*
X107419196Y-97799997D01*
X107419196Y-97800002D01*
X107440279Y-97933121D01*
X107440280Y-97933124D01*
X107440281Y-97933126D01*
X107501472Y-98053220D01*
X107501473Y-98053221D01*
X107501476Y-98053225D01*
X107596774Y-98148523D01*
X107596778Y-98148526D01*
X107596780Y-98148528D01*
X107716874Y-98209719D01*
X107716876Y-98209719D01*
X107716878Y-98209720D01*
X107849998Y-98230804D01*
X107850000Y-98230804D01*
X107850001Y-98230804D01*
X107866220Y-98228234D01*
X107885981Y-98225105D01*
X107955275Y-98234059D01*
X108008727Y-98279055D01*
X108029367Y-98345806D01*
X108029380Y-98347714D01*
X108023205Y-103975586D01*
X108003447Y-104042604D01*
X107950593Y-104088301D01*
X107881423Y-104098168D01*
X107817899Y-104069074D01*
X107805491Y-104056652D01*
X107799453Y-104049684D01*
X107772049Y-104018057D01*
X107663069Y-103948020D01*
X107663065Y-103948018D01*
X107663064Y-103948018D01*
X107538774Y-103911524D01*
X107538772Y-103911524D01*
X107409228Y-103911524D01*
X107409226Y-103911524D01*
X107284935Y-103948018D01*
X107284932Y-103948019D01*
X107284931Y-103948020D01*
X107255743Y-103966778D01*
X107175950Y-104018057D01*
X107091118Y-104115961D01*
X107091117Y-104115962D01*
X107037302Y-104233798D01*
X107018867Y-104362024D01*
X107037302Y-104490249D01*
X107083847Y-104592167D01*
X107091118Y-104608087D01*
X107175951Y-104705991D01*
X107284931Y-104776028D01*
X107409225Y-104812523D01*
X107409227Y-104812524D01*
X107409228Y-104812524D01*
X107538773Y-104812524D01*
X107538773Y-104812523D01*
X107663069Y-104776028D01*
X107772049Y-104705991D01*
X107804642Y-104668375D01*
X107863417Y-104630602D01*
X107933287Y-104630600D01*
X107992066Y-104668373D01*
X108021092Y-104731928D01*
X108022355Y-104749714D01*
X108014861Y-111580262D01*
X107995103Y-111647280D01*
X107942249Y-111692977D01*
X107890721Y-111704126D01*
X99719360Y-111694872D01*
X99652342Y-111675111D01*
X99606647Y-111622256D01*
X99595500Y-111570872D01*
X99595500Y-111217342D01*
X99615185Y-111150303D01*
X99667989Y-111104548D01*
X99737147Y-111094604D01*
X99800703Y-111123629D01*
X99829982Y-111161045D01*
X99842801Y-111186202D01*
X99851471Y-111203219D01*
X99851476Y-111203225D01*
X99946774Y-111298523D01*
X99946778Y-111298526D01*
X99946780Y-111298528D01*
X100066874Y-111359719D01*
X100066876Y-111359719D01*
X100066878Y-111359720D01*
X100199998Y-111380804D01*
X100200000Y-111380804D01*
X100200002Y-111380804D01*
X100333121Y-111359720D01*
X100333121Y-111359719D01*
X100333126Y-111359719D01*
X100453220Y-111298528D01*
X100548528Y-111203220D01*
X100609719Y-111083126D01*
X100630804Y-110950000D01*
X100630804Y-110949997D01*
X105139196Y-110949997D01*
X105139196Y-110950002D01*
X105160279Y-111083121D01*
X105160280Y-111083124D01*
X105160281Y-111083126D01*
X105221472Y-111203220D01*
X105221473Y-111203221D01*
X105221476Y-111203225D01*
X105316774Y-111298523D01*
X105316778Y-111298526D01*
X105316780Y-111298528D01*
X105436874Y-111359719D01*
X105436876Y-111359719D01*
X105436878Y-111359720D01*
X105569998Y-111380804D01*
X105570000Y-111380804D01*
X105570002Y-111380804D01*
X105703121Y-111359720D01*
X105703121Y-111359719D01*
X105703126Y-111359719D01*
X105808707Y-111305922D01*
X105877374Y-111293027D01*
X105921291Y-111305921D01*
X106026874Y-111359719D01*
X106026876Y-111359719D01*
X106026878Y-111359720D01*
X106159998Y-111380804D01*
X106160000Y-111380804D01*
X106160002Y-111380804D01*
X106293121Y-111359720D01*
X106293121Y-111359719D01*
X106293126Y-111359719D01*
X106398707Y-111305922D01*
X106467374Y-111293027D01*
X106511291Y-111305921D01*
X106616874Y-111359719D01*
X106616876Y-111359719D01*
X106616878Y-111359720D01*
X106749998Y-111380804D01*
X106750000Y-111380804D01*
X106750002Y-111380804D01*
X106883121Y-111359720D01*
X106883121Y-111359719D01*
X106883126Y-111359719D01*
X107003220Y-111298528D01*
X107098528Y-111203220D01*
X107159719Y-111083126D01*
X107180804Y-110950000D01*
X107159719Y-110816874D01*
X107103135Y-110705822D01*
X107090240Y-110637157D01*
X107106945Y-110593366D01*
X107104097Y-110591915D01*
X107108526Y-110583221D01*
X107108528Y-110583220D01*
X107169719Y-110463126D01*
X107172363Y-110446431D01*
X107190804Y-110330002D01*
X107190804Y-110329997D01*
X107169720Y-110196878D01*
X107169719Y-110196876D01*
X107169719Y-110196874D01*
X107108528Y-110076780D01*
X107108526Y-110076778D01*
X107108523Y-110076774D01*
X107013225Y-109981476D01*
X107013221Y-109981473D01*
X107013220Y-109981472D01*
X106893126Y-109920281D01*
X106893124Y-109920280D01*
X106893121Y-109920279D01*
X106760002Y-109899196D01*
X106759998Y-109899196D01*
X106626876Y-109920279D01*
X106521294Y-109974076D01*
X106452625Y-109986972D01*
X106408706Y-109974076D01*
X106303123Y-109920279D01*
X106170002Y-109899196D01*
X106169998Y-109899196D01*
X106036876Y-109920279D01*
X105931294Y-109974076D01*
X105862625Y-109986972D01*
X105818706Y-109974076D01*
X105713123Y-109920279D01*
X105580002Y-109899196D01*
X105579998Y-109899196D01*
X105446878Y-109920279D01*
X105326778Y-109981473D01*
X105326774Y-109981476D01*
X105231476Y-110076774D01*
X105231473Y-110076778D01*
X105170279Y-110196878D01*
X105149196Y-110329997D01*
X105149196Y-110330002D01*
X105170279Y-110463121D01*
X105170280Y-110463124D01*
X105170281Y-110463126D01*
X105226863Y-110574175D01*
X105239759Y-110642842D01*
X105223071Y-110686642D01*
X105225903Y-110688085D01*
X105221473Y-110696778D01*
X105221472Y-110696780D01*
X105160281Y-110816874D01*
X105160279Y-110816878D01*
X105139196Y-110949997D01*
X100630804Y-110949997D01*
X100609719Y-110816874D01*
X100548528Y-110696780D01*
X100548526Y-110696778D01*
X100548525Y-110696776D01*
X100547421Y-110695256D01*
X100546651Y-110693097D01*
X100544097Y-110688085D01*
X100544745Y-110687754D01*
X100523946Y-110629448D01*
X100537258Y-110566086D01*
X100589719Y-110463126D01*
X100592363Y-110446431D01*
X100610804Y-110330002D01*
X100610804Y-110329997D01*
X100589720Y-110196878D01*
X100589719Y-110196876D01*
X100589719Y-110196874D01*
X100528528Y-110076780D01*
X100528526Y-110076778D01*
X100528523Y-110076774D01*
X100433225Y-109981476D01*
X100433221Y-109981473D01*
X100433220Y-109981472D01*
X100313126Y-109920281D01*
X100313124Y-109920280D01*
X100313121Y-109920279D01*
X100180002Y-109899196D01*
X100179998Y-109899196D01*
X100046878Y-109920279D01*
X99926778Y-109981473D01*
X99926774Y-109981476D01*
X99831476Y-110076774D01*
X99831470Y-110076782D01*
X99829983Y-110079702D01*
X99827239Y-110082607D01*
X99825739Y-110084672D01*
X99825472Y-110084478D01*
X99782008Y-110130496D01*
X99714186Y-110147290D01*
X99648052Y-110124751D01*
X99604602Y-110070035D01*
X99595500Y-110023404D01*
X99595500Y-107614772D01*
X99595500Y-107614768D01*
X99590668Y-107570466D01*
X99579852Y-107521473D01*
X99579140Y-107518249D01*
X99576454Y-107507477D01*
X99532946Y-107427030D01*
X99486868Y-107374512D01*
X99469165Y-107356665D01*
X99469162Y-107356663D01*
X99389078Y-107312514D01*
X99389076Y-107312513D01*
X99389074Y-107312512D01*
X99378818Y-107309569D01*
X99321918Y-107293241D01*
X99321910Y-107293240D01*
X99263974Y-107285274D01*
X99263967Y-107285274D01*
X99207797Y-107285620D01*
X97891613Y-107293744D01*
X97875059Y-107295590D01*
X97806252Y-107283452D01*
X97754930Y-107236041D01*
X97737387Y-107168410D01*
X97759193Y-107102030D01*
X97773638Y-107084677D01*
X99033316Y-105825000D01*
X105544867Y-105825000D01*
X105563302Y-105953225D01*
X105599961Y-106033495D01*
X105617118Y-106071063D01*
X105701951Y-106168967D01*
X105810931Y-106239004D01*
X105935225Y-106275499D01*
X105935227Y-106275500D01*
X105935228Y-106275500D01*
X106064773Y-106275500D01*
X106064773Y-106275499D01*
X106189069Y-106239004D01*
X106298049Y-106168967D01*
X106382882Y-106071063D01*
X106436697Y-105953226D01*
X106455133Y-105825000D01*
X106436697Y-105696774D01*
X106382882Y-105578937D01*
X106298049Y-105481033D01*
X106189069Y-105410996D01*
X106189065Y-105410994D01*
X106189064Y-105410994D01*
X106064774Y-105374500D01*
X106064772Y-105374500D01*
X105935228Y-105374500D01*
X105935226Y-105374500D01*
X105810935Y-105410994D01*
X105810932Y-105410995D01*
X105810931Y-105410996D01*
X105762884Y-105441874D01*
X105701950Y-105481033D01*
X105617118Y-105578937D01*
X105617117Y-105578938D01*
X105563302Y-105696774D01*
X105544867Y-105825000D01*
X99033316Y-105825000D01*
X99401188Y-105457128D01*
X99401188Y-105457127D01*
X100174127Y-104684186D01*
X100235448Y-104650703D01*
X100305139Y-104655687D01*
X100361073Y-104697559D01*
X100372287Y-104715568D01*
X100391472Y-104753220D01*
X100391474Y-104753222D01*
X100391476Y-104753225D01*
X100486774Y-104848523D01*
X100486778Y-104848526D01*
X100486780Y-104848528D01*
X100606874Y-104909719D01*
X100606876Y-104909719D01*
X100606878Y-104909720D01*
X100739998Y-104930804D01*
X100740000Y-104930804D01*
X100740002Y-104930804D01*
X100873121Y-104909720D01*
X100873121Y-104909719D01*
X100873126Y-104909719D01*
X100993220Y-104848528D01*
X101088528Y-104753220D01*
X101149719Y-104633126D01*
X101150917Y-104625564D01*
X101170804Y-104500002D01*
X101170804Y-104499997D01*
X101149720Y-104366878D01*
X101149719Y-104366876D01*
X101149719Y-104366874D01*
X101088528Y-104246780D01*
X101088526Y-104246778D01*
X101088523Y-104246774D01*
X100993225Y-104151476D01*
X100993221Y-104151473D01*
X100993220Y-104151472D01*
X100873126Y-104090281D01*
X100873124Y-104090280D01*
X100873121Y-104090279D01*
X100740002Y-104069196D01*
X100739997Y-104069196D01*
X100638897Y-104085208D01*
X100569604Y-104076253D01*
X100516152Y-104031257D01*
X100495513Y-103964505D01*
X100495500Y-103962735D01*
X100495500Y-100953972D01*
X100499833Y-100953972D01*
X100503962Y-100907829D01*
X100546824Y-100852651D01*
X100612714Y-100829406D01*
X100680711Y-100845473D01*
X100707033Y-100865547D01*
X101018181Y-101176695D01*
X101051666Y-101238018D01*
X101054500Y-101264376D01*
X101054500Y-102238831D01*
X101054501Y-102238836D01*
X101091872Y-102329062D01*
X101954660Y-103191850D01*
X101988145Y-103253173D01*
X101983161Y-103322865D01*
X101982922Y-103323500D01*
X101964860Y-103371126D01*
X101964859Y-103371130D01*
X101944355Y-103540000D01*
X101964859Y-103708869D01*
X101964860Y-103708874D01*
X102025182Y-103867931D01*
X102083738Y-103952762D01*
X102121817Y-104007929D01*
X102212539Y-104088301D01*
X102249150Y-104120736D01*
X102385096Y-104192086D01*
X102399775Y-104199790D01*
X102564944Y-104240500D01*
X102735056Y-104240500D01*
X102900225Y-104199790D01*
X102986879Y-104154310D01*
X103050849Y-104120736D01*
X103050850Y-104120734D01*
X103050852Y-104120734D01*
X103178183Y-104007929D01*
X103274818Y-103867930D01*
X103335140Y-103708872D01*
X103355645Y-103540000D01*
X103335140Y-103371128D01*
X103316836Y-103322865D01*
X103279047Y-103223221D01*
X103274818Y-103212070D01*
X103178183Y-103072071D01*
X103075112Y-102980758D01*
X103050849Y-102959263D01*
X102900226Y-102880210D01*
X102735056Y-102839500D01*
X102564944Y-102839500D01*
X102564942Y-102839500D01*
X102417636Y-102875807D01*
X102347834Y-102872738D01*
X102300281Y-102843091D01*
X101581819Y-102124629D01*
X101548334Y-102063306D01*
X101545500Y-102036948D01*
X101545500Y-101174600D01*
X101545501Y-101174591D01*
X101545501Y-101062494D01*
X101545501Y-101062492D01*
X101508125Y-100972261D01*
X101508125Y-100972260D01*
X101439065Y-100903200D01*
X101432000Y-100896135D01*
X101431993Y-100896129D01*
X100404714Y-99868849D01*
X100404640Y-99868714D01*
X100331137Y-99795215D01*
X100331135Y-99795213D01*
X100240931Y-99743139D01*
X100140321Y-99716191D01*
X100119872Y-99716194D01*
X100052830Y-99696516D01*
X100007070Y-99643717D01*
X99995859Y-99592180D01*
X99995862Y-99571768D01*
X99981626Y-99518627D01*
X99968913Y-99471171D01*
X99968912Y-99471169D01*
X99968911Y-99471168D01*
X99968911Y-99471166D01*
X99916836Y-99380972D01*
X99890362Y-99354499D01*
X99890362Y-99354498D01*
X99890359Y-99354496D01*
X99774799Y-99238933D01*
X99774784Y-99238920D01*
X99559918Y-99024053D01*
X99469687Y-98986678D01*
X99469686Y-98986678D01*
X98669363Y-98986678D01*
X98652867Y-98986678D01*
X98453833Y-98986678D01*
X98260205Y-98986678D01*
X98193166Y-98966993D01*
X98152827Y-98924694D01*
X98145461Y-98911940D01*
X98080201Y-98846694D01*
X98080199Y-98846692D01*
X98080196Y-98846690D01*
X98000282Y-98800558D01*
X97998188Y-98799997D01*
X100119196Y-98799997D01*
X100119196Y-98800002D01*
X100140279Y-98933121D01*
X100140280Y-98933124D01*
X100140281Y-98933126D01*
X100201472Y-99053220D01*
X100201473Y-99053221D01*
X100201476Y-99053225D01*
X100296774Y-99148523D01*
X100296778Y-99148526D01*
X100296780Y-99148528D01*
X100416874Y-99209719D01*
X100416876Y-99209719D01*
X100416878Y-99209720D01*
X100549998Y-99230804D01*
X100550000Y-99230804D01*
X100550002Y-99230804D01*
X100683121Y-99209720D01*
X100683121Y-99209719D01*
X100683126Y-99209719D01*
X100803220Y-99148528D01*
X100898528Y-99053220D01*
X100959719Y-98933126D01*
X100960542Y-98927929D01*
X100980804Y-98800002D01*
X100980804Y-98799997D01*
X100959720Y-98666878D01*
X100959719Y-98666876D01*
X100959719Y-98666874D01*
X100898528Y-98546780D01*
X100898526Y-98546778D01*
X100898523Y-98546774D01*
X100803225Y-98451476D01*
X100803221Y-98451473D01*
X100803220Y-98451472D01*
X100683126Y-98390281D01*
X100683124Y-98390280D01*
X100683121Y-98390279D01*
X100550002Y-98369196D01*
X100549998Y-98369196D01*
X100416878Y-98390279D01*
X100296778Y-98451473D01*
X100296774Y-98451476D01*
X100201476Y-98546774D01*
X100201473Y-98546778D01*
X100191202Y-98566936D01*
X100140440Y-98666563D01*
X100140279Y-98666878D01*
X100119196Y-98799997D01*
X97998188Y-98799997D01*
X97926610Y-98780821D01*
X97915210Y-98776951D01*
X97913829Y-98776677D01*
X97911141Y-98776677D01*
X97865017Y-98776677D01*
X97864999Y-98776678D01*
X97489500Y-98776678D01*
X97422461Y-98756993D01*
X97376706Y-98704189D01*
X97365500Y-98652678D01*
X97365500Y-98358500D01*
X97385185Y-98291461D01*
X97437989Y-98245706D01*
X97489500Y-98234500D01*
X99659831Y-98234500D01*
X99659833Y-98234500D01*
X99718982Y-98210000D01*
X99750062Y-98197127D01*
X99750063Y-98197125D01*
X99750065Y-98197125D01*
X101745370Y-96201818D01*
X101806693Y-96168334D01*
X101833051Y-96165500D01*
X101908330Y-96165500D01*
X101975369Y-96185185D01*
X102021124Y-96237989D01*
X102024273Y-96245532D01*
X102025182Y-96247931D01*
X102076585Y-96322400D01*
X102119888Y-96385135D01*
X102121818Y-96387930D01*
X102205634Y-96462185D01*
X102242761Y-96521374D01*
X102241993Y-96591240D01*
X102205634Y-96647815D01*
X102121818Y-96722069D01*
X102025182Y-96862068D01*
X101964860Y-97021125D01*
X101964859Y-97021130D01*
X101944355Y-97190000D01*
X101964859Y-97358869D01*
X101964860Y-97358874D01*
X102025182Y-97517931D01*
X102081024Y-97598831D01*
X102111808Y-97643429D01*
X102121818Y-97657930D01*
X102205634Y-97732185D01*
X102242761Y-97791374D01*
X102241993Y-97861240D01*
X102205634Y-97917815D01*
X102121818Y-97992069D01*
X102025182Y-98132068D01*
X101964860Y-98291125D01*
X101964859Y-98291130D01*
X101944355Y-98460000D01*
X101964859Y-98628869D01*
X101964860Y-98628874D01*
X102025182Y-98787931D01*
X102065744Y-98846694D01*
X102119583Y-98924693D01*
X102121818Y-98927930D01*
X102205634Y-99002185D01*
X102242761Y-99061374D01*
X102241993Y-99131240D01*
X102205634Y-99187815D01*
X102121818Y-99262069D01*
X102025182Y-99402068D01*
X101964860Y-99561125D01*
X101964859Y-99561130D01*
X101944355Y-99730000D01*
X101964859Y-99898869D01*
X101964860Y-99898874D01*
X102025182Y-100057931D01*
X102061125Y-100110002D01*
X102109715Y-100180397D01*
X102121818Y-100197930D01*
X102205634Y-100272185D01*
X102242761Y-100331374D01*
X102241993Y-100401240D01*
X102205634Y-100457815D01*
X102121818Y-100532069D01*
X102025182Y-100672068D01*
X101964860Y-100831125D01*
X101964859Y-100831130D01*
X101944355Y-101000000D01*
X101964859Y-101168869D01*
X101964860Y-101168874D01*
X102025182Y-101327931D01*
X102075484Y-101400804D01*
X102121817Y-101467929D01*
X102204835Y-101541476D01*
X102249150Y-101580736D01*
X102394758Y-101657157D01*
X102399775Y-101659790D01*
X102564944Y-101700500D01*
X102735056Y-101700500D01*
X102900225Y-101659790D01*
X102990309Y-101612510D01*
X103050849Y-101580736D01*
X103050850Y-101580734D01*
X103050852Y-101580734D01*
X103178183Y-101467929D01*
X103274818Y-101327930D01*
X103335140Y-101168872D01*
X103355645Y-101000000D01*
X103335140Y-100831128D01*
X103327401Y-100810723D01*
X103283855Y-100695899D01*
X103274818Y-100672070D01*
X103262761Y-100654603D01*
X103211266Y-100580000D01*
X103178183Y-100532071D01*
X103094363Y-100457813D01*
X103057238Y-100398626D01*
X103058006Y-100328761D01*
X103094363Y-100272186D01*
X103178183Y-100197929D01*
X103274818Y-100057930D01*
X103335140Y-99898872D01*
X103355645Y-99730000D01*
X103335140Y-99561128D01*
X103274818Y-99402070D01*
X103261807Y-99383221D01*
X103229647Y-99336629D01*
X103178183Y-99262071D01*
X103094363Y-99187813D01*
X103057238Y-99128626D01*
X103058006Y-99058761D01*
X103094363Y-99002186D01*
X103178183Y-98927929D01*
X103274818Y-98787930D01*
X103335140Y-98628872D01*
X103355645Y-98460000D01*
X103335140Y-98291128D01*
X103274818Y-98132070D01*
X103178183Y-97992071D01*
X103094363Y-97917813D01*
X103057238Y-97858626D01*
X103058006Y-97788761D01*
X103094363Y-97732186D01*
X103178183Y-97657929D01*
X103274818Y-97517930D01*
X103335140Y-97358872D01*
X103355645Y-97190000D01*
X103335140Y-97021128D01*
X103274818Y-96862070D01*
X103274030Y-96860929D01*
X103240476Y-96812318D01*
X103178183Y-96722071D01*
X103094363Y-96647813D01*
X103057238Y-96588626D01*
X103058006Y-96518761D01*
X103094363Y-96462186D01*
X103178183Y-96387929D01*
X103274818Y-96247930D01*
X103335140Y-96088872D01*
X103355645Y-95920000D01*
X103335140Y-95751128D01*
X103325341Y-95725291D01*
X103299102Y-95656102D01*
X103274818Y-95592070D01*
X103274817Y-95592068D01*
X103274816Y-95592066D01*
X103217648Y-95509246D01*
X103212016Y-95501087D01*
X103190133Y-95434733D01*
X103207598Y-95367082D01*
X103245175Y-95327545D01*
X103247238Y-95326167D01*
X103294552Y-95294552D01*
X103338867Y-95228231D01*
X103338867Y-95228229D01*
X103338868Y-95228229D01*
X103350499Y-95169752D01*
X103350500Y-95169750D01*
X103350500Y-94130249D01*
X103350499Y-94130247D01*
X103338868Y-94071770D01*
X103338867Y-94071769D01*
X103294552Y-94005447D01*
X103228230Y-93961132D01*
X103228229Y-93961131D01*
X103169752Y-93949500D01*
X103169748Y-93949500D01*
X102130252Y-93949500D01*
X102130247Y-93949500D01*
X102071770Y-93961131D01*
X102071769Y-93961132D01*
X102005447Y-94005447D01*
X101961132Y-94071769D01*
X101961131Y-94071770D01*
X101949500Y-94130247D01*
X101949500Y-94131031D01*
X101949384Y-94131425D01*
X101948903Y-94136312D01*
X101947976Y-94136220D01*
X101929815Y-94198070D01*
X101877011Y-94243825D01*
X101807853Y-94253769D01*
X101744297Y-94224744D01*
X101707571Y-94169356D01*
X101705889Y-94164180D01*
X101705888Y-94164178D01*
X101705888Y-94164177D01*
X101644697Y-94044083D01*
X101644695Y-94044081D01*
X101644692Y-94044077D01*
X101549394Y-93948779D01*
X101549390Y-93948776D01*
X101549389Y-93948775D01*
X101429295Y-93887584D01*
X101429293Y-93887583D01*
X101429290Y-93887582D01*
X101329101Y-93871714D01*
X101265966Y-93841785D01*
X101229035Y-93782473D01*
X101224499Y-93749241D01*
X101224499Y-92309997D01*
X105849196Y-92309997D01*
X105849196Y-92310002D01*
X105870279Y-92443121D01*
X105870280Y-92443124D01*
X105870281Y-92443126D01*
X105929689Y-92559720D01*
X105931473Y-92563221D01*
X105931476Y-92563225D01*
X106026774Y-92658523D01*
X106026778Y-92658526D01*
X106026780Y-92658528D01*
X106146874Y-92719719D01*
X106146876Y-92719719D01*
X106146878Y-92719720D01*
X106279998Y-92740804D01*
X106280000Y-92740804D01*
X106280002Y-92740804D01*
X106413121Y-92719720D01*
X106413121Y-92719719D01*
X106413126Y-92719719D01*
X106533220Y-92658528D01*
X106628528Y-92563220D01*
X106689719Y-92443126D01*
X106696039Y-92403225D01*
X106710804Y-92310002D01*
X106710804Y-92309997D01*
X106689720Y-92176878D01*
X106689719Y-92176876D01*
X106689719Y-92176874D01*
X106628528Y-92056780D01*
X106628526Y-92056778D01*
X106628523Y-92056774D01*
X106533225Y-91961476D01*
X106533221Y-91961473D01*
X106533220Y-91961472D01*
X106413126Y-91900281D01*
X106413124Y-91900280D01*
X106413121Y-91900279D01*
X106280002Y-91879196D01*
X106279998Y-91879196D01*
X106146878Y-91900279D01*
X106026778Y-91961473D01*
X106026774Y-91961476D01*
X105931476Y-92056774D01*
X105931473Y-92056778D01*
X105870279Y-92176878D01*
X105849196Y-92309997D01*
X101224499Y-92309997D01*
X101224499Y-92156148D01*
X101224500Y-92156139D01*
X101224500Y-92044041D01*
X101224500Y-92044040D01*
X101193451Y-91969084D01*
X101187124Y-91953808D01*
X101118064Y-91884748D01*
X101118062Y-91884747D01*
X101110996Y-91877680D01*
X101110992Y-91877677D01*
X99531549Y-90298233D01*
X99498064Y-90236910D01*
X99503048Y-90167218D01*
X99544920Y-90111285D01*
X99562137Y-90100477D01*
X99570456Y-90096164D01*
X99623768Y-90051002D01*
X99641920Y-90033609D01*
X99687455Y-89954295D01*
X99696704Y-89924047D01*
X99723856Y-89882817D01*
X99907227Y-89882817D01*
X99920340Y-89894438D01*
X99937756Y-89940912D01*
X99960279Y-90083121D01*
X99960280Y-90083124D01*
X99960281Y-90083126D01*
X100021472Y-90203220D01*
X100021473Y-90203221D01*
X100021476Y-90203225D01*
X100116774Y-90298523D01*
X100116778Y-90298526D01*
X100116780Y-90298528D01*
X100236874Y-90359719D01*
X100236876Y-90359719D01*
X100236878Y-90359720D01*
X100369998Y-90380804D01*
X100370000Y-90380804D01*
X100370002Y-90380804D01*
X100503121Y-90359720D01*
X100503121Y-90359719D01*
X100503126Y-90359719D01*
X100623220Y-90298528D01*
X100718528Y-90203220D01*
X100779719Y-90083126D01*
X100779720Y-90083121D01*
X100800804Y-89950002D01*
X100800804Y-89949997D01*
X100779720Y-89816878D01*
X100779719Y-89816876D01*
X100779719Y-89816874D01*
X100718528Y-89696780D01*
X100718526Y-89696778D01*
X100718523Y-89696774D01*
X100623225Y-89601476D01*
X100623221Y-89601473D01*
X100623220Y-89601472D01*
X100503126Y-89540281D01*
X100503124Y-89540280D01*
X100503121Y-89540279D01*
X100370002Y-89519196D01*
X100369998Y-89519196D01*
X100236878Y-89540279D01*
X100116778Y-89601473D01*
X100116774Y-89601476D01*
X100021476Y-89696774D01*
X100021473Y-89696778D01*
X99960276Y-89816883D01*
X99959330Y-89819797D01*
X99957221Y-89822879D01*
X99955851Y-89825570D01*
X99955503Y-89825392D01*
X99919888Y-89877469D01*
X99907227Y-89882817D01*
X99723856Y-89882817D01*
X99735131Y-89865697D01*
X99750028Y-89859093D01*
X99735210Y-89845491D01*
X99717411Y-89780083D01*
X99722515Y-89323306D01*
X99735491Y-88161872D01*
X99737591Y-87973913D01*
X99737590Y-87973908D01*
X99737591Y-87973893D01*
X99735868Y-87944946D01*
X99731340Y-87910327D01*
X99702021Y-87828354D01*
X99665089Y-87769043D01*
X99650522Y-87748558D01*
X99648478Y-87746948D01*
X99578669Y-87691973D01*
X99515540Y-87662048D01*
X99515538Y-87662047D01*
X99459658Y-87644769D01*
X99459655Y-87644768D01*
X99459644Y-87644765D01*
X99455342Y-87643765D01*
X99455459Y-87643258D01*
X99423673Y-87632925D01*
X99396570Y-87619116D01*
X99365182Y-87596311D01*
X99343687Y-87574816D01*
X99320883Y-87543429D01*
X99307072Y-87516323D01*
X99295085Y-87479433D01*
X99290327Y-87449389D01*
X99290327Y-87410609D01*
X99295085Y-87380563D01*
X99307072Y-87343675D01*
X99320885Y-87316565D01*
X99343685Y-87285183D01*
X99365184Y-87263684D01*
X99396566Y-87240884D01*
X99430518Y-87223585D01*
X99471795Y-87195792D01*
X99516848Y-87156754D01*
X99528766Y-87145567D01*
X99576790Y-87067734D01*
X99599328Y-87001599D01*
X99605966Y-86977354D01*
X99604288Y-86885914D01*
X99587493Y-86818093D01*
X99579969Y-86794108D01*
X99529121Y-86718090D01*
X99478325Y-86670115D01*
X99478324Y-86670114D01*
X99430518Y-86636413D01*
X99430512Y-86636410D01*
X99396567Y-86619114D01*
X99365182Y-86596311D01*
X99343687Y-86574816D01*
X99320883Y-86543429D01*
X99307072Y-86516323D01*
X99295085Y-86479433D01*
X99290327Y-86449389D01*
X99290327Y-86410609D01*
X99295085Y-86380563D01*
X99307072Y-86343675D01*
X99320885Y-86316565D01*
X99343685Y-86285183D01*
X99365184Y-86263684D01*
X99396566Y-86240884D01*
X99430518Y-86223585D01*
X99471795Y-86195792D01*
X99516848Y-86156754D01*
X99528766Y-86145567D01*
X99576790Y-86067734D01*
X99599328Y-86001599D01*
X99605966Y-85977354D01*
X99604288Y-85885914D01*
X99587493Y-85818093D01*
X99584221Y-85807664D01*
X99579971Y-85794114D01*
X99579970Y-85794113D01*
X99579969Y-85794108D01*
X99529121Y-85718090D01*
X99478325Y-85670115D01*
X99478324Y-85670114D01*
X99430518Y-85636413D01*
X99430512Y-85636410D01*
X99396567Y-85619114D01*
X99365182Y-85596311D01*
X99343687Y-85574816D01*
X99320883Y-85543429D01*
X99307072Y-85516323D01*
X99295085Y-85479433D01*
X99290327Y-85449389D01*
X99290327Y-85410609D01*
X99295085Y-85380563D01*
X99307072Y-85343675D01*
X99319605Y-85319078D01*
X99320885Y-85316565D01*
X99343685Y-85285183D01*
X99365184Y-85263684D01*
X99396566Y-85240884D01*
X99430518Y-85223585D01*
X99471795Y-85195792D01*
X99516848Y-85156754D01*
X99528766Y-85145567D01*
X99576790Y-85067734D01*
X99599328Y-85001599D01*
X99605966Y-84977354D01*
X99604288Y-84885914D01*
X99587493Y-84818093D01*
X99579969Y-84794108D01*
X99529121Y-84718090D01*
X99478325Y-84670115D01*
X99478324Y-84670114D01*
X99430518Y-84636413D01*
X99430512Y-84636410D01*
X99396567Y-84619114D01*
X99365182Y-84596311D01*
X99343687Y-84574816D01*
X99320883Y-84543429D01*
X99307072Y-84516323D01*
X99295085Y-84479433D01*
X99290327Y-84449389D01*
X99290327Y-84410609D01*
X99295085Y-84380563D01*
X99307072Y-84343675D01*
X99313504Y-84331051D01*
X99320885Y-84316565D01*
X99343687Y-84285182D01*
X99365183Y-84263685D01*
X99396565Y-84240885D01*
X99423675Y-84227071D01*
X99460563Y-84215085D01*
X99490609Y-84210327D01*
X99529389Y-84210327D01*
X99559433Y-84215085D01*
G37*
%TD.AperFunction*%
%TA.AperFunction,Conductor*%
G36*
X85388527Y-104453708D02*
G01*
X85428784Y-104510815D01*
X85431776Y-104580620D01*
X85429297Y-104588158D01*
X85428500Y-104592168D01*
X85428500Y-106695822D01*
X85408815Y-106762861D01*
X85356011Y-106808616D01*
X85286853Y-106818560D01*
X85223297Y-106789535D01*
X85216819Y-106783503D01*
X85007819Y-106574503D01*
X84974334Y-106513180D01*
X84971500Y-106486822D01*
X84971500Y-104625564D01*
X84991185Y-104558525D01*
X85043989Y-104512770D01*
X85076103Y-104503091D01*
X85157121Y-104490259D01*
X85157121Y-104490258D01*
X85157126Y-104490258D01*
X85255120Y-104440327D01*
X85323786Y-104427432D01*
X85388527Y-104453708D01*
G37*
%TD.AperFunction*%
%TA.AperFunction,Conductor*%
G36*
X94497539Y-101987969D02*
G01*
X94543294Y-102040773D01*
X94554500Y-102092285D01*
X94554500Y-102108777D01*
X94560177Y-102156745D01*
X94573690Y-102213037D01*
X94574319Y-102214742D01*
X94587911Y-102251588D01*
X94594047Y-102275104D01*
X94599669Y-102310597D01*
X94599670Y-102349392D01*
X94594047Y-102384898D01*
X94587909Y-102408421D01*
X94573693Y-102446954D01*
X94560177Y-102503249D01*
X94559537Y-102506838D01*
X94559325Y-102506800D01*
X94559325Y-102506801D01*
X94559311Y-102506797D01*
X94558393Y-102506633D01*
X94532863Y-102566409D01*
X94475037Y-102605625D01*
X94405189Y-102607354D01*
X94352027Y-102577697D01*
X94338935Y-102565332D01*
X94338932Y-102565329D01*
X94291122Y-102531626D01*
X94266568Y-102519115D01*
X94235183Y-102496312D01*
X94213689Y-102474818D01*
X94190886Y-102443433D01*
X94177072Y-102416322D01*
X94165084Y-102379429D01*
X94160327Y-102349389D01*
X94160327Y-102310609D01*
X94165085Y-102280561D01*
X94177069Y-102243679D01*
X94190887Y-102216561D01*
X94213681Y-102185188D01*
X94251879Y-102146992D01*
X94256965Y-102141722D01*
X94262997Y-102135244D01*
X94299531Y-102080571D01*
X94317706Y-102040772D01*
X94363460Y-101987970D01*
X94430499Y-101968285D01*
X94497539Y-101987969D01*
G37*
%TD.AperFunction*%
%TA.AperFunction,Conductor*%
G36*
X89600703Y-102002268D02*
G01*
X89628332Y-102036554D01*
X89629581Y-102038842D01*
X89629582Y-102038844D01*
X89663067Y-102100167D01*
X89663069Y-102100170D01*
X89698109Y-102146977D01*
X89698113Y-102146981D01*
X89698120Y-102146991D01*
X89698127Y-102146998D01*
X89746311Y-102195182D01*
X89769115Y-102226569D01*
X89782925Y-102253673D01*
X89794913Y-102290567D01*
X89798087Y-102310604D01*
X89799670Y-102320600D01*
X89799670Y-102359394D01*
X89794913Y-102389430D01*
X89782924Y-102426327D01*
X89769116Y-102453427D01*
X89746312Y-102484814D01*
X89724813Y-102506313D01*
X89693428Y-102529116D01*
X89666329Y-102542924D01*
X89629428Y-102554913D01*
X89618406Y-102556659D01*
X89599396Y-102559670D01*
X89560606Y-102559670D01*
X89557062Y-102559108D01*
X89536121Y-102555792D01*
X89536119Y-102555792D01*
X89531308Y-102555030D01*
X89531297Y-102555027D01*
X89481389Y-102547123D01*
X89418254Y-102517194D01*
X89381322Y-102457883D01*
X89380212Y-102453599D01*
X89380171Y-102453427D01*
X89376304Y-102437321D01*
X89374162Y-102431515D01*
X89368027Y-102408007D01*
X89360327Y-102359388D01*
X89360327Y-102320608D01*
X89368026Y-102271992D01*
X89374165Y-102248475D01*
X89375564Y-102244686D01*
X89376307Y-102242671D01*
X89389822Y-102186377D01*
X89395500Y-102138404D01*
X89395500Y-102095981D01*
X89415185Y-102028942D01*
X89467989Y-101983187D01*
X89537147Y-101973243D01*
X89600703Y-102002268D01*
G37*
%TD.AperFunction*%
%TA.AperFunction,Conductor*%
G36*
X93640703Y-98748339D02*
G01*
X93647181Y-98754371D01*
X94333115Y-99440305D01*
X94396436Y-99466532D01*
X94423345Y-99477678D01*
X95262434Y-99477678D01*
X95329473Y-99497363D01*
X95375228Y-99550167D01*
X95385173Y-99619320D01*
X95384500Y-99624002D01*
X95384500Y-99788901D01*
X95385132Y-99804999D01*
X95386661Y-99824426D01*
X95388555Y-99840424D01*
X95388557Y-99840437D01*
X95391145Y-99856778D01*
X95399670Y-99910603D01*
X95399670Y-99949395D01*
X95388555Y-100019574D01*
X95386661Y-100035572D01*
X95385132Y-100054999D01*
X95384500Y-100071097D01*
X95384500Y-100510500D01*
X95364815Y-100577539D01*
X95312011Y-100623294D01*
X95260500Y-100634500D01*
X94883992Y-100634500D01*
X94840313Y-100639197D01*
X94788825Y-100650397D01*
X94778627Y-100652890D01*
X94778624Y-100652891D01*
X94697916Y-100695899D01*
X94697913Y-100695901D01*
X94645104Y-100741660D01*
X94627160Y-100759242D01*
X94627154Y-100759249D01*
X94582511Y-100839059D01*
X94582509Y-100839064D01*
X94562826Y-100906096D01*
X94562825Y-100906101D01*
X94562825Y-100906102D01*
X94555460Y-100957328D01*
X94554500Y-100964003D01*
X94554500Y-101733552D01*
X94534815Y-101800591D01*
X94482011Y-101846346D01*
X94412853Y-101856290D01*
X94349297Y-101827265D01*
X94321068Y-101791867D01*
X94302423Y-101756878D01*
X94286989Y-101727915D01*
X94241234Y-101675111D01*
X94241228Y-101675104D01*
X94223646Y-101657160D01*
X94223645Y-101657159D01*
X94223643Y-101657157D01*
X94223641Y-101657156D01*
X94223639Y-101657154D01*
X94143829Y-101612511D01*
X94143824Y-101612509D01*
X94076792Y-101592826D01*
X94076788Y-101592825D01*
X94076787Y-101592825D01*
X94018889Y-101584500D01*
X93559500Y-101584500D01*
X93492461Y-101564815D01*
X93446706Y-101512011D01*
X93435500Y-101460500D01*
X93435500Y-98842052D01*
X93455185Y-98775013D01*
X93507989Y-98729258D01*
X93577147Y-98719314D01*
X93640703Y-98748339D01*
G37*
%TD.AperFunction*%
%TA.AperFunction,Conductor*%
G36*
X92829431Y-94920085D02*
G01*
X92866323Y-94932072D01*
X92893429Y-94945883D01*
X92924816Y-94968687D01*
X92940670Y-94984541D01*
X92957137Y-94999324D01*
X92977911Y-95016043D01*
X93049106Y-95053199D01*
X93116170Y-95072799D01*
X93174078Y-95081050D01*
X93174078Y-95081049D01*
X93174079Y-95081050D01*
X93498023Y-95080640D01*
X94793804Y-95079000D01*
X94815638Y-95077809D01*
X94841836Y-95074976D01*
X94918222Y-95051033D01*
X94979546Y-95017550D01*
X95026375Y-94982496D01*
X95035189Y-94973681D01*
X95066570Y-94950882D01*
X95093674Y-94937071D01*
X95130563Y-94925085D01*
X95160609Y-94920327D01*
X95199389Y-94920327D01*
X95229431Y-94925085D01*
X95266323Y-94937072D01*
X95293429Y-94950883D01*
X95324816Y-94973687D01*
X95346311Y-94995182D01*
X95369115Y-95026569D01*
X95382924Y-95053671D01*
X95394912Y-95090567D01*
X95399669Y-95120601D01*
X95399669Y-95159397D01*
X95394912Y-95189431D01*
X95382924Y-95226327D01*
X95369116Y-95253427D01*
X95346312Y-95284814D01*
X95324813Y-95306313D01*
X95293426Y-95329117D01*
X95266328Y-95342924D01*
X95229436Y-95354912D01*
X95192448Y-95360771D01*
X95167731Y-95366425D01*
X95165301Y-95366982D01*
X95165298Y-95366982D01*
X95165285Y-95366986D01*
X95133186Y-95376661D01*
X95057910Y-95418115D01*
X95005117Y-95463861D01*
X95005110Y-95463868D01*
X94987160Y-95481455D01*
X94987154Y-95481462D01*
X94942511Y-95561272D01*
X94942509Y-95561277D01*
X94922826Y-95628309D01*
X94922825Y-95628314D01*
X94922825Y-95628315D01*
X94914500Y-95686213D01*
X94914500Y-96193786D01*
X94915394Y-96206939D01*
X94916388Y-96221580D01*
X94920923Y-96254804D01*
X94920925Y-96254814D01*
X94931983Y-96285461D01*
X94936219Y-96355202D01*
X94903025Y-96415226D01*
X94831473Y-96486778D01*
X94770279Y-96606878D01*
X94749196Y-96739997D01*
X94749196Y-96740002D01*
X94770279Y-96873121D01*
X94770280Y-96873124D01*
X94770281Y-96873126D01*
X94831472Y-96993220D01*
X94903428Y-97065176D01*
X94936912Y-97126497D01*
X94934723Y-97187790D01*
X94922827Y-97228303D01*
X94922825Y-97228313D01*
X94922825Y-97228315D01*
X94914611Y-97285445D01*
X94914500Y-97286216D01*
X94914500Y-97619500D01*
X94894815Y-97686539D01*
X94842011Y-97732294D01*
X94790500Y-97743500D01*
X94222051Y-97743500D01*
X94155012Y-97723815D01*
X94134370Y-97707181D01*
X93256782Y-96829592D01*
X93223297Y-96768269D01*
X93222483Y-96739759D01*
X93220804Y-96739759D01*
X93220804Y-96729996D01*
X93212711Y-96678897D01*
X93221666Y-96609604D01*
X93266663Y-96556152D01*
X93333414Y-96535513D01*
X93335184Y-96535500D01*
X93355991Y-96535500D01*
X93356000Y-96535500D01*
X93399684Y-96530803D01*
X93432445Y-96523676D01*
X93451174Y-96519602D01*
X93451190Y-96519598D01*
X93451195Y-96519597D01*
X93461373Y-96517110D01*
X93542085Y-96474100D01*
X93594889Y-96428345D01*
X93612843Y-96410754D01*
X93657490Y-96330937D01*
X93677175Y-96263898D01*
X93685500Y-96206000D01*
X93685500Y-95714000D01*
X93680803Y-95670316D01*
X93671532Y-95627699D01*
X93669602Y-95618825D01*
X93669101Y-95616774D01*
X93667110Y-95608627D01*
X93624100Y-95527915D01*
X93583842Y-95481455D01*
X93578339Y-95475104D01*
X93560757Y-95457160D01*
X93560756Y-95457159D01*
X93560754Y-95457157D01*
X93560752Y-95457156D01*
X93560750Y-95457154D01*
X93480940Y-95412511D01*
X93480935Y-95412509D01*
X93413903Y-95392826D01*
X93413899Y-95392825D01*
X93413898Y-95392825D01*
X93356000Y-95384500D01*
X91744000Y-95384500D01*
X91743992Y-95384500D01*
X91700313Y-95389197D01*
X91648825Y-95400397D01*
X91638627Y-95402890D01*
X91638624Y-95402891D01*
X91557916Y-95445899D01*
X91557913Y-95445901D01*
X91505104Y-95491660D01*
X91487160Y-95509242D01*
X91487154Y-95509249D01*
X91442511Y-95589059D01*
X91442509Y-95589064D01*
X91422826Y-95656096D01*
X91422825Y-95656101D01*
X91422825Y-95656102D01*
X91414502Y-95713992D01*
X91414500Y-95714003D01*
X91414500Y-96991151D01*
X91394815Y-97058190D01*
X91342011Y-97103945D01*
X91272853Y-97113889D01*
X91271103Y-97113625D01*
X91240687Y-97108807D01*
X91180000Y-97099196D01*
X91179998Y-97099196D01*
X91179997Y-97099196D01*
X91046878Y-97120279D01*
X90926778Y-97181473D01*
X90926774Y-97181476D01*
X90831476Y-97276774D01*
X90831473Y-97276778D01*
X90770279Y-97396878D01*
X90749196Y-97529997D01*
X90749196Y-97530002D01*
X90770279Y-97663121D01*
X90770280Y-97663124D01*
X90770281Y-97663126D01*
X90831472Y-97783220D01*
X90831473Y-97783221D01*
X90831476Y-97783225D01*
X90926774Y-97878523D01*
X90926778Y-97878526D01*
X90926780Y-97878528D01*
X91046874Y-97939719D01*
X91046876Y-97939719D01*
X91046878Y-97939720D01*
X91179998Y-97960804D01*
X91180000Y-97960804D01*
X91180002Y-97960804D01*
X91271102Y-97946375D01*
X91340395Y-97955329D01*
X91393847Y-98000326D01*
X91414487Y-98067077D01*
X91414500Y-98068848D01*
X91414500Y-99391151D01*
X91394815Y-99458190D01*
X91342011Y-99503945D01*
X91272853Y-99513889D01*
X91271103Y-99513625D01*
X91232739Y-99507549D01*
X91180000Y-99499196D01*
X91179998Y-99499196D01*
X91179997Y-99499196D01*
X91046878Y-99520279D01*
X91046874Y-99520280D01*
X91046874Y-99520281D01*
X90992370Y-99548052D01*
X90926778Y-99581473D01*
X90926774Y-99581476D01*
X90867681Y-99640570D01*
X90806358Y-99674055D01*
X90736666Y-99669071D01*
X90692319Y-99640570D01*
X90633225Y-99581476D01*
X90633221Y-99581473D01*
X90633220Y-99581472D01*
X90513126Y-99520281D01*
X90513124Y-99520280D01*
X90513121Y-99520279D01*
X90380002Y-99499196D01*
X90379998Y-99499196D01*
X90246878Y-99520279D01*
X90246874Y-99520280D01*
X90246874Y-99520281D01*
X90192370Y-99548052D01*
X90126778Y-99581473D01*
X90126774Y-99581476D01*
X90031476Y-99676774D01*
X90031473Y-99676778D01*
X89970279Y-99796878D01*
X89949196Y-99929997D01*
X89949196Y-99930001D01*
X89963625Y-100021102D01*
X89954671Y-100090395D01*
X89909674Y-100143847D01*
X89842923Y-100164487D01*
X89841152Y-100164500D01*
X88373992Y-100164500D01*
X88330313Y-100169197D01*
X88278825Y-100180397D01*
X88268627Y-100182890D01*
X88268624Y-100182891D01*
X88187916Y-100225899D01*
X88187913Y-100225901D01*
X88135104Y-100271660D01*
X88117160Y-100289242D01*
X88117154Y-100289249D01*
X88072511Y-100369059D01*
X88072509Y-100369064D01*
X88052824Y-100436102D01*
X88047375Y-100473999D01*
X88018349Y-100537554D01*
X87959570Y-100575327D01*
X87889700Y-100575325D01*
X87830923Y-100537549D01*
X87801900Y-100473993D01*
X87800639Y-100456623D01*
X87799976Y-100139693D01*
X87794248Y-100091942D01*
X87780734Y-100035909D01*
X87773246Y-100015646D01*
X87767086Y-99992064D01*
X87764680Y-99976874D01*
X87760328Y-99949388D01*
X87760328Y-99910607D01*
X87767294Y-99866622D01*
X87773409Y-99843170D01*
X87777500Y-99832066D01*
X87779958Y-99825392D01*
X87793472Y-99768840D01*
X87799100Y-99720647D01*
X87798257Y-99317657D01*
X87797986Y-99187815D01*
X87797509Y-98959759D01*
X87817054Y-98892679D01*
X87869762Y-98846814D01*
X87921509Y-98835500D01*
X89535991Y-98835500D01*
X89536000Y-98835500D01*
X89579684Y-98830803D01*
X89608875Y-98824452D01*
X89631174Y-98819602D01*
X89631190Y-98819598D01*
X89631195Y-98819597D01*
X89641373Y-98817110D01*
X89722085Y-98774100D01*
X89774889Y-98728345D01*
X89792843Y-98710754D01*
X89837490Y-98630937D01*
X89857175Y-98563898D01*
X89865500Y-98506000D01*
X89865500Y-96326611D01*
X89885185Y-96259572D01*
X89937989Y-96213817D01*
X90007147Y-96203873D01*
X90070703Y-96232898D01*
X90077181Y-96238930D01*
X90126774Y-96288523D01*
X90126778Y-96288526D01*
X90126780Y-96288528D01*
X90246874Y-96349719D01*
X90246876Y-96349719D01*
X90246878Y-96349720D01*
X90379998Y-96370804D01*
X90380000Y-96370804D01*
X90380002Y-96370804D01*
X90513121Y-96349720D01*
X90513121Y-96349719D01*
X90513126Y-96349719D01*
X90633220Y-96288528D01*
X90728528Y-96193220D01*
X90789719Y-96073126D01*
X90793002Y-96052397D01*
X90810804Y-95940002D01*
X90810804Y-95939997D01*
X90789720Y-95806878D01*
X90789719Y-95806876D01*
X90789719Y-95806874D01*
X90728528Y-95686780D01*
X90728526Y-95686778D01*
X90728523Y-95686774D01*
X90633225Y-95591476D01*
X90633221Y-95591473D01*
X90633220Y-95591472D01*
X90513126Y-95530281D01*
X90513124Y-95530280D01*
X90513121Y-95530279D01*
X90380002Y-95509196D01*
X90379998Y-95509196D01*
X90246878Y-95530279D01*
X90126778Y-95591473D01*
X90126774Y-95591476D01*
X90077181Y-95641070D01*
X90015858Y-95674555D01*
X89946166Y-95669571D01*
X89890233Y-95627699D01*
X89865816Y-95562235D01*
X89865500Y-95553389D01*
X89865500Y-95209082D01*
X89885185Y-95142043D01*
X89937989Y-95096288D01*
X89986089Y-95085823D01*
X89986070Y-95085130D01*
X89987684Y-95085084D01*
X89987720Y-95085084D01*
X90009554Y-95083893D01*
X90035752Y-95081060D01*
X90112140Y-95057116D01*
X90173464Y-95023632D01*
X90220291Y-94988579D01*
X90235188Y-94973681D01*
X90266568Y-94950883D01*
X90293674Y-94937071D01*
X90330563Y-94925085D01*
X90360609Y-94920327D01*
X90399389Y-94920327D01*
X90429431Y-94925085D01*
X90466323Y-94937072D01*
X90493429Y-94950883D01*
X90524816Y-94973687D01*
X90538711Y-94987582D01*
X90547177Y-94995182D01*
X90551790Y-94999324D01*
X90555178Y-95002365D01*
X90575952Y-95019084D01*
X90647147Y-95056240D01*
X90714211Y-95075840D01*
X90772119Y-95084091D01*
X90772119Y-95084090D01*
X90772120Y-95084091D01*
X91094846Y-95083682D01*
X92385756Y-95082048D01*
X92407590Y-95080857D01*
X92433788Y-95078024D01*
X92510176Y-95054080D01*
X92571500Y-95020596D01*
X92618327Y-94985543D01*
X92635185Y-94968684D01*
X92666568Y-94945883D01*
X92693674Y-94932071D01*
X92730563Y-94920085D01*
X92760609Y-94915327D01*
X92799389Y-94915327D01*
X92829431Y-94920085D01*
G37*
%TD.AperFunction*%
%TA.AperFunction,Conductor*%
G36*
X96829433Y-97315085D02*
G01*
X96866323Y-97327072D01*
X96893429Y-97340883D01*
X96924816Y-97363687D01*
X96946311Y-97385182D01*
X96969115Y-97416569D01*
X96982925Y-97443673D01*
X96994913Y-97480570D01*
X96999669Y-97510599D01*
X96999671Y-97549385D01*
X96996728Y-97567969D01*
X96996486Y-97569541D01*
X96996251Y-97571093D01*
X96996250Y-97571104D01*
X96996027Y-97631093D01*
X96996028Y-97631098D01*
X96996028Y-97631100D01*
X97005972Y-97700258D01*
X97011064Y-97724873D01*
X97015019Y-97732294D01*
X97025741Y-97752416D01*
X97039895Y-97820837D01*
X97014812Y-97886048D01*
X97003990Y-97898409D01*
X96971507Y-97930892D01*
X96971504Y-97930896D01*
X96927387Y-98007308D01*
X96876819Y-98055523D01*
X96808212Y-98068745D01*
X96743347Y-98042777D01*
X96712613Y-98007308D01*
X96687593Y-97963973D01*
X96668496Y-97930896D01*
X96578455Y-97840855D01*
X96544971Y-97779531D01*
X96549779Y-97710315D01*
X96549821Y-97710201D01*
X96555151Y-97695731D01*
X96564105Y-97626438D01*
X96563960Y-97616327D01*
X96563269Y-97567960D01*
X96563269Y-97567954D01*
X96560328Y-97549392D01*
X96560328Y-97510603D01*
X96565085Y-97480564D01*
X96577074Y-97443671D01*
X96590886Y-97416563D01*
X96613687Y-97385182D01*
X96635183Y-97363685D01*
X96666565Y-97340885D01*
X96693675Y-97327071D01*
X96730563Y-97315085D01*
X96760609Y-97310327D01*
X96799389Y-97310327D01*
X96829433Y-97315085D01*
G37*
%TD.AperFunction*%
%TA.AperFunction,Conductor*%
G36*
X88061678Y-97282323D02*
G01*
X88086198Y-97312748D01*
X88086674Y-97312443D01*
X88089069Y-97316170D01*
X88124109Y-97362977D01*
X88124113Y-97362981D01*
X88124120Y-97362991D01*
X88124127Y-97362998D01*
X88146311Y-97385182D01*
X88169115Y-97416569D01*
X88182924Y-97443671D01*
X88194912Y-97480567D01*
X88199669Y-97510601D01*
X88199669Y-97549397D01*
X88194912Y-97579431D01*
X88182924Y-97616327D01*
X88169116Y-97643427D01*
X88146312Y-97674814D01*
X88124813Y-97696313D01*
X88093426Y-97719117D01*
X88066330Y-97732923D01*
X88029436Y-97744911D01*
X87999399Y-97749669D01*
X87960599Y-97749669D01*
X87930562Y-97744911D01*
X87893668Y-97732923D01*
X87866570Y-97719116D01*
X87835183Y-97696312D01*
X87813687Y-97674816D01*
X87790883Y-97643429D01*
X87777072Y-97616323D01*
X87765085Y-97579431D01*
X87760327Y-97549389D01*
X87760327Y-97510609D01*
X87765085Y-97480561D01*
X87777069Y-97443680D01*
X87790886Y-97416563D01*
X87813680Y-97385190D01*
X87835879Y-97362993D01*
X87863446Y-97328785D01*
X87876164Y-97308994D01*
X87928964Y-97263244D01*
X87998122Y-97253299D01*
X88061678Y-97282323D01*
G37*
%TD.AperFunction*%
%TA.AperFunction,Conductor*%
G36*
X96061511Y-96493971D02*
G01*
X96084627Y-96520647D01*
X96086560Y-96523654D01*
X96086567Y-96523667D01*
X96086574Y-96523676D01*
X96121609Y-96570477D01*
X96121613Y-96570481D01*
X96121620Y-96570491D01*
X96121627Y-96570498D01*
X96146311Y-96595182D01*
X96169115Y-96626569D01*
X96182924Y-96653671D01*
X96194912Y-96690567D01*
X96199669Y-96720601D01*
X96199669Y-96759397D01*
X96194912Y-96789431D01*
X96182924Y-96826327D01*
X96169116Y-96853427D01*
X96146312Y-96884814D01*
X96124813Y-96906313D01*
X96093426Y-96929117D01*
X96066330Y-96942923D01*
X96029436Y-96954911D01*
X95999399Y-96959669D01*
X95960599Y-96959669D01*
X95930562Y-96954911D01*
X95893668Y-96942923D01*
X95866570Y-96929116D01*
X95835183Y-96906312D01*
X95812994Y-96884123D01*
X95812984Y-96884114D01*
X95778787Y-96856555D01*
X95770338Y-96851125D01*
X95758996Y-96843836D01*
X95713243Y-96791032D01*
X95703300Y-96721873D01*
X95732326Y-96658318D01*
X95762749Y-96633802D01*
X95762443Y-96633326D01*
X95766155Y-96630939D01*
X95766167Y-96630933D01*
X95812991Y-96595880D01*
X95838380Y-96570491D01*
X95865946Y-96536285D01*
X95875995Y-96520647D01*
X95928796Y-96474893D01*
X95997954Y-96464948D01*
X96061511Y-96493971D01*
G37*
%TD.AperFunction*%
%TA.AperFunction,Conductor*%
G36*
X98066678Y-92167578D02*
G01*
X98111029Y-92196080D01*
X98113416Y-92198467D01*
X98113420Y-92198470D01*
X98113422Y-92198472D01*
X98233516Y-92259663D01*
X98233518Y-92259663D01*
X98233520Y-92259664D01*
X98366640Y-92280748D01*
X98366642Y-92280748D01*
X98366644Y-92280748D01*
X98447433Y-92267952D01*
X98473514Y-92263821D01*
X98542807Y-92272775D01*
X98596259Y-92317771D01*
X98603392Y-92329991D01*
X98632472Y-92387063D01*
X98632474Y-92387065D01*
X98632476Y-92387068D01*
X98727774Y-92482366D01*
X98727780Y-92482371D01*
X98744523Y-92490901D01*
X98795318Y-92538875D01*
X98812114Y-92606695D01*
X98810701Y-92620783D01*
X98794196Y-92724996D01*
X98794196Y-92725002D01*
X98815279Y-92858121D01*
X98815280Y-92858124D01*
X98815281Y-92858126D01*
X98876472Y-92978220D01*
X98876473Y-92978221D01*
X98876476Y-92978225D01*
X98971774Y-93073523D01*
X98971778Y-93073526D01*
X98971780Y-93073528D01*
X99091874Y-93134719D01*
X99119143Y-93139037D01*
X99182277Y-93168965D01*
X99219209Y-93228276D01*
X99222220Y-93280907D01*
X99219196Y-93299999D01*
X99231563Y-93378084D01*
X99222607Y-93447378D01*
X99177610Y-93500829D01*
X99156542Y-93512042D01*
X99086937Y-93540873D01*
X98992485Y-93635325D01*
X98931162Y-93668809D01*
X98861470Y-93663825D01*
X98805537Y-93621953D01*
X98781120Y-93556488D01*
X98780804Y-93547643D01*
X98780804Y-93539997D01*
X98759720Y-93406878D01*
X98759719Y-93406876D01*
X98759719Y-93406874D01*
X98698528Y-93286780D01*
X98698526Y-93286778D01*
X98698523Y-93286774D01*
X98603225Y-93191476D01*
X98603221Y-93191473D01*
X98603220Y-93191472D01*
X98483126Y-93130281D01*
X98483124Y-93130280D01*
X98483121Y-93130279D01*
X98350002Y-93109196D01*
X98349998Y-93109196D01*
X98216878Y-93130279D01*
X98096778Y-93191473D01*
X98096774Y-93191476D01*
X98001476Y-93286774D01*
X98001470Y-93286782D01*
X97992117Y-93305139D01*
X97944142Y-93355933D01*
X97876320Y-93372727D01*
X97810186Y-93350188D01*
X97766736Y-93295472D01*
X97757635Y-93249446D01*
X97756096Y-92932262D01*
X97751319Y-92889200D01*
X97747719Y-92872800D01*
X97740176Y-92838434D01*
X97737827Y-92828837D01*
X97694907Y-92748074D01*
X97649218Y-92695226D01*
X97649213Y-92695221D01*
X97631644Y-92677248D01*
X97551874Y-92632511D01*
X97512098Y-92620783D01*
X97484857Y-92612751D01*
X97484855Y-92612750D01*
X97484853Y-92612750D01*
X97484848Y-92612749D01*
X97436949Y-92605807D01*
X97426970Y-92604361D01*
X97426292Y-92604360D01*
X97211018Y-92604118D01*
X97144001Y-92584358D01*
X97098306Y-92531502D01*
X97088440Y-92462333D01*
X97117536Y-92398810D01*
X97154859Y-92369636D01*
X97274136Y-92308862D01*
X97315047Y-92267950D01*
X97376367Y-92234465D01*
X97446059Y-92239448D01*
X97459006Y-92245138D01*
X97526874Y-92279719D01*
X97526876Y-92279719D01*
X97526878Y-92279720D01*
X97659998Y-92300804D01*
X97660000Y-92300804D01*
X97660002Y-92300804D01*
X97793121Y-92279720D01*
X97793121Y-92279719D01*
X97793126Y-92279719D01*
X97913220Y-92218528D01*
X97935666Y-92196081D01*
X97996986Y-92162596D01*
X98066678Y-92167578D01*
G37*
%TD.AperFunction*%
%TA.AperFunction,Conductor*%
G36*
X92425703Y-88073339D02*
G01*
X92432181Y-88079371D01*
X94167181Y-89814371D01*
X94200666Y-89875694D01*
X94203500Y-89902052D01*
X94203500Y-90032928D01*
X94183815Y-90099967D01*
X94167181Y-90120609D01*
X94018502Y-90269287D01*
X94018493Y-90269299D01*
X93966872Y-90320919D01*
X93929501Y-90411145D01*
X93929500Y-90411150D01*
X93929500Y-90729032D01*
X93909815Y-90796071D01*
X93857011Y-90841826D01*
X93787853Y-90851770D01*
X93742254Y-90833263D01*
X93741807Y-90834142D01*
X93686975Y-90806203D01*
X93655590Y-90783400D01*
X93611892Y-90739702D01*
X93611885Y-90739696D01*
X92256819Y-89384629D01*
X92223334Y-89323306D01*
X92220500Y-89296948D01*
X92220500Y-88167052D01*
X92240185Y-88100013D01*
X92292989Y-88054258D01*
X92362147Y-88044314D01*
X92425703Y-88073339D01*
G37*
%TD.AperFunction*%
%TA.AperFunction,Conductor*%
G36*
X88087193Y-83843496D02*
G01*
X88109331Y-83861077D01*
X88168181Y-83919927D01*
X88201666Y-83981250D01*
X88204500Y-84007608D01*
X88204500Y-90663465D01*
X88184815Y-90730504D01*
X88132011Y-90776259D01*
X88062853Y-90786203D01*
X88024206Y-90773950D01*
X87958123Y-90740279D01*
X87825102Y-90719211D01*
X87761967Y-90689282D01*
X87725036Y-90629970D01*
X87720500Y-90596738D01*
X87720500Y-84417610D01*
X87740185Y-84350571D01*
X87756814Y-84329933D01*
X87823528Y-84263220D01*
X87884719Y-84143126D01*
X87884720Y-84143121D01*
X87905804Y-84010002D01*
X87905804Y-84009997D01*
X87899177Y-83968156D01*
X87908132Y-83898862D01*
X87953128Y-83845410D01*
X88019880Y-83824771D01*
X88087193Y-83843496D01*
G37*
%TD.AperFunction*%
%TD*%
M02*
