G04 #@! TF.GenerationSoftware,KiCad,Pcbnew,8.0.6-8.0.6-0~ubuntu20.04.1*
G04 #@! TF.CreationDate,2024-11-10T22:02:34+01:00*
G04 #@! TF.ProjectId,home_auto,686f6d65-5f61-4757-946f-2e6b69636164,rev?*
G04 #@! TF.SameCoordinates,Original*
G04 #@! TF.FileFunction,Soldermask,Bot*
G04 #@! TF.FilePolarity,Negative*
%FSLAX46Y46*%
G04 Gerber Fmt 4.6, Leading zero omitted, Abs format (unit mm)*
G04 Created by KiCad (PCBNEW 8.0.6-8.0.6-0~ubuntu20.04.1) date 2024-11-10 22:02:34*
%MOMM*%
%LPD*%
G01*
G04 APERTURE LIST*
G04 Aperture macros list*
%AMRoundRect*
0 Rectangle with rounded corners*
0 $1 Rounding radius*
0 $2 $3 $4 $5 $6 $7 $8 $9 X,Y pos of 4 corners*
0 Add a 4 corners polygon primitive as box body*
4,1,4,$2,$3,$4,$5,$6,$7,$8,$9,$2,$3,0*
0 Add four circle primitives for the rounded corners*
1,1,$1+$1,$2,$3*
1,1,$1+$1,$4,$5*
1,1,$1+$1,$6,$7*
1,1,$1+$1,$8,$9*
0 Add four rect primitives between the rounded corners*
20,1,$1+$1,$2,$3,$4,$5,0*
20,1,$1+$1,$4,$5,$6,$7,0*
20,1,$1+$1,$6,$7,$8,$9,0*
20,1,$1+$1,$8,$9,$2,$3,0*%
G04 Aperture macros list end*
%ADD10C,1.650000*%
%ADD11C,1.950000*%
%ADD12R,1.700000X1.700000*%
%ADD13O,1.700000X1.700000*%
%ADD14R,1.000000X1.000000*%
%ADD15O,1.000000X1.000000*%
%ADD16RoundRect,0.150000X-0.150000X0.587500X-0.150000X-0.587500X0.150000X-0.587500X0.150000X0.587500X0*%
%ADD17RoundRect,0.200000X0.275000X-0.200000X0.275000X0.200000X-0.275000X0.200000X-0.275000X-0.200000X0*%
%ADD18RoundRect,0.150000X0.150000X-0.587500X0.150000X0.587500X-0.150000X0.587500X-0.150000X-0.587500X0*%
%ADD19RoundRect,0.200000X-0.275000X0.200000X-0.275000X-0.200000X0.275000X-0.200000X0.275000X0.200000X0*%
G04 APERTURE END LIST*
D10*
X180075000Y-115975000D03*
X175375000Y-134475000D03*
X175375000Y-127475000D03*
X175375000Y-115975000D03*
D11*
X239490000Y-140200000D03*
X234490000Y-140200000D03*
D10*
X219120000Y-115987500D03*
X214420000Y-134487500D03*
X214420000Y-127487500D03*
X214420000Y-115987500D03*
D11*
X209537500Y-53367500D03*
X204537500Y-53367500D03*
X189470000Y-140180000D03*
X184470000Y-140180000D03*
D10*
X219285000Y-77615000D03*
X219285000Y-66115000D03*
X219285000Y-59115000D03*
X214585000Y-77615000D03*
X187870000Y-115977500D03*
X183170000Y-134477500D03*
X183170000Y-127477500D03*
X183170000Y-115977500D03*
D11*
X229490000Y-140200000D03*
X224490000Y-140200000D03*
X209480000Y-140140000D03*
X204480000Y-140140000D03*
X229537500Y-53367500D03*
X224537500Y-53367500D03*
X249540000Y-140210000D03*
X244540000Y-140210000D03*
D12*
X230110000Y-87860000D03*
D13*
X230110000Y-90400000D03*
X230110000Y-92940000D03*
X230110000Y-95480000D03*
X230110000Y-98020000D03*
X230110000Y-100560000D03*
X230110000Y-103100000D03*
X230110000Y-105640000D03*
D11*
X219527500Y-53367500D03*
X214527500Y-53367500D03*
X169517500Y-53367500D03*
X164517500Y-53367500D03*
X179470000Y-140180000D03*
X174470000Y-140180000D03*
D10*
X164582500Y-77615000D03*
X164582500Y-66115000D03*
X164582500Y-59115000D03*
X159882500Y-77615000D03*
X211325000Y-115985000D03*
X206625000Y-134485000D03*
X206625000Y-127485000D03*
X206625000Y-115985000D03*
X148815000Y-115945000D03*
X144115000Y-134445000D03*
X144115000Y-127445000D03*
X144115000Y-115945000D03*
X245837500Y-77647500D03*
X250537500Y-59147500D03*
X250537500Y-66147500D03*
X250537500Y-77647500D03*
X195705000Y-115995000D03*
X191005000Y-134495000D03*
X191005000Y-127495000D03*
X191005000Y-115995000D03*
X242630000Y-115977500D03*
X237930000Y-134477500D03*
X237930000Y-127477500D03*
X237930000Y-115977500D03*
X188007500Y-77617500D03*
X188007500Y-66117500D03*
X188007500Y-59117500D03*
X183307500Y-77617500D03*
X234770000Y-115987500D03*
X230070000Y-134487500D03*
X230070000Y-127487500D03*
X230070000Y-115987500D03*
X180212500Y-77615000D03*
X180212500Y-66115000D03*
X180212500Y-59115000D03*
X175512500Y-77615000D03*
D11*
X239547500Y-53367500D03*
X234547500Y-53367500D03*
D10*
X203500000Y-115997500D03*
X198800000Y-134497500D03*
X198800000Y-127497500D03*
X198800000Y-115997500D03*
D11*
X249557500Y-53367500D03*
X244557500Y-53367500D03*
D10*
X164445000Y-115975000D03*
X159745000Y-134475000D03*
X159745000Y-127475000D03*
X159745000Y-115975000D03*
D11*
X149470000Y-140180000D03*
X144470000Y-140180000D03*
D14*
X242280000Y-84120000D03*
D15*
X241010000Y-84120000D03*
D10*
X227127500Y-77615000D03*
X227127500Y-66115000D03*
X227127500Y-59115000D03*
X222427500Y-77615000D03*
X172377500Y-77617500D03*
X172377500Y-66117500D03*
X172377500Y-59117500D03*
X167677500Y-77617500D03*
D14*
X212800000Y-93222500D03*
D15*
X212800000Y-94492500D03*
X212800000Y-95762500D03*
X212800000Y-97032500D03*
X212800000Y-98302500D03*
X212800000Y-99572500D03*
X212800000Y-100842500D03*
X212800000Y-102112500D03*
D11*
X149567500Y-53367500D03*
X144567500Y-53367500D03*
D10*
X172240000Y-115977500D03*
X167540000Y-134477500D03*
X167540000Y-127477500D03*
X167540000Y-115977500D03*
X156757500Y-77607500D03*
X156757500Y-66107500D03*
X156757500Y-59107500D03*
X152057500Y-77607500D03*
D11*
X189527500Y-53367500D03*
X184527500Y-53367500D03*
X159527500Y-53367500D03*
X154527500Y-53367500D03*
X146260000Y-92880000D03*
X146260000Y-97880000D03*
D10*
X226975000Y-115985000D03*
X222275000Y-134485000D03*
X222275000Y-127485000D03*
X222275000Y-115985000D03*
D11*
X169470000Y-140180000D03*
X164470000Y-140180000D03*
D12*
X247330000Y-108260000D03*
D13*
X244790000Y-108260000D03*
X242250000Y-108260000D03*
X239710000Y-108260000D03*
D14*
X246980000Y-85180000D03*
D15*
X246980000Y-83910000D03*
D10*
X195857500Y-77615000D03*
X195857500Y-66115000D03*
X195857500Y-59115000D03*
X191157500Y-77615000D03*
X234922500Y-77617500D03*
X234922500Y-66117500D03*
X234922500Y-59117500D03*
X230222500Y-77617500D03*
X238042500Y-77645000D03*
X242742500Y-59145000D03*
X242742500Y-66145000D03*
X242742500Y-77645000D03*
D11*
X179517500Y-53367500D03*
X174517500Y-53367500D03*
D10*
X250425000Y-115980000D03*
X245725000Y-134480000D03*
X245725000Y-127480000D03*
X245725000Y-115980000D03*
X156610000Y-115947500D03*
X151910000Y-134447500D03*
X151910000Y-127447500D03*
X151910000Y-115947500D03*
D11*
X199480000Y-140180000D03*
X194480000Y-140180000D03*
D10*
X148962500Y-77605000D03*
X148962500Y-66105000D03*
X148962500Y-59105000D03*
X144262500Y-77605000D03*
X211490000Y-77612500D03*
X211490000Y-66112500D03*
X211490000Y-59112500D03*
X206790000Y-77612500D03*
D11*
X199527500Y-53367500D03*
X194527500Y-53367500D03*
X159470000Y-140180000D03*
X154470000Y-140180000D03*
X219490000Y-140160000D03*
X214490000Y-140160000D03*
D10*
X203652500Y-77617500D03*
X203652500Y-66117500D03*
X203652500Y-59117500D03*
X198952500Y-77617500D03*
D16*
X208938750Y-113247500D03*
X209888750Y-111372500D03*
X207988750Y-111372500D03*
X228627500Y-113247500D03*
X229577500Y-111372500D03*
X227677500Y-111372500D03*
D17*
X153361250Y-111005000D03*
X153361250Y-112655000D03*
X190250000Y-111055000D03*
X190250000Y-112705000D03*
X237175000Y-111037500D03*
X237175000Y-112687500D03*
D16*
X150467500Y-113207500D03*
X151417500Y-111332500D03*
X149517500Y-111332500D03*
X166097500Y-113237500D03*
X167047500Y-111362500D03*
X165147500Y-111362500D03*
X218940000Y-113247500D03*
X219890000Y-111372500D03*
X217990000Y-111372500D03*
D17*
X168991250Y-111035000D03*
X168991250Y-112685000D03*
D18*
X233558750Y-82230000D03*
X231658750Y-82230000D03*
X232608750Y-80355000D03*
D19*
X220040000Y-80905000D03*
X220040000Y-82555000D03*
D16*
X203320000Y-113257500D03*
X204270000Y-111382500D03*
X202370000Y-111382500D03*
D19*
X147511250Y-80897500D03*
X147511250Y-82547500D03*
D17*
X205870000Y-111045000D03*
X205870000Y-112695000D03*
D18*
X155393750Y-82220000D03*
X153493750Y-82220000D03*
X154443750Y-80345000D03*
D16*
X146428750Y-113207500D03*
X147378750Y-111332500D03*
X145478750Y-111332500D03*
D18*
X145392500Y-82220000D03*
X143492500Y-82220000D03*
X144442500Y-80345000D03*
X248223750Y-80385000D03*
X247273750Y-82260000D03*
X249173750Y-82260000D03*
X198250000Y-82230000D03*
X196350000Y-82230000D03*
X197300000Y-80355000D03*
D17*
X184621250Y-111035000D03*
X184621250Y-112685000D03*
D16*
X197357500Y-113257500D03*
X198307500Y-111382500D03*
X196407500Y-111382500D03*
D17*
X231521250Y-111045000D03*
X231521250Y-112695000D03*
D18*
X229520000Y-82230000D03*
X227620000Y-82230000D03*
X228570000Y-80355000D03*
X223557500Y-82230000D03*
X221657500Y-82230000D03*
X222607500Y-80355000D03*
D19*
X210038750Y-80905000D03*
X210038750Y-82555000D03*
X225676250Y-80907500D03*
X225676250Y-82557500D03*
X194406250Y-80907500D03*
X194406250Y-82557500D03*
D17*
X174620000Y-111035000D03*
X174620000Y-112685000D03*
X247176250Y-111037500D03*
X247176250Y-112687500D03*
D16*
X212977500Y-113247500D03*
X213927500Y-111372500D03*
X212027500Y-111372500D03*
D19*
X204407500Y-80907500D03*
X204407500Y-82557500D03*
D18*
X182605000Y-82230000D03*
X180705000Y-82230000D03*
X181655000Y-80355000D03*
D16*
X234590000Y-113247500D03*
X235540000Y-111372500D03*
X233640000Y-111372500D03*
X244282500Y-113240000D03*
X245232500Y-111365000D03*
X243332500Y-111365000D03*
D19*
X241291250Y-82587500D03*
X241291250Y-80937500D03*
D18*
X151355000Y-82220000D03*
X149455000Y-82220000D03*
X150405000Y-80345000D03*
D17*
X221520000Y-111045000D03*
X221520000Y-112695000D03*
D16*
X187690000Y-113237500D03*
X188640000Y-111362500D03*
X186740000Y-111362500D03*
X193318750Y-113257500D03*
X194268750Y-111382500D03*
X192368750Y-111382500D03*
X181727500Y-113237500D03*
X182677500Y-111362500D03*
X180777500Y-111362500D03*
X224588750Y-113247500D03*
X225538750Y-111372500D03*
X223638750Y-111372500D03*
D19*
X157512500Y-80897500D03*
X157512500Y-82547500D03*
D18*
X161012500Y-82230000D03*
X159112500Y-82230000D03*
X160062500Y-80355000D03*
D16*
X240243750Y-113240000D03*
X241193750Y-111365000D03*
X239293750Y-111365000D03*
D18*
X244185000Y-80385000D03*
X243235000Y-82260000D03*
X245135000Y-82260000D03*
D17*
X143360000Y-111005000D03*
X143360000Y-112655000D03*
D16*
X177688750Y-113237500D03*
X178638750Y-111362500D03*
X176738750Y-111362500D03*
D19*
X178761250Y-80907500D03*
X178761250Y-82557500D03*
D18*
X171013750Y-82230000D03*
X169113750Y-82230000D03*
X170063750Y-80355000D03*
D19*
X173132500Y-80907500D03*
X173132500Y-82557500D03*
D17*
X200251250Y-111055000D03*
X200251250Y-112705000D03*
D16*
X156430000Y-113207500D03*
X157380000Y-111332500D03*
X155480000Y-111332500D03*
D18*
X213882500Y-82227500D03*
X211982500Y-82227500D03*
X212932500Y-80352500D03*
D17*
X215871250Y-111045000D03*
X215871250Y-112695000D03*
D18*
X202288750Y-82230000D03*
X200388750Y-82230000D03*
X201338750Y-80355000D03*
D16*
X172060000Y-113237500D03*
X173010000Y-111362500D03*
X171110000Y-111362500D03*
X250245000Y-113240000D03*
X251195000Y-111365000D03*
X249295000Y-111365000D03*
D18*
X186643750Y-82230000D03*
X184743750Y-82230000D03*
X185693750Y-80355000D03*
X176642500Y-82230000D03*
X174742500Y-82230000D03*
X175692500Y-80355000D03*
X207920000Y-82227500D03*
X206020000Y-82227500D03*
X206970000Y-80352500D03*
X217921250Y-82227500D03*
X216021250Y-82227500D03*
X216971250Y-80352500D03*
D19*
X251292500Y-82587500D03*
X251292500Y-80937500D03*
D17*
X158990000Y-111035000D03*
X158990000Y-112685000D03*
D19*
X188762500Y-80907500D03*
X188762500Y-82557500D03*
D18*
X166975000Y-82230000D03*
X165075000Y-82230000D03*
X166025000Y-80355000D03*
X192287500Y-82230000D03*
X190387500Y-82230000D03*
X191337500Y-80355000D03*
X238222500Y-80385000D03*
X237272500Y-82260000D03*
X239172500Y-82260000D03*
D19*
X163131250Y-80907500D03*
X163131250Y-82557500D03*
X235677500Y-80907500D03*
X235677500Y-82557500D03*
D16*
X162058750Y-113237500D03*
X163008750Y-111362500D03*
X161108750Y-111362500D03*
M02*
