G04 #@! TF.GenerationSoftware,KiCad,Pcbnew,8.0.6-8.0.6-0~ubuntu20.04.1*
G04 #@! TF.CreationDate,2024-11-10T22:02:34+01:00*
G04 #@! TF.ProjectId,home_auto,686f6d65-5f61-4757-946f-2e6b69636164,rev?*
G04 #@! TF.SameCoordinates,Original*
G04 #@! TF.FileFunction,Paste,Top*
G04 #@! TF.FilePolarity,Positive*
%FSLAX46Y46*%
G04 Gerber Fmt 4.6, Leading zero omitted, Abs format (unit mm)*
G04 Created by KiCad (PCBNEW 8.0.6-8.0.6-0~ubuntu20.04.1) date 2024-11-10 22:02:34*
%MOMM*%
%LPD*%
G01*
G04 APERTURE LIST*
G04 Aperture macros list*
%AMRoundRect*
0 Rectangle with rounded corners*
0 $1 Rounding radius*
0 $2 $3 $4 $5 $6 $7 $8 $9 X,Y pos of 4 corners*
0 Add a 4 corners polygon primitive as box body*
4,1,4,$2,$3,$4,$5,$6,$7,$8,$9,$2,$3,0*
0 Add four circle primitives for the rounded corners*
1,1,$1+$1,$2,$3*
1,1,$1+$1,$4,$5*
1,1,$1+$1,$6,$7*
1,1,$1+$1,$8,$9*
0 Add four rect primitives between the rounded corners*
20,1,$1+$1,$2,$3,$4,$5,0*
20,1,$1+$1,$4,$5,$6,$7,0*
20,1,$1+$1,$6,$7,$8,$9,0*
20,1,$1+$1,$8,$9,$2,$3,0*%
G04 Aperture macros list end*
%ADD10RoundRect,0.250000X0.262500X0.450000X-0.262500X0.450000X-0.262500X-0.450000X0.262500X-0.450000X0*%
%ADD11RoundRect,0.200000X-0.275000X0.200000X-0.275000X-0.200000X0.275000X-0.200000X0.275000X0.200000X0*%
%ADD12RoundRect,0.200000X0.275000X-0.200000X0.275000X0.200000X-0.275000X0.200000X-0.275000X-0.200000X0*%
%ADD13R,0.700000X0.700000*%
%ADD14R,0.900000X1.500000*%
%ADD15R,3.150000X1.000000*%
%ADD16RoundRect,0.225000X0.225000X0.250000X-0.225000X0.250000X-0.225000X-0.250000X0.225000X-0.250000X0*%
%ADD17R,1.400000X1.600000*%
%ADD18RoundRect,0.225000X0.250000X-0.225000X0.250000X0.225000X-0.250000X0.225000X-0.250000X-0.225000X0*%
%ADD19R,3.150000X2.200000*%
%ADD20RoundRect,0.200000X-0.200000X-0.275000X0.200000X-0.275000X0.200000X0.275000X-0.200000X0.275000X0*%
G04 APERTURE END LIST*
D10*
X211792500Y-91430000D03*
X209967500Y-91430000D03*
D11*
X205127777Y-103315000D03*
X205127777Y-104965000D03*
D12*
X202020000Y-92965000D03*
X202020000Y-91315000D03*
X197570000Y-92965000D03*
X197570000Y-91315000D03*
D13*
X247700000Y-96340000D03*
X246600000Y-96340000D03*
X245500000Y-96340000D03*
X247700000Y-97440000D03*
X246600000Y-97440000D03*
X245500000Y-97440000D03*
X247700000Y-98540000D03*
X246600000Y-98540000D03*
X245500000Y-98540000D03*
D14*
X252800000Y-87730000D03*
X251300000Y-87730000D03*
X249800000Y-87730000D03*
X248300000Y-87730000D03*
X246800000Y-87730000D03*
X245300000Y-87730000D03*
X243800000Y-87730000D03*
X242300000Y-87730000D03*
X240800000Y-87730000D03*
X240800000Y-105230000D03*
X242300000Y-105230000D03*
X243800000Y-105230000D03*
X245300000Y-105230000D03*
X246800000Y-105230000D03*
X248300000Y-105230000D03*
X249800000Y-105230000D03*
X251300000Y-105230000D03*
X252800000Y-105230000D03*
D15*
X160500000Y-84890000D03*
X165550000Y-84890000D03*
X160500000Y-87430000D03*
X165550000Y-87430000D03*
X160500000Y-89970000D03*
X165550000Y-89970000D03*
X160500000Y-92510000D03*
X165550000Y-92510000D03*
X160500000Y-95050000D03*
X165550000Y-95050000D03*
X160500000Y-97590000D03*
X165550000Y-97590000D03*
X160500000Y-100130000D03*
X165550000Y-100130000D03*
X160500000Y-102670000D03*
X165550000Y-102670000D03*
X160500000Y-105210000D03*
X165550000Y-105210000D03*
X160500000Y-107750000D03*
X165550000Y-107750000D03*
D12*
X207940000Y-92965000D03*
X207940000Y-91315000D03*
D11*
X197540000Y-103315000D03*
X197540000Y-104965000D03*
X208163338Y-103315000D03*
X208163338Y-104965000D03*
X200574446Y-103315000D03*
X200574446Y-104965000D03*
X194503338Y-103315000D03*
X194503338Y-104965000D03*
X196021115Y-103315000D03*
X196021115Y-104965000D03*
X199030000Y-103315000D03*
X199030000Y-104965000D03*
X243070000Y-110565000D03*
X243070000Y-112215000D03*
D16*
X236325000Y-100730000D03*
X234775000Y-100730000D03*
D12*
X238130000Y-102305000D03*
X238130000Y-100655000D03*
X199080000Y-92965000D03*
X199080000Y-91315000D03*
X203530000Y-92965000D03*
X203530000Y-91315000D03*
D11*
X206645554Y-103315000D03*
X206645554Y-104965000D03*
D17*
X233530000Y-98730000D03*
X233530000Y-90730000D03*
X238030000Y-98730000D03*
X238030000Y-90730000D03*
D18*
X250570000Y-82485000D03*
X250570000Y-80935000D03*
D19*
X153250000Y-99030000D03*
X153250000Y-92030000D03*
D12*
X200530000Y-92965000D03*
X200530000Y-91315000D03*
X194590000Y-92965000D03*
X194590000Y-91315000D03*
X196060000Y-92965000D03*
X196060000Y-91315000D03*
D15*
X172320000Y-84920000D03*
X177370000Y-84920000D03*
X172320000Y-87460000D03*
X177370000Y-87460000D03*
X172320000Y-90000000D03*
X177370000Y-90000000D03*
X172320000Y-92540000D03*
X177370000Y-92540000D03*
X172320000Y-95080000D03*
X177370000Y-95080000D03*
X172320000Y-97620000D03*
X177370000Y-97620000D03*
X172320000Y-100160000D03*
X177370000Y-100160000D03*
X172320000Y-102700000D03*
X177370000Y-102700000D03*
X172320000Y-105240000D03*
X177370000Y-105240000D03*
X172320000Y-107780000D03*
X177370000Y-107780000D03*
D18*
X249970000Y-85545000D03*
X249970000Y-83995000D03*
D11*
X203610000Y-103315000D03*
X203610000Y-104965000D03*
D12*
X206460000Y-92965000D03*
X206460000Y-91315000D03*
X204990000Y-92965000D03*
X204990000Y-91315000D03*
D11*
X244400000Y-84215000D03*
X244400000Y-85865000D03*
D16*
X236335000Y-102280000D03*
X234785000Y-102280000D03*
D11*
X241440000Y-110555000D03*
X241440000Y-112205000D03*
D20*
X192920000Y-89800000D03*
X194570000Y-89800000D03*
X236405000Y-104000000D03*
X238055000Y-104000000D03*
D11*
X202092223Y-103315000D03*
X202092223Y-104965000D03*
M02*
