G04 #@! TF.GenerationSoftware,KiCad,Pcbnew,8.0.6-8.0.6-0~ubuntu20.04.1*
G04 #@! TF.CreationDate,2024-11-10T22:02:34+01:00*
G04 #@! TF.ProjectId,home_auto,686f6d65-5f61-4757-946f-2e6b69636164,rev?*
G04 #@! TF.SameCoordinates,Original*
G04 #@! TF.FileFunction,Paste,Bot*
G04 #@! TF.FilePolarity,Positive*
%FSLAX46Y46*%
G04 Gerber Fmt 4.6, Leading zero omitted, Abs format (unit mm)*
G04 Created by KiCad (PCBNEW 8.0.6-8.0.6-0~ubuntu20.04.1) date 2024-11-10 22:02:34*
%MOMM*%
%LPD*%
G01*
G04 APERTURE LIST*
G04 Aperture macros list*
%AMRoundRect*
0 Rectangle with rounded corners*
0 $1 Rounding radius*
0 $2 $3 $4 $5 $6 $7 $8 $9 X,Y pos of 4 corners*
0 Add a 4 corners polygon primitive as box body*
4,1,4,$2,$3,$4,$5,$6,$7,$8,$9,$2,$3,0*
0 Add four circle primitives for the rounded corners*
1,1,$1+$1,$2,$3*
1,1,$1+$1,$4,$5*
1,1,$1+$1,$6,$7*
1,1,$1+$1,$8,$9*
0 Add four rect primitives between the rounded corners*
20,1,$1+$1,$2,$3,$4,$5,0*
20,1,$1+$1,$4,$5,$6,$7,0*
20,1,$1+$1,$6,$7,$8,$9,0*
20,1,$1+$1,$8,$9,$2,$3,0*%
G04 Aperture macros list end*
%ADD10RoundRect,0.150000X-0.150000X0.587500X-0.150000X-0.587500X0.150000X-0.587500X0.150000X0.587500X0*%
%ADD11RoundRect,0.200000X0.275000X-0.200000X0.275000X0.200000X-0.275000X0.200000X-0.275000X-0.200000X0*%
%ADD12RoundRect,0.150000X0.150000X-0.587500X0.150000X0.587500X-0.150000X0.587500X-0.150000X-0.587500X0*%
%ADD13RoundRect,0.200000X-0.275000X0.200000X-0.275000X-0.200000X0.275000X-0.200000X0.275000X0.200000X0*%
G04 APERTURE END LIST*
D10*
X208938750Y-113247500D03*
X209888750Y-111372500D03*
X207988750Y-111372500D03*
X228627500Y-113247500D03*
X229577500Y-111372500D03*
X227677500Y-111372500D03*
D11*
X153361250Y-111005000D03*
X153361250Y-112655000D03*
X190250000Y-111055000D03*
X190250000Y-112705000D03*
X237175000Y-111037500D03*
X237175000Y-112687500D03*
D10*
X150467500Y-113207500D03*
X151417500Y-111332500D03*
X149517500Y-111332500D03*
X166097500Y-113237500D03*
X167047500Y-111362500D03*
X165147500Y-111362500D03*
X218940000Y-113247500D03*
X219890000Y-111372500D03*
X217990000Y-111372500D03*
D11*
X168991250Y-111035000D03*
X168991250Y-112685000D03*
D12*
X233558750Y-82230000D03*
X231658750Y-82230000D03*
X232608750Y-80355000D03*
D13*
X220040000Y-80905000D03*
X220040000Y-82555000D03*
D10*
X203320000Y-113257500D03*
X204270000Y-111382500D03*
X202370000Y-111382500D03*
D13*
X147511250Y-80897500D03*
X147511250Y-82547500D03*
D11*
X205870000Y-111045000D03*
X205870000Y-112695000D03*
D12*
X155393750Y-82220000D03*
X153493750Y-82220000D03*
X154443750Y-80345000D03*
D10*
X146428750Y-113207500D03*
X147378750Y-111332500D03*
X145478750Y-111332500D03*
D12*
X145392500Y-82220000D03*
X143492500Y-82220000D03*
X144442500Y-80345000D03*
X248223750Y-80385000D03*
X247273750Y-82260000D03*
X249173750Y-82260000D03*
X198250000Y-82230000D03*
X196350000Y-82230000D03*
X197300000Y-80355000D03*
D11*
X184621250Y-111035000D03*
X184621250Y-112685000D03*
D10*
X197357500Y-113257500D03*
X198307500Y-111382500D03*
X196407500Y-111382500D03*
D11*
X231521250Y-111045000D03*
X231521250Y-112695000D03*
D12*
X229520000Y-82230000D03*
X227620000Y-82230000D03*
X228570000Y-80355000D03*
X223557500Y-82230000D03*
X221657500Y-82230000D03*
X222607500Y-80355000D03*
D13*
X210038750Y-80905000D03*
X210038750Y-82555000D03*
X225676250Y-80907500D03*
X225676250Y-82557500D03*
X194406250Y-80907500D03*
X194406250Y-82557500D03*
D11*
X174620000Y-111035000D03*
X174620000Y-112685000D03*
X247176250Y-111037500D03*
X247176250Y-112687500D03*
D10*
X212977500Y-113247500D03*
X213927500Y-111372500D03*
X212027500Y-111372500D03*
D13*
X204407500Y-80907500D03*
X204407500Y-82557500D03*
D12*
X182605000Y-82230000D03*
X180705000Y-82230000D03*
X181655000Y-80355000D03*
D10*
X234590000Y-113247500D03*
X235540000Y-111372500D03*
X233640000Y-111372500D03*
X244282500Y-113240000D03*
X245232500Y-111365000D03*
X243332500Y-111365000D03*
D13*
X241291250Y-82587500D03*
X241291250Y-80937500D03*
D12*
X151355000Y-82220000D03*
X149455000Y-82220000D03*
X150405000Y-80345000D03*
D11*
X221520000Y-111045000D03*
X221520000Y-112695000D03*
D10*
X187690000Y-113237500D03*
X188640000Y-111362500D03*
X186740000Y-111362500D03*
X193318750Y-113257500D03*
X194268750Y-111382500D03*
X192368750Y-111382500D03*
X181727500Y-113237500D03*
X182677500Y-111362500D03*
X180777500Y-111362500D03*
X224588750Y-113247500D03*
X225538750Y-111372500D03*
X223638750Y-111372500D03*
D13*
X157512500Y-80897500D03*
X157512500Y-82547500D03*
D12*
X161012500Y-82230000D03*
X159112500Y-82230000D03*
X160062500Y-80355000D03*
D10*
X240243750Y-113240000D03*
X241193750Y-111365000D03*
X239293750Y-111365000D03*
D12*
X244185000Y-80385000D03*
X243235000Y-82260000D03*
X245135000Y-82260000D03*
D11*
X143360000Y-111005000D03*
X143360000Y-112655000D03*
D10*
X177688750Y-113237500D03*
X178638750Y-111362500D03*
X176738750Y-111362500D03*
D13*
X178761250Y-80907500D03*
X178761250Y-82557500D03*
D12*
X171013750Y-82230000D03*
X169113750Y-82230000D03*
X170063750Y-80355000D03*
D13*
X173132500Y-80907500D03*
X173132500Y-82557500D03*
D11*
X200251250Y-111055000D03*
X200251250Y-112705000D03*
D10*
X156430000Y-113207500D03*
X157380000Y-111332500D03*
X155480000Y-111332500D03*
D12*
X213882500Y-82227500D03*
X211982500Y-82227500D03*
X212932500Y-80352500D03*
D11*
X215871250Y-111045000D03*
X215871250Y-112695000D03*
D12*
X202288750Y-82230000D03*
X200388750Y-82230000D03*
X201338750Y-80355000D03*
D10*
X172060000Y-113237500D03*
X173010000Y-111362500D03*
X171110000Y-111362500D03*
X250245000Y-113240000D03*
X251195000Y-111365000D03*
X249295000Y-111365000D03*
D12*
X186643750Y-82230000D03*
X184743750Y-82230000D03*
X185693750Y-80355000D03*
X176642500Y-82230000D03*
X174742500Y-82230000D03*
X175692500Y-80355000D03*
X207920000Y-82227500D03*
X206020000Y-82227500D03*
X206970000Y-80352500D03*
X217921250Y-82227500D03*
X216021250Y-82227500D03*
X216971250Y-80352500D03*
D13*
X251292500Y-82587500D03*
X251292500Y-80937500D03*
D11*
X158990000Y-111035000D03*
X158990000Y-112685000D03*
D13*
X188762500Y-80907500D03*
X188762500Y-82557500D03*
D12*
X166975000Y-82230000D03*
X165075000Y-82230000D03*
X166025000Y-80355000D03*
X192287500Y-82230000D03*
X190387500Y-82230000D03*
X191337500Y-80355000D03*
X238222500Y-80385000D03*
X237272500Y-82260000D03*
X239172500Y-82260000D03*
D13*
X163131250Y-80907500D03*
X163131250Y-82557500D03*
X235677500Y-80907500D03*
X235677500Y-82557500D03*
D10*
X162058750Y-113237500D03*
X163008750Y-111362500D03*
X161108750Y-111362500D03*
M02*
