M48
; DRILL file {KiCad 8.0.6-8.0.6-0~ubuntu20.04.1} date 2024-11-10T22:03:08+0100
; FORMAT={-:-/ absolute / metric / decimal}
; #@! TF.CreationDate,2024-11-10T22:03:08+01:00
; #@! TF.GenerationSoftware,Kicad,Pcbnew,8.0.6-8.0.6-0~ubuntu20.04.1
; #@! TF.FileFunction,Plated,1,2,PTH
FMAT,2
METRIC
; #@! TA.AperFunction,Plated,PTH,ComponentDrill
T1C0.200
; #@! TA.AperFunction,Plated,PTH,ViaDrill
T2C0.250
; #@! TA.AperFunction,Plated,PTH,ComponentDrill
T3C0.650
; #@! TA.AperFunction,Plated,PTH,ComponentDrill
T4C1.000
; #@! TA.AperFunction,Plated,PTH,ComponentDrill
T5C1.100
; #@! TA.AperFunction,Plated,PTH,ComponentDrill
T6C1.300
%
G90
G05
T1
X245.5Y-96.89
X245.5Y-97.99
X246.05Y-96.34
X246.05Y-97.44
X246.05Y-98.54
X246.6Y-96.89
X246.6Y-97.99
X247.15Y-96.34
X247.15Y-97.44
X247.15Y-98.54
X247.7Y-96.89
X247.7Y-97.99
T2
X143.622Y-74.715
X143.622Y-105.195
X143.622Y-107.735
X143.622Y-117.895
X146.162Y-84.875
X146.162Y-87.415
X146.162Y-117.895
X147.95Y-109.87
X148.52Y-81.89
X148.702Y-84.875
X148.702Y-87.415
X148.702Y-89.955
X148.702Y-95.035
X148.702Y-102.655
X148.702Y-105.195
X148.702Y-107.735
X151.242Y-84.875
X151.242Y-87.415
X151.242Y-89.955
X151.242Y-95.035
X151.242Y-102.655
X151.242Y-105.195
X151.242Y-107.735
X153.34Y-109.83
X153.782Y-84.875
X153.782Y-87.415
X153.782Y-89.955
X153.782Y-95.035
X153.782Y-102.655
X153.782Y-105.195
X153.782Y-107.735
X156.322Y-79.795
X156.322Y-84.875
X156.322Y-87.415
X156.322Y-89.955
X156.322Y-92.495
X156.322Y-95.035
X156.322Y-102.655
X156.322Y-105.195
X156.322Y-107.735
X158.29Y-81.65
X158.862Y-79.795
X158.96Y-109.98
X163.942Y-79.795
X164.14Y-81.89
X169.022Y-92.495
X169.022Y-95.035
X169.03Y-110.2
X171.562Y-79.795
X173.95Y-81.78
X174.102Y-79.795
X174.7Y-110.1
X179.182Y-79.795
X179.77Y-81.72
X183.79Y-110.21
X184.262Y-105.195
X186.802Y-79.795
X186.802Y-105.195
X189.342Y-89.955
X189.342Y-105.195
X190.233Y-80.753
X191.88Y-109.65
X191.882Y-105.195
X193.327Y-80.268
X196.962Y-89.955
X197.31Y-110.67
X204.72Y-113.15
X204.75Y-79.6
X207.122Y-97.575
X209.73Y-79.613
X210.0Y-84.9
X210.58Y-84.9
X211.25Y-84.9
X211.9Y-84.9
X211.9Y-85.49
X211.9Y-86.07
X211.9Y-86.7
X211.9Y-87.33
X212.202Y-105.195
X212.202Y-107.735
X213.24Y-91.37
X214.742Y-84.875
X214.742Y-87.415
X214.742Y-95.035
X214.742Y-97.575
X214.742Y-100.115
X214.742Y-105.195
X214.742Y-107.735
X214.89Y-110.6
X217.282Y-84.875
X217.282Y-97.575
X217.282Y-100.115
X217.282Y-105.195
X217.282Y-107.735
X219.583Y-81.816
X219.822Y-84.875
X219.822Y-100.115
X219.822Y-105.195
X219.822Y-107.735
X220.62Y-110.54
X222.362Y-84.875
X222.362Y-100.115
X222.362Y-105.195
X222.362Y-107.735
X224.902Y-84.875
X224.902Y-100.115
X224.902Y-105.195
X224.902Y-107.735
X225.7Y-79.14
X227.442Y-84.875
X227.442Y-100.115
X227.442Y-105.195
X227.442Y-107.735
X229.982Y-84.875
X229.982Y-107.735
X230.52Y-110.86
X232.522Y-84.875
X232.522Y-92.495
X232.522Y-95.035
X232.522Y-105.195
X232.522Y-107.735
X235.062Y-84.875
X235.062Y-107.735
X236.28Y-110.53
X236.45Y-79.61
X240.142Y-92.495
X240.142Y-95.035
X240.142Y-97.575
X240.142Y-100.115
X240.142Y-102.655
X241.91Y-79.891
X242.682Y-92.495
X242.682Y-95.035
X242.682Y-97.575
X242.682Y-100.115
X242.682Y-102.655
X245.222Y-92.495
X245.222Y-95.035
X245.222Y-100.115
X245.222Y-102.655
X246.02Y-114.36
X247.762Y-74.715
X247.762Y-92.495
X247.762Y-95.035
X247.762Y-100.115
X247.762Y-102.655
X249.94Y-79.99
X250.302Y-74.715
X250.302Y-92.495
X250.302Y-95.035
X250.302Y-97.575
X250.302Y-100.115
X250.302Y-102.655
X250.302Y-107.735
T3
X212.8Y-93.222
X212.8Y-94.492
X212.8Y-95.762
X212.8Y-97.032
X212.8Y-98.302
X212.8Y-99.572
X212.8Y-100.843
X212.8Y-102.112
X241.01Y-84.12
X242.28Y-84.12
X246.98Y-83.91
X246.98Y-85.18
T4
X230.11Y-87.86
X230.11Y-90.4
X230.11Y-92.94
X230.11Y-95.48
X230.11Y-98.02
X230.11Y-100.56
X230.11Y-103.1
X230.11Y-105.64
X239.71Y-108.26
X242.25Y-108.26
X244.79Y-108.26
X247.33Y-108.26
T5
X144.115Y-115.945
X144.115Y-127.445
X144.115Y-134.445
X144.262Y-77.605
X148.815Y-115.945
X148.963Y-59.105
X148.963Y-66.105
X148.963Y-77.605
X151.91Y-115.947
X151.91Y-127.447
X151.91Y-134.447
X152.058Y-77.608
X156.61Y-115.947
X156.757Y-59.107
X156.757Y-66.108
X156.757Y-77.608
X159.745Y-115.975
X159.745Y-127.475
X159.745Y-134.475
X159.882Y-77.615
X164.445Y-115.975
X164.582Y-59.115
X164.582Y-66.115
X164.582Y-77.615
X167.54Y-115.977
X167.54Y-127.477
X167.54Y-134.477
X167.677Y-77.617
X172.24Y-115.977
X172.377Y-59.117
X172.377Y-66.117
X172.377Y-77.617
X175.375Y-115.975
X175.375Y-127.475
X175.375Y-134.475
X175.512Y-77.615
X180.075Y-115.975
X180.213Y-59.115
X180.213Y-66.115
X180.213Y-77.615
X183.17Y-115.977
X183.17Y-127.477
X183.17Y-134.477
X183.308Y-77.617
X187.87Y-115.977
X188.007Y-59.117
X188.007Y-66.117
X188.007Y-77.617
X191.005Y-115.995
X191.005Y-127.495
X191.005Y-134.495
X191.157Y-77.615
X195.705Y-115.995
X195.857Y-59.115
X195.857Y-66.115
X195.857Y-77.615
X198.8Y-115.997
X198.8Y-127.497
X198.8Y-134.498
X198.952Y-77.617
X203.5Y-115.997
X203.653Y-59.117
X203.653Y-66.117
X203.653Y-77.617
X206.625Y-115.985
X206.625Y-127.485
X206.625Y-134.485
X206.79Y-77.612
X211.325Y-115.985
X211.49Y-59.112
X211.49Y-66.112
X211.49Y-77.612
X214.42Y-115.987
X214.42Y-127.487
X214.42Y-134.487
X214.585Y-77.615
X219.12Y-115.987
X219.285Y-59.115
X219.285Y-66.115
X219.285Y-77.615
X222.275Y-115.985
X222.275Y-127.485
X222.275Y-134.485
X222.427Y-77.615
X226.975Y-115.985
X227.127Y-59.115
X227.127Y-66.115
X227.127Y-77.615
X230.07Y-115.987
X230.07Y-127.487
X230.07Y-134.487
X230.222Y-77.617
X234.77Y-115.987
X234.922Y-59.117
X234.922Y-66.117
X234.922Y-77.617
X237.93Y-115.977
X237.93Y-127.477
X237.93Y-134.477
X238.042Y-77.645
X242.63Y-115.977
X242.742Y-59.145
X242.742Y-66.145
X242.742Y-77.645
X245.725Y-115.98
X245.725Y-127.48
X245.725Y-134.48
X245.837Y-77.647
X250.425Y-115.98
X250.537Y-59.148
X250.537Y-66.147
X250.537Y-77.647
T6
X144.47Y-140.18
X144.567Y-53.367
X146.26Y-92.88
X146.26Y-97.88
X149.47Y-140.18
X149.567Y-53.367
X154.47Y-140.18
X154.528Y-53.367
X159.47Y-140.18
X159.528Y-53.367
X164.47Y-140.18
X164.517Y-53.367
X169.47Y-140.18
X169.517Y-53.367
X174.47Y-140.18
X174.517Y-53.367
X179.47Y-140.18
X179.517Y-53.367
X184.47Y-140.18
X184.528Y-53.367
X189.47Y-140.18
X189.528Y-53.367
X194.48Y-140.18
X194.528Y-53.367
X199.48Y-140.18
X199.528Y-53.367
X204.48Y-140.14
X204.537Y-53.367
X209.48Y-140.14
X209.537Y-53.367
X214.49Y-140.16
X214.528Y-53.367
X219.49Y-140.16
X219.528Y-53.367
X224.49Y-140.2
X224.537Y-53.367
X229.49Y-140.2
X229.537Y-53.367
X234.49Y-140.2
X234.547Y-53.367
X239.49Y-140.2
X239.547Y-53.367
X244.54Y-140.21
X244.557Y-53.367
X249.54Y-140.21
X249.557Y-53.367
M30
