G04 #@! TF.GenerationSoftware,KiCad,Pcbnew,8.0.6-8.0.6-0~ubuntu20.04.1*
G04 #@! TF.CreationDate,2024-11-10T22:02:34+01:00*
G04 #@! TF.ProjectId,home_auto,686f6d65-5f61-4757-946f-2e6b69636164,rev?*
G04 #@! TF.SameCoordinates,Original*
G04 #@! TF.FileFunction,Profile,NP*
%FSLAX46Y46*%
G04 Gerber Fmt 4.6, Leading zero omitted, Abs format (unit mm)*
G04 Created by KiCad (PCBNEW 8.0.6-8.0.6-0~ubuntu20.04.1) date 2024-11-10 22:02:34*
%MOMM*%
%LPD*%
G01*
G04 APERTURE LIST*
G04 #@! TA.AperFunction,Profile*
%ADD10C,0.050000*%
G04 #@! TD*
G04 APERTURE END LIST*
D10*
X160519479Y-69980746D02*
X143950147Y-69980746D01*
X143950520Y-72190000D02*
X160519480Y-72190000D01*
X160519479Y-69980746D02*
G75*
G02*
X160859654Y-70320893I21J-340154D01*
G01*
X143950520Y-72190000D02*
G75*
G02*
X143610373Y-71849853I1J340148D01*
G01*
X160859627Y-71849852D02*
G75*
G02*
X160519480Y-72189997I-340147J2D01*
G01*
X143610000Y-70320373D02*
G75*
G02*
X143950147Y-69980226I340146J1D01*
G01*
X160859626Y-70320893D02*
X160859626Y-71849852D01*
X143610000Y-70320373D02*
X143610000Y-71849853D01*
X223891040Y-72190373D02*
X240460000Y-72190373D01*
X240459999Y-69981119D02*
G75*
G02*
X240800181Y-70321266I1J-340181D01*
G01*
X223550520Y-70320746D02*
G75*
G02*
X223890667Y-69980520I340180J46D01*
G01*
X223891040Y-72190373D02*
G75*
G02*
X223550827Y-71850226I-40J340173D01*
G01*
X240459999Y-69981119D02*
X223890667Y-69981119D01*
X240800146Y-70321266D02*
X240800146Y-71850225D01*
X223550520Y-70320746D02*
X223550520Y-71850226D01*
X240800147Y-71850225D02*
G75*
G02*
X240460000Y-72190347I-340147J25D01*
G01*
X250820147Y-71850226D02*
G75*
G02*
X250480000Y-72190347I-340147J26D01*
G01*
X243510000Y-71850373D02*
X243510000Y-70320893D01*
X243849774Y-69980746D02*
X250479999Y-69980746D01*
X250480000Y-72190373D02*
X243870000Y-72190373D01*
X243509627Y-70320893D02*
G75*
G02*
X243849774Y-69980727I340173J-7D01*
G01*
X243850147Y-72190520D02*
G75*
G02*
X243510080Y-71850373I53J340120D01*
G01*
X250820147Y-71850226D02*
X250820147Y-70321267D01*
X250479999Y-69981120D02*
G75*
G02*
X250820080Y-70321267I1J-340080D01*
G01*
X180909626Y-70320893D02*
X180909626Y-71849852D01*
X180569479Y-69980746D02*
X164000147Y-69980746D01*
X180909627Y-71849852D02*
G75*
G02*
X180569480Y-72190027I-340127J-48D01*
G01*
X163660000Y-70320373D02*
X163660000Y-71849853D01*
X163660000Y-70320373D02*
G75*
G02*
X164000147Y-69980300I340100J-27D01*
G01*
X180569479Y-69980746D02*
G75*
G02*
X180909654Y-70320893I21J-340154D01*
G01*
X164000520Y-72190000D02*
X180569480Y-72190000D01*
X164000520Y-72190000D02*
G75*
G02*
X163660400Y-71849853I-20J340100D01*
G01*
X220499479Y-69980746D02*
X203930147Y-69980746D01*
X220499479Y-69980746D02*
G75*
G02*
X220839654Y-70320893I21J-340154D01*
G01*
X220839626Y-70320893D02*
X220839626Y-71849852D01*
X203590000Y-70320373D02*
X203590000Y-71849853D01*
X203930520Y-72190000D02*
X220499480Y-72190000D01*
X203590000Y-70320373D02*
G75*
G02*
X203930147Y-69980300I340100J-27D01*
G01*
X220839627Y-71849852D02*
G75*
G02*
X220499480Y-72190027I-340127J-48D01*
G01*
X203930520Y-72190000D02*
G75*
G02*
X203590400Y-71849853I-20J340100D01*
G01*
X200869627Y-71849852D02*
G75*
G02*
X200529480Y-72190027I-340127J-48D01*
G01*
X200529479Y-69980746D02*
X183960147Y-69980746D01*
X183620000Y-70320373D02*
G75*
G02*
X183960147Y-69980300I340100J-27D01*
G01*
X183960520Y-72190000D02*
X200529480Y-72190000D01*
X183960520Y-72190000D02*
G75*
G02*
X183620400Y-71849853I-20J340100D01*
G01*
X183620000Y-70320373D02*
X183620000Y-71849853D01*
X200869626Y-70320893D02*
X200869626Y-71849852D01*
X200529479Y-69980746D02*
G75*
G02*
X200869654Y-70320893I21J-340154D01*
G01*
X243689774Y-121360373D02*
X250319999Y-121360373D01*
X243350000Y-123230000D02*
X243350000Y-121700520D01*
X250320000Y-123570000D02*
X243710000Y-123570000D01*
X250660147Y-123229853D02*
X250660147Y-121700894D01*
X250319999Y-121360747D02*
G75*
G02*
X250660143Y-121700894I21J-340123D01*
G01*
X250660147Y-123229853D02*
G75*
G02*
X250320000Y-123570000I-340126J-21D01*
G01*
X243690147Y-123570147D02*
G75*
G02*
X243350003Y-123230000I3J340147D01*
G01*
X243349627Y-121700520D02*
G75*
G02*
X243689774Y-121360373I340144J3D01*
G01*
X240299999Y-121360746D02*
X223730667Y-121360746D01*
X240640146Y-121700893D02*
X240640146Y-123229852D01*
X223390520Y-121700373D02*
X223390520Y-123229853D01*
X223731040Y-123570000D02*
X240300000Y-123570000D01*
X223390520Y-121700373D02*
G75*
G02*
X223730667Y-121360226I340144J3D01*
G01*
X240299999Y-121360746D02*
G75*
G02*
X240640146Y-121700893I3J-340144D01*
G01*
X223731040Y-123570000D02*
G75*
G02*
X223390893Y-123229853I1J340148D01*
G01*
X240640147Y-123229852D02*
G75*
G02*
X240300000Y-123569999I-340144J-3D01*
G01*
X220339479Y-121360373D02*
X203770147Y-121360373D01*
X203770520Y-123569627D02*
X220339480Y-123569627D01*
X203770520Y-123569627D02*
G75*
G02*
X203430373Y-123229480I1J340148D01*
G01*
X220679626Y-121700520D02*
X220679626Y-123229479D01*
X203430000Y-121700000D02*
G75*
G02*
X203770147Y-121359853I340146J1D01*
G01*
X203430000Y-121700000D02*
X203430000Y-123229480D01*
X220679627Y-123229479D02*
G75*
G02*
X220339480Y-123569626I-340146J-1D01*
G01*
X220339479Y-121360373D02*
G75*
G02*
X220679626Y-121700520I1J-340146D01*
G01*
X200369479Y-121360373D02*
X183800147Y-121360373D01*
X183800520Y-123569627D02*
X200369480Y-123569627D01*
X183800520Y-123569627D02*
G75*
G02*
X183460373Y-123229480I1J340148D01*
G01*
X200709626Y-121700520D02*
X200709626Y-123229479D01*
X183460000Y-121700000D02*
G75*
G02*
X183800147Y-121359853I340146J1D01*
G01*
X183460000Y-121700000D02*
X183460000Y-123229480D01*
X200709627Y-123229479D02*
G75*
G02*
X200369480Y-123569626I-340146J-1D01*
G01*
X200369479Y-121360373D02*
G75*
G02*
X200709626Y-121700520I1J-340146D01*
G01*
X180409479Y-121360373D02*
X163840147Y-121360373D01*
X163840520Y-123569627D02*
X180409480Y-123569627D01*
X163840520Y-123569627D02*
G75*
G02*
X163500373Y-123229480I1J340148D01*
G01*
X180749626Y-121700520D02*
X180749626Y-123229479D01*
X163500000Y-121700000D02*
G75*
G02*
X163840147Y-121359853I340146J1D01*
G01*
X163500000Y-121700000D02*
X163500000Y-123229480D01*
X180749627Y-123229479D02*
G75*
G02*
X180409480Y-123569626I-340146J-1D01*
G01*
X180409479Y-121360373D02*
G75*
G02*
X180749626Y-121700520I1J-340146D01*
G01*
X160359479Y-121360373D02*
X143790147Y-121360373D01*
X160699626Y-121700520D02*
X160699626Y-123229479D01*
X143790520Y-123569627D02*
X160359480Y-123569627D01*
X143450000Y-121700000D02*
X143450000Y-123229480D01*
X143450000Y-121700000D02*
G75*
G02*
X143790147Y-121359850I340150J0D01*
G01*
X160359479Y-121360373D02*
G75*
G02*
X160699629Y-121700520I0J-340150D01*
G01*
X160699627Y-123229479D02*
G75*
G02*
X160359480Y-123569629I-340150J0D01*
G01*
X143790520Y-123569627D02*
G75*
G02*
X143450373Y-123229480I0J340147D01*
G01*
X141590000Y-49340000D02*
X254550000Y-49340000D01*
X254550000Y-144230000D01*
X141590000Y-144230000D01*
X141590000Y-49340000D01*
M02*
