G04 #@! TF.GenerationSoftware,KiCad,Pcbnew,8.0.6-8.0.6-0~ubuntu20.04.1*
G04 #@! TF.CreationDate,2024-11-10T22:02:34+01:00*
G04 #@! TF.ProjectId,home_auto,686f6d65-5f61-4757-946f-2e6b69636164,rev?*
G04 #@! TF.SameCoordinates,Original*
G04 #@! TF.FileFunction,Soldermask,Top*
G04 #@! TF.FilePolarity,Negative*
%FSLAX46Y46*%
G04 Gerber Fmt 4.6, Leading zero omitted, Abs format (unit mm)*
G04 Created by KiCad (PCBNEW 8.0.6-8.0.6-0~ubuntu20.04.1) date 2024-11-10 22:02:34*
%MOMM*%
%LPD*%
G01*
G04 APERTURE LIST*
G04 Aperture macros list*
%AMRoundRect*
0 Rectangle with rounded corners*
0 $1 Rounding radius*
0 $2 $3 $4 $5 $6 $7 $8 $9 X,Y pos of 4 corners*
0 Add a 4 corners polygon primitive as box body*
4,1,4,$2,$3,$4,$5,$6,$7,$8,$9,$2,$3,0*
0 Add four circle primitives for the rounded corners*
1,1,$1+$1,$2,$3*
1,1,$1+$1,$4,$5*
1,1,$1+$1,$6,$7*
1,1,$1+$1,$8,$9*
0 Add four rect primitives between the rounded corners*
20,1,$1+$1,$2,$3,$4,$5,0*
20,1,$1+$1,$4,$5,$6,$7,0*
20,1,$1+$1,$6,$7,$8,$9,0*
20,1,$1+$1,$8,$9,$2,$3,0*%
G04 Aperture macros list end*
%ADD10RoundRect,0.250000X0.262500X0.450000X-0.262500X0.450000X-0.262500X-0.450000X0.262500X-0.450000X0*%
%ADD11C,1.650000*%
%ADD12C,1.950000*%
%ADD13RoundRect,0.200000X-0.275000X0.200000X-0.275000X-0.200000X0.275000X-0.200000X0.275000X0.200000X0*%
%ADD14RoundRect,0.200000X0.275000X-0.200000X0.275000X0.200000X-0.275000X0.200000X-0.275000X-0.200000X0*%
%ADD15R,0.900000X1.500000*%
%ADD16C,0.600000*%
%ADD17R,2.900000X2.900000*%
%ADD18R,3.150000X1.000000*%
%ADD19RoundRect,0.225000X0.225000X0.250000X-0.225000X0.250000X-0.225000X-0.250000X0.225000X-0.250000X0*%
%ADD20R,1.700000X1.700000*%
%ADD21O,1.700000X1.700000*%
%ADD22R,1.400000X1.600000*%
%ADD23RoundRect,0.225000X0.250000X-0.225000X0.250000X0.225000X-0.250000X0.225000X-0.250000X-0.225000X0*%
%ADD24R,3.150000X2.200000*%
%ADD25R,1.000000X1.000000*%
%ADD26O,1.000000X1.000000*%
%ADD27RoundRect,0.200000X-0.200000X-0.275000X0.200000X-0.275000X0.200000X0.275000X-0.200000X0.275000X0*%
G04 APERTURE END LIST*
D10*
X211792500Y-91430000D03*
X209967500Y-91430000D03*
D11*
X180075000Y-115975000D03*
X175375000Y-134475000D03*
X175375000Y-127475000D03*
X175375000Y-115975000D03*
D12*
X239490000Y-140200000D03*
X234490000Y-140200000D03*
D13*
X205127777Y-103315000D03*
X205127777Y-104965000D03*
D14*
X202020000Y-92965000D03*
X202020000Y-91315000D03*
X197570000Y-92965000D03*
X197570000Y-91315000D03*
D15*
X252800000Y-87730000D03*
X251300000Y-87730000D03*
X249800000Y-87730000D03*
X248300000Y-87730000D03*
X246800000Y-87730000D03*
X245300000Y-87730000D03*
X243800000Y-87730000D03*
X242300000Y-87730000D03*
X240800000Y-87730000D03*
X240800000Y-105230000D03*
X242300000Y-105230000D03*
X243800000Y-105230000D03*
X245300000Y-105230000D03*
X246800000Y-105230000D03*
X248300000Y-105230000D03*
X249800000Y-105230000D03*
X251300000Y-105230000D03*
X252800000Y-105230000D03*
D16*
X247150000Y-96340000D03*
X246050000Y-96340000D03*
X247700000Y-96890000D03*
X246600000Y-96890000D03*
X245500000Y-96890000D03*
X247150000Y-97440000D03*
D17*
X246600000Y-97440000D03*
D16*
X246050000Y-97440000D03*
X247700000Y-97990000D03*
X246600000Y-97990000D03*
X245500000Y-97990000D03*
X247150000Y-98540000D03*
X246050000Y-98540000D03*
D11*
X219120000Y-115987500D03*
X214420000Y-134487500D03*
X214420000Y-127487500D03*
X214420000Y-115987500D03*
D18*
X160500000Y-84890000D03*
X165550000Y-84890000D03*
X160500000Y-87430000D03*
X165550000Y-87430000D03*
X160500000Y-89970000D03*
X165550000Y-89970000D03*
X160500000Y-92510000D03*
X165550000Y-92510000D03*
X160500000Y-95050000D03*
X165550000Y-95050000D03*
X160500000Y-97590000D03*
X165550000Y-97590000D03*
X160500000Y-100130000D03*
X165550000Y-100130000D03*
X160500000Y-102670000D03*
X165550000Y-102670000D03*
X160500000Y-105210000D03*
X165550000Y-105210000D03*
X160500000Y-107750000D03*
X165550000Y-107750000D03*
D14*
X207940000Y-92965000D03*
X207940000Y-91315000D03*
D13*
X197540000Y-103315000D03*
X197540000Y-104965000D03*
X208163338Y-103315000D03*
X208163338Y-104965000D03*
D12*
X209537500Y-53367500D03*
X204537500Y-53367500D03*
D13*
X200574446Y-103315000D03*
X200574446Y-104965000D03*
D12*
X189470000Y-140180000D03*
X184470000Y-140180000D03*
D11*
X219285000Y-77615000D03*
X219285000Y-66115000D03*
X219285000Y-59115000D03*
X214585000Y-77615000D03*
X187870000Y-115977500D03*
X183170000Y-134477500D03*
X183170000Y-127477500D03*
X183170000Y-115977500D03*
D13*
X194503338Y-103315000D03*
X194503338Y-104965000D03*
D12*
X229490000Y-140200000D03*
X224490000Y-140200000D03*
X209480000Y-140140000D03*
X204480000Y-140140000D03*
D13*
X196021115Y-103315000D03*
X196021115Y-104965000D03*
X199030000Y-103315000D03*
X199030000Y-104965000D03*
D12*
X229537500Y-53367500D03*
X224537500Y-53367500D03*
X249540000Y-140210000D03*
X244540000Y-140210000D03*
D13*
X243070000Y-110565000D03*
X243070000Y-112215000D03*
D19*
X236325000Y-100730000D03*
X234775000Y-100730000D03*
D20*
X230110000Y-87860000D03*
D21*
X230110000Y-90400000D03*
X230110000Y-92940000D03*
X230110000Y-95480000D03*
X230110000Y-98020000D03*
X230110000Y-100560000D03*
X230110000Y-103100000D03*
X230110000Y-105640000D03*
D14*
X238130000Y-102305000D03*
X238130000Y-100655000D03*
X199080000Y-92965000D03*
X199080000Y-91315000D03*
D12*
X219527500Y-53367500D03*
X214527500Y-53367500D03*
D14*
X203530000Y-92965000D03*
X203530000Y-91315000D03*
D13*
X206645554Y-103315000D03*
X206645554Y-104965000D03*
D12*
X169517500Y-53367500D03*
X164517500Y-53367500D03*
X179470000Y-140180000D03*
X174470000Y-140180000D03*
D11*
X164582500Y-77615000D03*
X164582500Y-66115000D03*
X164582500Y-59115000D03*
X159882500Y-77615000D03*
X211325000Y-115985000D03*
X206625000Y-134485000D03*
X206625000Y-127485000D03*
X206625000Y-115985000D03*
X148815000Y-115945000D03*
X144115000Y-134445000D03*
X144115000Y-127445000D03*
X144115000Y-115945000D03*
X245837500Y-77647500D03*
X250537500Y-59147500D03*
X250537500Y-66147500D03*
X250537500Y-77647500D03*
D22*
X233530000Y-98730000D03*
X233530000Y-90730000D03*
X238030000Y-98730000D03*
X238030000Y-90730000D03*
D11*
X195705000Y-115995000D03*
X191005000Y-134495000D03*
X191005000Y-127495000D03*
X191005000Y-115995000D03*
D23*
X250570000Y-82485000D03*
X250570000Y-80935000D03*
D11*
X242630000Y-115977500D03*
X237930000Y-134477500D03*
X237930000Y-127477500D03*
X237930000Y-115977500D03*
X188007500Y-77617500D03*
X188007500Y-66117500D03*
X188007500Y-59117500D03*
X183307500Y-77617500D03*
X234770000Y-115987500D03*
X230070000Y-134487500D03*
X230070000Y-127487500D03*
X230070000Y-115987500D03*
D24*
X153250000Y-99030000D03*
X153250000Y-92030000D03*
D11*
X180212500Y-77615000D03*
X180212500Y-66115000D03*
X180212500Y-59115000D03*
X175512500Y-77615000D03*
D14*
X200530000Y-92965000D03*
X200530000Y-91315000D03*
D12*
X239547500Y-53367500D03*
X234547500Y-53367500D03*
D11*
X203500000Y-115997500D03*
X198800000Y-134497500D03*
X198800000Y-127497500D03*
X198800000Y-115997500D03*
D14*
X194590000Y-92965000D03*
X194590000Y-91315000D03*
D12*
X249557500Y-53367500D03*
X244557500Y-53367500D03*
D14*
X196060000Y-92965000D03*
X196060000Y-91315000D03*
D11*
X164445000Y-115975000D03*
X159745000Y-134475000D03*
X159745000Y-127475000D03*
X159745000Y-115975000D03*
D12*
X149470000Y-140180000D03*
X144470000Y-140180000D03*
D25*
X242280000Y-84120000D03*
D26*
X241010000Y-84120000D03*
D18*
X172320000Y-84920000D03*
X177370000Y-84920000D03*
X172320000Y-87460000D03*
X177370000Y-87460000D03*
X172320000Y-90000000D03*
X177370000Y-90000000D03*
X172320000Y-92540000D03*
X177370000Y-92540000D03*
X172320000Y-95080000D03*
X177370000Y-95080000D03*
X172320000Y-97620000D03*
X177370000Y-97620000D03*
X172320000Y-100160000D03*
X177370000Y-100160000D03*
X172320000Y-102700000D03*
X177370000Y-102700000D03*
X172320000Y-105240000D03*
X177370000Y-105240000D03*
X172320000Y-107780000D03*
X177370000Y-107780000D03*
D11*
X227127500Y-77615000D03*
X227127500Y-66115000D03*
X227127500Y-59115000D03*
X222427500Y-77615000D03*
D23*
X249970000Y-85545000D03*
X249970000Y-83995000D03*
D11*
X172377500Y-77617500D03*
X172377500Y-66117500D03*
X172377500Y-59117500D03*
X167677500Y-77617500D03*
D25*
X212800000Y-93222500D03*
D26*
X212800000Y-94492500D03*
X212800000Y-95762500D03*
X212800000Y-97032500D03*
X212800000Y-98302500D03*
X212800000Y-99572500D03*
X212800000Y-100842500D03*
X212800000Y-102112500D03*
D12*
X149567500Y-53367500D03*
X144567500Y-53367500D03*
D11*
X172240000Y-115977500D03*
X167540000Y-134477500D03*
X167540000Y-127477500D03*
X167540000Y-115977500D03*
X156757500Y-77607500D03*
X156757500Y-66107500D03*
X156757500Y-59107500D03*
X152057500Y-77607500D03*
D12*
X189527500Y-53367500D03*
X184527500Y-53367500D03*
X159527500Y-53367500D03*
X154527500Y-53367500D03*
X146260000Y-92880000D03*
X146260000Y-97880000D03*
D11*
X226975000Y-115985000D03*
X222275000Y-134485000D03*
X222275000Y-127485000D03*
X222275000Y-115985000D03*
D12*
X169470000Y-140180000D03*
X164470000Y-140180000D03*
D20*
X247330000Y-108260000D03*
D21*
X244790000Y-108260000D03*
X242250000Y-108260000D03*
X239710000Y-108260000D03*
D13*
X203610000Y-103315000D03*
X203610000Y-104965000D03*
D14*
X206460000Y-92965000D03*
X206460000Y-91315000D03*
D25*
X246980000Y-85180000D03*
D26*
X246980000Y-83910000D03*
D11*
X195857500Y-77615000D03*
X195857500Y-66115000D03*
X195857500Y-59115000D03*
X191157500Y-77615000D03*
D14*
X204990000Y-92965000D03*
X204990000Y-91315000D03*
D13*
X244400000Y-84215000D03*
X244400000Y-85865000D03*
D11*
X234922500Y-77617500D03*
X234922500Y-66117500D03*
X234922500Y-59117500D03*
X230222500Y-77617500D03*
X238042500Y-77645000D03*
X242742500Y-59145000D03*
X242742500Y-66145000D03*
X242742500Y-77645000D03*
D12*
X179517500Y-53367500D03*
X174517500Y-53367500D03*
D11*
X250425000Y-115980000D03*
X245725000Y-134480000D03*
X245725000Y-127480000D03*
X245725000Y-115980000D03*
X156610000Y-115947500D03*
X151910000Y-134447500D03*
X151910000Y-127447500D03*
X151910000Y-115947500D03*
D19*
X236335000Y-102280000D03*
X234785000Y-102280000D03*
D13*
X241440000Y-110555000D03*
X241440000Y-112205000D03*
D12*
X199480000Y-140180000D03*
X194480000Y-140180000D03*
D11*
X148962500Y-77605000D03*
X148962500Y-66105000D03*
X148962500Y-59105000D03*
X144262500Y-77605000D03*
X211490000Y-77612500D03*
X211490000Y-66112500D03*
X211490000Y-59112500D03*
X206790000Y-77612500D03*
D27*
X192920000Y-89800000D03*
X194570000Y-89800000D03*
D12*
X199527500Y-53367500D03*
X194527500Y-53367500D03*
D27*
X236405000Y-104000000D03*
X238055000Y-104000000D03*
D13*
X202092223Y-103315000D03*
X202092223Y-104965000D03*
D12*
X159470000Y-140180000D03*
X154470000Y-140180000D03*
X219490000Y-140160000D03*
X214490000Y-140160000D03*
D11*
X203652500Y-77617500D03*
X203652500Y-66117500D03*
X203652500Y-59117500D03*
X198952500Y-77617500D03*
M02*
