G04 #@! TF.GenerationSoftware,KiCad,Pcbnew,8.0.6-8.0.6-0~ubuntu20.04.1*
G04 #@! TF.CreationDate,2024-11-10T22:02:34+01:00*
G04 #@! TF.ProjectId,home_auto,686f6d65-5f61-4757-946f-2e6b69636164,rev?*
G04 #@! TF.SameCoordinates,Original*
G04 #@! TF.FileFunction,Legend,Top*
G04 #@! TF.FilePolarity,Positive*
%FSLAX46Y46*%
G04 Gerber Fmt 4.6, Leading zero omitted, Abs format (unit mm)*
G04 Created by KiCad (PCBNEW 8.0.6-8.0.6-0~ubuntu20.04.1) date 2024-11-10 22:02:34*
%MOMM*%
%LPD*%
G01*
G04 APERTURE LIST*
G04 Aperture macros list*
%AMRoundRect*
0 Rectangle with rounded corners*
0 $1 Rounding radius*
0 $2 $3 $4 $5 $6 $7 $8 $9 X,Y pos of 4 corners*
0 Add a 4 corners polygon primitive as box body*
4,1,4,$2,$3,$4,$5,$6,$7,$8,$9,$2,$3,0*
0 Add four circle primitives for the rounded corners*
1,1,$1+$1,$2,$3*
1,1,$1+$1,$4,$5*
1,1,$1+$1,$6,$7*
1,1,$1+$1,$8,$9*
0 Add four rect primitives between the rounded corners*
20,1,$1+$1,$2,$3,$4,$5,0*
20,1,$1+$1,$4,$5,$6,$7,0*
20,1,$1+$1,$6,$7,$8,$9,0*
20,1,$1+$1,$8,$9,$2,$3,0*%
G04 Aperture macros list end*
%ADD10C,0.150000*%
%ADD11C,0.254000*%
%ADD12C,0.100000*%
%ADD13C,0.120000*%
%ADD14C,0.200000*%
%ADD15RoundRect,0.250000X0.262500X0.450000X-0.262500X0.450000X-0.262500X-0.450000X0.262500X-0.450000X0*%
%ADD16C,1.650000*%
%ADD17C,1.950000*%
%ADD18RoundRect,0.200000X-0.275000X0.200000X-0.275000X-0.200000X0.275000X-0.200000X0.275000X0.200000X0*%
%ADD19RoundRect,0.200000X0.275000X-0.200000X0.275000X0.200000X-0.275000X0.200000X-0.275000X-0.200000X0*%
%ADD20R,0.900000X1.500000*%
%ADD21C,0.600000*%
%ADD22R,2.900000X2.900000*%
%ADD23R,3.150000X1.000000*%
%ADD24RoundRect,0.225000X0.225000X0.250000X-0.225000X0.250000X-0.225000X-0.250000X0.225000X-0.250000X0*%
%ADD25R,1.700000X1.700000*%
%ADD26O,1.700000X1.700000*%
%ADD27R,1.400000X1.600000*%
%ADD28RoundRect,0.225000X0.250000X-0.225000X0.250000X0.225000X-0.250000X0.225000X-0.250000X-0.225000X0*%
%ADD29R,3.150000X2.200000*%
%ADD30R,1.000000X1.000000*%
%ADD31O,1.000000X1.000000*%
%ADD32RoundRect,0.200000X-0.200000X-0.275000X0.200000X-0.275000X0.200000X0.275000X-0.200000X0.275000X0*%
G04 APERTURE END LIST*
D10*
X210237142Y-93534819D02*
X209903809Y-93058628D01*
X209665714Y-93534819D02*
X209665714Y-92534819D01*
X209665714Y-92534819D02*
X210046666Y-92534819D01*
X210046666Y-92534819D02*
X210141904Y-92582438D01*
X210141904Y-92582438D02*
X210189523Y-92630057D01*
X210189523Y-92630057D02*
X210237142Y-92725295D01*
X210237142Y-92725295D02*
X210237142Y-92868152D01*
X210237142Y-92868152D02*
X210189523Y-92963390D01*
X210189523Y-92963390D02*
X210141904Y-93011009D01*
X210141904Y-93011009D02*
X210046666Y-93058628D01*
X210046666Y-93058628D02*
X209665714Y-93058628D01*
X210618095Y-92630057D02*
X210665714Y-92582438D01*
X210665714Y-92582438D02*
X210760952Y-92534819D01*
X210760952Y-92534819D02*
X210999047Y-92534819D01*
X210999047Y-92534819D02*
X211094285Y-92582438D01*
X211094285Y-92582438D02*
X211141904Y-92630057D01*
X211141904Y-92630057D02*
X211189523Y-92725295D01*
X211189523Y-92725295D02*
X211189523Y-92820533D01*
X211189523Y-92820533D02*
X211141904Y-92963390D01*
X211141904Y-92963390D02*
X210570476Y-93534819D01*
X210570476Y-93534819D02*
X211189523Y-93534819D01*
X212141904Y-93534819D02*
X211570476Y-93534819D01*
X211856190Y-93534819D02*
X211856190Y-92534819D01*
X211856190Y-92534819D02*
X211760952Y-92677676D01*
X211760952Y-92677676D02*
X211665714Y-92772914D01*
X211665714Y-92772914D02*
X211570476Y-92820533D01*
D11*
X178364318Y-127482143D02*
X177094318Y-127482143D01*
X178364318Y-126756428D02*
X177638603Y-127300714D01*
X177094318Y-126756428D02*
X177820032Y-127482143D01*
X177215270Y-126272619D02*
X177154794Y-126212143D01*
X177154794Y-126212143D02*
X177094318Y-126091190D01*
X177094318Y-126091190D02*
X177094318Y-125788809D01*
X177094318Y-125788809D02*
X177154794Y-125667857D01*
X177154794Y-125667857D02*
X177215270Y-125607381D01*
X177215270Y-125607381D02*
X177336222Y-125546904D01*
X177336222Y-125546904D02*
X177457175Y-125546904D01*
X177457175Y-125546904D02*
X177638603Y-125607381D01*
X177638603Y-125607381D02*
X178364318Y-126333095D01*
X178364318Y-126333095D02*
X178364318Y-125546904D01*
X177517651Y-124458333D02*
X178364318Y-124458333D01*
X177033842Y-124760714D02*
X177940984Y-125063095D01*
X177940984Y-125063095D02*
X177940984Y-124276904D01*
D10*
X205594819Y-101896666D02*
X205118628Y-102229999D01*
X205594819Y-102468094D02*
X204594819Y-102468094D01*
X204594819Y-102468094D02*
X204594819Y-102087142D01*
X204594819Y-102087142D02*
X204642438Y-101991904D01*
X204642438Y-101991904D02*
X204690057Y-101944285D01*
X204690057Y-101944285D02*
X204785295Y-101896666D01*
X204785295Y-101896666D02*
X204928152Y-101896666D01*
X204928152Y-101896666D02*
X205023390Y-101944285D01*
X205023390Y-101944285D02*
X205071009Y-101991904D01*
X205071009Y-101991904D02*
X205118628Y-102087142D01*
X205118628Y-102087142D02*
X205118628Y-102468094D01*
X205023390Y-101325237D02*
X204975771Y-101420475D01*
X204975771Y-101420475D02*
X204928152Y-101468094D01*
X204928152Y-101468094D02*
X204832914Y-101515713D01*
X204832914Y-101515713D02*
X204785295Y-101515713D01*
X204785295Y-101515713D02*
X204690057Y-101468094D01*
X204690057Y-101468094D02*
X204642438Y-101420475D01*
X204642438Y-101420475D02*
X204594819Y-101325237D01*
X204594819Y-101325237D02*
X204594819Y-101134761D01*
X204594819Y-101134761D02*
X204642438Y-101039523D01*
X204642438Y-101039523D02*
X204690057Y-100991904D01*
X204690057Y-100991904D02*
X204785295Y-100944285D01*
X204785295Y-100944285D02*
X204832914Y-100944285D01*
X204832914Y-100944285D02*
X204928152Y-100991904D01*
X204928152Y-100991904D02*
X204975771Y-101039523D01*
X204975771Y-101039523D02*
X205023390Y-101134761D01*
X205023390Y-101134761D02*
X205023390Y-101325237D01*
X205023390Y-101325237D02*
X205071009Y-101420475D01*
X205071009Y-101420475D02*
X205118628Y-101468094D01*
X205118628Y-101468094D02*
X205213866Y-101515713D01*
X205213866Y-101515713D02*
X205404342Y-101515713D01*
X205404342Y-101515713D02*
X205499580Y-101468094D01*
X205499580Y-101468094D02*
X205547200Y-101420475D01*
X205547200Y-101420475D02*
X205594819Y-101325237D01*
X205594819Y-101325237D02*
X205594819Y-101134761D01*
X205594819Y-101134761D02*
X205547200Y-101039523D01*
X205547200Y-101039523D02*
X205499580Y-100991904D01*
X205499580Y-100991904D02*
X205404342Y-100944285D01*
X205404342Y-100944285D02*
X205213866Y-100944285D01*
X205213866Y-100944285D02*
X205118628Y-100991904D01*
X205118628Y-100991904D02*
X205071009Y-101039523D01*
X205071009Y-101039523D02*
X205023390Y-101134761D01*
X202614819Y-95857857D02*
X202138628Y-96191190D01*
X202614819Y-96429285D02*
X201614819Y-96429285D01*
X201614819Y-96429285D02*
X201614819Y-96048333D01*
X201614819Y-96048333D02*
X201662438Y-95953095D01*
X201662438Y-95953095D02*
X201710057Y-95905476D01*
X201710057Y-95905476D02*
X201805295Y-95857857D01*
X201805295Y-95857857D02*
X201948152Y-95857857D01*
X201948152Y-95857857D02*
X202043390Y-95905476D01*
X202043390Y-95905476D02*
X202091009Y-95953095D01*
X202091009Y-95953095D02*
X202138628Y-96048333D01*
X202138628Y-96048333D02*
X202138628Y-96429285D01*
X202614819Y-94905476D02*
X202614819Y-95476904D01*
X202614819Y-95191190D02*
X201614819Y-95191190D01*
X201614819Y-95191190D02*
X201757676Y-95286428D01*
X201757676Y-95286428D02*
X201852914Y-95381666D01*
X201852914Y-95381666D02*
X201900533Y-95476904D01*
X201614819Y-94000714D02*
X201614819Y-94476904D01*
X201614819Y-94476904D02*
X202091009Y-94524523D01*
X202091009Y-94524523D02*
X202043390Y-94476904D01*
X202043390Y-94476904D02*
X201995771Y-94381666D01*
X201995771Y-94381666D02*
X201995771Y-94143571D01*
X201995771Y-94143571D02*
X202043390Y-94048333D01*
X202043390Y-94048333D02*
X202091009Y-94000714D01*
X202091009Y-94000714D02*
X202186247Y-93953095D01*
X202186247Y-93953095D02*
X202424342Y-93953095D01*
X202424342Y-93953095D02*
X202519580Y-94000714D01*
X202519580Y-94000714D02*
X202567200Y-94048333D01*
X202567200Y-94048333D02*
X202614819Y-94143571D01*
X202614819Y-94143571D02*
X202614819Y-94381666D01*
X202614819Y-94381666D02*
X202567200Y-94476904D01*
X202567200Y-94476904D02*
X202519580Y-94524523D01*
X197974819Y-95742857D02*
X197498628Y-96076190D01*
X197974819Y-96314285D02*
X196974819Y-96314285D01*
X196974819Y-96314285D02*
X196974819Y-95933333D01*
X196974819Y-95933333D02*
X197022438Y-95838095D01*
X197022438Y-95838095D02*
X197070057Y-95790476D01*
X197070057Y-95790476D02*
X197165295Y-95742857D01*
X197165295Y-95742857D02*
X197308152Y-95742857D01*
X197308152Y-95742857D02*
X197403390Y-95790476D01*
X197403390Y-95790476D02*
X197451009Y-95838095D01*
X197451009Y-95838095D02*
X197498628Y-95933333D01*
X197498628Y-95933333D02*
X197498628Y-96314285D01*
X197974819Y-94790476D02*
X197974819Y-95361904D01*
X197974819Y-95076190D02*
X196974819Y-95076190D01*
X196974819Y-95076190D02*
X197117676Y-95171428D01*
X197117676Y-95171428D02*
X197212914Y-95266666D01*
X197212914Y-95266666D02*
X197260533Y-95361904D01*
X197403390Y-94219047D02*
X197355771Y-94314285D01*
X197355771Y-94314285D02*
X197308152Y-94361904D01*
X197308152Y-94361904D02*
X197212914Y-94409523D01*
X197212914Y-94409523D02*
X197165295Y-94409523D01*
X197165295Y-94409523D02*
X197070057Y-94361904D01*
X197070057Y-94361904D02*
X197022438Y-94314285D01*
X197022438Y-94314285D02*
X196974819Y-94219047D01*
X196974819Y-94219047D02*
X196974819Y-94028571D01*
X196974819Y-94028571D02*
X197022438Y-93933333D01*
X197022438Y-93933333D02*
X197070057Y-93885714D01*
X197070057Y-93885714D02*
X197165295Y-93838095D01*
X197165295Y-93838095D02*
X197212914Y-93838095D01*
X197212914Y-93838095D02*
X197308152Y-93885714D01*
X197308152Y-93885714D02*
X197355771Y-93933333D01*
X197355771Y-93933333D02*
X197403390Y-94028571D01*
X197403390Y-94028571D02*
X197403390Y-94219047D01*
X197403390Y-94219047D02*
X197451009Y-94314285D01*
X197451009Y-94314285D02*
X197498628Y-94361904D01*
X197498628Y-94361904D02*
X197593866Y-94409523D01*
X197593866Y-94409523D02*
X197784342Y-94409523D01*
X197784342Y-94409523D02*
X197879580Y-94361904D01*
X197879580Y-94361904D02*
X197927200Y-94314285D01*
X197927200Y-94314285D02*
X197974819Y-94219047D01*
X197974819Y-94219047D02*
X197974819Y-94028571D01*
X197974819Y-94028571D02*
X197927200Y-93933333D01*
X197927200Y-93933333D02*
X197879580Y-93885714D01*
X197879580Y-93885714D02*
X197784342Y-93838095D01*
X197784342Y-93838095D02*
X197593866Y-93838095D01*
X197593866Y-93838095D02*
X197498628Y-93885714D01*
X197498628Y-93885714D02*
X197451009Y-93933333D01*
X197451009Y-93933333D02*
X197403390Y-94028571D01*
X240908095Y-85434819D02*
X240908095Y-86244342D01*
X240908095Y-86244342D02*
X240955714Y-86339580D01*
X240955714Y-86339580D02*
X241003333Y-86387200D01*
X241003333Y-86387200D02*
X241098571Y-86434819D01*
X241098571Y-86434819D02*
X241289047Y-86434819D01*
X241289047Y-86434819D02*
X241384285Y-86387200D01*
X241384285Y-86387200D02*
X241431904Y-86339580D01*
X241431904Y-86339580D02*
X241479523Y-86244342D01*
X241479523Y-86244342D02*
X241479523Y-85434819D01*
X241908095Y-85530057D02*
X241955714Y-85482438D01*
X241955714Y-85482438D02*
X242050952Y-85434819D01*
X242050952Y-85434819D02*
X242289047Y-85434819D01*
X242289047Y-85434819D02*
X242384285Y-85482438D01*
X242384285Y-85482438D02*
X242431904Y-85530057D01*
X242431904Y-85530057D02*
X242479523Y-85625295D01*
X242479523Y-85625295D02*
X242479523Y-85720533D01*
X242479523Y-85720533D02*
X242431904Y-85863390D01*
X242431904Y-85863390D02*
X241860476Y-86434819D01*
X241860476Y-86434819D02*
X242479523Y-86434819D01*
D11*
X217744318Y-127762143D02*
X216474318Y-127762143D01*
X217744318Y-127036428D02*
X217018603Y-127580714D01*
X216474318Y-127036428D02*
X217200032Y-127762143D01*
X217744318Y-125826904D02*
X217744318Y-126552619D01*
X217744318Y-126189762D02*
X216474318Y-126189762D01*
X216474318Y-126189762D02*
X216655746Y-126310714D01*
X216655746Y-126310714D02*
X216776699Y-126431666D01*
X216776699Y-126431666D02*
X216837175Y-126552619D01*
X217744318Y-125222142D02*
X217744318Y-124980238D01*
X217744318Y-124980238D02*
X217683842Y-124859285D01*
X217683842Y-124859285D02*
X217623365Y-124798809D01*
X217623365Y-124798809D02*
X217441937Y-124677857D01*
X217441937Y-124677857D02*
X217200032Y-124617380D01*
X217200032Y-124617380D02*
X216716222Y-124617380D01*
X216716222Y-124617380D02*
X216595270Y-124677857D01*
X216595270Y-124677857D02*
X216534794Y-124738333D01*
X216534794Y-124738333D02*
X216474318Y-124859285D01*
X216474318Y-124859285D02*
X216474318Y-125101190D01*
X216474318Y-125101190D02*
X216534794Y-125222142D01*
X216534794Y-125222142D02*
X216595270Y-125282619D01*
X216595270Y-125282619D02*
X216716222Y-125343095D01*
X216716222Y-125343095D02*
X217018603Y-125343095D01*
X217018603Y-125343095D02*
X217139556Y-125282619D01*
X217139556Y-125282619D02*
X217200032Y-125222142D01*
X217200032Y-125222142D02*
X217260508Y-125101190D01*
X217260508Y-125101190D02*
X217260508Y-124859285D01*
X217260508Y-124859285D02*
X217200032Y-124738333D01*
X217200032Y-124738333D02*
X217139556Y-124677857D01*
X217139556Y-124677857D02*
X217018603Y-124617380D01*
D10*
X162691666Y-82014819D02*
X162691666Y-82729104D01*
X162691666Y-82729104D02*
X162644047Y-82871961D01*
X162644047Y-82871961D02*
X162548809Y-82967200D01*
X162548809Y-82967200D02*
X162405952Y-83014819D01*
X162405952Y-83014819D02*
X162310714Y-83014819D01*
X163644047Y-82014819D02*
X163167857Y-82014819D01*
X163167857Y-82014819D02*
X163120238Y-82491009D01*
X163120238Y-82491009D02*
X163167857Y-82443390D01*
X163167857Y-82443390D02*
X163263095Y-82395771D01*
X163263095Y-82395771D02*
X163501190Y-82395771D01*
X163501190Y-82395771D02*
X163596428Y-82443390D01*
X163596428Y-82443390D02*
X163644047Y-82491009D01*
X163644047Y-82491009D02*
X163691666Y-82586247D01*
X163691666Y-82586247D02*
X163691666Y-82824342D01*
X163691666Y-82824342D02*
X163644047Y-82919580D01*
X163644047Y-82919580D02*
X163596428Y-82967200D01*
X163596428Y-82967200D02*
X163501190Y-83014819D01*
X163501190Y-83014819D02*
X163263095Y-83014819D01*
X163263095Y-83014819D02*
X163167857Y-82967200D01*
X163167857Y-82967200D02*
X163120238Y-82919580D01*
X208504819Y-95757857D02*
X208028628Y-96091190D01*
X208504819Y-96329285D02*
X207504819Y-96329285D01*
X207504819Y-96329285D02*
X207504819Y-95948333D01*
X207504819Y-95948333D02*
X207552438Y-95853095D01*
X207552438Y-95853095D02*
X207600057Y-95805476D01*
X207600057Y-95805476D02*
X207695295Y-95757857D01*
X207695295Y-95757857D02*
X207838152Y-95757857D01*
X207838152Y-95757857D02*
X207933390Y-95805476D01*
X207933390Y-95805476D02*
X207981009Y-95853095D01*
X207981009Y-95853095D02*
X208028628Y-95948333D01*
X208028628Y-95948333D02*
X208028628Y-96329285D01*
X208504819Y-94805476D02*
X208504819Y-95376904D01*
X208504819Y-95091190D02*
X207504819Y-95091190D01*
X207504819Y-95091190D02*
X207647676Y-95186428D01*
X207647676Y-95186428D02*
X207742914Y-95281666D01*
X207742914Y-95281666D02*
X207790533Y-95376904D01*
X208504819Y-93853095D02*
X208504819Y-94424523D01*
X208504819Y-94138809D02*
X207504819Y-94138809D01*
X207504819Y-94138809D02*
X207647676Y-94234047D01*
X207647676Y-94234047D02*
X207742914Y-94329285D01*
X207742914Y-94329285D02*
X207790533Y-94424523D01*
X197894819Y-101861666D02*
X197418628Y-102194999D01*
X197894819Y-102433094D02*
X196894819Y-102433094D01*
X196894819Y-102433094D02*
X196894819Y-102052142D01*
X196894819Y-102052142D02*
X196942438Y-101956904D01*
X196942438Y-101956904D02*
X196990057Y-101909285D01*
X196990057Y-101909285D02*
X197085295Y-101861666D01*
X197085295Y-101861666D02*
X197228152Y-101861666D01*
X197228152Y-101861666D02*
X197323390Y-101909285D01*
X197323390Y-101909285D02*
X197371009Y-101956904D01*
X197371009Y-101956904D02*
X197418628Y-102052142D01*
X197418628Y-102052142D02*
X197418628Y-102433094D01*
X196894819Y-101528332D02*
X196894819Y-100909285D01*
X196894819Y-100909285D02*
X197275771Y-101242618D01*
X197275771Y-101242618D02*
X197275771Y-101099761D01*
X197275771Y-101099761D02*
X197323390Y-101004523D01*
X197323390Y-101004523D02*
X197371009Y-100956904D01*
X197371009Y-100956904D02*
X197466247Y-100909285D01*
X197466247Y-100909285D02*
X197704342Y-100909285D01*
X197704342Y-100909285D02*
X197799580Y-100956904D01*
X197799580Y-100956904D02*
X197847200Y-101004523D01*
X197847200Y-101004523D02*
X197894819Y-101099761D01*
X197894819Y-101099761D02*
X197894819Y-101385475D01*
X197894819Y-101385475D02*
X197847200Y-101480713D01*
X197847200Y-101480713D02*
X197799580Y-101528332D01*
X208554819Y-101872857D02*
X208078628Y-102206190D01*
X208554819Y-102444285D02*
X207554819Y-102444285D01*
X207554819Y-102444285D02*
X207554819Y-102063333D01*
X207554819Y-102063333D02*
X207602438Y-101968095D01*
X207602438Y-101968095D02*
X207650057Y-101920476D01*
X207650057Y-101920476D02*
X207745295Y-101872857D01*
X207745295Y-101872857D02*
X207888152Y-101872857D01*
X207888152Y-101872857D02*
X207983390Y-101920476D01*
X207983390Y-101920476D02*
X208031009Y-101968095D01*
X208031009Y-101968095D02*
X208078628Y-102063333D01*
X208078628Y-102063333D02*
X208078628Y-102444285D01*
X208554819Y-100920476D02*
X208554819Y-101491904D01*
X208554819Y-101206190D02*
X207554819Y-101206190D01*
X207554819Y-101206190D02*
X207697676Y-101301428D01*
X207697676Y-101301428D02*
X207792914Y-101396666D01*
X207792914Y-101396666D02*
X207840533Y-101491904D01*
X207554819Y-100301428D02*
X207554819Y-100206190D01*
X207554819Y-100206190D02*
X207602438Y-100110952D01*
X207602438Y-100110952D02*
X207650057Y-100063333D01*
X207650057Y-100063333D02*
X207745295Y-100015714D01*
X207745295Y-100015714D02*
X207935771Y-99968095D01*
X207935771Y-99968095D02*
X208173866Y-99968095D01*
X208173866Y-99968095D02*
X208364342Y-100015714D01*
X208364342Y-100015714D02*
X208459580Y-100063333D01*
X208459580Y-100063333D02*
X208507200Y-100110952D01*
X208507200Y-100110952D02*
X208554819Y-100206190D01*
X208554819Y-100206190D02*
X208554819Y-100301428D01*
X208554819Y-100301428D02*
X208507200Y-100396666D01*
X208507200Y-100396666D02*
X208459580Y-100444285D01*
X208459580Y-100444285D02*
X208364342Y-100491904D01*
X208364342Y-100491904D02*
X208173866Y-100539523D01*
X208173866Y-100539523D02*
X207935771Y-100539523D01*
X207935771Y-100539523D02*
X207745295Y-100491904D01*
X207745295Y-100491904D02*
X207650057Y-100444285D01*
X207650057Y-100444285D02*
X207602438Y-100396666D01*
X207602438Y-100396666D02*
X207554819Y-100301428D01*
X200929265Y-101861666D02*
X200453074Y-102194999D01*
X200929265Y-102433094D02*
X199929265Y-102433094D01*
X199929265Y-102433094D02*
X199929265Y-102052142D01*
X199929265Y-102052142D02*
X199976884Y-101956904D01*
X199976884Y-101956904D02*
X200024503Y-101909285D01*
X200024503Y-101909285D02*
X200119741Y-101861666D01*
X200119741Y-101861666D02*
X200262598Y-101861666D01*
X200262598Y-101861666D02*
X200357836Y-101909285D01*
X200357836Y-101909285D02*
X200405455Y-101956904D01*
X200405455Y-101956904D02*
X200453074Y-102052142D01*
X200453074Y-102052142D02*
X200453074Y-102433094D01*
X199929265Y-100956904D02*
X199929265Y-101433094D01*
X199929265Y-101433094D02*
X200405455Y-101480713D01*
X200405455Y-101480713D02*
X200357836Y-101433094D01*
X200357836Y-101433094D02*
X200310217Y-101337856D01*
X200310217Y-101337856D02*
X200310217Y-101099761D01*
X200310217Y-101099761D02*
X200357836Y-101004523D01*
X200357836Y-101004523D02*
X200405455Y-100956904D01*
X200405455Y-100956904D02*
X200500693Y-100909285D01*
X200500693Y-100909285D02*
X200738788Y-100909285D01*
X200738788Y-100909285D02*
X200834026Y-100956904D01*
X200834026Y-100956904D02*
X200881646Y-101004523D01*
X200881646Y-101004523D02*
X200929265Y-101099761D01*
X200929265Y-101099761D02*
X200929265Y-101337856D01*
X200929265Y-101337856D02*
X200881646Y-101433094D01*
X200881646Y-101433094D02*
X200834026Y-101480713D01*
D11*
X217509318Y-69352381D02*
X216239318Y-69352381D01*
X217509318Y-68626666D02*
X216783603Y-69170952D01*
X216239318Y-68626666D02*
X216965032Y-69352381D01*
X216662651Y-67538095D02*
X217509318Y-67538095D01*
X216178842Y-67840476D02*
X217085984Y-68142857D01*
X217085984Y-68142857D02*
X217085984Y-67356666D01*
X186084318Y-127362143D02*
X184814318Y-127362143D01*
X186084318Y-126636428D02*
X185358603Y-127180714D01*
X184814318Y-126636428D02*
X185540032Y-127362143D01*
X184935270Y-126152619D02*
X184874794Y-126092143D01*
X184874794Y-126092143D02*
X184814318Y-125971190D01*
X184814318Y-125971190D02*
X184814318Y-125668809D01*
X184814318Y-125668809D02*
X184874794Y-125547857D01*
X184874794Y-125547857D02*
X184935270Y-125487381D01*
X184935270Y-125487381D02*
X185056222Y-125426904D01*
X185056222Y-125426904D02*
X185177175Y-125426904D01*
X185177175Y-125426904D02*
X185358603Y-125487381D01*
X185358603Y-125487381D02*
X186084318Y-126213095D01*
X186084318Y-126213095D02*
X186084318Y-125426904D01*
X184814318Y-125003571D02*
X184814318Y-124217380D01*
X184814318Y-124217380D02*
X185298127Y-124640714D01*
X185298127Y-124640714D02*
X185298127Y-124459285D01*
X185298127Y-124459285D02*
X185358603Y-124338333D01*
X185358603Y-124338333D02*
X185419080Y-124277857D01*
X185419080Y-124277857D02*
X185540032Y-124217380D01*
X185540032Y-124217380D02*
X185842413Y-124217380D01*
X185842413Y-124217380D02*
X185963365Y-124277857D01*
X185963365Y-124277857D02*
X186023842Y-124338333D01*
X186023842Y-124338333D02*
X186084318Y-124459285D01*
X186084318Y-124459285D02*
X186084318Y-124822142D01*
X186084318Y-124822142D02*
X186023842Y-124943095D01*
X186023842Y-124943095D02*
X185963365Y-125003571D01*
D10*
X194858157Y-101861666D02*
X194381966Y-102194999D01*
X194858157Y-102433094D02*
X193858157Y-102433094D01*
X193858157Y-102433094D02*
X193858157Y-102052142D01*
X193858157Y-102052142D02*
X193905776Y-101956904D01*
X193905776Y-101956904D02*
X193953395Y-101909285D01*
X193953395Y-101909285D02*
X194048633Y-101861666D01*
X194048633Y-101861666D02*
X194191490Y-101861666D01*
X194191490Y-101861666D02*
X194286728Y-101909285D01*
X194286728Y-101909285D02*
X194334347Y-101956904D01*
X194334347Y-101956904D02*
X194381966Y-102052142D01*
X194381966Y-102052142D02*
X194381966Y-102433094D01*
X194858157Y-100909285D02*
X194858157Y-101480713D01*
X194858157Y-101194999D02*
X193858157Y-101194999D01*
X193858157Y-101194999D02*
X194001014Y-101290237D01*
X194001014Y-101290237D02*
X194096252Y-101385475D01*
X194096252Y-101385475D02*
X194143871Y-101480713D01*
X196464819Y-101906666D02*
X195988628Y-102239999D01*
X196464819Y-102478094D02*
X195464819Y-102478094D01*
X195464819Y-102478094D02*
X195464819Y-102097142D01*
X195464819Y-102097142D02*
X195512438Y-102001904D01*
X195512438Y-102001904D02*
X195560057Y-101954285D01*
X195560057Y-101954285D02*
X195655295Y-101906666D01*
X195655295Y-101906666D02*
X195798152Y-101906666D01*
X195798152Y-101906666D02*
X195893390Y-101954285D01*
X195893390Y-101954285D02*
X195941009Y-102001904D01*
X195941009Y-102001904D02*
X195988628Y-102097142D01*
X195988628Y-102097142D02*
X195988628Y-102478094D01*
X195560057Y-101525713D02*
X195512438Y-101478094D01*
X195512438Y-101478094D02*
X195464819Y-101382856D01*
X195464819Y-101382856D02*
X195464819Y-101144761D01*
X195464819Y-101144761D02*
X195512438Y-101049523D01*
X195512438Y-101049523D02*
X195560057Y-101001904D01*
X195560057Y-101001904D02*
X195655295Y-100954285D01*
X195655295Y-100954285D02*
X195750533Y-100954285D01*
X195750533Y-100954285D02*
X195893390Y-101001904D01*
X195893390Y-101001904D02*
X196464819Y-101573332D01*
X196464819Y-101573332D02*
X196464819Y-100954285D01*
X199514819Y-101676666D02*
X199038628Y-102009999D01*
X199514819Y-102248094D02*
X198514819Y-102248094D01*
X198514819Y-102248094D02*
X198514819Y-101867142D01*
X198514819Y-101867142D02*
X198562438Y-101771904D01*
X198562438Y-101771904D02*
X198610057Y-101724285D01*
X198610057Y-101724285D02*
X198705295Y-101676666D01*
X198705295Y-101676666D02*
X198848152Y-101676666D01*
X198848152Y-101676666D02*
X198943390Y-101724285D01*
X198943390Y-101724285D02*
X198991009Y-101771904D01*
X198991009Y-101771904D02*
X199038628Y-101867142D01*
X199038628Y-101867142D02*
X199038628Y-102248094D01*
X198848152Y-100819523D02*
X199514819Y-100819523D01*
X198467200Y-101057618D02*
X199181485Y-101295713D01*
X199181485Y-101295713D02*
X199181485Y-100676666D01*
X244954819Y-112032857D02*
X244478628Y-112366190D01*
X244954819Y-112604285D02*
X243954819Y-112604285D01*
X243954819Y-112604285D02*
X243954819Y-112223333D01*
X243954819Y-112223333D02*
X244002438Y-112128095D01*
X244002438Y-112128095D02*
X244050057Y-112080476D01*
X244050057Y-112080476D02*
X244145295Y-112032857D01*
X244145295Y-112032857D02*
X244288152Y-112032857D01*
X244288152Y-112032857D02*
X244383390Y-112080476D01*
X244383390Y-112080476D02*
X244431009Y-112128095D01*
X244431009Y-112128095D02*
X244478628Y-112223333D01*
X244478628Y-112223333D02*
X244478628Y-112604285D01*
X243954819Y-111128095D02*
X243954819Y-111604285D01*
X243954819Y-111604285D02*
X244431009Y-111651904D01*
X244431009Y-111651904D02*
X244383390Y-111604285D01*
X244383390Y-111604285D02*
X244335771Y-111509047D01*
X244335771Y-111509047D02*
X244335771Y-111270952D01*
X244335771Y-111270952D02*
X244383390Y-111175714D01*
X244383390Y-111175714D02*
X244431009Y-111128095D01*
X244431009Y-111128095D02*
X244526247Y-111080476D01*
X244526247Y-111080476D02*
X244764342Y-111080476D01*
X244764342Y-111080476D02*
X244859580Y-111128095D01*
X244859580Y-111128095D02*
X244907200Y-111175714D01*
X244907200Y-111175714D02*
X244954819Y-111270952D01*
X244954819Y-111270952D02*
X244954819Y-111509047D01*
X244954819Y-111509047D02*
X244907200Y-111604285D01*
X244907200Y-111604285D02*
X244859580Y-111651904D01*
X243954819Y-110747142D02*
X243954819Y-110128095D01*
X243954819Y-110128095D02*
X244335771Y-110461428D01*
X244335771Y-110461428D02*
X244335771Y-110318571D01*
X244335771Y-110318571D02*
X244383390Y-110223333D01*
X244383390Y-110223333D02*
X244431009Y-110175714D01*
X244431009Y-110175714D02*
X244526247Y-110128095D01*
X244526247Y-110128095D02*
X244764342Y-110128095D01*
X244764342Y-110128095D02*
X244859580Y-110175714D01*
X244859580Y-110175714D02*
X244907200Y-110223333D01*
X244907200Y-110223333D02*
X244954819Y-110318571D01*
X244954819Y-110318571D02*
X244954819Y-110604285D01*
X244954819Y-110604285D02*
X244907200Y-110699523D01*
X244907200Y-110699523D02*
X244859580Y-110747142D01*
X233043333Y-101209580D02*
X232995714Y-101257200D01*
X232995714Y-101257200D02*
X232852857Y-101304819D01*
X232852857Y-101304819D02*
X232757619Y-101304819D01*
X232757619Y-101304819D02*
X232614762Y-101257200D01*
X232614762Y-101257200D02*
X232519524Y-101161961D01*
X232519524Y-101161961D02*
X232471905Y-101066723D01*
X232471905Y-101066723D02*
X232424286Y-100876247D01*
X232424286Y-100876247D02*
X232424286Y-100733390D01*
X232424286Y-100733390D02*
X232471905Y-100542914D01*
X232471905Y-100542914D02*
X232519524Y-100447676D01*
X232519524Y-100447676D02*
X232614762Y-100352438D01*
X232614762Y-100352438D02*
X232757619Y-100304819D01*
X232757619Y-100304819D02*
X232852857Y-100304819D01*
X232852857Y-100304819D02*
X232995714Y-100352438D01*
X232995714Y-100352438D02*
X233043333Y-100400057D01*
X233995714Y-101304819D02*
X233424286Y-101304819D01*
X233710000Y-101304819D02*
X233710000Y-100304819D01*
X233710000Y-100304819D02*
X233614762Y-100447676D01*
X233614762Y-100447676D02*
X233519524Y-100542914D01*
X233519524Y-100542914D02*
X233424286Y-100590533D01*
X229776666Y-84984819D02*
X229776666Y-85699104D01*
X229776666Y-85699104D02*
X229729047Y-85841961D01*
X229729047Y-85841961D02*
X229633809Y-85937200D01*
X229633809Y-85937200D02*
X229490952Y-85984819D01*
X229490952Y-85984819D02*
X229395714Y-85984819D01*
X230776666Y-85984819D02*
X230205238Y-85984819D01*
X230490952Y-85984819D02*
X230490952Y-84984819D01*
X230490952Y-84984819D02*
X230395714Y-85127676D01*
X230395714Y-85127676D02*
X230300476Y-85222914D01*
X230300476Y-85222914D02*
X230205238Y-85270533D01*
X240044819Y-102312857D02*
X239568628Y-102646190D01*
X240044819Y-102884285D02*
X239044819Y-102884285D01*
X239044819Y-102884285D02*
X239044819Y-102503333D01*
X239044819Y-102503333D02*
X239092438Y-102408095D01*
X239092438Y-102408095D02*
X239140057Y-102360476D01*
X239140057Y-102360476D02*
X239235295Y-102312857D01*
X239235295Y-102312857D02*
X239378152Y-102312857D01*
X239378152Y-102312857D02*
X239473390Y-102360476D01*
X239473390Y-102360476D02*
X239521009Y-102408095D01*
X239521009Y-102408095D02*
X239568628Y-102503333D01*
X239568628Y-102503333D02*
X239568628Y-102884285D01*
X239044819Y-101408095D02*
X239044819Y-101884285D01*
X239044819Y-101884285D02*
X239521009Y-101931904D01*
X239521009Y-101931904D02*
X239473390Y-101884285D01*
X239473390Y-101884285D02*
X239425771Y-101789047D01*
X239425771Y-101789047D02*
X239425771Y-101550952D01*
X239425771Y-101550952D02*
X239473390Y-101455714D01*
X239473390Y-101455714D02*
X239521009Y-101408095D01*
X239521009Y-101408095D02*
X239616247Y-101360476D01*
X239616247Y-101360476D02*
X239854342Y-101360476D01*
X239854342Y-101360476D02*
X239949580Y-101408095D01*
X239949580Y-101408095D02*
X239997200Y-101455714D01*
X239997200Y-101455714D02*
X240044819Y-101550952D01*
X240044819Y-101550952D02*
X240044819Y-101789047D01*
X240044819Y-101789047D02*
X239997200Y-101884285D01*
X239997200Y-101884285D02*
X239949580Y-101931904D01*
X239140057Y-100979523D02*
X239092438Y-100931904D01*
X239092438Y-100931904D02*
X239044819Y-100836666D01*
X239044819Y-100836666D02*
X239044819Y-100598571D01*
X239044819Y-100598571D02*
X239092438Y-100503333D01*
X239092438Y-100503333D02*
X239140057Y-100455714D01*
X239140057Y-100455714D02*
X239235295Y-100408095D01*
X239235295Y-100408095D02*
X239330533Y-100408095D01*
X239330533Y-100408095D02*
X239473390Y-100455714D01*
X239473390Y-100455714D02*
X240044819Y-101027142D01*
X240044819Y-101027142D02*
X240044819Y-100408095D01*
X199514815Y-95797857D02*
X199038624Y-96131190D01*
X199514815Y-96369285D02*
X198514815Y-96369285D01*
X198514815Y-96369285D02*
X198514815Y-95988333D01*
X198514815Y-95988333D02*
X198562434Y-95893095D01*
X198562434Y-95893095D02*
X198610053Y-95845476D01*
X198610053Y-95845476D02*
X198705291Y-95797857D01*
X198705291Y-95797857D02*
X198848148Y-95797857D01*
X198848148Y-95797857D02*
X198943386Y-95845476D01*
X198943386Y-95845476D02*
X198991005Y-95893095D01*
X198991005Y-95893095D02*
X199038624Y-95988333D01*
X199038624Y-95988333D02*
X199038624Y-96369285D01*
X199514815Y-94845476D02*
X199514815Y-95416904D01*
X199514815Y-95131190D02*
X198514815Y-95131190D01*
X198514815Y-95131190D02*
X198657672Y-95226428D01*
X198657672Y-95226428D02*
X198752910Y-95321666D01*
X198752910Y-95321666D02*
X198800529Y-95416904D01*
X198514815Y-94512142D02*
X198514815Y-93845476D01*
X198514815Y-93845476D02*
X199514815Y-94274047D01*
X203824815Y-95727857D02*
X203348624Y-96061190D01*
X203824815Y-96299285D02*
X202824815Y-96299285D01*
X202824815Y-96299285D02*
X202824815Y-95918333D01*
X202824815Y-95918333D02*
X202872434Y-95823095D01*
X202872434Y-95823095D02*
X202920053Y-95775476D01*
X202920053Y-95775476D02*
X203015291Y-95727857D01*
X203015291Y-95727857D02*
X203158148Y-95727857D01*
X203158148Y-95727857D02*
X203253386Y-95775476D01*
X203253386Y-95775476D02*
X203301005Y-95823095D01*
X203301005Y-95823095D02*
X203348624Y-95918333D01*
X203348624Y-95918333D02*
X203348624Y-96299285D01*
X203824815Y-94775476D02*
X203824815Y-95346904D01*
X203824815Y-95061190D02*
X202824815Y-95061190D01*
X202824815Y-95061190D02*
X202967672Y-95156428D01*
X202967672Y-95156428D02*
X203062910Y-95251666D01*
X203062910Y-95251666D02*
X203110529Y-95346904D01*
X203158148Y-93918333D02*
X203824815Y-93918333D01*
X202777196Y-94156428D02*
X203491481Y-94394523D01*
X203491481Y-94394523D02*
X203491481Y-93775476D01*
X207000373Y-101861666D02*
X206524182Y-102194999D01*
X207000373Y-102433094D02*
X206000373Y-102433094D01*
X206000373Y-102433094D02*
X206000373Y-102052142D01*
X206000373Y-102052142D02*
X206047992Y-101956904D01*
X206047992Y-101956904D02*
X206095611Y-101909285D01*
X206095611Y-101909285D02*
X206190849Y-101861666D01*
X206190849Y-101861666D02*
X206333706Y-101861666D01*
X206333706Y-101861666D02*
X206428944Y-101909285D01*
X206428944Y-101909285D02*
X206476563Y-101956904D01*
X206476563Y-101956904D02*
X206524182Y-102052142D01*
X206524182Y-102052142D02*
X206524182Y-102433094D01*
X207000373Y-101385475D02*
X207000373Y-101194999D01*
X207000373Y-101194999D02*
X206952754Y-101099761D01*
X206952754Y-101099761D02*
X206905134Y-101052142D01*
X206905134Y-101052142D02*
X206762277Y-100956904D01*
X206762277Y-100956904D02*
X206571801Y-100909285D01*
X206571801Y-100909285D02*
X206190849Y-100909285D01*
X206190849Y-100909285D02*
X206095611Y-100956904D01*
X206095611Y-100956904D02*
X206047992Y-101004523D01*
X206047992Y-101004523D02*
X206000373Y-101099761D01*
X206000373Y-101099761D02*
X206000373Y-101290237D01*
X206000373Y-101290237D02*
X206047992Y-101385475D01*
X206047992Y-101385475D02*
X206095611Y-101433094D01*
X206095611Y-101433094D02*
X206190849Y-101480713D01*
X206190849Y-101480713D02*
X206428944Y-101480713D01*
X206428944Y-101480713D02*
X206524182Y-101433094D01*
X206524182Y-101433094D02*
X206571801Y-101385475D01*
X206571801Y-101385475D02*
X206619420Y-101290237D01*
X206619420Y-101290237D02*
X206619420Y-101099761D01*
X206619420Y-101099761D02*
X206571801Y-101004523D01*
X206571801Y-101004523D02*
X206524182Y-100956904D01*
X206524182Y-100956904D02*
X206428944Y-100909285D01*
D11*
X162806818Y-69352381D02*
X161536818Y-69352381D01*
X162806818Y-68626666D02*
X162081103Y-69170952D01*
X161536818Y-68626666D02*
X162262532Y-69352381D01*
X162806818Y-68021904D02*
X162806818Y-67780000D01*
X162806818Y-67780000D02*
X162746342Y-67659047D01*
X162746342Y-67659047D02*
X162685865Y-67598571D01*
X162685865Y-67598571D02*
X162504437Y-67477619D01*
X162504437Y-67477619D02*
X162262532Y-67417142D01*
X162262532Y-67417142D02*
X161778722Y-67417142D01*
X161778722Y-67417142D02*
X161657770Y-67477619D01*
X161657770Y-67477619D02*
X161597294Y-67538095D01*
X161597294Y-67538095D02*
X161536818Y-67659047D01*
X161536818Y-67659047D02*
X161536818Y-67900952D01*
X161536818Y-67900952D02*
X161597294Y-68021904D01*
X161597294Y-68021904D02*
X161657770Y-68082381D01*
X161657770Y-68082381D02*
X161778722Y-68142857D01*
X161778722Y-68142857D02*
X162081103Y-68142857D01*
X162081103Y-68142857D02*
X162202056Y-68082381D01*
X162202056Y-68082381D02*
X162262532Y-68021904D01*
X162262532Y-68021904D02*
X162323008Y-67900952D01*
X162323008Y-67900952D02*
X162323008Y-67659047D01*
X162323008Y-67659047D02*
X162262532Y-67538095D01*
X162262532Y-67538095D02*
X162202056Y-67477619D01*
X162202056Y-67477619D02*
X162081103Y-67417142D01*
X209584318Y-127372143D02*
X208314318Y-127372143D01*
X209584318Y-126646428D02*
X208858603Y-127190714D01*
X208314318Y-126646428D02*
X209040032Y-127372143D01*
X208435270Y-126162619D02*
X208374794Y-126102143D01*
X208374794Y-126102143D02*
X208314318Y-125981190D01*
X208314318Y-125981190D02*
X208314318Y-125678809D01*
X208314318Y-125678809D02*
X208374794Y-125557857D01*
X208374794Y-125557857D02*
X208435270Y-125497381D01*
X208435270Y-125497381D02*
X208556222Y-125436904D01*
X208556222Y-125436904D02*
X208677175Y-125436904D01*
X208677175Y-125436904D02*
X208858603Y-125497381D01*
X208858603Y-125497381D02*
X209584318Y-126223095D01*
X209584318Y-126223095D02*
X209584318Y-125436904D01*
X208314318Y-124650714D02*
X208314318Y-124529761D01*
X208314318Y-124529761D02*
X208374794Y-124408809D01*
X208374794Y-124408809D02*
X208435270Y-124348333D01*
X208435270Y-124348333D02*
X208556222Y-124287857D01*
X208556222Y-124287857D02*
X208798127Y-124227380D01*
X208798127Y-124227380D02*
X209100508Y-124227380D01*
X209100508Y-124227380D02*
X209342413Y-124287857D01*
X209342413Y-124287857D02*
X209463365Y-124348333D01*
X209463365Y-124348333D02*
X209523842Y-124408809D01*
X209523842Y-124408809D02*
X209584318Y-124529761D01*
X209584318Y-124529761D02*
X209584318Y-124650714D01*
X209584318Y-124650714D02*
X209523842Y-124771666D01*
X209523842Y-124771666D02*
X209463365Y-124832142D01*
X209463365Y-124832142D02*
X209342413Y-124892619D01*
X209342413Y-124892619D02*
X209100508Y-124953095D01*
X209100508Y-124953095D02*
X208798127Y-124953095D01*
X208798127Y-124953095D02*
X208556222Y-124892619D01*
X208556222Y-124892619D02*
X208435270Y-124832142D01*
X208435270Y-124832142D02*
X208374794Y-124771666D01*
X208374794Y-124771666D02*
X208314318Y-124650714D01*
X146934318Y-127312143D02*
X145664318Y-127312143D01*
X146934318Y-126586428D02*
X146208603Y-127130714D01*
X145664318Y-126586428D02*
X146390032Y-127312143D01*
X145785270Y-126102619D02*
X145724794Y-126042143D01*
X145724794Y-126042143D02*
X145664318Y-125921190D01*
X145664318Y-125921190D02*
X145664318Y-125618809D01*
X145664318Y-125618809D02*
X145724794Y-125497857D01*
X145724794Y-125497857D02*
X145785270Y-125437381D01*
X145785270Y-125437381D02*
X145906222Y-125376904D01*
X145906222Y-125376904D02*
X146027175Y-125376904D01*
X146027175Y-125376904D02*
X146208603Y-125437381D01*
X146208603Y-125437381D02*
X146934318Y-126163095D01*
X146934318Y-126163095D02*
X146934318Y-125376904D01*
X146208603Y-124651190D02*
X146148127Y-124772142D01*
X146148127Y-124772142D02*
X146087651Y-124832619D01*
X146087651Y-124832619D02*
X145966699Y-124893095D01*
X145966699Y-124893095D02*
X145906222Y-124893095D01*
X145906222Y-124893095D02*
X145785270Y-124832619D01*
X145785270Y-124832619D02*
X145724794Y-124772142D01*
X145724794Y-124772142D02*
X145664318Y-124651190D01*
X145664318Y-124651190D02*
X145664318Y-124409285D01*
X145664318Y-124409285D02*
X145724794Y-124288333D01*
X145724794Y-124288333D02*
X145785270Y-124227857D01*
X145785270Y-124227857D02*
X145906222Y-124167380D01*
X145906222Y-124167380D02*
X145966699Y-124167380D01*
X145966699Y-124167380D02*
X146087651Y-124227857D01*
X146087651Y-124227857D02*
X146148127Y-124288333D01*
X146148127Y-124288333D02*
X146208603Y-124409285D01*
X146208603Y-124409285D02*
X146208603Y-124651190D01*
X146208603Y-124651190D02*
X146269080Y-124772142D01*
X146269080Y-124772142D02*
X146329556Y-124832619D01*
X146329556Y-124832619D02*
X146450508Y-124893095D01*
X146450508Y-124893095D02*
X146692413Y-124893095D01*
X146692413Y-124893095D02*
X146813365Y-124832619D01*
X146813365Y-124832619D02*
X146873842Y-124772142D01*
X146873842Y-124772142D02*
X146934318Y-124651190D01*
X146934318Y-124651190D02*
X146934318Y-124409285D01*
X146934318Y-124409285D02*
X146873842Y-124288333D01*
X146873842Y-124288333D02*
X146813365Y-124227857D01*
X146813365Y-124227857D02*
X146692413Y-124167380D01*
X146692413Y-124167380D02*
X146450508Y-124167380D01*
X146450508Y-124167380D02*
X146329556Y-124227857D01*
X146329556Y-124227857D02*
X146269080Y-124288333D01*
X146269080Y-124288333D02*
X146208603Y-124409285D01*
X248744318Y-69682143D02*
X247474318Y-69682143D01*
X248744318Y-68956428D02*
X248018603Y-69500714D01*
X247474318Y-68956428D02*
X248200032Y-69682143D01*
X248744318Y-67746904D02*
X248744318Y-68472619D01*
X248744318Y-68109762D02*
X247474318Y-68109762D01*
X247474318Y-68109762D02*
X247655746Y-68230714D01*
X247655746Y-68230714D02*
X247776699Y-68351666D01*
X247776699Y-68351666D02*
X247837175Y-68472619D01*
X247595270Y-67263095D02*
X247534794Y-67202619D01*
X247534794Y-67202619D02*
X247474318Y-67081666D01*
X247474318Y-67081666D02*
X247474318Y-66779285D01*
X247474318Y-66779285D02*
X247534794Y-66658333D01*
X247534794Y-66658333D02*
X247595270Y-66597857D01*
X247595270Y-66597857D02*
X247716222Y-66537380D01*
X247716222Y-66537380D02*
X247837175Y-66537380D01*
X247837175Y-66537380D02*
X248018603Y-66597857D01*
X248018603Y-66597857D02*
X248744318Y-67323571D01*
X248744318Y-67323571D02*
X248744318Y-66537380D01*
D10*
X231887200Y-96063332D02*
X231934819Y-95920475D01*
X231934819Y-95920475D02*
X231934819Y-95682380D01*
X231934819Y-95682380D02*
X231887200Y-95587142D01*
X231887200Y-95587142D02*
X231839580Y-95539523D01*
X231839580Y-95539523D02*
X231744342Y-95491904D01*
X231744342Y-95491904D02*
X231649104Y-95491904D01*
X231649104Y-95491904D02*
X231553866Y-95539523D01*
X231553866Y-95539523D02*
X231506247Y-95587142D01*
X231506247Y-95587142D02*
X231458628Y-95682380D01*
X231458628Y-95682380D02*
X231411009Y-95872856D01*
X231411009Y-95872856D02*
X231363390Y-95968094D01*
X231363390Y-95968094D02*
X231315771Y-96015713D01*
X231315771Y-96015713D02*
X231220533Y-96063332D01*
X231220533Y-96063332D02*
X231125295Y-96063332D01*
X231125295Y-96063332D02*
X231030057Y-96015713D01*
X231030057Y-96015713D02*
X230982438Y-95968094D01*
X230982438Y-95968094D02*
X230934819Y-95872856D01*
X230934819Y-95872856D02*
X230934819Y-95634761D01*
X230934819Y-95634761D02*
X230982438Y-95491904D01*
X230934819Y-95158570D02*
X231934819Y-94920475D01*
X231934819Y-94920475D02*
X231220533Y-94729999D01*
X231220533Y-94729999D02*
X231934819Y-94539523D01*
X231934819Y-94539523D02*
X230934819Y-94301428D01*
X231934819Y-93396666D02*
X231934819Y-93968094D01*
X231934819Y-93682380D02*
X230934819Y-93682380D01*
X230934819Y-93682380D02*
X231077676Y-93777618D01*
X231077676Y-93777618D02*
X231172914Y-93872856D01*
X231172914Y-93872856D02*
X231220533Y-93968094D01*
D11*
X194024318Y-127332143D02*
X192754318Y-127332143D01*
X194024318Y-126606428D02*
X193298603Y-127150714D01*
X192754318Y-126606428D02*
X193480032Y-127332143D01*
X192875270Y-126122619D02*
X192814794Y-126062143D01*
X192814794Y-126062143D02*
X192754318Y-125941190D01*
X192754318Y-125941190D02*
X192754318Y-125638809D01*
X192754318Y-125638809D02*
X192814794Y-125517857D01*
X192814794Y-125517857D02*
X192875270Y-125457381D01*
X192875270Y-125457381D02*
X192996222Y-125396904D01*
X192996222Y-125396904D02*
X193117175Y-125396904D01*
X193117175Y-125396904D02*
X193298603Y-125457381D01*
X193298603Y-125457381D02*
X194024318Y-126183095D01*
X194024318Y-126183095D02*
X194024318Y-125396904D01*
X192875270Y-124913095D02*
X192814794Y-124852619D01*
X192814794Y-124852619D02*
X192754318Y-124731666D01*
X192754318Y-124731666D02*
X192754318Y-124429285D01*
X192754318Y-124429285D02*
X192814794Y-124308333D01*
X192814794Y-124308333D02*
X192875270Y-124247857D01*
X192875270Y-124247857D02*
X192996222Y-124187380D01*
X192996222Y-124187380D02*
X193117175Y-124187380D01*
X193117175Y-124187380D02*
X193298603Y-124247857D01*
X193298603Y-124247857D02*
X194024318Y-124973571D01*
X194024318Y-124973571D02*
X194024318Y-124187380D01*
D10*
X249499580Y-81876666D02*
X249547200Y-81924285D01*
X249547200Y-81924285D02*
X249594819Y-82067142D01*
X249594819Y-82067142D02*
X249594819Y-82162380D01*
X249594819Y-82162380D02*
X249547200Y-82305237D01*
X249547200Y-82305237D02*
X249451961Y-82400475D01*
X249451961Y-82400475D02*
X249356723Y-82448094D01*
X249356723Y-82448094D02*
X249166247Y-82495713D01*
X249166247Y-82495713D02*
X249023390Y-82495713D01*
X249023390Y-82495713D02*
X248832914Y-82448094D01*
X248832914Y-82448094D02*
X248737676Y-82400475D01*
X248737676Y-82400475D02*
X248642438Y-82305237D01*
X248642438Y-82305237D02*
X248594819Y-82162380D01*
X248594819Y-82162380D02*
X248594819Y-82067142D01*
X248594819Y-82067142D02*
X248642438Y-81924285D01*
X248642438Y-81924285D02*
X248690057Y-81876666D01*
X248594819Y-81543332D02*
X248594819Y-80924285D01*
X248594819Y-80924285D02*
X248975771Y-81257618D01*
X248975771Y-81257618D02*
X248975771Y-81114761D01*
X248975771Y-81114761D02*
X249023390Y-81019523D01*
X249023390Y-81019523D02*
X249071009Y-80971904D01*
X249071009Y-80971904D02*
X249166247Y-80924285D01*
X249166247Y-80924285D02*
X249404342Y-80924285D01*
X249404342Y-80924285D02*
X249499580Y-80971904D01*
X249499580Y-80971904D02*
X249547200Y-81019523D01*
X249547200Y-81019523D02*
X249594819Y-81114761D01*
X249594819Y-81114761D02*
X249594819Y-81400475D01*
X249594819Y-81400475D02*
X249547200Y-81495713D01*
X249547200Y-81495713D02*
X249499580Y-81543332D01*
D11*
X240894318Y-127392143D02*
X239624318Y-127392143D01*
X240894318Y-126666428D02*
X240168603Y-127210714D01*
X239624318Y-126666428D02*
X240350032Y-127392143D01*
X240894318Y-125456904D02*
X240894318Y-126182619D01*
X240894318Y-125819762D02*
X239624318Y-125819762D01*
X239624318Y-125819762D02*
X239805746Y-125940714D01*
X239805746Y-125940714D02*
X239926699Y-126061666D01*
X239926699Y-126061666D02*
X239987175Y-126182619D01*
X239624318Y-124368333D02*
X239624318Y-124610238D01*
X239624318Y-124610238D02*
X239684794Y-124731190D01*
X239684794Y-124731190D02*
X239745270Y-124791666D01*
X239745270Y-124791666D02*
X239926699Y-124912619D01*
X239926699Y-124912619D02*
X240168603Y-124973095D01*
X240168603Y-124973095D02*
X240652413Y-124973095D01*
X240652413Y-124973095D02*
X240773365Y-124912619D01*
X240773365Y-124912619D02*
X240833842Y-124852142D01*
X240833842Y-124852142D02*
X240894318Y-124731190D01*
X240894318Y-124731190D02*
X240894318Y-124489285D01*
X240894318Y-124489285D02*
X240833842Y-124368333D01*
X240833842Y-124368333D02*
X240773365Y-124307857D01*
X240773365Y-124307857D02*
X240652413Y-124247380D01*
X240652413Y-124247380D02*
X240350032Y-124247380D01*
X240350032Y-124247380D02*
X240229080Y-124307857D01*
X240229080Y-124307857D02*
X240168603Y-124368333D01*
X240168603Y-124368333D02*
X240108127Y-124489285D01*
X240108127Y-124489285D02*
X240108127Y-124731190D01*
X240108127Y-124731190D02*
X240168603Y-124852142D01*
X240168603Y-124852142D02*
X240229080Y-124912619D01*
X240229080Y-124912619D02*
X240350032Y-124973095D01*
X186231818Y-69354881D02*
X184961818Y-69354881D01*
X186231818Y-68629166D02*
X185506103Y-69173452D01*
X184961818Y-68629166D02*
X185687532Y-69354881D01*
X185506103Y-67903452D02*
X185445627Y-68024404D01*
X185445627Y-68024404D02*
X185385151Y-68084881D01*
X185385151Y-68084881D02*
X185264199Y-68145357D01*
X185264199Y-68145357D02*
X185203722Y-68145357D01*
X185203722Y-68145357D02*
X185082770Y-68084881D01*
X185082770Y-68084881D02*
X185022294Y-68024404D01*
X185022294Y-68024404D02*
X184961818Y-67903452D01*
X184961818Y-67903452D02*
X184961818Y-67661547D01*
X184961818Y-67661547D02*
X185022294Y-67540595D01*
X185022294Y-67540595D02*
X185082770Y-67480119D01*
X185082770Y-67480119D02*
X185203722Y-67419642D01*
X185203722Y-67419642D02*
X185264199Y-67419642D01*
X185264199Y-67419642D02*
X185385151Y-67480119D01*
X185385151Y-67480119D02*
X185445627Y-67540595D01*
X185445627Y-67540595D02*
X185506103Y-67661547D01*
X185506103Y-67661547D02*
X185506103Y-67903452D01*
X185506103Y-67903452D02*
X185566580Y-68024404D01*
X185566580Y-68024404D02*
X185627056Y-68084881D01*
X185627056Y-68084881D02*
X185748008Y-68145357D01*
X185748008Y-68145357D02*
X185989913Y-68145357D01*
X185989913Y-68145357D02*
X186110865Y-68084881D01*
X186110865Y-68084881D02*
X186171342Y-68024404D01*
X186171342Y-68024404D02*
X186231818Y-67903452D01*
X186231818Y-67903452D02*
X186231818Y-67661547D01*
X186231818Y-67661547D02*
X186171342Y-67540595D01*
X186171342Y-67540595D02*
X186110865Y-67480119D01*
X186110865Y-67480119D02*
X185989913Y-67419642D01*
X185989913Y-67419642D02*
X185748008Y-67419642D01*
X185748008Y-67419642D02*
X185627056Y-67480119D01*
X185627056Y-67480119D02*
X185566580Y-67540595D01*
X185566580Y-67540595D02*
X185506103Y-67661547D01*
X233064318Y-127712143D02*
X231794318Y-127712143D01*
X233064318Y-126986428D02*
X232338603Y-127530714D01*
X231794318Y-126986428D02*
X232520032Y-127712143D01*
X233064318Y-125776904D02*
X233064318Y-126502619D01*
X233064318Y-126139762D02*
X231794318Y-126139762D01*
X231794318Y-126139762D02*
X231975746Y-126260714D01*
X231975746Y-126260714D02*
X232096699Y-126381666D01*
X232096699Y-126381666D02*
X232157175Y-126502619D01*
X231794318Y-125353571D02*
X231794318Y-124506904D01*
X231794318Y-124506904D02*
X233064318Y-125051190D01*
X153824318Y-97072143D02*
X152554318Y-97072143D01*
X152554318Y-97072143D02*
X152554318Y-96769762D01*
X152554318Y-96769762D02*
X152614794Y-96588333D01*
X152614794Y-96588333D02*
X152735746Y-96467381D01*
X152735746Y-96467381D02*
X152856699Y-96406904D01*
X152856699Y-96406904D02*
X153098603Y-96346428D01*
X153098603Y-96346428D02*
X153280032Y-96346428D01*
X153280032Y-96346428D02*
X153521937Y-96406904D01*
X153521937Y-96406904D02*
X153642889Y-96467381D01*
X153642889Y-96467381D02*
X153763842Y-96588333D01*
X153763842Y-96588333D02*
X153824318Y-96769762D01*
X153824318Y-96769762D02*
X153824318Y-97072143D01*
X153824318Y-95136904D02*
X153824318Y-95862619D01*
X153824318Y-95499762D02*
X152554318Y-95499762D01*
X152554318Y-95499762D02*
X152735746Y-95620714D01*
X152735746Y-95620714D02*
X152856699Y-95741666D01*
X152856699Y-95741666D02*
X152917175Y-95862619D01*
X152554318Y-93987857D02*
X152554318Y-94592619D01*
X152554318Y-94592619D02*
X153159080Y-94653095D01*
X153159080Y-94653095D02*
X153098603Y-94592619D01*
X153098603Y-94592619D02*
X153038127Y-94471666D01*
X153038127Y-94471666D02*
X153038127Y-94169285D01*
X153038127Y-94169285D02*
X153098603Y-94048333D01*
X153098603Y-94048333D02*
X153159080Y-93987857D01*
X153159080Y-93987857D02*
X153280032Y-93927380D01*
X153280032Y-93927380D02*
X153582413Y-93927380D01*
X153582413Y-93927380D02*
X153703365Y-93987857D01*
X153703365Y-93987857D02*
X153763842Y-94048333D01*
X153763842Y-94048333D02*
X153824318Y-94169285D01*
X153824318Y-94169285D02*
X153824318Y-94471666D01*
X153824318Y-94471666D02*
X153763842Y-94592619D01*
X153763842Y-94592619D02*
X153703365Y-94653095D01*
X178436818Y-69352381D02*
X177166818Y-69352381D01*
X178436818Y-68626666D02*
X177711103Y-69170952D01*
X177166818Y-68626666D02*
X177892532Y-69352381D01*
X177166818Y-68203333D02*
X177166818Y-67356666D01*
X177166818Y-67356666D02*
X178436818Y-67900952D01*
D10*
X201094819Y-95757857D02*
X200618628Y-96091190D01*
X201094819Y-96329285D02*
X200094819Y-96329285D01*
X200094819Y-96329285D02*
X200094819Y-95948333D01*
X200094819Y-95948333D02*
X200142438Y-95853095D01*
X200142438Y-95853095D02*
X200190057Y-95805476D01*
X200190057Y-95805476D02*
X200285295Y-95757857D01*
X200285295Y-95757857D02*
X200428152Y-95757857D01*
X200428152Y-95757857D02*
X200523390Y-95805476D01*
X200523390Y-95805476D02*
X200571009Y-95853095D01*
X200571009Y-95853095D02*
X200618628Y-95948333D01*
X200618628Y-95948333D02*
X200618628Y-96329285D01*
X201094819Y-94805476D02*
X201094819Y-95376904D01*
X201094819Y-95091190D02*
X200094819Y-95091190D01*
X200094819Y-95091190D02*
X200237676Y-95186428D01*
X200237676Y-95186428D02*
X200332914Y-95281666D01*
X200332914Y-95281666D02*
X200380533Y-95376904D01*
X200094819Y-93948333D02*
X200094819Y-94138809D01*
X200094819Y-94138809D02*
X200142438Y-94234047D01*
X200142438Y-94234047D02*
X200190057Y-94281666D01*
X200190057Y-94281666D02*
X200332914Y-94376904D01*
X200332914Y-94376904D02*
X200523390Y-94424523D01*
X200523390Y-94424523D02*
X200904342Y-94424523D01*
X200904342Y-94424523D02*
X200999580Y-94376904D01*
X200999580Y-94376904D02*
X201047200Y-94329285D01*
X201047200Y-94329285D02*
X201094819Y-94234047D01*
X201094819Y-94234047D02*
X201094819Y-94043571D01*
X201094819Y-94043571D02*
X201047200Y-93948333D01*
X201047200Y-93948333D02*
X200999580Y-93900714D01*
X200999580Y-93900714D02*
X200904342Y-93853095D01*
X200904342Y-93853095D02*
X200666247Y-93853095D01*
X200666247Y-93853095D02*
X200571009Y-93900714D01*
X200571009Y-93900714D02*
X200523390Y-93948333D01*
X200523390Y-93948333D02*
X200475771Y-94043571D01*
X200475771Y-94043571D02*
X200475771Y-94234047D01*
X200475771Y-94234047D02*
X200523390Y-94329285D01*
X200523390Y-94329285D02*
X200571009Y-94376904D01*
X200571009Y-94376904D02*
X200666247Y-94424523D01*
D11*
X201724318Y-126739643D02*
X200454318Y-126739643D01*
X201724318Y-126013928D02*
X200998603Y-126558214D01*
X200454318Y-126013928D02*
X201180032Y-126739643D01*
X200575270Y-125530119D02*
X200514794Y-125469643D01*
X200514794Y-125469643D02*
X200454318Y-125348690D01*
X200454318Y-125348690D02*
X200454318Y-125046309D01*
X200454318Y-125046309D02*
X200514794Y-124925357D01*
X200514794Y-124925357D02*
X200575270Y-124864881D01*
X200575270Y-124864881D02*
X200696222Y-124804404D01*
X200696222Y-124804404D02*
X200817175Y-124804404D01*
X200817175Y-124804404D02*
X200998603Y-124864881D01*
X200998603Y-124864881D02*
X201724318Y-125590595D01*
X201724318Y-125590595D02*
X201724318Y-124804404D01*
X201724318Y-123594880D02*
X201724318Y-124320595D01*
X201724318Y-123957738D02*
X200454318Y-123957738D01*
X200454318Y-123957738D02*
X200635746Y-124078690D01*
X200635746Y-124078690D02*
X200756699Y-124199642D01*
X200756699Y-124199642D02*
X200817175Y-124320595D01*
D10*
X195094815Y-95777857D02*
X194618624Y-96111190D01*
X195094815Y-96349285D02*
X194094815Y-96349285D01*
X194094815Y-96349285D02*
X194094815Y-95968333D01*
X194094815Y-95968333D02*
X194142434Y-95873095D01*
X194142434Y-95873095D02*
X194190053Y-95825476D01*
X194190053Y-95825476D02*
X194285291Y-95777857D01*
X194285291Y-95777857D02*
X194428148Y-95777857D01*
X194428148Y-95777857D02*
X194523386Y-95825476D01*
X194523386Y-95825476D02*
X194571005Y-95873095D01*
X194571005Y-95873095D02*
X194618624Y-95968333D01*
X194618624Y-95968333D02*
X194618624Y-96349285D01*
X194190053Y-95396904D02*
X194142434Y-95349285D01*
X194142434Y-95349285D02*
X194094815Y-95254047D01*
X194094815Y-95254047D02*
X194094815Y-95015952D01*
X194094815Y-95015952D02*
X194142434Y-94920714D01*
X194142434Y-94920714D02*
X194190053Y-94873095D01*
X194190053Y-94873095D02*
X194285291Y-94825476D01*
X194285291Y-94825476D02*
X194380529Y-94825476D01*
X194380529Y-94825476D02*
X194523386Y-94873095D01*
X194523386Y-94873095D02*
X195094815Y-95444523D01*
X195094815Y-95444523D02*
X195094815Y-94825476D01*
X194094815Y-94206428D02*
X194094815Y-94111190D01*
X194094815Y-94111190D02*
X194142434Y-94015952D01*
X194142434Y-94015952D02*
X194190053Y-93968333D01*
X194190053Y-93968333D02*
X194285291Y-93920714D01*
X194285291Y-93920714D02*
X194475767Y-93873095D01*
X194475767Y-93873095D02*
X194713862Y-93873095D01*
X194713862Y-93873095D02*
X194904338Y-93920714D01*
X194904338Y-93920714D02*
X194999576Y-93968333D01*
X194999576Y-93968333D02*
X195047196Y-94015952D01*
X195047196Y-94015952D02*
X195094815Y-94111190D01*
X195094815Y-94111190D02*
X195094815Y-94206428D01*
X195094815Y-94206428D02*
X195047196Y-94301666D01*
X195047196Y-94301666D02*
X194999576Y-94349285D01*
X194999576Y-94349285D02*
X194904338Y-94396904D01*
X194904338Y-94396904D02*
X194713862Y-94444523D01*
X194713862Y-94444523D02*
X194475767Y-94444523D01*
X194475767Y-94444523D02*
X194285291Y-94396904D01*
X194285291Y-94396904D02*
X194190053Y-94349285D01*
X194190053Y-94349285D02*
X194142434Y-94301666D01*
X194142434Y-94301666D02*
X194094815Y-94206428D01*
X196624819Y-95757857D02*
X196148628Y-96091190D01*
X196624819Y-96329285D02*
X195624819Y-96329285D01*
X195624819Y-96329285D02*
X195624819Y-95948333D01*
X195624819Y-95948333D02*
X195672438Y-95853095D01*
X195672438Y-95853095D02*
X195720057Y-95805476D01*
X195720057Y-95805476D02*
X195815295Y-95757857D01*
X195815295Y-95757857D02*
X195958152Y-95757857D01*
X195958152Y-95757857D02*
X196053390Y-95805476D01*
X196053390Y-95805476D02*
X196101009Y-95853095D01*
X196101009Y-95853095D02*
X196148628Y-95948333D01*
X196148628Y-95948333D02*
X196148628Y-96329285D01*
X196624819Y-94805476D02*
X196624819Y-95376904D01*
X196624819Y-95091190D02*
X195624819Y-95091190D01*
X195624819Y-95091190D02*
X195767676Y-95186428D01*
X195767676Y-95186428D02*
X195862914Y-95281666D01*
X195862914Y-95281666D02*
X195910533Y-95376904D01*
X196624819Y-94329285D02*
X196624819Y-94138809D01*
X196624819Y-94138809D02*
X196577200Y-94043571D01*
X196577200Y-94043571D02*
X196529580Y-93995952D01*
X196529580Y-93995952D02*
X196386723Y-93900714D01*
X196386723Y-93900714D02*
X196196247Y-93853095D01*
X196196247Y-93853095D02*
X195815295Y-93853095D01*
X195815295Y-93853095D02*
X195720057Y-93900714D01*
X195720057Y-93900714D02*
X195672438Y-93948333D01*
X195672438Y-93948333D02*
X195624819Y-94043571D01*
X195624819Y-94043571D02*
X195624819Y-94234047D01*
X195624819Y-94234047D02*
X195672438Y-94329285D01*
X195672438Y-94329285D02*
X195720057Y-94376904D01*
X195720057Y-94376904D02*
X195815295Y-94424523D01*
X195815295Y-94424523D02*
X196053390Y-94424523D01*
X196053390Y-94424523D02*
X196148628Y-94376904D01*
X196148628Y-94376904D02*
X196196247Y-94329285D01*
X196196247Y-94329285D02*
X196243866Y-94234047D01*
X196243866Y-94234047D02*
X196243866Y-94043571D01*
X196243866Y-94043571D02*
X196196247Y-93948333D01*
X196196247Y-93948333D02*
X196148628Y-93900714D01*
X196148628Y-93900714D02*
X196053390Y-93853095D01*
D11*
X162669318Y-126717143D02*
X161399318Y-126717143D01*
X162669318Y-125991428D02*
X161943603Y-126535714D01*
X161399318Y-125991428D02*
X162125032Y-126717143D01*
X161520270Y-125507619D02*
X161459794Y-125447143D01*
X161459794Y-125447143D02*
X161399318Y-125326190D01*
X161399318Y-125326190D02*
X161399318Y-125023809D01*
X161399318Y-125023809D02*
X161459794Y-124902857D01*
X161459794Y-124902857D02*
X161520270Y-124842381D01*
X161520270Y-124842381D02*
X161641222Y-124781904D01*
X161641222Y-124781904D02*
X161762175Y-124781904D01*
X161762175Y-124781904D02*
X161943603Y-124842381D01*
X161943603Y-124842381D02*
X162669318Y-125568095D01*
X162669318Y-125568095D02*
X162669318Y-124781904D01*
X161399318Y-123693333D02*
X161399318Y-123935238D01*
X161399318Y-123935238D02*
X161459794Y-124056190D01*
X161459794Y-124056190D02*
X161520270Y-124116666D01*
X161520270Y-124116666D02*
X161701699Y-124237619D01*
X161701699Y-124237619D02*
X161943603Y-124298095D01*
X161943603Y-124298095D02*
X162427413Y-124298095D01*
X162427413Y-124298095D02*
X162548365Y-124237619D01*
X162548365Y-124237619D02*
X162608842Y-124177142D01*
X162608842Y-124177142D02*
X162669318Y-124056190D01*
X162669318Y-124056190D02*
X162669318Y-123814285D01*
X162669318Y-123814285D02*
X162608842Y-123693333D01*
X162608842Y-123693333D02*
X162548365Y-123632857D01*
X162548365Y-123632857D02*
X162427413Y-123572380D01*
X162427413Y-123572380D02*
X162125032Y-123572380D01*
X162125032Y-123572380D02*
X162004080Y-123632857D01*
X162004080Y-123632857D02*
X161943603Y-123693333D01*
X161943603Y-123693333D02*
X161883127Y-123814285D01*
X161883127Y-123814285D02*
X161883127Y-124056190D01*
X161883127Y-124056190D02*
X161943603Y-124177142D01*
X161943603Y-124177142D02*
X162004080Y-124237619D01*
X162004080Y-124237619D02*
X162125032Y-124298095D01*
D10*
X243429819Y-84929523D02*
X244144104Y-84929523D01*
X244144104Y-84929523D02*
X244286961Y-84977142D01*
X244286961Y-84977142D02*
X244382200Y-85072380D01*
X244382200Y-85072380D02*
X244429819Y-85215237D01*
X244429819Y-85215237D02*
X244429819Y-85310475D01*
X243525057Y-84500951D02*
X243477438Y-84453332D01*
X243477438Y-84453332D02*
X243429819Y-84358094D01*
X243429819Y-84358094D02*
X243429819Y-84119999D01*
X243429819Y-84119999D02*
X243477438Y-84024761D01*
X243477438Y-84024761D02*
X243525057Y-83977142D01*
X243525057Y-83977142D02*
X243620295Y-83929523D01*
X243620295Y-83929523D02*
X243715533Y-83929523D01*
X243715533Y-83929523D02*
X243858390Y-83977142D01*
X243858390Y-83977142D02*
X244429819Y-84548570D01*
X244429819Y-84548570D02*
X244429819Y-83929523D01*
X243858390Y-83358094D02*
X243810771Y-83453332D01*
X243810771Y-83453332D02*
X243763152Y-83500951D01*
X243763152Y-83500951D02*
X243667914Y-83548570D01*
X243667914Y-83548570D02*
X243620295Y-83548570D01*
X243620295Y-83548570D02*
X243525057Y-83500951D01*
X243525057Y-83500951D02*
X243477438Y-83453332D01*
X243477438Y-83453332D02*
X243429819Y-83358094D01*
X243429819Y-83358094D02*
X243429819Y-83167618D01*
X243429819Y-83167618D02*
X243477438Y-83072380D01*
X243477438Y-83072380D02*
X243525057Y-83024761D01*
X243525057Y-83024761D02*
X243620295Y-82977142D01*
X243620295Y-82977142D02*
X243667914Y-82977142D01*
X243667914Y-82977142D02*
X243763152Y-83024761D01*
X243763152Y-83024761D02*
X243810771Y-83072380D01*
X243810771Y-83072380D02*
X243858390Y-83167618D01*
X243858390Y-83167618D02*
X243858390Y-83358094D01*
X243858390Y-83358094D02*
X243906009Y-83453332D01*
X243906009Y-83453332D02*
X243953628Y-83500951D01*
X243953628Y-83500951D02*
X244048866Y-83548570D01*
X244048866Y-83548570D02*
X244239342Y-83548570D01*
X244239342Y-83548570D02*
X244334580Y-83500951D01*
X244334580Y-83500951D02*
X244382200Y-83453332D01*
X244382200Y-83453332D02*
X244429819Y-83358094D01*
X244429819Y-83358094D02*
X244429819Y-83167618D01*
X244429819Y-83167618D02*
X244382200Y-83072380D01*
X244382200Y-83072380D02*
X244334580Y-83024761D01*
X244334580Y-83024761D02*
X244239342Y-82977142D01*
X244239342Y-82977142D02*
X244048866Y-82977142D01*
X244048866Y-82977142D02*
X243953628Y-83024761D01*
X243953628Y-83024761D02*
X243906009Y-83072380D01*
X243906009Y-83072380D02*
X243858390Y-83167618D01*
X174511666Y-82044819D02*
X174511666Y-82759104D01*
X174511666Y-82759104D02*
X174464047Y-82901961D01*
X174464047Y-82901961D02*
X174368809Y-82997200D01*
X174368809Y-82997200D02*
X174225952Y-83044819D01*
X174225952Y-83044819D02*
X174130714Y-83044819D01*
X175416428Y-82378152D02*
X175416428Y-83044819D01*
X175178333Y-81997200D02*
X174940238Y-82711485D01*
X174940238Y-82711485D02*
X175559285Y-82711485D01*
D11*
X225351818Y-69352381D02*
X224081818Y-69352381D01*
X225351818Y-68626666D02*
X224626103Y-69170952D01*
X224081818Y-68626666D02*
X224807532Y-69352381D01*
X225351818Y-67417142D02*
X225351818Y-68142857D01*
X225351818Y-67780000D02*
X224081818Y-67780000D01*
X224081818Y-67780000D02*
X224263246Y-67900952D01*
X224263246Y-67900952D02*
X224384199Y-68021904D01*
X224384199Y-68021904D02*
X224444675Y-68142857D01*
D10*
X248899580Y-84936666D02*
X248947200Y-84984285D01*
X248947200Y-84984285D02*
X248994819Y-85127142D01*
X248994819Y-85127142D02*
X248994819Y-85222380D01*
X248994819Y-85222380D02*
X248947200Y-85365237D01*
X248947200Y-85365237D02*
X248851961Y-85460475D01*
X248851961Y-85460475D02*
X248756723Y-85508094D01*
X248756723Y-85508094D02*
X248566247Y-85555713D01*
X248566247Y-85555713D02*
X248423390Y-85555713D01*
X248423390Y-85555713D02*
X248232914Y-85508094D01*
X248232914Y-85508094D02*
X248137676Y-85460475D01*
X248137676Y-85460475D02*
X248042438Y-85365237D01*
X248042438Y-85365237D02*
X247994819Y-85222380D01*
X247994819Y-85222380D02*
X247994819Y-85127142D01*
X247994819Y-85127142D02*
X248042438Y-84984285D01*
X248042438Y-84984285D02*
X248090057Y-84936666D01*
X248090057Y-84555713D02*
X248042438Y-84508094D01*
X248042438Y-84508094D02*
X247994819Y-84412856D01*
X247994819Y-84412856D02*
X247994819Y-84174761D01*
X247994819Y-84174761D02*
X248042438Y-84079523D01*
X248042438Y-84079523D02*
X248090057Y-84031904D01*
X248090057Y-84031904D02*
X248185295Y-83984285D01*
X248185295Y-83984285D02*
X248280533Y-83984285D01*
X248280533Y-83984285D02*
X248423390Y-84031904D01*
X248423390Y-84031904D02*
X248994819Y-84603332D01*
X248994819Y-84603332D02*
X248994819Y-83984285D01*
D11*
X170574318Y-69602143D02*
X169304318Y-69602143D01*
X170574318Y-68876428D02*
X169848603Y-69420714D01*
X169304318Y-68876428D02*
X170030032Y-69602143D01*
X170574318Y-67666904D02*
X170574318Y-68392619D01*
X170574318Y-68029762D02*
X169304318Y-68029762D01*
X169304318Y-68029762D02*
X169485746Y-68150714D01*
X169485746Y-68150714D02*
X169606699Y-68271666D01*
X169606699Y-68271666D02*
X169667175Y-68392619D01*
X169304318Y-66880714D02*
X169304318Y-66759761D01*
X169304318Y-66759761D02*
X169364794Y-66638809D01*
X169364794Y-66638809D02*
X169425270Y-66578333D01*
X169425270Y-66578333D02*
X169546222Y-66517857D01*
X169546222Y-66517857D02*
X169788127Y-66457380D01*
X169788127Y-66457380D02*
X170090508Y-66457380D01*
X170090508Y-66457380D02*
X170332413Y-66517857D01*
X170332413Y-66517857D02*
X170453365Y-66578333D01*
X170453365Y-66578333D02*
X170513842Y-66638809D01*
X170513842Y-66638809D02*
X170574318Y-66759761D01*
X170574318Y-66759761D02*
X170574318Y-66880714D01*
X170574318Y-66880714D02*
X170513842Y-67001666D01*
X170513842Y-67001666D02*
X170453365Y-67062142D01*
X170453365Y-67062142D02*
X170332413Y-67122619D01*
X170332413Y-67122619D02*
X170090508Y-67183095D01*
X170090508Y-67183095D02*
X169788127Y-67183095D01*
X169788127Y-67183095D02*
X169546222Y-67122619D01*
X169546222Y-67122619D02*
X169425270Y-67062142D01*
X169425270Y-67062142D02*
X169364794Y-67001666D01*
X169364794Y-67001666D02*
X169304318Y-66880714D01*
D12*
X197918095Y-96929919D02*
X197918095Y-97739442D01*
X197918095Y-97739442D02*
X197965714Y-97834680D01*
X197965714Y-97834680D02*
X198013333Y-97882300D01*
X198013333Y-97882300D02*
X198108571Y-97929919D01*
X198108571Y-97929919D02*
X198299047Y-97929919D01*
X198299047Y-97929919D02*
X198394285Y-97882300D01*
X198394285Y-97882300D02*
X198441904Y-97834680D01*
X198441904Y-97834680D02*
X198489523Y-97739442D01*
X198489523Y-97739442D02*
X198489523Y-96929919D01*
X199489523Y-97929919D02*
X198918095Y-97929919D01*
X199203809Y-97929919D02*
X199203809Y-96929919D01*
X199203809Y-96929919D02*
X199108571Y-97072776D01*
X199108571Y-97072776D02*
X199013333Y-97168014D01*
X199013333Y-97168014D02*
X198918095Y-97215633D01*
D11*
X170434318Y-127802143D02*
X169164318Y-127802143D01*
X170434318Y-127076428D02*
X169708603Y-127620714D01*
X169164318Y-127076428D02*
X169890032Y-127802143D01*
X169285270Y-126592619D02*
X169224794Y-126532143D01*
X169224794Y-126532143D02*
X169164318Y-126411190D01*
X169164318Y-126411190D02*
X169164318Y-126108809D01*
X169164318Y-126108809D02*
X169224794Y-125987857D01*
X169224794Y-125987857D02*
X169285270Y-125927381D01*
X169285270Y-125927381D02*
X169406222Y-125866904D01*
X169406222Y-125866904D02*
X169527175Y-125866904D01*
X169527175Y-125866904D02*
X169708603Y-125927381D01*
X169708603Y-125927381D02*
X170434318Y-126653095D01*
X170434318Y-126653095D02*
X170434318Y-125866904D01*
X169164318Y-124717857D02*
X169164318Y-125322619D01*
X169164318Y-125322619D02*
X169769080Y-125383095D01*
X169769080Y-125383095D02*
X169708603Y-125322619D01*
X169708603Y-125322619D02*
X169648127Y-125201666D01*
X169648127Y-125201666D02*
X169648127Y-124899285D01*
X169648127Y-124899285D02*
X169708603Y-124778333D01*
X169708603Y-124778333D02*
X169769080Y-124717857D01*
X169769080Y-124717857D02*
X169890032Y-124657380D01*
X169890032Y-124657380D02*
X170192413Y-124657380D01*
X170192413Y-124657380D02*
X170313365Y-124717857D01*
X170313365Y-124717857D02*
X170373842Y-124778333D01*
X170373842Y-124778333D02*
X170434318Y-124899285D01*
X170434318Y-124899285D02*
X170434318Y-125201666D01*
X170434318Y-125201666D02*
X170373842Y-125322619D01*
X170373842Y-125322619D02*
X170313365Y-125383095D01*
X155014318Y-69452143D02*
X153744318Y-69452143D01*
X155014318Y-68726428D02*
X154288603Y-69270714D01*
X153744318Y-68726428D02*
X154470032Y-69452143D01*
X155014318Y-67516904D02*
X155014318Y-68242619D01*
X155014318Y-67879762D02*
X153744318Y-67879762D01*
X153744318Y-67879762D02*
X153925746Y-68000714D01*
X153925746Y-68000714D02*
X154046699Y-68121666D01*
X154046699Y-68121666D02*
X154107175Y-68242619D01*
X154167651Y-66428333D02*
X155014318Y-66428333D01*
X153683842Y-66730714D02*
X154590984Y-67033095D01*
X154590984Y-67033095D02*
X154590984Y-66246904D01*
X225434318Y-127442143D02*
X224164318Y-127442143D01*
X225434318Y-126716428D02*
X224708603Y-127260714D01*
X224164318Y-126716428D02*
X224890032Y-127442143D01*
X225434318Y-125506904D02*
X225434318Y-126232619D01*
X225434318Y-125869762D02*
X224164318Y-125869762D01*
X224164318Y-125869762D02*
X224345746Y-125990714D01*
X224345746Y-125990714D02*
X224466699Y-126111666D01*
X224466699Y-126111666D02*
X224527175Y-126232619D01*
X224708603Y-124781190D02*
X224648127Y-124902142D01*
X224648127Y-124902142D02*
X224587651Y-124962619D01*
X224587651Y-124962619D02*
X224466699Y-125023095D01*
X224466699Y-125023095D02*
X224406222Y-125023095D01*
X224406222Y-125023095D02*
X224285270Y-124962619D01*
X224285270Y-124962619D02*
X224224794Y-124902142D01*
X224224794Y-124902142D02*
X224164318Y-124781190D01*
X224164318Y-124781190D02*
X224164318Y-124539285D01*
X224164318Y-124539285D02*
X224224794Y-124418333D01*
X224224794Y-124418333D02*
X224285270Y-124357857D01*
X224285270Y-124357857D02*
X224406222Y-124297380D01*
X224406222Y-124297380D02*
X224466699Y-124297380D01*
X224466699Y-124297380D02*
X224587651Y-124357857D01*
X224587651Y-124357857D02*
X224648127Y-124418333D01*
X224648127Y-124418333D02*
X224708603Y-124539285D01*
X224708603Y-124539285D02*
X224708603Y-124781190D01*
X224708603Y-124781190D02*
X224769080Y-124902142D01*
X224769080Y-124902142D02*
X224829556Y-124962619D01*
X224829556Y-124962619D02*
X224950508Y-125023095D01*
X224950508Y-125023095D02*
X225192413Y-125023095D01*
X225192413Y-125023095D02*
X225313365Y-124962619D01*
X225313365Y-124962619D02*
X225373842Y-124902142D01*
X225373842Y-124902142D02*
X225434318Y-124781190D01*
X225434318Y-124781190D02*
X225434318Y-124539285D01*
X225434318Y-124539285D02*
X225373842Y-124418333D01*
X225373842Y-124418333D02*
X225313365Y-124357857D01*
X225313365Y-124357857D02*
X225192413Y-124297380D01*
X225192413Y-124297380D02*
X224950508Y-124297380D01*
X224950508Y-124297380D02*
X224829556Y-124357857D01*
X224829556Y-124357857D02*
X224769080Y-124418333D01*
X224769080Y-124418333D02*
X224708603Y-124539285D01*
D10*
X249114819Y-109069523D02*
X249829104Y-109069523D01*
X249829104Y-109069523D02*
X249971961Y-109117142D01*
X249971961Y-109117142D02*
X250067200Y-109212380D01*
X250067200Y-109212380D02*
X250114819Y-109355237D01*
X250114819Y-109355237D02*
X250114819Y-109450475D01*
X249210057Y-108640951D02*
X249162438Y-108593332D01*
X249162438Y-108593332D02*
X249114819Y-108498094D01*
X249114819Y-108498094D02*
X249114819Y-108259999D01*
X249114819Y-108259999D02*
X249162438Y-108164761D01*
X249162438Y-108164761D02*
X249210057Y-108117142D01*
X249210057Y-108117142D02*
X249305295Y-108069523D01*
X249305295Y-108069523D02*
X249400533Y-108069523D01*
X249400533Y-108069523D02*
X249543390Y-108117142D01*
X249543390Y-108117142D02*
X250114819Y-108688570D01*
X250114819Y-108688570D02*
X250114819Y-108069523D01*
X249114819Y-107736189D02*
X249114819Y-107069523D01*
X249114819Y-107069523D02*
X250114819Y-107498094D01*
X203964819Y-101861666D02*
X203488628Y-102194999D01*
X203964819Y-102433094D02*
X202964819Y-102433094D01*
X202964819Y-102433094D02*
X202964819Y-102052142D01*
X202964819Y-102052142D02*
X203012438Y-101956904D01*
X203012438Y-101956904D02*
X203060057Y-101909285D01*
X203060057Y-101909285D02*
X203155295Y-101861666D01*
X203155295Y-101861666D02*
X203298152Y-101861666D01*
X203298152Y-101861666D02*
X203393390Y-101909285D01*
X203393390Y-101909285D02*
X203441009Y-101956904D01*
X203441009Y-101956904D02*
X203488628Y-102052142D01*
X203488628Y-102052142D02*
X203488628Y-102433094D01*
X202964819Y-101528332D02*
X202964819Y-100861666D01*
X202964819Y-100861666D02*
X203964819Y-101290237D01*
X206744819Y-95812857D02*
X206268628Y-96146190D01*
X206744819Y-96384285D02*
X205744819Y-96384285D01*
X205744819Y-96384285D02*
X205744819Y-96003333D01*
X205744819Y-96003333D02*
X205792438Y-95908095D01*
X205792438Y-95908095D02*
X205840057Y-95860476D01*
X205840057Y-95860476D02*
X205935295Y-95812857D01*
X205935295Y-95812857D02*
X206078152Y-95812857D01*
X206078152Y-95812857D02*
X206173390Y-95860476D01*
X206173390Y-95860476D02*
X206221009Y-95908095D01*
X206221009Y-95908095D02*
X206268628Y-96003333D01*
X206268628Y-96003333D02*
X206268628Y-96384285D01*
X206744819Y-94860476D02*
X206744819Y-95431904D01*
X206744819Y-95146190D02*
X205744819Y-95146190D01*
X205744819Y-95146190D02*
X205887676Y-95241428D01*
X205887676Y-95241428D02*
X205982914Y-95336666D01*
X205982914Y-95336666D02*
X206030533Y-95431904D01*
X205840057Y-94479523D02*
X205792438Y-94431904D01*
X205792438Y-94431904D02*
X205744819Y-94336666D01*
X205744819Y-94336666D02*
X205744819Y-94098571D01*
X205744819Y-94098571D02*
X205792438Y-94003333D01*
X205792438Y-94003333D02*
X205840057Y-93955714D01*
X205840057Y-93955714D02*
X205935295Y-93908095D01*
X205935295Y-93908095D02*
X206030533Y-93908095D01*
X206030533Y-93908095D02*
X206173390Y-93955714D01*
X206173390Y-93955714D02*
X206744819Y-94527142D01*
X206744819Y-94527142D02*
X206744819Y-93908095D01*
X246170476Y-86329819D02*
X246170476Y-87044104D01*
X246170476Y-87044104D02*
X246122857Y-87186961D01*
X246122857Y-87186961D02*
X246027619Y-87282200D01*
X246027619Y-87282200D02*
X245884762Y-87329819D01*
X245884762Y-87329819D02*
X245789524Y-87329819D01*
X246599048Y-86425057D02*
X246646667Y-86377438D01*
X246646667Y-86377438D02*
X246741905Y-86329819D01*
X246741905Y-86329819D02*
X246980000Y-86329819D01*
X246980000Y-86329819D02*
X247075238Y-86377438D01*
X247075238Y-86377438D02*
X247122857Y-86425057D01*
X247122857Y-86425057D02*
X247170476Y-86520295D01*
X247170476Y-86520295D02*
X247170476Y-86615533D01*
X247170476Y-86615533D02*
X247122857Y-86758390D01*
X247122857Y-86758390D02*
X246551429Y-87329819D01*
X246551429Y-87329819D02*
X247170476Y-87329819D01*
X248027619Y-86329819D02*
X247837143Y-86329819D01*
X247837143Y-86329819D02*
X247741905Y-86377438D01*
X247741905Y-86377438D02*
X247694286Y-86425057D01*
X247694286Y-86425057D02*
X247599048Y-86567914D01*
X247599048Y-86567914D02*
X247551429Y-86758390D01*
X247551429Y-86758390D02*
X247551429Y-87139342D01*
X247551429Y-87139342D02*
X247599048Y-87234580D01*
X247599048Y-87234580D02*
X247646667Y-87282200D01*
X247646667Y-87282200D02*
X247741905Y-87329819D01*
X247741905Y-87329819D02*
X247932381Y-87329819D01*
X247932381Y-87329819D02*
X248027619Y-87282200D01*
X248027619Y-87282200D02*
X248075238Y-87234580D01*
X248075238Y-87234580D02*
X248122857Y-87139342D01*
X248122857Y-87139342D02*
X248122857Y-86901247D01*
X248122857Y-86901247D02*
X248075238Y-86806009D01*
X248075238Y-86806009D02*
X248027619Y-86758390D01*
X248027619Y-86758390D02*
X247932381Y-86710771D01*
X247932381Y-86710771D02*
X247741905Y-86710771D01*
X247741905Y-86710771D02*
X247646667Y-86758390D01*
X247646667Y-86758390D02*
X247599048Y-86806009D01*
X247599048Y-86806009D02*
X247551429Y-86901247D01*
D11*
X194081818Y-69352381D02*
X192811818Y-69352381D01*
X194081818Y-68626666D02*
X193356103Y-69170952D01*
X192811818Y-68626666D02*
X193537532Y-69352381D01*
X192811818Y-67477619D02*
X192811818Y-68082381D01*
X192811818Y-68082381D02*
X193416580Y-68142857D01*
X193416580Y-68142857D02*
X193356103Y-68082381D01*
X193356103Y-68082381D02*
X193295627Y-67961428D01*
X193295627Y-67961428D02*
X193295627Y-67659047D01*
X193295627Y-67659047D02*
X193356103Y-67538095D01*
X193356103Y-67538095D02*
X193416580Y-67477619D01*
X193416580Y-67477619D02*
X193537532Y-67417142D01*
X193537532Y-67417142D02*
X193839913Y-67417142D01*
X193839913Y-67417142D02*
X193960865Y-67477619D01*
X193960865Y-67477619D02*
X194021342Y-67538095D01*
X194021342Y-67538095D02*
X194081818Y-67659047D01*
X194081818Y-67659047D02*
X194081818Y-67961428D01*
X194081818Y-67961428D02*
X194021342Y-68082381D01*
X194021342Y-68082381D02*
X193960865Y-68142857D01*
D10*
X205484819Y-95717857D02*
X205008628Y-96051190D01*
X205484819Y-96289285D02*
X204484819Y-96289285D01*
X204484819Y-96289285D02*
X204484819Y-95908333D01*
X204484819Y-95908333D02*
X204532438Y-95813095D01*
X204532438Y-95813095D02*
X204580057Y-95765476D01*
X204580057Y-95765476D02*
X204675295Y-95717857D01*
X204675295Y-95717857D02*
X204818152Y-95717857D01*
X204818152Y-95717857D02*
X204913390Y-95765476D01*
X204913390Y-95765476D02*
X204961009Y-95813095D01*
X204961009Y-95813095D02*
X205008628Y-95908333D01*
X205008628Y-95908333D02*
X205008628Y-96289285D01*
X205484819Y-94765476D02*
X205484819Y-95336904D01*
X205484819Y-95051190D02*
X204484819Y-95051190D01*
X204484819Y-95051190D02*
X204627676Y-95146428D01*
X204627676Y-95146428D02*
X204722914Y-95241666D01*
X204722914Y-95241666D02*
X204770533Y-95336904D01*
X204484819Y-94432142D02*
X204484819Y-93813095D01*
X204484819Y-93813095D02*
X204865771Y-94146428D01*
X204865771Y-94146428D02*
X204865771Y-94003571D01*
X204865771Y-94003571D02*
X204913390Y-93908333D01*
X204913390Y-93908333D02*
X204961009Y-93860714D01*
X204961009Y-93860714D02*
X205056247Y-93813095D01*
X205056247Y-93813095D02*
X205294342Y-93813095D01*
X205294342Y-93813095D02*
X205389580Y-93860714D01*
X205389580Y-93860714D02*
X205437200Y-93908333D01*
X205437200Y-93908333D02*
X205484819Y-94003571D01*
X205484819Y-94003571D02*
X205484819Y-94289285D01*
X205484819Y-94289285D02*
X205437200Y-94384523D01*
X205437200Y-94384523D02*
X205389580Y-94432142D01*
X246284819Y-85682857D02*
X245808628Y-86016190D01*
X246284819Y-86254285D02*
X245284819Y-86254285D01*
X245284819Y-86254285D02*
X245284819Y-85873333D01*
X245284819Y-85873333D02*
X245332438Y-85778095D01*
X245332438Y-85778095D02*
X245380057Y-85730476D01*
X245380057Y-85730476D02*
X245475295Y-85682857D01*
X245475295Y-85682857D02*
X245618152Y-85682857D01*
X245618152Y-85682857D02*
X245713390Y-85730476D01*
X245713390Y-85730476D02*
X245761009Y-85778095D01*
X245761009Y-85778095D02*
X245808628Y-85873333D01*
X245808628Y-85873333D02*
X245808628Y-86254285D01*
X245284819Y-84778095D02*
X245284819Y-85254285D01*
X245284819Y-85254285D02*
X245761009Y-85301904D01*
X245761009Y-85301904D02*
X245713390Y-85254285D01*
X245713390Y-85254285D02*
X245665771Y-85159047D01*
X245665771Y-85159047D02*
X245665771Y-84920952D01*
X245665771Y-84920952D02*
X245713390Y-84825714D01*
X245713390Y-84825714D02*
X245761009Y-84778095D01*
X245761009Y-84778095D02*
X245856247Y-84730476D01*
X245856247Y-84730476D02*
X246094342Y-84730476D01*
X246094342Y-84730476D02*
X246189580Y-84778095D01*
X246189580Y-84778095D02*
X246237200Y-84825714D01*
X246237200Y-84825714D02*
X246284819Y-84920952D01*
X246284819Y-84920952D02*
X246284819Y-85159047D01*
X246284819Y-85159047D02*
X246237200Y-85254285D01*
X246237200Y-85254285D02*
X246189580Y-85301904D01*
X245618152Y-83873333D02*
X246284819Y-83873333D01*
X245237200Y-84111428D02*
X245951485Y-84349523D01*
X245951485Y-84349523D02*
X245951485Y-83730476D01*
D11*
X233146818Y-69354881D02*
X231876818Y-69354881D01*
X233146818Y-68629166D02*
X232421103Y-69173452D01*
X231876818Y-68629166D02*
X232602532Y-69354881D01*
X231997770Y-68145357D02*
X231937294Y-68084881D01*
X231937294Y-68084881D02*
X231876818Y-67963928D01*
X231876818Y-67963928D02*
X231876818Y-67661547D01*
X231876818Y-67661547D02*
X231937294Y-67540595D01*
X231937294Y-67540595D02*
X231997770Y-67480119D01*
X231997770Y-67480119D02*
X232118722Y-67419642D01*
X232118722Y-67419642D02*
X232239675Y-67419642D01*
X232239675Y-67419642D02*
X232421103Y-67480119D01*
X232421103Y-67480119D02*
X233146818Y-68205833D01*
X233146818Y-68205833D02*
X233146818Y-67419642D01*
X240954318Y-69552143D02*
X239684318Y-69552143D01*
X240954318Y-68826428D02*
X240228603Y-69370714D01*
X239684318Y-68826428D02*
X240410032Y-69552143D01*
X240954318Y-67616904D02*
X240954318Y-68342619D01*
X240954318Y-67979762D02*
X239684318Y-67979762D01*
X239684318Y-67979762D02*
X239865746Y-68100714D01*
X239865746Y-68100714D02*
X239986699Y-68221666D01*
X239986699Y-68221666D02*
X240047175Y-68342619D01*
X240954318Y-66407380D02*
X240954318Y-67133095D01*
X240954318Y-66770238D02*
X239684318Y-66770238D01*
X239684318Y-66770238D02*
X239865746Y-66891190D01*
X239865746Y-66891190D02*
X239986699Y-67012142D01*
X239986699Y-67012142D02*
X240047175Y-67133095D01*
X248649318Y-127132143D02*
X247379318Y-127132143D01*
X248649318Y-126406428D02*
X247923603Y-126950714D01*
X247379318Y-126406428D02*
X248105032Y-127132143D01*
X248649318Y-125196904D02*
X248649318Y-125922619D01*
X248649318Y-125559762D02*
X247379318Y-125559762D01*
X247379318Y-125559762D02*
X247560746Y-125680714D01*
X247560746Y-125680714D02*
X247681699Y-125801666D01*
X247681699Y-125801666D02*
X247742175Y-125922619D01*
X247379318Y-124047857D02*
X247379318Y-124652619D01*
X247379318Y-124652619D02*
X247984080Y-124713095D01*
X247984080Y-124713095D02*
X247923603Y-124652619D01*
X247923603Y-124652619D02*
X247863127Y-124531666D01*
X247863127Y-124531666D02*
X247863127Y-124229285D01*
X247863127Y-124229285D02*
X247923603Y-124108333D01*
X247923603Y-124108333D02*
X247984080Y-124047857D01*
X247984080Y-124047857D02*
X248105032Y-123987380D01*
X248105032Y-123987380D02*
X248407413Y-123987380D01*
X248407413Y-123987380D02*
X248528365Y-124047857D01*
X248528365Y-124047857D02*
X248588842Y-124108333D01*
X248588842Y-124108333D02*
X248649318Y-124229285D01*
X248649318Y-124229285D02*
X248649318Y-124531666D01*
X248649318Y-124531666D02*
X248588842Y-124652619D01*
X248588842Y-124652619D02*
X248528365Y-124713095D01*
X154814318Y-127302143D02*
X153544318Y-127302143D01*
X154814318Y-126576428D02*
X154088603Y-127120714D01*
X153544318Y-126576428D02*
X154270032Y-127302143D01*
X153665270Y-126092619D02*
X153604794Y-126032143D01*
X153604794Y-126032143D02*
X153544318Y-125911190D01*
X153544318Y-125911190D02*
X153544318Y-125608809D01*
X153544318Y-125608809D02*
X153604794Y-125487857D01*
X153604794Y-125487857D02*
X153665270Y-125427381D01*
X153665270Y-125427381D02*
X153786222Y-125366904D01*
X153786222Y-125366904D02*
X153907175Y-125366904D01*
X153907175Y-125366904D02*
X154088603Y-125427381D01*
X154088603Y-125427381D02*
X154814318Y-126153095D01*
X154814318Y-126153095D02*
X154814318Y-125366904D01*
X153544318Y-124943571D02*
X153544318Y-124096904D01*
X153544318Y-124096904D02*
X154814318Y-124641190D01*
D10*
X234323333Y-104019580D02*
X234275714Y-104067200D01*
X234275714Y-104067200D02*
X234132857Y-104114819D01*
X234132857Y-104114819D02*
X234037619Y-104114819D01*
X234037619Y-104114819D02*
X233894762Y-104067200D01*
X233894762Y-104067200D02*
X233799524Y-103971961D01*
X233799524Y-103971961D02*
X233751905Y-103876723D01*
X233751905Y-103876723D02*
X233704286Y-103686247D01*
X233704286Y-103686247D02*
X233704286Y-103543390D01*
X233704286Y-103543390D02*
X233751905Y-103352914D01*
X233751905Y-103352914D02*
X233799524Y-103257676D01*
X233799524Y-103257676D02*
X233894762Y-103162438D01*
X233894762Y-103162438D02*
X234037619Y-103114819D01*
X234037619Y-103114819D02*
X234132857Y-103114819D01*
X234132857Y-103114819D02*
X234275714Y-103162438D01*
X234275714Y-103162438D02*
X234323333Y-103210057D01*
X235180476Y-103448152D02*
X235180476Y-104114819D01*
X234942381Y-103067200D02*
X234704286Y-103781485D01*
X234704286Y-103781485D02*
X235323333Y-103781485D01*
X240454819Y-111992857D02*
X239978628Y-112326190D01*
X240454819Y-112564285D02*
X239454819Y-112564285D01*
X239454819Y-112564285D02*
X239454819Y-112183333D01*
X239454819Y-112183333D02*
X239502438Y-112088095D01*
X239502438Y-112088095D02*
X239550057Y-112040476D01*
X239550057Y-112040476D02*
X239645295Y-111992857D01*
X239645295Y-111992857D02*
X239788152Y-111992857D01*
X239788152Y-111992857D02*
X239883390Y-112040476D01*
X239883390Y-112040476D02*
X239931009Y-112088095D01*
X239931009Y-112088095D02*
X239978628Y-112183333D01*
X239978628Y-112183333D02*
X239978628Y-112564285D01*
X239454819Y-111088095D02*
X239454819Y-111564285D01*
X239454819Y-111564285D02*
X239931009Y-111611904D01*
X239931009Y-111611904D02*
X239883390Y-111564285D01*
X239883390Y-111564285D02*
X239835771Y-111469047D01*
X239835771Y-111469047D02*
X239835771Y-111230952D01*
X239835771Y-111230952D02*
X239883390Y-111135714D01*
X239883390Y-111135714D02*
X239931009Y-111088095D01*
X239931009Y-111088095D02*
X240026247Y-111040476D01*
X240026247Y-111040476D02*
X240264342Y-111040476D01*
X240264342Y-111040476D02*
X240359580Y-111088095D01*
X240359580Y-111088095D02*
X240407200Y-111135714D01*
X240407200Y-111135714D02*
X240454819Y-111230952D01*
X240454819Y-111230952D02*
X240454819Y-111469047D01*
X240454819Y-111469047D02*
X240407200Y-111564285D01*
X240407200Y-111564285D02*
X240359580Y-111611904D01*
X240454819Y-110088095D02*
X240454819Y-110659523D01*
X240454819Y-110373809D02*
X239454819Y-110373809D01*
X239454819Y-110373809D02*
X239597676Y-110469047D01*
X239597676Y-110469047D02*
X239692914Y-110564285D01*
X239692914Y-110564285D02*
X239740533Y-110659523D01*
D11*
X147114318Y-69322143D02*
X145844318Y-69322143D01*
X147114318Y-68596428D02*
X146388603Y-69140714D01*
X145844318Y-68596428D02*
X146570032Y-69322143D01*
X147114318Y-67386904D02*
X147114318Y-68112619D01*
X147114318Y-67749762D02*
X145844318Y-67749762D01*
X145844318Y-67749762D02*
X146025746Y-67870714D01*
X146025746Y-67870714D02*
X146146699Y-67991666D01*
X146146699Y-67991666D02*
X146207175Y-68112619D01*
X145844318Y-66963571D02*
X145844318Y-66177380D01*
X145844318Y-66177380D02*
X146328127Y-66600714D01*
X146328127Y-66600714D02*
X146328127Y-66419285D01*
X146328127Y-66419285D02*
X146388603Y-66298333D01*
X146388603Y-66298333D02*
X146449080Y-66237857D01*
X146449080Y-66237857D02*
X146570032Y-66177380D01*
X146570032Y-66177380D02*
X146872413Y-66177380D01*
X146872413Y-66177380D02*
X146993365Y-66237857D01*
X146993365Y-66237857D02*
X147053842Y-66298333D01*
X147053842Y-66298333D02*
X147114318Y-66419285D01*
X147114318Y-66419285D02*
X147114318Y-66782142D01*
X147114318Y-66782142D02*
X147053842Y-66903095D01*
X147053842Y-66903095D02*
X146993365Y-66963571D01*
X209714318Y-69349881D02*
X208444318Y-69349881D01*
X209714318Y-68624166D02*
X208988603Y-69168452D01*
X208444318Y-68624166D02*
X209170032Y-69349881D01*
X208444318Y-68200833D02*
X208444318Y-67414642D01*
X208444318Y-67414642D02*
X208928127Y-67837976D01*
X208928127Y-67837976D02*
X208928127Y-67656547D01*
X208928127Y-67656547D02*
X208988603Y-67535595D01*
X208988603Y-67535595D02*
X209049080Y-67475119D01*
X209049080Y-67475119D02*
X209170032Y-67414642D01*
X209170032Y-67414642D02*
X209472413Y-67414642D01*
X209472413Y-67414642D02*
X209593365Y-67475119D01*
X209593365Y-67475119D02*
X209653842Y-67535595D01*
X209653842Y-67535595D02*
X209714318Y-67656547D01*
X209714318Y-67656547D02*
X209714318Y-68019404D01*
X209714318Y-68019404D02*
X209653842Y-68140357D01*
X209653842Y-68140357D02*
X209593365Y-68200833D01*
D10*
X189987142Y-90264815D02*
X189653809Y-89788624D01*
X189415714Y-90264815D02*
X189415714Y-89264815D01*
X189415714Y-89264815D02*
X189796666Y-89264815D01*
X189796666Y-89264815D02*
X189891904Y-89312434D01*
X189891904Y-89312434D02*
X189939523Y-89360053D01*
X189939523Y-89360053D02*
X189987142Y-89455291D01*
X189987142Y-89455291D02*
X189987142Y-89598148D01*
X189987142Y-89598148D02*
X189939523Y-89693386D01*
X189939523Y-89693386D02*
X189891904Y-89741005D01*
X189891904Y-89741005D02*
X189796666Y-89788624D01*
X189796666Y-89788624D02*
X189415714Y-89788624D01*
X190368095Y-89360053D02*
X190415714Y-89312434D01*
X190415714Y-89312434D02*
X190510952Y-89264815D01*
X190510952Y-89264815D02*
X190749047Y-89264815D01*
X190749047Y-89264815D02*
X190844285Y-89312434D01*
X190844285Y-89312434D02*
X190891904Y-89360053D01*
X190891904Y-89360053D02*
X190939523Y-89455291D01*
X190939523Y-89455291D02*
X190939523Y-89550529D01*
X190939523Y-89550529D02*
X190891904Y-89693386D01*
X190891904Y-89693386D02*
X190320476Y-90264815D01*
X190320476Y-90264815D02*
X190939523Y-90264815D01*
X191320476Y-89360053D02*
X191368095Y-89312434D01*
X191368095Y-89312434D02*
X191463333Y-89264815D01*
X191463333Y-89264815D02*
X191701428Y-89264815D01*
X191701428Y-89264815D02*
X191796666Y-89312434D01*
X191796666Y-89312434D02*
X191844285Y-89360053D01*
X191844285Y-89360053D02*
X191891904Y-89455291D01*
X191891904Y-89455291D02*
X191891904Y-89550529D01*
X191891904Y-89550529D02*
X191844285Y-89693386D01*
X191844285Y-89693386D02*
X191272857Y-90264815D01*
X191272857Y-90264815D02*
X191891904Y-90264815D01*
X236587142Y-105854819D02*
X236253809Y-105378628D01*
X236015714Y-105854819D02*
X236015714Y-104854819D01*
X236015714Y-104854819D02*
X236396666Y-104854819D01*
X236396666Y-104854819D02*
X236491904Y-104902438D01*
X236491904Y-104902438D02*
X236539523Y-104950057D01*
X236539523Y-104950057D02*
X236587142Y-105045295D01*
X236587142Y-105045295D02*
X236587142Y-105188152D01*
X236587142Y-105188152D02*
X236539523Y-105283390D01*
X236539523Y-105283390D02*
X236491904Y-105331009D01*
X236491904Y-105331009D02*
X236396666Y-105378628D01*
X236396666Y-105378628D02*
X236015714Y-105378628D01*
X237491904Y-104854819D02*
X237015714Y-104854819D01*
X237015714Y-104854819D02*
X236968095Y-105331009D01*
X236968095Y-105331009D02*
X237015714Y-105283390D01*
X237015714Y-105283390D02*
X237110952Y-105235771D01*
X237110952Y-105235771D02*
X237349047Y-105235771D01*
X237349047Y-105235771D02*
X237444285Y-105283390D01*
X237444285Y-105283390D02*
X237491904Y-105331009D01*
X237491904Y-105331009D02*
X237539523Y-105426247D01*
X237539523Y-105426247D02*
X237539523Y-105664342D01*
X237539523Y-105664342D02*
X237491904Y-105759580D01*
X237491904Y-105759580D02*
X237444285Y-105807200D01*
X237444285Y-105807200D02*
X237349047Y-105854819D01*
X237349047Y-105854819D02*
X237110952Y-105854819D01*
X237110952Y-105854819D02*
X237015714Y-105807200D01*
X237015714Y-105807200D02*
X236968095Y-105759580D01*
X238444285Y-104854819D02*
X237968095Y-104854819D01*
X237968095Y-104854819D02*
X237920476Y-105331009D01*
X237920476Y-105331009D02*
X237968095Y-105283390D01*
X237968095Y-105283390D02*
X238063333Y-105235771D01*
X238063333Y-105235771D02*
X238301428Y-105235771D01*
X238301428Y-105235771D02*
X238396666Y-105283390D01*
X238396666Y-105283390D02*
X238444285Y-105331009D01*
X238444285Y-105331009D02*
X238491904Y-105426247D01*
X238491904Y-105426247D02*
X238491904Y-105664342D01*
X238491904Y-105664342D02*
X238444285Y-105759580D01*
X238444285Y-105759580D02*
X238396666Y-105807200D01*
X238396666Y-105807200D02*
X238301428Y-105854819D01*
X238301428Y-105854819D02*
X238063333Y-105854819D01*
X238063333Y-105854819D02*
X237968095Y-105807200D01*
X237968095Y-105807200D02*
X237920476Y-105759580D01*
X202544819Y-101966666D02*
X202068628Y-102299999D01*
X202544819Y-102538094D02*
X201544819Y-102538094D01*
X201544819Y-102538094D02*
X201544819Y-102157142D01*
X201544819Y-102157142D02*
X201592438Y-102061904D01*
X201592438Y-102061904D02*
X201640057Y-102014285D01*
X201640057Y-102014285D02*
X201735295Y-101966666D01*
X201735295Y-101966666D02*
X201878152Y-101966666D01*
X201878152Y-101966666D02*
X201973390Y-102014285D01*
X201973390Y-102014285D02*
X202021009Y-102061904D01*
X202021009Y-102061904D02*
X202068628Y-102157142D01*
X202068628Y-102157142D02*
X202068628Y-102538094D01*
X201544819Y-101109523D02*
X201544819Y-101299999D01*
X201544819Y-101299999D02*
X201592438Y-101395237D01*
X201592438Y-101395237D02*
X201640057Y-101442856D01*
X201640057Y-101442856D02*
X201782914Y-101538094D01*
X201782914Y-101538094D02*
X201973390Y-101585713D01*
X201973390Y-101585713D02*
X202354342Y-101585713D01*
X202354342Y-101585713D02*
X202449580Y-101538094D01*
X202449580Y-101538094D02*
X202497200Y-101490475D01*
X202497200Y-101490475D02*
X202544819Y-101395237D01*
X202544819Y-101395237D02*
X202544819Y-101204761D01*
X202544819Y-101204761D02*
X202497200Y-101109523D01*
X202497200Y-101109523D02*
X202449580Y-101061904D01*
X202449580Y-101061904D02*
X202354342Y-101014285D01*
X202354342Y-101014285D02*
X202116247Y-101014285D01*
X202116247Y-101014285D02*
X202021009Y-101061904D01*
X202021009Y-101061904D02*
X201973390Y-101109523D01*
X201973390Y-101109523D02*
X201925771Y-101204761D01*
X201925771Y-101204761D02*
X201925771Y-101395237D01*
X201925771Y-101395237D02*
X201973390Y-101490475D01*
X201973390Y-101490475D02*
X202021009Y-101538094D01*
X202021009Y-101538094D02*
X202116247Y-101585713D01*
D11*
X201876818Y-69354881D02*
X200606818Y-69354881D01*
X201876818Y-68629166D02*
X201151103Y-69173452D01*
X200606818Y-68629166D02*
X201332532Y-69354881D01*
X200606818Y-67540595D02*
X200606818Y-67782500D01*
X200606818Y-67782500D02*
X200667294Y-67903452D01*
X200667294Y-67903452D02*
X200727770Y-67963928D01*
X200727770Y-67963928D02*
X200909199Y-68084881D01*
X200909199Y-68084881D02*
X201151103Y-68145357D01*
X201151103Y-68145357D02*
X201634913Y-68145357D01*
X201634913Y-68145357D02*
X201755865Y-68084881D01*
X201755865Y-68084881D02*
X201816342Y-68024404D01*
X201816342Y-68024404D02*
X201876818Y-67903452D01*
X201876818Y-67903452D02*
X201876818Y-67661547D01*
X201876818Y-67661547D02*
X201816342Y-67540595D01*
X201816342Y-67540595D02*
X201755865Y-67480119D01*
X201755865Y-67480119D02*
X201634913Y-67419642D01*
X201634913Y-67419642D02*
X201332532Y-67419642D01*
X201332532Y-67419642D02*
X201211580Y-67480119D01*
X201211580Y-67480119D02*
X201151103Y-67540595D01*
X201151103Y-67540595D02*
X201090627Y-67661547D01*
X201090627Y-67661547D02*
X201090627Y-67903452D01*
X201090627Y-67903452D02*
X201151103Y-68024404D01*
X201151103Y-68024404D02*
X201211580Y-68084881D01*
X201211580Y-68084881D02*
X201332532Y-68145357D01*
D13*
X211107064Y-90695000D02*
X210652936Y-90695000D01*
X211107064Y-92165000D02*
X210652936Y-92165000D01*
D12*
X181325000Y-135425000D02*
X174125000Y-135425000D01*
X181325000Y-114925000D02*
X181325000Y-135425000D01*
X174125000Y-135425000D02*
X174125000Y-114925000D01*
X174125000Y-114925000D02*
X181325000Y-114925000D01*
X241940000Y-143500000D02*
X232040000Y-143500000D01*
X241940000Y-136000000D02*
X241940000Y-143500000D01*
X232040000Y-143500000D02*
X232040000Y-136000000D01*
X232040000Y-136000000D02*
X241940000Y-136000000D01*
D13*
X204605277Y-103902742D02*
X204605277Y-104377258D01*
X205650277Y-103902742D02*
X205650277Y-104377258D01*
X201497500Y-92377258D02*
X201497500Y-91902742D01*
X202542500Y-92377258D02*
X202542500Y-91902742D01*
X197047500Y-92377258D02*
X197047500Y-91902742D01*
X198092500Y-92377258D02*
X198092500Y-91902742D01*
X239790000Y-87370000D02*
X239790000Y-105590000D01*
X240090000Y-87370000D02*
X239790000Y-87370000D01*
X240090000Y-105590000D02*
X239790000Y-105590000D01*
X260010000Y-87370000D02*
X254200000Y-87370000D01*
X260010000Y-87370000D02*
X260010000Y-105590000D01*
X260010000Y-105590000D02*
X253510000Y-105590000D01*
X254000000Y-87380000D02*
X253500000Y-87380000D01*
X253500000Y-86880000D01*
X254000000Y-87380000D01*
G36*
X254000000Y-87380000D02*
G01*
X253500000Y-87380000D01*
X253500000Y-86880000D01*
X254000000Y-87380000D01*
G37*
D12*
X220370000Y-135437500D02*
X213170000Y-135437500D01*
X220370000Y-114937500D02*
X220370000Y-135437500D01*
X213170000Y-135437500D02*
X213170000Y-114937500D01*
X213170000Y-114937500D02*
X220370000Y-114937500D01*
D13*
X158985000Y-84130000D02*
X160425000Y-84130000D01*
X160425000Y-83560000D02*
X160425000Y-84130000D01*
X160425000Y-83560000D02*
X165625000Y-83560000D01*
X160425000Y-85650000D02*
X160425000Y-86670000D01*
X160425000Y-88190000D02*
X160425000Y-89210000D01*
X160425000Y-90730000D02*
X160425000Y-91750000D01*
X160425000Y-93270000D02*
X160425000Y-94290000D01*
X160425000Y-95810000D02*
X160425000Y-96830000D01*
X160425000Y-98350000D02*
X160425000Y-99370000D01*
X160425000Y-100890000D02*
X160425000Y-101910000D01*
X160425000Y-103430000D02*
X160425000Y-104450000D01*
X160425000Y-105970000D02*
X160425000Y-106990000D01*
X160425000Y-108510000D02*
X160425000Y-109080000D01*
X160425000Y-109080000D02*
X165625000Y-109080000D01*
X165625000Y-83560000D02*
X165625000Y-84130000D01*
X165625000Y-85650000D02*
X165625000Y-86670000D01*
X165625000Y-88190000D02*
X165625000Y-89210000D01*
X165625000Y-90730000D02*
X165625000Y-91750000D01*
X165625000Y-93270000D02*
X165625000Y-94290000D01*
X165625000Y-95810000D02*
X165625000Y-96830000D01*
X165625000Y-98350000D02*
X165625000Y-99370000D01*
X165625000Y-100890000D02*
X165625000Y-101910000D01*
X165625000Y-103430000D02*
X165625000Y-104450000D01*
X165625000Y-105970000D02*
X165625000Y-106990000D01*
X165625000Y-108510000D02*
X165625000Y-109080000D01*
X207417500Y-92377258D02*
X207417500Y-91902742D01*
X208462500Y-92377258D02*
X208462500Y-91902742D01*
X197017500Y-103902742D02*
X197017500Y-104377258D01*
X198062500Y-103902742D02*
X198062500Y-104377258D01*
X207640838Y-103902742D02*
X207640838Y-104377258D01*
X208685838Y-103902742D02*
X208685838Y-104377258D01*
D12*
X202087500Y-50067500D02*
X211987500Y-50067500D01*
X202087500Y-57567500D02*
X202087500Y-50067500D01*
X211987500Y-50067500D02*
X211987500Y-57567500D01*
X211987500Y-57567500D02*
X202087500Y-57567500D01*
D13*
X200051946Y-103902742D02*
X200051946Y-104377258D01*
X201096946Y-103902742D02*
X201096946Y-104377258D01*
D12*
X191920000Y-143480000D02*
X182020000Y-143480000D01*
X191920000Y-135980000D02*
X191920000Y-143480000D01*
X182020000Y-143480000D02*
X182020000Y-135980000D01*
X182020000Y-135980000D02*
X191920000Y-135980000D01*
X213335000Y-58165000D02*
X220535000Y-58165000D01*
X213335000Y-78665000D02*
X213335000Y-58165000D01*
X220535000Y-58165000D02*
X220535000Y-78665000D01*
X220535000Y-78665000D02*
X213335000Y-78665000D01*
X189120000Y-135427500D02*
X181920000Y-135427500D01*
X189120000Y-114927500D02*
X189120000Y-135427500D01*
X181920000Y-135427500D02*
X181920000Y-114927500D01*
X181920000Y-114927500D02*
X189120000Y-114927500D01*
D13*
X193980838Y-103902742D02*
X193980838Y-104377258D01*
X195025838Y-103902742D02*
X195025838Y-104377258D01*
D12*
X231940000Y-143500000D02*
X222040000Y-143500000D01*
X231940000Y-136000000D02*
X231940000Y-143500000D01*
X222040000Y-143500000D02*
X222040000Y-136000000D01*
X222040000Y-136000000D02*
X231940000Y-136000000D01*
X211930000Y-143440000D02*
X202030000Y-143440000D01*
X211930000Y-135940000D02*
X211930000Y-143440000D01*
X202030000Y-143440000D02*
X202030000Y-135940000D01*
X202030000Y-135940000D02*
X211930000Y-135940000D01*
D13*
X195498615Y-103902742D02*
X195498615Y-104377258D01*
X196543615Y-103902742D02*
X196543615Y-104377258D01*
X198507500Y-103902742D02*
X198507500Y-104377258D01*
X199552500Y-103902742D02*
X199552500Y-104377258D01*
D12*
X222087500Y-50067500D02*
X231987500Y-50067500D01*
X222087500Y-57567500D02*
X222087500Y-50067500D01*
X231987500Y-50067500D02*
X231987500Y-57567500D01*
X231987500Y-57567500D02*
X222087500Y-57567500D01*
X251990000Y-143510000D02*
X242090000Y-143510000D01*
X251990000Y-136010000D02*
X251990000Y-143510000D01*
X242090000Y-143510000D02*
X242090000Y-136010000D01*
X242090000Y-136010000D02*
X251990000Y-136010000D01*
D13*
X242547500Y-111152742D02*
X242547500Y-111627258D01*
X243592500Y-111152742D02*
X243592500Y-111627258D01*
X235690580Y-100220000D02*
X235409420Y-100220000D01*
X235690580Y-101240000D02*
X235409420Y-101240000D01*
X228780000Y-86530000D02*
X230110000Y-86530000D01*
X228780000Y-87860000D02*
X228780000Y-86530000D01*
X228780000Y-89130000D02*
X228780000Y-106970000D01*
X228780000Y-89130000D02*
X231440000Y-89130000D01*
X228780000Y-106970000D02*
X231440000Y-106970000D01*
X231440000Y-89130000D02*
X231440000Y-106970000D01*
X237607500Y-101717258D02*
X237607500Y-101242742D01*
X238652500Y-101717258D02*
X238652500Y-101242742D01*
X198557500Y-92377258D02*
X198557500Y-91902742D01*
X199602500Y-92377258D02*
X199602500Y-91902742D01*
D12*
X212077500Y-50067500D02*
X221977500Y-50067500D01*
X212077500Y-57567500D02*
X212077500Y-50067500D01*
X221977500Y-50067500D02*
X221977500Y-57567500D01*
X221977500Y-57567500D02*
X212077500Y-57567500D01*
D13*
X203007500Y-92377258D02*
X203007500Y-91902742D01*
X204052500Y-92377258D02*
X204052500Y-91902742D01*
X206123054Y-103902742D02*
X206123054Y-104377258D01*
X207168054Y-103902742D02*
X207168054Y-104377258D01*
D12*
X162067500Y-50067500D02*
X171967500Y-50067500D01*
X162067500Y-57567500D02*
X162067500Y-50067500D01*
X171967500Y-50067500D02*
X171967500Y-57567500D01*
X171967500Y-57567500D02*
X162067500Y-57567500D01*
X181920000Y-143480000D02*
X172020000Y-143480000D01*
X181920000Y-135980000D02*
X181920000Y-143480000D01*
X172020000Y-143480000D02*
X172020000Y-135980000D01*
X172020000Y-135980000D02*
X181920000Y-135980000D01*
X158632500Y-58165000D02*
X165832500Y-58165000D01*
X158632500Y-78665000D02*
X158632500Y-58165000D01*
X165832500Y-58165000D02*
X165832500Y-78665000D01*
X165832500Y-78665000D02*
X158632500Y-78665000D01*
X212575000Y-135435000D02*
X205375000Y-135435000D01*
X212575000Y-114935000D02*
X212575000Y-135435000D01*
X205375000Y-135435000D02*
X205375000Y-114935000D01*
X205375000Y-114935000D02*
X212575000Y-114935000D01*
X150065000Y-135395000D02*
X142865000Y-135395000D01*
X150065000Y-114895000D02*
X150065000Y-135395000D01*
X142865000Y-135395000D02*
X142865000Y-114895000D01*
X142865000Y-114895000D02*
X150065000Y-114895000D01*
X251787500Y-78697500D02*
X244587500Y-78697500D01*
X251787500Y-58197500D02*
X251787500Y-78697500D01*
X244587500Y-78697500D02*
X244587500Y-58197500D01*
X244587500Y-58197500D02*
X251787500Y-58197500D01*
D13*
X232480000Y-99830000D02*
X232480000Y-98830000D01*
X232530000Y-91830000D02*
X232530000Y-97630000D01*
X233480000Y-99830000D02*
X232480000Y-99830000D01*
X234480000Y-91630000D02*
X237080000Y-91630000D01*
X234480000Y-97830000D02*
X237080000Y-97830000D01*
X239030000Y-91730000D02*
X239030000Y-97730000D01*
D12*
X196955000Y-135445000D02*
X189755000Y-135445000D01*
X196955000Y-114945000D02*
X196955000Y-135445000D01*
X189755000Y-135445000D02*
X189755000Y-114945000D01*
X189755000Y-114945000D02*
X196955000Y-114945000D01*
D13*
X250060000Y-81850580D02*
X250060000Y-81569420D01*
X251080000Y-81850580D02*
X251080000Y-81569420D01*
D12*
X243880000Y-135427500D02*
X236680000Y-135427500D01*
X243880000Y-114927500D02*
X243880000Y-135427500D01*
X236680000Y-135427500D02*
X236680000Y-114927500D01*
X236680000Y-114927500D02*
X243880000Y-114927500D01*
X182057500Y-58167500D02*
X189257500Y-58167500D01*
X182057500Y-78667500D02*
X182057500Y-58167500D01*
X189257500Y-58167500D02*
X189257500Y-78667500D01*
X189257500Y-78667500D02*
X182057500Y-78667500D01*
X236020000Y-135437500D02*
X228820000Y-135437500D01*
X236020000Y-114937500D02*
X236020000Y-135437500D01*
X228820000Y-135437500D02*
X228820000Y-114937500D01*
X228820000Y-114937500D02*
X236020000Y-114937500D01*
D14*
X150298000Y-91560000D02*
X150298000Y-99500000D01*
X156202000Y-99500000D02*
X156202000Y-91560000D01*
D12*
X174262500Y-58165000D02*
X181462500Y-58165000D01*
X174262500Y-78665000D02*
X174262500Y-58165000D01*
X181462500Y-58165000D02*
X181462500Y-78665000D01*
X181462500Y-78665000D02*
X174262500Y-78665000D01*
D13*
X200007500Y-92377258D02*
X200007500Y-91902742D01*
X201052500Y-92377258D02*
X201052500Y-91902742D01*
D12*
X232097500Y-50067500D02*
X241997500Y-50067500D01*
X232097500Y-57567500D02*
X232097500Y-50067500D01*
X241997500Y-50067500D02*
X241997500Y-57567500D01*
X241997500Y-57567500D02*
X232097500Y-57567500D01*
X204750000Y-135447500D02*
X197550000Y-135447500D01*
X204750000Y-114947500D02*
X204750000Y-135447500D01*
X197550000Y-135447500D02*
X197550000Y-114947500D01*
X197550000Y-114947500D02*
X204750000Y-114947500D01*
D13*
X194067500Y-92377258D02*
X194067500Y-91902742D01*
X195112500Y-92377258D02*
X195112500Y-91902742D01*
D12*
X242107500Y-50067500D02*
X252007500Y-50067500D01*
X242107500Y-57567500D02*
X242107500Y-50067500D01*
X252007500Y-50067500D02*
X252007500Y-57567500D01*
X252007500Y-57567500D02*
X242107500Y-57567500D01*
D13*
X195537500Y-92377258D02*
X195537500Y-91902742D01*
X196582500Y-92377258D02*
X196582500Y-91902742D01*
D12*
X165695000Y-135425000D02*
X158495000Y-135425000D01*
X165695000Y-114925000D02*
X165695000Y-135425000D01*
X158495000Y-135425000D02*
X158495000Y-114925000D01*
X158495000Y-114925000D02*
X165695000Y-114925000D01*
X151920000Y-143480000D02*
X142020000Y-143480000D01*
X151920000Y-135980000D02*
X151920000Y-143480000D01*
X142020000Y-143480000D02*
X142020000Y-135980000D01*
X142020000Y-135980000D02*
X151920000Y-135980000D01*
D13*
X240315000Y-83010000D02*
X240315000Y-83812470D01*
X240315000Y-84427530D02*
X240315000Y-85230000D01*
X241520000Y-83010000D02*
X240315000Y-83010000D01*
X241520000Y-83010000D02*
X241520000Y-83556529D01*
X241520000Y-84683471D02*
X241520000Y-85230000D01*
X241520000Y-85230000D02*
X240315000Y-85230000D01*
X242280000Y-83010000D02*
X243040000Y-83010000D01*
X243040000Y-83010000D02*
X243040000Y-84120000D01*
X170805000Y-84160000D02*
X172245000Y-84160000D01*
X172245000Y-83590000D02*
X172245000Y-84160000D01*
X172245000Y-83590000D02*
X177445000Y-83590000D01*
X172245000Y-85680000D02*
X172245000Y-86700000D01*
X172245000Y-88220000D02*
X172245000Y-89240000D01*
X172245000Y-90760000D02*
X172245000Y-91780000D01*
X172245000Y-93300000D02*
X172245000Y-94320000D01*
X172245000Y-95840000D02*
X172245000Y-96860000D01*
X172245000Y-98380000D02*
X172245000Y-99400000D01*
X172245000Y-100920000D02*
X172245000Y-101940000D01*
X172245000Y-103460000D02*
X172245000Y-104480000D01*
X172245000Y-106000000D02*
X172245000Y-107020000D01*
X172245000Y-108540000D02*
X172245000Y-109110000D01*
X172245000Y-109110000D02*
X177445000Y-109110000D01*
X177445000Y-83590000D02*
X177445000Y-84160000D01*
X177445000Y-85680000D02*
X177445000Y-86700000D01*
X177445000Y-88220000D02*
X177445000Y-89240000D01*
X177445000Y-90760000D02*
X177445000Y-91780000D01*
X177445000Y-93300000D02*
X177445000Y-94320000D01*
X177445000Y-95840000D02*
X177445000Y-96860000D01*
X177445000Y-98380000D02*
X177445000Y-99400000D01*
X177445000Y-100920000D02*
X177445000Y-101940000D01*
X177445000Y-103460000D02*
X177445000Y-104480000D01*
X177445000Y-106000000D02*
X177445000Y-107020000D01*
X177445000Y-108540000D02*
X177445000Y-109110000D01*
D12*
X221177500Y-58165000D02*
X228377500Y-58165000D01*
X221177500Y-78665000D02*
X221177500Y-58165000D01*
X228377500Y-58165000D02*
X228377500Y-78665000D01*
X228377500Y-78665000D02*
X221177500Y-78665000D01*
D13*
X249460000Y-84910580D02*
X249460000Y-84629420D01*
X250480000Y-84910580D02*
X250480000Y-84629420D01*
D12*
X166427500Y-58167500D02*
X173627500Y-58167500D01*
X166427500Y-78667500D02*
X166427500Y-58167500D01*
X173627500Y-58167500D02*
X173627500Y-78667500D01*
X173627500Y-78667500D02*
X166427500Y-78667500D01*
D14*
X184370000Y-81782500D02*
X184410000Y-81782500D01*
X185210000Y-81782500D02*
X185250000Y-81782500D01*
X186050000Y-81782500D02*
X186090000Y-81782500D01*
X186890000Y-81782500D02*
X186930000Y-81782500D01*
X187730000Y-81782500D02*
X187770000Y-81782500D01*
X188570000Y-81782500D02*
X188610000Y-81782500D01*
X189410000Y-81782500D02*
X189450000Y-81782500D01*
X190250000Y-81782500D02*
X190290000Y-81782500D01*
X191090000Y-81782500D02*
X191130000Y-81782500D01*
X191930000Y-81782500D02*
X191970000Y-81782500D01*
X192770000Y-81782500D02*
X192810000Y-81782500D01*
X193610000Y-81782500D02*
X193650000Y-81782500D01*
X194450000Y-81782500D02*
X194490000Y-81782500D01*
X195290000Y-81782500D02*
X195330000Y-81782500D01*
X196130000Y-81782500D02*
X196170000Y-81782500D01*
X196970000Y-81782500D02*
X197010000Y-81782500D01*
X197810000Y-81782500D02*
X197850000Y-81782500D01*
X198650000Y-81782500D02*
X198690000Y-81782500D01*
X199490000Y-81782500D02*
X199530000Y-81782500D01*
X200330000Y-81782500D02*
X200370000Y-81782500D01*
X201170000Y-81782500D02*
X201210000Y-81782500D01*
X202010000Y-81782500D02*
X202050000Y-81782500D01*
X202850000Y-81782500D02*
X202890000Y-81782500D01*
X203690000Y-81782500D02*
X203730000Y-81782500D01*
X204530000Y-81782500D02*
X204570000Y-81782500D01*
X205370000Y-81782500D02*
X205410000Y-81782500D01*
X206210000Y-81782500D02*
X206250000Y-81782500D01*
X207050000Y-81782500D02*
X207090000Y-81782500D01*
X207890000Y-81782500D02*
X207930000Y-81782500D01*
X208730000Y-81782500D02*
X208770000Y-81782500D01*
X209570000Y-81782500D02*
X209610000Y-81782500D01*
X210410000Y-81782500D02*
X210450000Y-81782500D01*
X211250000Y-81782500D02*
X211290000Y-81782500D01*
X212090000Y-81782500D02*
X212130000Y-81782500D01*
X212930000Y-81782500D02*
X212970000Y-81782500D01*
X213300000Y-81782500D02*
X213300000Y-81822500D01*
X213300000Y-82622500D02*
X213300000Y-82662500D01*
X213300000Y-83462500D02*
X213300000Y-83502500D01*
X213300000Y-84302500D02*
X213300000Y-84342500D01*
X213300000Y-85142500D02*
X213300000Y-85182500D01*
X213300000Y-85982500D02*
X213300000Y-86022500D01*
X213300000Y-86822500D02*
X213300000Y-86862500D01*
X213300000Y-87662500D02*
X213300000Y-87702500D01*
X213300000Y-88502500D02*
X213300000Y-88542500D01*
X213300000Y-89342500D02*
X213300000Y-89382500D01*
X213300000Y-90182500D02*
X213300000Y-90222500D01*
X213300000Y-91022500D02*
X213300000Y-91062500D01*
X213300000Y-91862500D02*
X213300000Y-91902500D01*
X213300000Y-92702500D02*
X213300000Y-92742500D01*
X213300000Y-93542500D02*
X213300000Y-93582500D01*
X213300000Y-94382500D02*
X213300000Y-94422500D01*
X213300000Y-95222500D02*
X213300000Y-95262500D01*
X213300000Y-96062500D02*
X213300000Y-96102500D01*
X213300000Y-96902500D02*
X213300000Y-96942500D01*
X213300000Y-97742500D02*
X213300000Y-97782500D01*
X213300000Y-98582500D02*
X213300000Y-98622500D01*
X213300000Y-99422500D02*
X213300000Y-99462500D01*
X213300000Y-100262500D02*
X213300000Y-100302500D01*
X213300000Y-101102500D02*
X213300000Y-101142500D01*
X213300000Y-101942500D02*
X213300000Y-101982500D01*
X213300000Y-102782500D02*
X213300000Y-102822500D01*
X213300000Y-103622500D02*
X213300000Y-103662500D01*
X213300000Y-104462500D02*
X213300000Y-104502500D01*
X213300000Y-105302500D02*
X213300000Y-105342500D01*
X213300000Y-106142500D02*
X213300000Y-106182500D01*
X213300000Y-106982500D02*
X213300000Y-107022500D01*
X213300000Y-107822500D02*
X213300000Y-107862500D01*
X213300000Y-108662500D02*
X213300000Y-108702500D01*
X213300000Y-109502500D02*
X213300000Y-109542500D01*
X213300000Y-110342500D02*
X213300000Y-110382500D01*
X213300000Y-111182500D02*
X213300000Y-111222500D01*
X213300000Y-112022500D02*
X213300000Y-112062500D01*
X213300000Y-112782500D02*
X213260000Y-112782500D01*
X212460000Y-112782500D02*
X212420000Y-112782500D01*
X211620000Y-112782500D02*
X211580000Y-112782500D01*
X210780000Y-112782500D02*
X210740000Y-112782500D01*
X209940000Y-112782500D02*
X209900000Y-112782500D01*
X209100000Y-112782500D02*
X209060000Y-112782500D01*
X208260000Y-112782500D02*
X208220000Y-112782500D01*
X207420000Y-112782500D02*
X207380000Y-112782500D01*
X206580000Y-112782500D02*
X206540000Y-112782500D01*
X205740000Y-112782500D02*
X205700000Y-112782500D01*
X204900000Y-112782500D02*
X204860000Y-112782500D01*
X204060000Y-112782500D02*
X204020000Y-112782500D01*
X203220000Y-112782500D02*
X203180000Y-112782500D01*
X202380000Y-112782500D02*
X202340000Y-112782500D01*
X201540000Y-112782500D02*
X201500000Y-112782500D01*
X200700000Y-112782500D02*
X200660000Y-112782500D01*
X199860000Y-112782500D02*
X199820000Y-112782500D01*
X199020000Y-112782500D02*
X198980000Y-112782500D01*
X198180000Y-112782500D02*
X198140000Y-112782500D01*
X197340000Y-112782500D02*
X197300000Y-112782500D01*
X196500000Y-112782500D02*
X196460000Y-112782500D01*
X195660000Y-112782500D02*
X195620000Y-112782500D01*
X194820000Y-112782500D02*
X194780000Y-112782500D01*
X193980000Y-112782500D02*
X193940000Y-112782500D01*
X193140000Y-112782500D02*
X193100000Y-112782500D01*
X192300000Y-112782500D02*
X192260000Y-112782500D01*
X191460000Y-112782500D02*
X191420000Y-112782500D01*
X190620000Y-112782500D02*
X190580000Y-112782500D01*
X189780000Y-112782500D02*
X189740000Y-112782500D01*
X188940000Y-112782500D02*
X188900000Y-112782500D01*
X188100000Y-112782500D02*
X188060000Y-112782500D01*
X187260000Y-112782500D02*
X187220000Y-112782500D01*
X186420000Y-112782500D02*
X186380000Y-112782500D01*
X185580000Y-112782500D02*
X185540000Y-112782500D01*
X184740000Y-112782500D02*
X184700000Y-112782500D01*
X184370000Y-112782500D02*
X184370000Y-112742500D01*
X184370000Y-111942500D02*
X184370000Y-111902500D01*
X184370000Y-111102500D02*
X184370000Y-111062500D01*
X184370000Y-110262500D02*
X184370000Y-110222500D01*
X184370000Y-109422500D02*
X184370000Y-109382500D01*
X184370000Y-108582500D02*
X184370000Y-108542500D01*
X184370000Y-107742500D02*
X184370000Y-107702500D01*
X184370000Y-106902500D02*
X184370000Y-106862500D01*
X184370000Y-106062500D02*
X184370000Y-106022500D01*
X184370000Y-105222500D02*
X184370000Y-105182500D01*
X184370000Y-104382500D02*
X184370000Y-104342500D01*
X184370000Y-103542500D02*
X184370000Y-103502500D01*
X184370000Y-102702500D02*
X184370000Y-102662500D01*
X184370000Y-101862500D02*
X184370000Y-101822500D01*
X184370000Y-101022500D02*
X184370000Y-100982500D01*
X184370000Y-100182500D02*
X184370000Y-100142500D01*
X184370000Y-99342500D02*
X184370000Y-99302500D01*
X184370000Y-98502500D02*
X184370000Y-98462500D01*
X184370000Y-97662500D02*
X184370000Y-97622500D01*
X184370000Y-96822500D02*
X184370000Y-96782500D01*
X184370000Y-95982500D02*
X184370000Y-95942500D01*
X184370000Y-95142500D02*
X184370000Y-95102500D01*
X184370000Y-94302500D02*
X184370000Y-94262500D01*
X184370000Y-93462500D02*
X184370000Y-93422500D01*
X184370000Y-92622500D02*
X184370000Y-92582500D01*
X184370000Y-91782500D02*
X184370000Y-91742500D01*
X184370000Y-90942500D02*
X184370000Y-90902500D01*
X184370000Y-90102500D02*
X184370000Y-90062500D01*
X184370000Y-89262500D02*
X184370000Y-89222500D01*
X184370000Y-88422500D02*
X184370000Y-88382500D01*
X184370000Y-87582500D02*
X184370000Y-87542500D01*
X184370000Y-86742500D02*
X184370000Y-86702500D01*
X184370000Y-85902500D02*
X184370000Y-85862500D01*
X184370000Y-85062500D02*
X184370000Y-85022500D01*
X184370000Y-84222500D02*
X184370000Y-84182500D01*
X184370000Y-83382500D02*
X184370000Y-83342500D01*
X184370000Y-82542500D02*
X184370000Y-82502500D01*
D12*
X142117500Y-50067500D02*
X152017500Y-50067500D01*
X142117500Y-57567500D02*
X142117500Y-50067500D01*
X152017500Y-50067500D02*
X152017500Y-57567500D01*
X152017500Y-57567500D02*
X142117500Y-57567500D01*
X173490000Y-135427500D02*
X166290000Y-135427500D01*
X173490000Y-114927500D02*
X173490000Y-135427500D01*
X166290000Y-135427500D02*
X166290000Y-114927500D01*
X166290000Y-114927500D02*
X173490000Y-114927500D01*
X150807500Y-58157500D02*
X158007500Y-58157500D01*
X150807500Y-78657500D02*
X150807500Y-58157500D01*
X158007500Y-58157500D02*
X158007500Y-78657500D01*
X158007500Y-78657500D02*
X150807500Y-78657500D01*
X182077500Y-50067500D02*
X191977500Y-50067500D01*
X182077500Y-57567500D02*
X182077500Y-50067500D01*
X191977500Y-50067500D02*
X191977500Y-57567500D01*
X191977500Y-57567500D02*
X182077500Y-57567500D01*
X152077500Y-50067500D02*
X161977500Y-50067500D01*
X152077500Y-57567500D02*
X152077500Y-50067500D01*
X161977500Y-50067500D02*
X161977500Y-57567500D01*
X161977500Y-57567500D02*
X152077500Y-57567500D01*
X142960000Y-90430000D02*
X150460000Y-90430000D01*
X142960000Y-100330000D02*
X142960000Y-90430000D01*
X150460000Y-90430000D02*
X150460000Y-100330000D01*
X150460000Y-100330000D02*
X142960000Y-100330000D01*
X228225000Y-135435000D02*
X221025000Y-135435000D01*
X228225000Y-114935000D02*
X228225000Y-135435000D01*
X221025000Y-135435000D02*
X221025000Y-114935000D01*
X221025000Y-114935000D02*
X228225000Y-114935000D01*
X171920000Y-143480000D02*
X162020000Y-143480000D01*
X171920000Y-135980000D02*
X171920000Y-143480000D01*
X162020000Y-143480000D02*
X162020000Y-135980000D01*
X162020000Y-135980000D02*
X171920000Y-135980000D01*
D13*
X238380000Y-106930000D02*
X238380000Y-109590000D01*
X246060000Y-106930000D02*
X238380000Y-106930000D01*
X246060000Y-106930000D02*
X246060000Y-109590000D01*
X246060000Y-109590000D02*
X238380000Y-109590000D01*
X247330000Y-106930000D02*
X248660000Y-106930000D01*
X248660000Y-106930000D02*
X248660000Y-108260000D01*
X203087500Y-103902742D02*
X203087500Y-104377258D01*
X204132500Y-103902742D02*
X204132500Y-104377258D01*
X205937500Y-92377258D02*
X205937500Y-91902742D01*
X206982500Y-92377258D02*
X206982500Y-91902742D01*
X245870000Y-84420000D02*
X245870000Y-83215000D01*
X246416529Y-84420000D02*
X245870000Y-84420000D01*
X246672470Y-83215000D02*
X245870000Y-83215000D01*
X248090000Y-83215000D02*
X247287530Y-83215000D01*
X248090000Y-84420000D02*
X247543471Y-84420000D01*
X248090000Y-84420000D02*
X248090000Y-83215000D01*
X248090000Y-85180000D02*
X248090000Y-85940000D01*
X248090000Y-85940000D02*
X246980000Y-85940000D01*
D12*
X189907500Y-58165000D02*
X197107500Y-58165000D01*
X189907500Y-78665000D02*
X189907500Y-58165000D01*
X197107500Y-58165000D02*
X197107500Y-78665000D01*
X197107500Y-78665000D02*
X189907500Y-78665000D01*
D13*
X204467500Y-92377258D02*
X204467500Y-91902742D01*
X205512500Y-92377258D02*
X205512500Y-91902742D01*
X243877500Y-84802742D02*
X243877500Y-85277258D01*
X244922500Y-84802742D02*
X244922500Y-85277258D01*
D12*
X228972500Y-58167500D02*
X236172500Y-58167500D01*
X228972500Y-78667500D02*
X228972500Y-58167500D01*
X236172500Y-58167500D02*
X236172500Y-78667500D01*
X236172500Y-78667500D02*
X228972500Y-78667500D01*
X243992500Y-78695000D02*
X236792500Y-78695000D01*
X243992500Y-58195000D02*
X243992500Y-78695000D01*
X236792500Y-78695000D02*
X236792500Y-58195000D01*
X236792500Y-58195000D02*
X243992500Y-58195000D01*
X172067500Y-50067500D02*
X181967500Y-50067500D01*
X172067500Y-57567500D02*
X172067500Y-50067500D01*
X181967500Y-50067500D02*
X181967500Y-57567500D01*
X181967500Y-57567500D02*
X172067500Y-57567500D01*
X251675000Y-135430000D02*
X244475000Y-135430000D01*
X251675000Y-114930000D02*
X251675000Y-135430000D01*
X244475000Y-135430000D02*
X244475000Y-114930000D01*
X244475000Y-114930000D02*
X251675000Y-114930000D01*
X157860000Y-135397500D02*
X150660000Y-135397500D01*
X157860000Y-114897500D02*
X157860000Y-135397500D01*
X150660000Y-135397500D02*
X150660000Y-114897500D01*
X150660000Y-114897500D02*
X157860000Y-114897500D01*
D13*
X235700580Y-101770000D02*
X235419420Y-101770000D01*
X235700580Y-102790000D02*
X235419420Y-102790000D01*
X240917500Y-111142742D02*
X240917500Y-111617258D01*
X241962500Y-111142742D02*
X241962500Y-111617258D01*
D12*
X201930000Y-143480000D02*
X192030000Y-143480000D01*
X201930000Y-135980000D02*
X201930000Y-143480000D01*
X192030000Y-143480000D02*
X192030000Y-135980000D01*
X192030000Y-135980000D02*
X201930000Y-135980000D01*
X143012500Y-58155000D02*
X150212500Y-58155000D01*
X143012500Y-78655000D02*
X143012500Y-58155000D01*
X150212500Y-58155000D02*
X150212500Y-78655000D01*
X150212500Y-78655000D02*
X143012500Y-78655000D01*
X205540000Y-58162500D02*
X212740000Y-58162500D01*
X205540000Y-78662500D02*
X205540000Y-58162500D01*
X212740000Y-58162500D02*
X212740000Y-78662500D01*
X212740000Y-78662500D02*
X205540000Y-78662500D01*
D13*
X193507742Y-89277500D02*
X193982258Y-89277500D01*
X193507742Y-90322500D02*
X193982258Y-90322500D01*
D12*
X192077500Y-50067500D02*
X201977500Y-50067500D01*
X192077500Y-57567500D02*
X192077500Y-50067500D01*
X201977500Y-50067500D02*
X201977500Y-57567500D01*
X201977500Y-57567500D02*
X192077500Y-57567500D01*
D13*
X236992742Y-103477500D02*
X237467258Y-103477500D01*
X236992742Y-104522500D02*
X237467258Y-104522500D01*
X201569723Y-103902742D02*
X201569723Y-104377258D01*
X202614723Y-103902742D02*
X202614723Y-104377258D01*
D12*
X161920000Y-143480000D02*
X152020000Y-143480000D01*
X161920000Y-135980000D02*
X161920000Y-143480000D01*
X152020000Y-143480000D02*
X152020000Y-135980000D01*
X152020000Y-135980000D02*
X161920000Y-135980000D01*
X221940000Y-143460000D02*
X212040000Y-143460000D01*
X221940000Y-135960000D02*
X221940000Y-143460000D01*
X212040000Y-143460000D02*
X212040000Y-135960000D01*
X212040000Y-135960000D02*
X221940000Y-135960000D01*
X197702500Y-58167500D02*
X204902500Y-58167500D01*
X197702500Y-78667500D02*
X197702500Y-58167500D01*
X204902500Y-58167500D02*
X204902500Y-78667500D01*
X204902500Y-78667500D02*
X197702500Y-78667500D01*
%LPC*%
D15*
X211792500Y-91430000D03*
X209967500Y-91430000D03*
D16*
X180075000Y-115975000D03*
X175375000Y-134475000D03*
X175375000Y-127475000D03*
X175375000Y-115975000D03*
D17*
X239490000Y-140200000D03*
X234490000Y-140200000D03*
D18*
X205127777Y-103315000D03*
X205127777Y-104965000D03*
D19*
X202020000Y-92965000D03*
X202020000Y-91315000D03*
X197570000Y-92965000D03*
X197570000Y-91315000D03*
D20*
X252800000Y-87730000D03*
X251300000Y-87730000D03*
X249800000Y-87730000D03*
X248300000Y-87730000D03*
X246800000Y-87730000D03*
X245300000Y-87730000D03*
X243800000Y-87730000D03*
X242300000Y-87730000D03*
X240800000Y-87730000D03*
X240800000Y-105230000D03*
X242300000Y-105230000D03*
X243800000Y-105230000D03*
X245300000Y-105230000D03*
X246800000Y-105230000D03*
X248300000Y-105230000D03*
X249800000Y-105230000D03*
X251300000Y-105230000D03*
X252800000Y-105230000D03*
D21*
X247150000Y-96340000D03*
X246050000Y-96340000D03*
X247700000Y-96890000D03*
X246600000Y-96890000D03*
X245500000Y-96890000D03*
X247150000Y-97440000D03*
D22*
X246600000Y-97440000D03*
D21*
X246050000Y-97440000D03*
X247700000Y-97990000D03*
X246600000Y-97990000D03*
X245500000Y-97990000D03*
X247150000Y-98540000D03*
X246050000Y-98540000D03*
D16*
X219120000Y-115987500D03*
X214420000Y-134487500D03*
X214420000Y-127487500D03*
X214420000Y-115987500D03*
D23*
X160500000Y-84890000D03*
X165550000Y-84890000D03*
X160500000Y-87430000D03*
X165550000Y-87430000D03*
X160500000Y-89970000D03*
X165550000Y-89970000D03*
X160500000Y-92510000D03*
X165550000Y-92510000D03*
X160500000Y-95050000D03*
X165550000Y-95050000D03*
X160500000Y-97590000D03*
X165550000Y-97590000D03*
X160500000Y-100130000D03*
X165550000Y-100130000D03*
X160500000Y-102670000D03*
X165550000Y-102670000D03*
X160500000Y-105210000D03*
X165550000Y-105210000D03*
X160500000Y-107750000D03*
X165550000Y-107750000D03*
D19*
X207940000Y-92965000D03*
X207940000Y-91315000D03*
D18*
X197540000Y-103315000D03*
X197540000Y-104965000D03*
X208163338Y-103315000D03*
X208163338Y-104965000D03*
D17*
X209537500Y-53367500D03*
X204537500Y-53367500D03*
D18*
X200574446Y-103315000D03*
X200574446Y-104965000D03*
D17*
X189470000Y-140180000D03*
X184470000Y-140180000D03*
D16*
X219285000Y-77615000D03*
X219285000Y-66115000D03*
X219285000Y-59115000D03*
X214585000Y-77615000D03*
X187870000Y-115977500D03*
X183170000Y-134477500D03*
X183170000Y-127477500D03*
X183170000Y-115977500D03*
D18*
X194503338Y-103315000D03*
X194503338Y-104965000D03*
D17*
X229490000Y-140200000D03*
X224490000Y-140200000D03*
X209480000Y-140140000D03*
X204480000Y-140140000D03*
D18*
X196021115Y-103315000D03*
X196021115Y-104965000D03*
X199030000Y-103315000D03*
X199030000Y-104965000D03*
D17*
X229537500Y-53367500D03*
X224537500Y-53367500D03*
X249540000Y-140210000D03*
X244540000Y-140210000D03*
D18*
X243070000Y-110565000D03*
X243070000Y-112215000D03*
D24*
X236325000Y-100730000D03*
X234775000Y-100730000D03*
D25*
X230110000Y-87860000D03*
D26*
X230110000Y-90400000D03*
X230110000Y-92940000D03*
X230110000Y-95480000D03*
X230110000Y-98020000D03*
X230110000Y-100560000D03*
X230110000Y-103100000D03*
X230110000Y-105640000D03*
D19*
X238130000Y-102305000D03*
X238130000Y-100655000D03*
X199080000Y-92965000D03*
X199080000Y-91315000D03*
D17*
X219527500Y-53367500D03*
X214527500Y-53367500D03*
D19*
X203530000Y-92965000D03*
X203530000Y-91315000D03*
D18*
X206645554Y-103315000D03*
X206645554Y-104965000D03*
D17*
X169517500Y-53367500D03*
X164517500Y-53367500D03*
X179470000Y-140180000D03*
X174470000Y-140180000D03*
D16*
X164582500Y-77615000D03*
X164582500Y-66115000D03*
X164582500Y-59115000D03*
X159882500Y-77615000D03*
X211325000Y-115985000D03*
X206625000Y-134485000D03*
X206625000Y-127485000D03*
X206625000Y-115985000D03*
X148815000Y-115945000D03*
X144115000Y-134445000D03*
X144115000Y-127445000D03*
X144115000Y-115945000D03*
X245837500Y-77647500D03*
X250537500Y-59147500D03*
X250537500Y-66147500D03*
X250537500Y-77647500D03*
D27*
X233530000Y-98730000D03*
X233530000Y-90730000D03*
X238030000Y-98730000D03*
X238030000Y-90730000D03*
D16*
X195705000Y-115995000D03*
X191005000Y-134495000D03*
X191005000Y-127495000D03*
X191005000Y-115995000D03*
D28*
X250570000Y-82485000D03*
X250570000Y-80935000D03*
D16*
X242630000Y-115977500D03*
X237930000Y-134477500D03*
X237930000Y-127477500D03*
X237930000Y-115977500D03*
X188007500Y-77617500D03*
X188007500Y-66117500D03*
X188007500Y-59117500D03*
X183307500Y-77617500D03*
X234770000Y-115987500D03*
X230070000Y-134487500D03*
X230070000Y-127487500D03*
X230070000Y-115987500D03*
D29*
X153250000Y-99030000D03*
X153250000Y-92030000D03*
D16*
X180212500Y-77615000D03*
X180212500Y-66115000D03*
X180212500Y-59115000D03*
X175512500Y-77615000D03*
D19*
X200530000Y-92965000D03*
X200530000Y-91315000D03*
D17*
X239547500Y-53367500D03*
X234547500Y-53367500D03*
D16*
X203500000Y-115997500D03*
X198800000Y-134497500D03*
X198800000Y-127497500D03*
X198800000Y-115997500D03*
D19*
X194590000Y-92965000D03*
X194590000Y-91315000D03*
D17*
X249557500Y-53367500D03*
X244557500Y-53367500D03*
D19*
X196060000Y-92965000D03*
X196060000Y-91315000D03*
D16*
X164445000Y-115975000D03*
X159745000Y-134475000D03*
X159745000Y-127475000D03*
X159745000Y-115975000D03*
D17*
X149470000Y-140180000D03*
X144470000Y-140180000D03*
D30*
X242280000Y-84120000D03*
D31*
X241010000Y-84120000D03*
D23*
X172320000Y-84920000D03*
X177370000Y-84920000D03*
X172320000Y-87460000D03*
X177370000Y-87460000D03*
X172320000Y-90000000D03*
X177370000Y-90000000D03*
X172320000Y-92540000D03*
X177370000Y-92540000D03*
X172320000Y-95080000D03*
X177370000Y-95080000D03*
X172320000Y-97620000D03*
X177370000Y-97620000D03*
X172320000Y-100160000D03*
X177370000Y-100160000D03*
X172320000Y-102700000D03*
X177370000Y-102700000D03*
X172320000Y-105240000D03*
X177370000Y-105240000D03*
X172320000Y-107780000D03*
X177370000Y-107780000D03*
D16*
X227127500Y-77615000D03*
X227127500Y-66115000D03*
X227127500Y-59115000D03*
X222427500Y-77615000D03*
D28*
X249970000Y-85545000D03*
X249970000Y-83995000D03*
D16*
X172377500Y-77617500D03*
X172377500Y-66117500D03*
X172377500Y-59117500D03*
X167677500Y-77617500D03*
D30*
X212800000Y-93222500D03*
D31*
X212800000Y-94492500D03*
X212800000Y-95762500D03*
X212800000Y-97032500D03*
X212800000Y-98302500D03*
X212800000Y-99572500D03*
X212800000Y-100842500D03*
X212800000Y-102112500D03*
D17*
X149567500Y-53367500D03*
X144567500Y-53367500D03*
D16*
X172240000Y-115977500D03*
X167540000Y-134477500D03*
X167540000Y-127477500D03*
X167540000Y-115977500D03*
X156757500Y-77607500D03*
X156757500Y-66107500D03*
X156757500Y-59107500D03*
X152057500Y-77607500D03*
D17*
X189527500Y-53367500D03*
X184527500Y-53367500D03*
X159527500Y-53367500D03*
X154527500Y-53367500D03*
X146260000Y-92880000D03*
X146260000Y-97880000D03*
D16*
X226975000Y-115985000D03*
X222275000Y-134485000D03*
X222275000Y-127485000D03*
X222275000Y-115985000D03*
D17*
X169470000Y-140180000D03*
X164470000Y-140180000D03*
D25*
X247330000Y-108260000D03*
D26*
X244790000Y-108260000D03*
X242250000Y-108260000D03*
X239710000Y-108260000D03*
D18*
X203610000Y-103315000D03*
X203610000Y-104965000D03*
D19*
X206460000Y-92965000D03*
X206460000Y-91315000D03*
D30*
X246980000Y-85180000D03*
D31*
X246980000Y-83910000D03*
D16*
X195857500Y-77615000D03*
X195857500Y-66115000D03*
X195857500Y-59115000D03*
X191157500Y-77615000D03*
D19*
X204990000Y-92965000D03*
X204990000Y-91315000D03*
D18*
X244400000Y-84215000D03*
X244400000Y-85865000D03*
D16*
X234922500Y-77617500D03*
X234922500Y-66117500D03*
X234922500Y-59117500D03*
X230222500Y-77617500D03*
X238042500Y-77645000D03*
X242742500Y-59145000D03*
X242742500Y-66145000D03*
X242742500Y-77645000D03*
D17*
X179517500Y-53367500D03*
X174517500Y-53367500D03*
D16*
X250425000Y-115980000D03*
X245725000Y-134480000D03*
X245725000Y-127480000D03*
X245725000Y-115980000D03*
X156610000Y-115947500D03*
X151910000Y-134447500D03*
X151910000Y-127447500D03*
X151910000Y-115947500D03*
D24*
X236335000Y-102280000D03*
X234785000Y-102280000D03*
D18*
X241440000Y-110555000D03*
X241440000Y-112205000D03*
D17*
X199480000Y-140180000D03*
X194480000Y-140180000D03*
D16*
X148962500Y-77605000D03*
X148962500Y-66105000D03*
X148962500Y-59105000D03*
X144262500Y-77605000D03*
X211490000Y-77612500D03*
X211490000Y-66112500D03*
X211490000Y-59112500D03*
X206790000Y-77612500D03*
D32*
X192920000Y-89800000D03*
X194570000Y-89800000D03*
D17*
X199527500Y-53367500D03*
X194527500Y-53367500D03*
D32*
X236405000Y-104000000D03*
X238055000Y-104000000D03*
D18*
X202092223Y-103315000D03*
X202092223Y-104965000D03*
D17*
X159470000Y-140180000D03*
X154470000Y-140180000D03*
X219490000Y-140160000D03*
X214490000Y-140160000D03*
D16*
X203652500Y-77617500D03*
X203652500Y-66117500D03*
X203652500Y-59117500D03*
X198952500Y-77617500D03*
%LPD*%
M02*
